<svg width="450" height="450" viewBox="0 0 450 450" fill="none" xmlns="http://www.w3.org/2000/svg">
<rect x="3.5" y="3.5" width="443" height="443" rx="221.5" fill="white" stroke="url(#paint0_linear_140_40917)" stroke-width="7"/>
<g filter="url(#filter0_d_140_40917)">
<path d="M89.6106 275L81.1406 260.04H77.5106V275H69.8106V236.61H84.2206C87.1906 236.61 89.7206 237.142 91.8106 238.205C93.9006 239.232 95.459 240.643 96.4856 242.44C97.549 244.2 98.0806 246.18 98.0806 248.38C98.0806 250.91 97.3473 253.202 95.8806 255.255C94.414 257.272 92.2323 258.665 89.3356 259.435L98.5206 275H89.6106ZM77.5106 254.265H83.9456C86.0356 254.265 87.594 253.77 88.6206 252.78C89.6473 251.753 90.1606 250.342 90.1606 248.545C90.1606 246.785 89.6473 245.428 88.6206 244.475C87.594 243.485 86.0356 242.99 83.9456 242.99H77.5106V254.265ZM133.37 259.105C133.37 260.205 133.297 261.195 133.15 262.075H110.875C111.058 264.275 111.828 265.998 113.185 267.245C114.542 268.492 116.21 269.115 118.19 269.115C121.05 269.115 123.085 267.887 124.295 265.43H132.6C131.72 268.363 130.033 270.783 127.54 272.69C125.047 274.56 121.985 275.495 118.355 275.495C115.422 275.495 112.782 274.853 110.435 273.57C108.125 272.25 106.31 270.398 104.99 268.015C103.707 265.632 103.065 262.882 103.065 259.765C103.065 256.612 103.707 253.843 104.99 251.46C106.273 249.077 108.07 247.243 110.38 245.96C112.69 244.677 115.348 244.035 118.355 244.035C121.252 244.035 123.837 244.658 126.11 245.905C128.42 247.152 130.198 248.93 131.445 251.24C132.728 253.513 133.37 256.135 133.37 259.105ZM125.395 256.905C125.358 254.925 124.643 253.348 123.25 252.175C121.857 250.965 120.152 250.36 118.135 250.36C116.228 250.36 114.615 250.947 113.295 252.12C112.012 253.257 111.223 254.852 110.93 256.905H125.395ZM150.65 275.495C148.157 275.495 145.92 275.055 143.94 274.175C141.96 273.258 140.384 272.03 139.21 270.49C138.074 268.95 137.45 267.245 137.34 265.375H145.095C145.242 266.548 145.81 267.52 146.8 268.29C147.827 269.06 149.092 269.445 150.595 269.445C152.062 269.445 153.199 269.152 154.005 268.565C154.849 267.978 155.27 267.227 155.27 266.31C155.27 265.32 154.757 264.587 153.73 264.11C152.74 263.597 151.145 263.047 148.945 262.46C146.672 261.91 144.802 261.342 143.335 260.755C141.905 260.168 140.659 259.27 139.595 258.06C138.569 256.85 138.055 255.218 138.055 253.165C138.055 251.478 138.532 249.938 139.485 248.545C140.475 247.152 141.869 246.052 143.665 245.245C145.499 244.438 147.644 244.035 150.1 244.035C153.73 244.035 156.627 244.952 158.79 246.785C160.954 248.582 162.145 251.02 162.365 254.1H154.995C154.885 252.89 154.372 251.937 153.455 251.24C152.575 250.507 151.384 250.14 149.88 250.14C148.487 250.14 147.405 250.397 146.635 250.91C145.902 251.423 145.535 252.138 145.535 253.055C145.535 254.082 146.049 254.87 147.075 255.42C148.102 255.933 149.697 256.465 151.86 257.015C154.06 257.565 155.875 258.133 157.305 258.72C158.735 259.307 159.964 260.223 160.99 261.47C162.054 262.68 162.604 264.293 162.64 266.31C162.64 268.07 162.145 269.647 161.155 271.04C160.202 272.433 158.809 273.533 156.975 274.34C155.179 275.11 153.07 275.495 150.65 275.495ZM197.286 259.105C197.286 260.205 197.213 261.195 197.066 262.075H174.791C174.974 264.275 175.744 265.998 177.101 267.245C178.458 268.492 180.126 269.115 182.106 269.115C184.966 269.115 187.001 267.887 188.211 265.43H196.516C195.636 268.363 193.949 270.783 191.456 272.69C188.963 274.56 185.901 275.495 182.271 275.495C179.338 275.495 176.698 274.853 174.351 273.57C172.041 272.25 170.226 270.398 168.906 268.015C167.623 265.632 166.981 262.882 166.981 259.765C166.981 256.612 167.623 253.843 168.906 251.46C170.189 249.077 171.986 247.243 174.296 245.96C176.606 244.677 179.264 244.035 182.271 244.035C185.168 244.035 187.753 244.658 190.026 245.905C192.336 247.152 194.114 248.93 195.361 251.24C196.644 253.513 197.286 256.135 197.286 259.105ZM189.311 256.905C189.274 254.925 188.559 253.348 187.166 252.175C185.773 250.965 184.068 250.36 182.051 250.36C180.144 250.36 178.531 250.947 177.211 252.12C175.928 253.257 175.139 254.852 174.846 256.905H189.311ZM200.926 259.655C200.926 256.575 201.531 253.843 202.741 251.46C203.988 249.077 205.656 247.243 207.746 245.96C209.873 244.677 212.238 244.035 214.841 244.035C217.115 244.035 219.095 244.493 220.781 245.41C222.505 246.327 223.88 247.482 224.906 248.875V244.53H232.661V275H224.906V270.545C223.916 271.975 222.541 273.167 220.781 274.12C219.058 275.037 217.06 275.495 214.786 275.495C212.22 275.495 209.873 274.835 207.746 273.515C205.656 272.195 203.988 270.343 202.741 267.96C201.531 265.54 200.926 262.772 200.926 259.655ZM224.906 259.765C224.906 257.895 224.54 256.3 223.806 254.98C223.073 253.623 222.083 252.597 220.836 251.9C219.59 251.167 218.251 250.8 216.821 250.8C215.391 250.8 214.071 251.148 212.861 251.845C211.651 252.542 210.661 253.568 209.891 254.925C209.158 256.245 208.791 257.822 208.791 259.655C208.791 261.488 209.158 263.102 209.891 264.495C210.661 265.852 211.651 266.897 212.861 267.63C214.108 268.363 215.428 268.73 216.821 268.73C218.251 268.73 219.59 268.382 220.836 267.685C222.083 266.952 223.073 265.925 223.806 264.605C224.54 263.248 224.906 261.635 224.906 259.765ZM247.882 249.26C248.872 247.647 250.155 246.382 251.732 245.465C253.345 244.548 255.178 244.09 257.232 244.09V252.175H255.197C252.777 252.175 250.943 252.743 249.697 253.88C248.487 255.017 247.882 256.997 247.882 259.82V275H240.182V244.53H247.882V249.26ZM260.438 259.765C260.438 256.612 261.08 253.862 262.363 251.515C263.646 249.132 265.425 247.298 267.698 246.015C269.971 244.695 272.575 244.035 275.508 244.035C279.285 244.035 282.401 244.988 284.858 246.895C287.351 248.765 289.02 251.405 289.863 254.815H281.558C281.118 253.495 280.366 252.468 279.303 251.735C278.276 250.965 276.993 250.58 275.453 250.58C273.253 250.58 271.511 251.387 270.228 253C268.945 254.577 268.303 256.832 268.303 259.765C268.303 262.662 268.945 264.917 270.228 266.53C271.511 268.107 273.253 268.895 275.453 268.895C278.57 268.895 280.605 267.502 281.558 264.715H289.863C289.02 268.015 287.351 270.637 284.858 272.58C282.365 274.523 279.248 275.495 275.508 275.495C272.575 275.495 269.971 274.853 267.698 273.57C265.425 272.25 263.646 270.417 262.363 268.07C261.08 265.687 260.438 262.918 260.438 259.765ZM312.664 244.09C314.974 244.09 317.027 244.603 318.824 245.63C320.621 246.62 322.014 248.105 323.004 250.085C324.031 252.028 324.544 254.375 324.544 257.125V275H316.844V258.17C316.844 255.75 316.239 253.898 315.029 252.615C313.819 251.295 312.169 250.635 310.079 250.635C307.952 250.635 306.266 251.295 305.019 252.615C303.809 253.898 303.204 255.75 303.204 258.17V275H295.504V234.3H303.204V248.325C304.194 247.005 305.514 245.978 307.164 245.245C308.814 244.475 310.647 244.09 312.664 244.09ZM374.507 275L370.327 270.875C366.77 274.065 362.425 275.66 357.292 275.66C354.468 275.66 351.975 275.183 349.812 274.23C347.685 273.24 346.035 271.865 344.862 270.105C343.688 268.308 343.102 266.237 343.102 263.89C343.102 261.36 343.817 259.087 345.247 257.07C346.677 255.053 348.785 253.422 351.572 252.175C350.582 250.965 349.867 249.81 349.427 248.71C348.987 247.573 348.767 246.363 348.767 245.08C348.767 243.32 349.225 241.743 350.142 240.35C351.058 238.92 352.36 237.802 354.047 236.995C355.77 236.188 357.768 235.785 360.042 235.785C362.352 235.785 364.332 236.225 365.982 237.105C367.632 237.985 368.86 239.158 369.667 240.625C370.473 242.092 370.822 243.723 370.712 245.52H363.232C363.268 244.31 362.975 243.393 362.352 242.77C361.728 242.11 360.885 241.78 359.822 241.78C358.795 241.78 357.933 242.092 357.237 242.715C356.577 243.302 356.247 244.072 356.247 245.025C356.247 245.942 356.522 246.858 357.072 247.775C357.622 248.655 358.52 249.755 359.767 251.075L369.447 260.645C369.52 260.572 369.575 260.498 369.612 260.425C369.648 260.352 369.685 260.278 369.722 260.205L372.857 254.98H380.887L377.037 261.745C376.303 263.175 375.515 264.532 374.672 265.815L383.967 275H374.507ZM357.512 269.28C360.518 269.28 363.177 268.217 365.487 266.09L356.027 256.74C352.47 258.317 350.692 260.553 350.692 263.45C350.692 265.1 351.315 266.493 352.562 267.63C353.808 268.73 355.458 269.28 357.512 269.28Z" fill="url(#paint1_linear_140_40917)" fill-opacity="0.98"/>
<path d="M68.7145 285.1C72.3811 285.1 75.5978 285.817 78.3645 287.25C81.1645 288.683 83.3145 290.733 84.8145 293.4C86.3478 296.033 87.1145 299.1 87.1145 302.6C87.1145 306.1 86.3478 309.167 84.8145 311.8C83.3145 314.4 81.1645 316.417 78.3645 317.85C75.5978 319.283 72.3811 320 68.7145 320H56.5145V285.1H68.7145ZM68.4645 314.05C72.1311 314.05 74.9645 313.05 76.9645 311.05C78.9645 309.05 79.9645 306.233 79.9645 302.6C79.9645 298.967 78.9645 296.133 76.9645 294.1C74.9645 292.033 72.1311 291 68.4645 291H63.5145V314.05H68.4645ZM118.104 305.55C118.104 306.55 118.038 307.45 117.904 308.25H97.6543C97.821 310.25 98.521 311.817 99.7543 312.95C100.988 314.083 102.504 314.65 104.304 314.65C106.904 314.65 108.754 313.533 109.854 311.3H117.404C116.604 313.967 115.071 316.167 112.804 317.9C110.538 319.6 107.754 320.45 104.454 320.45C101.788 320.45 99.3876 319.867 97.2543 318.7C95.1543 317.5 93.5043 315.817 92.3043 313.65C91.1376 311.483 90.5543 308.983 90.5543 306.15C90.5543 303.283 91.1376 300.767 92.3043 298.6C93.471 296.433 95.1043 294.767 97.2043 293.6C99.3043 292.433 101.721 291.85 104.454 291.85C107.088 291.85 109.438 292.417 111.504 293.55C113.604 294.683 115.221 296.3 116.354 298.4C117.521 300.467 118.104 302.85 118.104 305.55ZM110.854 303.55C110.821 301.75 110.171 300.317 108.904 299.25C107.638 298.15 106.088 297.6 104.254 297.6C102.521 297.6 101.054 298.133 99.8543 299.2C98.6876 300.233 97.971 301.683 97.7043 303.55H110.854ZM134.764 313.55L141.764 292.3H149.214L138.964 320H130.464L120.264 292.3H127.764L134.764 313.55ZM178.895 305.55C178.895 306.55 178.829 307.45 178.695 308.25H158.445C158.612 310.25 159.312 311.817 160.545 312.95C161.779 314.083 163.295 314.65 165.095 314.65C167.695 314.65 169.545 313.533 170.645 311.3H178.195C177.395 313.967 175.862 316.167 173.595 317.9C171.329 319.6 168.545 320.45 165.245 320.45C162.579 320.45 160.179 319.867 158.045 318.7C155.945 317.5 154.295 315.817 153.095 313.65C151.929 311.483 151.345 308.983 151.345 306.15C151.345 303.283 151.929 300.767 153.095 298.6C154.262 296.433 155.895 294.767 157.995 293.6C160.095 292.433 162.512 291.85 165.245 291.85C167.879 291.85 170.229 292.417 172.295 293.55C174.395 294.683 176.012 296.3 177.145 298.4C178.312 300.467 178.895 302.85 178.895 305.55ZM171.645 303.55C171.612 301.75 170.962 300.317 169.695 299.25C168.429 298.15 166.879 297.6 165.045 297.6C163.312 297.6 161.845 298.133 160.645 299.2C159.479 300.233 158.762 301.683 158.495 303.55H171.645ZM191.005 283V320H184.005V283H191.005ZM210.221 320.45C207.554 320.45 205.154 319.867 203.021 318.7C200.887 317.5 199.204 315.817 197.971 313.65C196.771 311.483 196.171 308.983 196.171 306.15C196.171 303.317 196.787 300.817 198.021 298.65C199.287 296.483 201.004 294.817 203.171 293.65C205.337 292.45 207.754 291.85 210.421 291.85C213.087 291.85 215.504 292.45 217.671 293.65C219.837 294.817 221.537 296.483 222.771 298.65C224.037 300.817 224.671 303.317 224.671 306.15C224.671 308.983 224.021 311.483 222.721 313.65C221.454 315.817 219.721 317.5 217.521 318.7C215.354 319.867 212.921 320.45 210.221 320.45ZM210.221 314.35C211.487 314.35 212.671 314.05 213.771 313.45C214.904 312.817 215.804 311.883 216.471 310.65C217.137 309.417 217.471 307.917 217.471 306.15C217.471 303.517 216.771 301.5 215.371 300.1C214.004 298.667 212.321 297.95 210.321 297.95C208.321 297.95 206.637 298.667 205.271 300.1C203.937 301.5 203.271 303.517 203.271 306.15C203.271 308.783 203.921 310.817 205.221 312.25C206.554 313.65 208.221 314.35 210.221 314.35ZM236.805 296.3C237.705 295.033 238.939 293.983 240.505 293.15C242.105 292.283 243.922 291.85 245.955 291.85C248.322 291.85 250.455 292.433 252.355 293.6C254.289 294.767 255.805 296.433 256.905 298.6C258.039 300.733 258.605 303.217 258.605 306.05C258.605 308.883 258.039 311.4 256.905 313.6C255.805 315.767 254.289 317.45 252.355 318.65C250.455 319.85 248.322 320.45 245.955 320.45C243.922 320.45 242.122 320.033 240.555 319.2C239.022 318.367 237.772 317.317 236.805 316.05V333.2H229.805V292.3H236.805V296.3ZM251.455 306.05C251.455 304.383 251.105 302.95 250.405 301.75C249.739 300.517 248.839 299.583 247.705 298.95C246.605 298.317 245.405 298 244.105 298C242.839 298 241.639 298.333 240.505 299C239.405 299.633 238.505 300.567 237.805 301.8C237.139 303.033 236.805 304.483 236.805 306.15C236.805 307.817 237.139 309.267 237.805 310.5C238.505 311.733 239.405 312.683 240.505 313.35C241.639 313.983 242.839 314.3 244.105 314.3C245.405 314.3 246.605 313.967 247.705 313.3C248.839 312.633 249.739 311.683 250.405 310.45C251.105 309.217 251.455 307.75 251.455 306.05ZM298.092 291.9C301.492 291.9 304.226 292.95 306.292 295.05C308.392 297.117 309.442 300.017 309.442 303.75V320H302.442V304.7C302.442 302.533 301.892 300.883 300.792 299.75C299.692 298.583 298.192 298 296.292 298C294.392 298 292.876 298.583 291.742 299.75C290.642 300.883 290.092 302.533 290.092 304.7V320H283.092V304.7C283.092 302.533 282.542 300.883 281.442 299.75C280.342 298.583 278.842 298 276.942 298C275.009 298 273.476 298.583 272.342 299.75C271.242 300.883 270.692 302.533 270.692 304.7V320H263.692V292.3H270.692V295.65C271.592 294.483 272.742 293.567 274.142 292.9C275.576 292.233 277.142 291.9 278.842 291.9C281.009 291.9 282.942 292.367 284.642 293.3C286.342 294.2 287.659 295.5 288.592 297.2C289.492 295.6 290.792 294.317 292.492 293.35C294.226 292.383 296.092 291.9 298.092 291.9ZM341.835 305.55C341.835 306.55 341.768 307.45 341.635 308.25H321.385C321.551 310.25 322.251 311.817 323.485 312.95C324.718 314.083 326.235 314.65 328.035 314.65C330.635 314.65 332.485 313.533 333.585 311.3H341.135C340.335 313.967 338.801 316.167 336.535 317.9C334.268 319.6 331.485 320.45 328.185 320.45C325.518 320.45 323.118 319.867 320.985 318.7C318.885 317.5 317.235 315.817 316.035 313.65C314.868 311.483 314.285 308.983 314.285 306.15C314.285 303.283 314.868 300.767 316.035 298.6C317.201 296.433 318.835 294.767 320.935 293.6C323.035 292.433 325.451 291.85 328.185 291.85C330.818 291.85 333.168 292.417 335.235 293.55C337.335 294.683 338.951 296.3 340.085 298.4C341.251 300.467 341.835 302.85 341.835 305.55ZM334.585 303.55C334.551 301.75 333.901 300.317 332.635 299.25C331.368 298.15 329.818 297.6 327.985 297.6C326.251 297.6 324.785 298.133 323.585 299.2C322.418 300.233 321.701 301.683 321.435 303.55H334.585ZM362.294 291.9C365.594 291.9 368.261 292.95 370.294 295.05C372.327 297.117 373.344 300.017 373.344 303.75V320H366.344V304.7C366.344 302.5 365.794 300.817 364.694 299.65C363.594 298.45 362.094 297.85 360.194 297.85C358.261 297.85 356.727 298.45 355.594 299.65C354.494 300.817 353.944 302.5 353.944 304.7V320H346.944V292.3H353.944V295.75C354.877 294.55 356.061 293.617 357.494 292.95C358.961 292.25 360.561 291.9 362.294 291.9ZM388.151 298.05V311.45C388.151 312.383 388.367 313.067 388.801 313.5C389.267 313.9 390.034 314.1 391.101 314.1H394.351V320H389.951C384.051 320 381.101 317.133 381.101 311.4V298.05H377.801V292.3H381.101V285.45H388.151V292.3H394.351V298.05H388.151Z" fill="url(#paint2_linear_140_40917)" fill-opacity="0.98"/>
</g>
<g filter="url(#filter1_d_140_40917)">
<path fill-rule="evenodd" clip-rule="evenodd" d="M185.022 109.373C184.383 109.85 183.762 110.354 183.161 110.885C180.795 113.63 178.771 116.715 177.172 120.086L175.583 123.437L152.067 177.535L147.884 187.159C143.551 197.128 150.93 208.253 161.8 208.137L164.321 208.111L210.719 207.084C216.576 206.955 221.821 203.428 224.15 198.054L225.635 194.63L225.999 194.782L250.8 138.808L259.101 121.515C265.804 107.549 279.796 98.5693 295.25 98.2638L269.337 96.9738L269.415 96.7971L258.645 96.261L215.125 96.491C211.799 96.5086 208.538 96.9281 205.398 97.7131C197.595 99.5349 190.513 103.606 185.022 109.373Z" fill="url(#paint3_linear_140_40917)"/>
<circle cx="323.823" cy="116.127" r="15" fill="url(#paint4_linear_140_40917)"/>
<path fill-rule="evenodd" clip-rule="evenodd" d="M313.756 106.796C319.164 100.971 328.12 100.41 334.2 105.352C334.085 105.231 333.969 105.112 333.85 104.994C327.769 99.7083 318.546 100.167 313.023 106.115C307.501 112.064 307.727 121.295 313.449 126.968C313.576 127.077 313.704 127.185 313.833 127.29C308.453 121.593 308.348 112.62 313.756 106.796Z" fill="url(#paint5_linear_140_40917)"/>
<path fill-rule="evenodd" clip-rule="evenodd" d="M321.918 129.222C330.202 129.222 336.918 122.506 336.918 114.222C336.918 110.334 335.439 106.792 333.013 104.127C336.026 106.871 337.918 110.825 337.918 115.222C337.918 123.506 331.202 130.222 322.918 130.222C318.521 130.222 314.566 128.33 311.823 125.317C314.488 127.743 318.03 129.222 321.918 129.222Z" fill="url(#paint6_linear_140_40917)"/>
<path fill-rule="evenodd" clip-rule="evenodd" d="M200.897 98.4276C200.171 98.7677 199.462 99.137 198.77 99.5339C191.295 102.279 184.744 107.159 179.97 113.594C178.001 116.163 176.319 118.989 174.981 122.033L157.466 161.874L153.676 171.969L153.869 171.967L146.42 191.808L146.449 192.944C153.417 180.757 166.228 172.882 180.456 172.333L199.625 171.593L260.845 171.091L260.85 170.696L264.582 170.696C270.44 170.695 275.761 167.285 278.208 161.963L297.598 119.798L298.625 117.495C303.053 107.567 295.78 96.3731 284.909 96.3855L274.416 96.3975L215.428 96.4646L211.721 96.5905C207.992 96.7172 204.357 97.3475 200.897 98.4276Z" fill="url(#paint7_linear_140_40917)"/>
<path fill-rule="evenodd" clip-rule="evenodd" d="M146.455 192.364L150.749 180.926C158.042 172.787 168.429 167.749 179.707 167.314L198.875 166.573L260.096 166.072L260.101 165.677L263.833 165.677C269.69 165.676 275.012 162.266 277.459 156.944L296.849 114.779L297.876 112.476C298.831 110.335 299.242 108.134 299.189 106C300.55 109.522 300.606 113.596 298.876 117.476L297.849 119.779L278.459 161.944C276.012 167.266 270.69 170.676 264.833 170.677L261.101 170.677L261.096 171.072L199.875 171.573L180.707 172.314C166.339 172.868 153.415 180.894 146.495 193.286L146.455 192.364Z" fill="url(#paint8_linear_140_40917)"/>
<path fill-rule="evenodd" clip-rule="evenodd" d="M282.459 153L294.441 127.178L298.858 117.66C303.434 107.799 296.328 96.4977 285.458 96.3477L282.937 96.3129L236.528 96.2061C233.135 96.1983 229.919 97.3348 227.336 99.3256C229.365 98.3291 231.63 97.7854 233.981 97.7908L280.39 97.8976L282.911 97.9324C293.781 98.0824 300.886 109.384 296.311 119.245L291.894 128.763L280.647 153H282.459Z" fill="url(#paint9_linear_140_40917)"/>
</g>
<defs>
<filter id="filter0_d_140_40917" x="52.5144" y="234.3" width="345.836" height="106.9" filterUnits="userSpaceOnUse" color-interpolation-filters="sRGB">
<feFlood flood-opacity="0" result="BackgroundImageFix"/>
<feColorMatrix in="SourceAlpha" type="matrix" values="0 0 0 0 0 0 0 0 0 0 0 0 0 0 0 0 0 0 127 0" result="hardAlpha"/>
<feOffset dy="4"/>
<feGaussianBlur stdDeviation="2"/>
<feComposite in2="hardAlpha" operator="out"/>
<feColorMatrix type="matrix" values="0 0 0 0 0 0 0 0 0 0 0 0 0 0 0 0 0 0 0.25 0"/>
<feBlend mode="normal" in2="BackgroundImageFix" result="effect1_dropShadow_140_40917"/>
<feBlend mode="normal" in="SourceGraphic" in2="effect1_dropShadow_140_40917" result="shape"/>
</filter>
<filter id="filter1_d_140_40917" x="138.42" y="93.2061" width="208.403" height="127.932" filterUnits="userSpaceOnUse" color-interpolation-filters="sRGB">
<feFlood flood-opacity="0" result="BackgroundImageFix"/>
<feColorMatrix in="SourceAlpha" type="matrix" values="0 0 0 0 0 0 0 0 0 0 0 0 0 0 0 0 0 0 127 0" result="hardAlpha"/>
<feOffset dy="5"/>
<feGaussianBlur stdDeviation="4"/>
<feComposite in2="hardAlpha" operator="out"/>
<feColorMatrix type="matrix" values="0 0 0 0 0 0 0 0 0 0 0 0 0 0 0 0 0 0 0.25 0"/>
<feBlend mode="normal" in2="BackgroundImageFix" result="effect1_dropShadow_140_40917"/>
<feBlend mode="normal" in="SourceGraphic" in2="effect1_dropShadow_140_40917" result="shape"/>
</filter>
<linearGradient id="paint0_linear_140_40917" x1="-5.94921e-06" y1="256" x2="225" y2="716" gradientUnits="userSpaceOnUse">
<stop stop-color="#001EBD"/>
<stop offset="0.445" stop-color="#AE43E0"/>
<stop offset="1" stop-color="#D98AFF"/>
</linearGradient>
<linearGradient id="paint1_linear_140_40917" x1="-45.7172" y1="258.464" x2="417.36" y2="254.55" gradientUnits="userSpaceOnUse">
<stop stop-color="#000E57" stop-opacity="0.98"/>
<stop offset="0.49" stop-color="#6500DD"/>
<stop offset="1" stop-color="#C54AFF"/>
</linearGradient>
<linearGradient id="paint2_linear_140_40917" x1="-67.5" y1="305.179" x2="431.967" y2="300.139" gradientUnits="userSpaceOnUse">
<stop stop-color="#000E57" stop-opacity="0.98"/>
<stop offset="0.49" stop-color="#6500DD"/>
<stop offset="1" stop-color="#C54AFF"/>
</linearGradient>
<linearGradient id="paint3_linear_140_40917" x1="264.368" y1="88.5736" x2="123.602" y2="246.783" gradientUnits="userSpaceOnUse">
<stop stop-color="#330086" stop-opacity="0.98"/>
<stop offset="0.311" stop-color="#6500DD"/>
<stop offset="1" stop-color="#D98AFF"/>
</linearGradient>
<linearGradient id="paint4_linear_140_40917" x1="342.823" y1="131.127" x2="301.323" y2="98.627" gradientUnits="userSpaceOnUse">
<stop stop-color="#B15500"/>
<stop offset="1" stop-color="#FFDD55"/>
</linearGradient>
<linearGradient id="paint5_linear_140_40917" x1="314.822" y1="105.628" x2="316.822" y2="108.628" gradientUnits="userSpaceOnUse">
<stop stop-color="white"/>
<stop offset="1" stop-color="white" stop-opacity="0"/>
</linearGradient>
<linearGradient id="paint6_linear_140_40917" x1="339.323" y1="126.127" x2="329.323" y2="118.627" gradientUnits="userSpaceOnUse">
<stop stop-color="#FFCC00"/>
<stop offset="1" stop-color="#FFCC00" stop-opacity="0"/>
</linearGradient>
<linearGradient id="paint7_linear_140_40917" x1="148.137" y1="164.068" x2="349.273" y2="97.8121" gradientUnits="userSpaceOnUse">
<stop stop-color="#330086" stop-opacity="0.98"/>
<stop offset="0.311" stop-color="#6500DD"/>
<stop offset="1" stop-color="#D98AFF"/>
</linearGradient>
<linearGradient id="paint8_linear_140_40917" x1="148.388" y1="164.049" x2="349.523" y2="97.7931" gradientUnits="userSpaceOnUse">
<stop stop-color="#6500DD"/>
<stop offset="0.311" stop-color="#6500DD"/>
<stop offset="1" stop-color="#D98AFF"/>
</linearGradient>
<linearGradient id="paint9_linear_140_40917" x1="301.671" y1="100.368" x2="281.578" y2="122.023" gradientUnits="userSpaceOnUse">
<stop stop-color="white"/>
<stop offset="1" stop-color="white" stop-opacity="0"/>
</linearGradient>
</defs>
</svg>
