<svg width="450" height="450" viewBox="0 0 450 450" fill="none" xmlns="http://www.w3.org/2000/svg">
<rect x="3.5" y="3.5" width="443" height="443" rx="221.5" fill="white" stroke="url(#paint0_linear_141_61097)" stroke-width="7"/>
<g filter="url(#filter0_d_141_61097)">
<path d="M70.6463 325.6C70.6463 321.205 71.6276 317.28 73.5903 313.824C75.5956 310.325 78.3049 307.616 81.7183 305.696C85.1743 303.733 89.0356 302.752 93.3023 302.752C98.2943 302.752 102.668 304.032 106.422 306.592C110.177 309.152 112.801 312.693 114.294 317.216H103.99C102.966 315.083 101.516 313.483 99.6383 312.416C97.8036 311.349 95.6703 310.816 93.2383 310.816C90.6356 310.816 88.3103 311.435 86.2623 312.672C84.2569 313.867 82.6783 315.573 81.5263 317.792C80.4169 320.011 79.8623 322.613 79.8623 325.6C79.8623 328.544 80.4169 331.147 81.5263 333.408C82.6783 335.627 84.2569 337.355 86.2623 338.592C88.3103 339.787 90.6356 340.384 93.2383 340.384C95.6703 340.384 97.8036 339.851 99.6383 338.784C101.516 337.675 102.966 336.053 103.99 333.92H114.294C112.801 338.485 110.177 342.048 106.422 344.608C102.71 347.125 98.3369 348.384 93.3023 348.384C89.0356 348.384 85.1743 347.424 81.7183 345.504C78.3049 343.541 75.5956 340.832 73.5903 337.376C71.6276 333.92 70.6463 329.995 70.6463 325.6ZM130.907 318.048C132.059 316.171 133.553 314.699 135.387 313.632C137.265 312.565 139.398 312.032 141.787 312.032V321.44H139.419C136.603 321.44 134.47 322.101 133.019 323.424C131.611 324.747 130.907 327.051 130.907 330.336V348H121.947V312.544H130.907V318.048ZM180.782 329.504C180.782 330.784 180.697 331.936 180.526 332.96H154.606C154.82 335.52 155.716 337.525 157.294 338.976C158.873 340.427 160.814 341.152 163.118 341.152C166.446 341.152 168.814 339.723 170.222 336.864H179.886C178.862 340.277 176.9 343.093 173.998 345.312C171.097 347.488 167.534 348.576 163.31 348.576C159.897 348.576 156.825 347.829 154.094 346.336C151.406 344.8 149.294 342.645 147.758 339.872C146.265 337.099 145.518 333.899 145.518 330.272C145.518 326.603 146.265 323.381 147.758 320.608C149.252 317.835 151.342 315.701 154.03 314.208C156.718 312.715 159.812 311.968 163.31 311.968C166.681 311.968 169.689 312.693 172.334 314.144C175.022 315.595 177.092 317.664 178.542 320.352C180.036 322.997 180.782 326.048 180.782 329.504ZM171.502 326.944C171.46 324.64 170.628 322.805 169.006 321.44C167.385 320.032 165.401 319.328 163.054 319.328C160.836 319.328 158.958 320.011 157.422 321.376C155.929 322.699 155.012 324.555 154.67 326.944H171.502ZM185.018 330.144C185.018 326.56 185.722 323.381 187.13 320.608C188.581 317.835 190.522 315.701 192.954 314.208C195.429 312.715 198.181 311.968 201.21 311.968C203.856 311.968 206.16 312.501 208.122 313.568C210.128 314.635 211.728 315.979 212.922 317.6V312.544H221.946V348H212.922V342.816C211.77 344.48 210.17 345.867 208.122 346.976C206.117 348.043 203.792 348.576 201.146 348.576C198.16 348.576 195.429 347.808 192.954 346.272C190.522 344.736 188.581 342.581 187.13 339.808C185.722 336.992 185.018 333.771 185.018 330.144ZM212.922 330.272C212.922 328.096 212.496 326.24 211.642 324.704C210.789 323.125 209.637 321.931 208.186 321.12C206.736 320.267 205.178 319.84 203.514 319.84C201.85 319.84 200.314 320.245 198.906 321.056C197.498 321.867 196.346 323.061 195.45 324.64C194.597 326.176 194.17 328.011 194.17 330.144C194.17 332.277 194.597 334.155 195.45 335.776C196.346 337.355 197.498 338.571 198.906 339.424C200.357 340.277 201.893 340.704 203.514 340.704C205.178 340.704 206.736 340.299 208.186 339.488C209.637 338.635 210.789 337.44 211.642 335.904C212.496 334.325 212.922 332.448 212.922 330.272ZM241.129 319.904V337.056C241.129 338.251 241.407 339.125 241.961 339.68C242.559 340.192 243.54 340.448 244.905 340.448H249.065V348H243.433C235.881 348 232.105 344.331 232.105 336.992V319.904H227.881V312.544H232.105V303.776H241.129V312.544H249.065V319.904H241.129ZM260.054 308.32C258.475 308.32 257.152 307.829 256.086 306.848C255.062 305.824 254.55 304.565 254.55 303.072C254.55 301.579 255.062 300.341 256.086 299.36C257.152 298.336 258.475 297.824 260.054 297.824C261.632 297.824 262.934 298.336 263.958 299.36C265.024 300.341 265.558 301.579 265.558 303.072C265.558 304.565 265.024 305.824 263.958 306.848C262.934 307.829 261.632 308.32 260.054 308.32ZM264.47 312.544V348H255.51V312.544H264.47ZM288.106 339.744L297.066 312.544H306.602L293.482 348H282.602L269.546 312.544H279.146L288.106 339.744ZM344.595 329.504C344.595 330.784 344.509 331.936 344.339 332.96H318.419C318.632 335.52 319.528 337.525 321.107 338.976C322.685 340.427 324.627 341.152 326.931 341.152C330.259 341.152 332.627 339.723 334.035 336.864H343.699C342.675 340.277 340.712 343.093 337.811 345.312C334.909 347.488 331.347 348.576 327.123 348.576C323.709 348.576 320.637 347.829 317.907 346.336C315.219 344.8 313.107 342.645 311.571 339.872C310.077 337.099 309.331 333.899 309.331 330.272C309.331 326.603 310.077 323.381 311.571 320.608C313.064 317.835 315.155 315.701 317.843 314.208C320.531 312.715 323.624 311.968 327.123 311.968C330.493 311.968 333.501 312.693 336.147 314.144C338.835 315.595 340.904 317.664 342.355 320.352C343.848 322.997 344.595 326.048 344.595 329.504ZM335.315 326.944C335.272 324.64 334.44 322.805 332.819 321.44C331.197 320.032 329.213 319.328 326.867 319.328C324.648 319.328 322.771 320.011 321.235 321.376C319.741 322.699 318.824 324.555 318.483 326.944H335.315ZM364.703 348.576C361.801 348.576 359.199 348.064 356.895 347.04C354.591 345.973 352.756 344.544 351.391 342.752C350.068 340.96 349.343 338.976 349.215 336.8H358.239C358.409 338.165 359.071 339.296 360.223 340.192C361.417 341.088 362.889 341.536 364.639 341.536C366.345 341.536 367.668 341.195 368.607 340.512C369.588 339.829 370.079 338.955 370.079 337.888C370.079 336.736 369.481 335.883 368.287 335.328C367.135 334.731 365.279 334.091 362.719 333.408C360.073 332.768 357.897 332.107 356.191 331.424C354.527 330.741 353.076 329.696 351.839 328.288C350.644 326.88 350.047 324.981 350.047 322.592C350.047 320.629 350.601 318.837 351.711 317.216C352.863 315.595 354.484 314.315 356.575 313.376C358.708 312.437 361.204 311.968 364.063 311.968C368.287 311.968 371.657 313.035 374.175 315.168C376.692 317.259 378.079 320.096 378.335 323.68H369.759C369.631 322.272 369.033 321.163 367.967 320.352C366.943 319.499 365.556 319.072 363.807 319.072C362.185 319.072 360.927 319.371 360.031 319.968C359.177 320.565 358.751 321.397 358.751 322.464C358.751 323.659 359.348 324.576 360.543 325.216C361.737 325.813 363.593 326.432 366.111 327.072C368.671 327.712 370.783 328.373 372.447 329.056C374.111 329.739 375.54 330.805 376.735 332.256C377.972 333.664 378.612 335.541 378.655 337.888C378.655 339.936 378.079 341.771 376.927 343.392C375.817 345.013 374.196 346.293 372.063 347.232C369.972 348.128 367.519 348.576 364.703 348.576Z" fill="url(#paint1_linear_141_61097)" fill-opacity="0.98"/>
</g>
<g filter="url(#filter1_d_141_61097)">
<circle cx="229.26" cy="70.7447" r="15" transform="rotate(-57.0636 229.26 70.7447)" fill="url(#paint2_linear_141_61097)"/>
<path fill-rule="evenodd" clip-rule="evenodd" d="M215.955 74.1196C214.006 66.4139 218.405 58.5926 225.859 56.1772C225.695 56.2073 225.532 56.2402 225.368 56.2759C217.625 58.5056 212.996 66.4954 214.985 74.3647C216.975 82.234 224.846 87.063 232.718 85.3447C232.879 85.2984 233.038 85.2496 233.197 85.1983C225.491 86.6159 217.903 81.8253 215.955 74.1196Z" fill="url(#paint3_linear_141_61097)"/>
<path fill-rule="evenodd" clip-rule="evenodd" d="M239.214 79.4634C243.718 72.5106 241.733 63.2229 234.78 58.7187C231.518 56.6049 227.74 55.9202 224.185 56.5075C228.126 55.4699 232.474 56.0327 236.163 58.4231C243.116 62.9273 245.101 72.215 240.597 79.1678C238.207 82.8577 234.469 85.1484 230.448 85.8125C233.933 84.8951 237.1 82.7263 239.214 79.4634Z" fill="url(#paint4_linear_141_61097)"/>
<path fill-rule="evenodd" clip-rule="evenodd" d="M174.274 190.986C174.335 191.781 174.428 192.575 174.555 193.367C175.607 196.835 177.129 200.196 179.12 203.352L181.1 206.488L214.203 255.311L220.092 263.996C226.193 272.994 239.54 272.717 245.261 263.474L246.588 261.33L270.561 221.591C273.587 216.576 273.416 210.257 270.124 205.413L268.026 202.326L268.35 202.1L234.351 151.186L224.188 134.917C215.98 121.779 215.887 105.153 223.902 91.9366L208.94 113.133L208.832 112.973L202.614 121.782L179.509 158.664C177.744 161.482 176.352 164.461 175.334 167.534C172.696 175.099 172.342 183.261 174.274 190.986Z" fill="url(#paint5_linear_141_61097)"/>
<path fill-rule="evenodd" clip-rule="evenodd" d="M173.528 171.718C173.427 172.513 173.359 173.31 173.324 174.107C171.64 181.89 172.255 190.036 175.134 197.513C176.25 200.551 177.737 203.484 179.592 206.245L203.866 242.367L210.363 250.973L210.465 250.809L223.235 267.722L224.211 268.306C217.647 255.897 217.854 240.86 225.008 228.548L234.644 211.962L266.995 159.985L266.664 159.769L268.662 156.617C271.797 151.669 271.765 145.349 268.581 140.433L243.347 101.482L241.952 99.382C235.937 90.3271 222.588 90.4777 216.779 99.666L211.172 108.535L179.649 158.394L177.771 161.592C175.881 164.81 174.468 168.218 173.528 171.718Z" fill="url(#paint6_linear_141_61097)"/>
<path fill-rule="evenodd" clip-rule="evenodd" d="M223.724 267.991L216.362 258.24C213.391 247.723 214.697 236.253 220.367 226.494L230.004 209.908L262.355 157.931L262.024 157.715L264.021 154.563C267.157 149.615 267.125 143.295 263.94 138.379L238.707 99.4281L237.312 97.328C236.014 95.3748 234.376 93.8499 232.545 92.7516C236.248 93.4883 239.72 95.6211 242.07 99.1601L243.465 101.26L268.699 140.211C271.884 145.127 271.915 151.447 268.78 156.395L266.782 159.547L267.114 159.763L234.762 211.74L225.126 228.326C217.902 240.759 217.762 255.971 224.524 268.45L223.724 267.991Z" fill="url(#paint7_linear_141_61097)"/>
<path fill-rule="evenodd" clip-rule="evenodd" d="M263.286 132.044L247.891 108.1L242.216 99.2738C236.337 90.13 222.987 90.0812 217.042 99.1817L215.663 101.292L190.727 140.434C188.904 143.295 188.142 146.62 188.441 149.868C188.685 147.621 189.439 145.416 190.702 143.434L215.637 104.292L217.016 102.182C222.962 93.0811 236.312 93.1299 242.191 102.274L247.866 111.1L262.316 133.574L263.286 132.044Z" fill="url(#paint8_linear_141_61097)"/>
</g>
<defs>
<filter id="filter0_d_141_61097" x="66.6462" y="297.824" width="316.009" height="58.752" filterUnits="userSpaceOnUse" color-interpolation-filters="sRGB">
<feFlood flood-opacity="0" result="BackgroundImageFix"/>
<feColorMatrix in="SourceAlpha" type="matrix" values="0 0 0 0 0 0 0 0 0 0 0 0 0 0 0 0 0 0 127 0" result="hardAlpha"/>
<feOffset dy="4"/>
<feGaussianBlur stdDeviation="2"/>
<feComposite in2="hardAlpha" operator="out"/>
<feColorMatrix type="matrix" values="0 0 0 0 0 0 0 0 0 0 0 0 0 0 0 0 0 0 0.25 0"/>
<feBlend mode="normal" in2="BackgroundImageFix" result="effect1_dropShadow_141_61097"/>
<feBlend mode="normal" in="SourceGraphic" in2="effect1_dropShadow_141_61097" result="shape"/>
</filter>
<filter id="filter1_d_141_61097" x="164.397" y="52.7429" width="116.32" height="230.836" filterUnits="userSpaceOnUse" color-interpolation-filters="sRGB">
<feFlood flood-opacity="0" result="BackgroundImageFix"/>
<feColorMatrix in="SourceAlpha" type="matrix" values="0 0 0 0 0 0 0 0 0 0 0 0 0 0 0 0 0 0 127 0" result="hardAlpha"/>
<feOffset dy="5"/>
<feGaussianBlur stdDeviation="4"/>
<feComposite in2="hardAlpha" operator="out"/>
<feColorMatrix type="matrix" values="0 0 0 0 0 0 0 0 0 0 0 0 0 0 0 0 0 0 0.25 0"/>
<feBlend mode="normal" in2="BackgroundImageFix" result="effect1_dropShadow_141_61097"/>
<feBlend mode="normal" in="SourceGraphic" in2="effect1_dropShadow_141_61097" result="shape"/>
</filter>
<linearGradient id="paint0_linear_141_61097" x1="-5.94921e-06" y1="256" x2="225" y2="716" gradientUnits="userSpaceOnUse">
<stop stop-color="#001EBD"/>
<stop offset="0.445" stop-color="#AE43E0"/>
<stop offset="1" stop-color="#D98AFF"/>
</linearGradient>
<linearGradient id="paint1_linear_141_61097" x1="-42.312" y1="329.429" x2="414.949" y2="326.129" gradientUnits="userSpaceOnUse">
<stop stop-color="#000E57" stop-opacity="0.98"/>
<stop offset="0.49" stop-color="#6500DD"/>
<stop offset="1" stop-color="#C54AFF"/>
</linearGradient>
<linearGradient id="paint2_linear_141_61097" x1="248.26" y1="85.7447" x2="206.76" y2="53.2447" gradientUnits="userSpaceOnUse">
<stop stop-color="#B15500"/>
<stop offset="1" stop-color="#FFDD55"/>
</linearGradient>
<linearGradient id="paint3_linear_141_61097" x1="215.554" y1="72.5899" x2="219.16" y2="72.5425" gradientUnits="userSpaceOnUse">
<stop stop-color="white"/>
<stop offset="1" stop-color="white" stop-opacity="0"/>
</linearGradient>
<linearGradient id="paint4_linear_141_61097" x1="246.08" y1="63.173" x2="234.348" y2="67.4879" gradientUnits="userSpaceOnUse">
<stop stop-color="#FFCC00"/>
<stop offset="1" stop-color="#FFCC00" stop-opacity="0"/>
</linearGradient>
<linearGradient id="paint5_linear_141_61097" x1="199.184" y1="112.833" x2="257.453" y2="316.426" gradientUnits="userSpaceOnUse">
<stop stop-color="#330086" stop-opacity="0.98"/>
<stop offset="0.311" stop-color="#6500DD"/>
<stop offset="1" stop-color="#D98AFF"/>
</linearGradient>
<linearGradient id="paint6_linear_141_61097" x1="200.725" y1="251.421" x2="252.441" y2="46.0663" gradientUnits="userSpaceOnUse">
<stop stop-color="#330086" stop-opacity="0.98"/>
<stop offset="0.311" stop-color="#6500DD"/>
<stop offset="1" stop-color="#D98AFF"/>
</linearGradient>
<linearGradient id="paint7_linear_141_61097" x1="200.843" y1="251.199" x2="252.56" y2="45.8445" gradientUnits="userSpaceOnUse">
<stop stop-color="#6500DD"/>
<stop offset="0.311" stop-color="#6500DD"/>
<stop offset="1" stop-color="#D98AFF"/>
</linearGradient>
<linearGradient id="paint8_linear_141_61097" x1="229.117" y1="87.64" x2="236.65" y2="116.204" gradientUnits="userSpaceOnUse">
<stop stop-color="white"/>
<stop offset="1" stop-color="white" stop-opacity="0"/>
</linearGradient>
</defs>
</svg>
