<svg width="500" height="500" viewBox="0 0 500 500" fill="none" xmlns="http://www.w3.org/2000/svg">
<circle cx="250" cy="250" r="242.5" fill="white" stroke="url(#paint0_linear_125_12387)" stroke-width="15"/>
<g filter="url(#filter0_d_125_12387)">
<path d="M79.2589 362.296C82.6189 362.296 85.0669 362.956 86.6029 364.276C88.1389 365.596 88.9069 367.456 88.9069 369.856C88.9069 370.912 88.7269 371.932 88.3669 372.916C88.0309 373.876 87.4669 374.74 86.6749 375.508C85.8829 376.276 84.8269 376.888 83.5069 377.344C82.1869 377.776 80.5669 377.992 78.6469 377.992H75.6949V388H72.4549V362.296H79.2589ZM78.9709 365.068H75.6949V375.22H78.2869C79.9189 375.22 81.2749 375.052 82.3549 374.716C83.4349 374.356 84.2389 373.792 84.7669 373.024C85.2949 372.256 85.5589 371.248 85.5589 370C85.5589 368.344 85.0309 367.108 83.9749 366.292C82.9189 365.476 81.2509 365.068 78.9709 365.068ZM113.8 378.928C113.8 380.704 113.44 382.312 112.72 383.752C112 385.168 110.896 386.296 109.408 387.136C107.944 387.952 106.072 388.36 103.792 388.36C100.6 388.36 98.1638 387.496 96.4838 385.768C94.8278 384.016 93.9998 381.712 93.9998 378.856V362.296H97.2398V378.964C97.2398 381.052 97.7918 382.672 98.8958 383.824C100.024 384.976 101.716 385.552 103.972 385.552C105.532 385.552 106.792 385.276 107.752 384.724C108.736 384.148 109.456 383.368 109.912 382.384C110.368 381.376 110.596 380.224 110.596 378.928V362.296H113.8V378.928ZM127.388 362.296C130.748 362.296 133.196 362.956 134.732 364.276C136.268 365.596 137.036 367.456 137.036 369.856C137.036 370.912 136.856 371.932 136.496 372.916C136.16 373.876 135.596 374.74 134.804 375.508C134.012 376.276 132.956 376.888 131.636 377.344C130.316 377.776 128.696 377.992 126.776 377.992H123.824V388H120.584V362.296H127.388ZM127.1 365.068H123.824V375.22H126.416C128.048 375.22 129.404 375.052 130.484 374.716C131.564 374.356 132.368 373.792 132.896 373.024C133.424 372.256 133.688 371.248 133.688 370C133.688 368.344 133.16 367.108 132.104 366.292C131.048 365.476 129.38 365.068 127.1 365.068ZM163.072 388L154.612 365.464H154.468C154.516 365.944 154.552 366.556 154.576 367.3C154.624 368.044 154.66 368.86 154.684 369.748C154.708 370.612 154.72 371.5 154.72 372.412V388H151.732V362.296H156.52L164.44 383.356H164.584L172.648 362.296H177.4V388H174.196V372.196C174.196 371.356 174.208 370.528 174.232 369.712C174.256 368.872 174.292 368.092 174.34 367.372C174.388 366.628 174.424 366.004 174.448 365.5H174.304L165.736 388H163.072ZM191.268 368.38C193.62 368.38 195.36 368.896 196.488 369.928C197.616 370.96 198.18 372.604 198.18 374.86V388H195.876L195.264 385.264H195.12C194.568 385.96 193.992 386.548 193.392 387.028C192.816 387.484 192.144 387.82 191.376 388.036C190.632 388.252 189.72 388.36 188.64 388.36C187.488 388.36 186.444 388.156 185.508 387.748C184.596 387.34 183.876 386.716 183.348 385.876C182.82 385.012 182.556 383.932 182.556 382.636C182.556 380.716 183.312 379.24 184.824 378.208C186.336 377.152 188.664 376.576 191.808 376.48L195.084 376.372V375.22C195.084 373.612 194.736 372.496 194.04 371.872C193.344 371.248 192.36 370.936 191.088 370.936C190.08 370.936 189.12 371.092 188.208 371.404C187.296 371.692 186.444 372.028 185.652 372.412L184.68 370.036C185.52 369.58 186.516 369.196 187.668 368.884C188.82 368.548 190.02 368.38 191.268 368.38ZM192.204 378.676C189.804 378.772 188.136 379.156 187.2 379.828C186.288 380.5 185.832 381.448 185.832 382.672C185.832 383.752 186.156 384.544 186.804 385.048C187.476 385.552 188.328 385.804 189.36 385.804C190.992 385.804 192.348 385.36 193.428 384.472C194.508 383.56 195.048 382.168 195.048 380.296V378.568L192.204 378.676ZM213.428 368.344C215.732 368.344 217.472 368.908 218.648 370.036C219.824 371.14 220.412 372.94 220.412 375.436V388H217.28V375.652C217.28 374.092 216.932 372.928 216.236 372.16C215.54 371.392 214.448 371.008 212.96 371.008C210.824 371.008 209.348 371.608 208.532 372.808C207.716 374.008 207.308 375.736 207.308 377.992V388H204.14V368.704H206.696L207.164 371.332H207.344C207.776 370.66 208.304 370.108 208.928 369.676C209.576 369.22 210.284 368.884 211.052 368.668C211.82 368.452 212.612 368.344 213.428 368.344ZM229.562 368.704V388H226.394V368.704H229.562ZM228.014 361.468C228.494 361.468 228.914 361.636 229.274 361.972C229.658 362.284 229.85 362.788 229.85 363.484C229.85 364.156 229.658 364.66 229.274 364.996C228.914 365.332 228.494 365.5 228.014 365.5C227.486 365.5 227.042 365.332 226.682 364.996C226.322 364.66 226.142 364.156 226.142 363.484C226.142 362.788 226.322 362.284 226.682 361.972C227.042 361.636 227.486 361.468 228.014 361.468ZM238.843 388H235.675V360.64H238.843V388ZM252.264 368.38C254.616 368.38 256.356 368.896 257.484 369.928C258.612 370.96 259.176 372.604 259.176 374.86V388H256.872L256.26 385.264H256.116C255.564 385.96 254.988 386.548 254.388 387.028C253.812 387.484 253.14 387.82 252.372 388.036C251.628 388.252 250.716 388.36 249.636 388.36C248.484 388.36 247.44 388.156 246.504 387.748C245.592 387.34 244.872 386.716 244.344 385.876C243.816 385.012 243.552 383.932 243.552 382.636C243.552 380.716 244.308 379.24 245.82 378.208C247.332 377.152 249.66 376.576 252.804 376.48L256.08 376.372V375.22C256.08 373.612 255.732 372.496 255.036 371.872C254.34 371.248 253.356 370.936 252.084 370.936C251.076 370.936 250.116 371.092 249.204 371.404C248.292 371.692 247.44 372.028 246.648 372.412L245.676 370.036C246.516 369.58 247.512 369.196 248.664 368.884C249.816 368.548 251.016 368.38 252.264 368.38ZM253.2 378.676C250.8 378.772 249.132 379.156 248.196 379.828C247.284 380.5 246.828 381.448 246.828 382.672C246.828 383.752 247.152 384.544 247.8 385.048C248.472 385.552 249.324 385.804 250.356 385.804C251.988 385.804 253.344 385.36 254.424 384.472C255.504 383.56 256.044 382.168 256.044 380.296V378.568L253.2 378.676ZM286.26 388L277.8 365.464H277.656C277.704 365.944 277.74 366.556 277.764 367.3C277.812 368.044 277.848 368.86 277.872 369.748C277.896 370.612 277.908 371.5 277.908 372.412V388H274.92V362.296H279.708L287.628 383.356H287.772L295.836 362.296H300.588V388H297.384V372.196C297.384 371.356 297.396 370.528 297.42 369.712C297.444 368.872 297.48 368.092 297.528 367.372C297.576 366.628 297.612 366.004 297.636 365.5H297.492L288.924 388H286.26ZM310.316 368.704V388H307.148V368.704H310.316ZM308.768 361.468C309.248 361.468 309.668 361.636 310.028 361.972C310.412 362.284 310.604 362.788 310.604 363.484C310.604 364.156 310.412 364.66 310.028 364.996C309.668 365.332 309.248 365.5 308.768 365.5C308.24 365.5 307.796 365.332 307.436 364.996C307.076 364.66 306.896 364.156 306.896 363.484C306.896 362.788 307.076 362.284 307.436 361.972C307.796 361.636 308.24 361.468 308.768 361.468ZM324.169 388.36C322.465 388.36 320.941 388.012 319.597 387.316C318.277 386.62 317.233 385.54 316.465 384.076C315.721 382.612 315.349 380.74 315.349 378.46C315.349 376.084 315.745 374.152 316.537 372.664C317.329 371.176 318.397 370.084 319.741 369.388C321.109 368.692 322.657 368.344 324.385 368.344C325.369 368.344 326.317 368.452 327.229 368.668C328.141 368.86 328.885 369.1 329.461 369.388L328.489 372.016C327.913 371.8 327.241 371.596 326.473 371.404C325.705 371.212 324.985 371.116 324.313 371.116C323.017 371.116 321.949 371.392 321.109 371.944C320.269 372.496 319.645 373.312 319.237 374.392C318.829 375.472 318.625 376.816 318.625 378.424C318.625 379.96 318.829 381.268 319.237 382.348C319.645 383.428 320.257 384.244 321.073 384.796C321.889 385.348 322.909 385.624 324.133 385.624C325.189 385.624 326.113 385.516 326.905 385.3C327.721 385.084 328.465 384.82 329.137 384.508V387.316C328.489 387.652 327.769 387.904 326.977 388.072C326.209 388.264 325.273 388.36 324.169 388.36ZM342.726 368.344C343.086 368.344 343.47 368.368 343.878 368.416C344.31 368.44 344.682 368.488 344.994 368.56L344.598 371.476C344.286 371.404 343.938 371.344 343.554 371.296C343.194 371.248 342.846 371.224 342.51 371.224C341.766 371.224 341.058 371.38 340.386 371.692C339.714 372.004 339.114 372.448 338.586 373.024C338.058 373.576 337.638 374.248 337.326 375.04C337.038 375.832 336.894 376.72 336.894 377.704V388H333.726V368.704H336.318L336.678 372.232H336.822C337.23 371.512 337.722 370.864 338.298 370.288C338.874 369.688 339.534 369.22 340.278 368.884C341.022 368.524 341.838 368.344 342.726 368.344ZM364.67 378.316C364.67 379.924 364.454 381.352 364.022 382.6C363.614 383.824 363.014 384.868 362.222 385.732C361.454 386.596 360.506 387.256 359.378 387.712C358.274 388.144 357.038 388.36 355.67 388.36C354.398 388.36 353.222 388.144 352.142 387.712C351.062 387.256 350.126 386.596 349.334 385.732C348.542 384.868 347.918 383.824 347.462 382.6C347.03 381.352 346.814 379.924 346.814 378.316C346.814 376.18 347.174 374.38 347.894 372.916C348.614 371.428 349.646 370.3 350.99 369.532C352.334 368.74 353.93 368.344 355.778 368.344C357.53 368.344 359.066 368.74 360.386 369.532C361.73 370.3 362.774 371.428 363.518 372.916C364.286 374.38 364.67 376.18 364.67 378.316ZM350.09 378.316C350.09 379.828 350.282 381.148 350.666 382.276C351.074 383.38 351.698 384.232 352.538 384.832C353.378 385.432 354.446 385.732 355.742 385.732C357.038 385.732 358.106 385.432 358.946 384.832C359.786 384.232 360.398 383.38 360.782 382.276C361.19 381.148 361.394 379.828 361.394 378.316C361.394 376.78 361.19 375.472 360.782 374.392C360.374 373.312 359.75 372.484 358.91 371.908C358.094 371.308 357.026 371.008 355.706 371.008C353.738 371.008 352.31 371.656 351.422 372.952C350.534 374.248 350.09 376.036 350.09 378.316ZM382.255 382.672C382.255 383.92 381.943 384.964 381.319 385.804C380.695 386.644 379.807 387.28 378.655 387.712C377.503 388.144 376.135 388.36 374.551 388.36C373.207 388.36 372.043 388.252 371.059 388.036C370.099 387.82 369.247 387.52 368.503 387.136V384.256C369.271 384.64 370.195 385 371.275 385.336C372.379 385.648 373.495 385.804 374.623 385.804C376.231 385.804 377.395 385.552 378.115 385.048C378.835 384.52 379.195 383.824 379.195 382.96C379.195 382.48 379.063 382.048 378.799 381.664C378.535 381.28 378.055 380.896 377.359 380.512C376.687 380.128 375.715 379.696 374.443 379.216C373.195 378.736 372.127 378.256 371.239 377.776C370.351 377.296 369.667 376.72 369.187 376.048C368.707 375.376 368.467 374.512 368.467 373.456C368.467 371.824 369.127 370.564 370.447 369.676C371.791 368.788 373.543 368.344 375.703 368.344C376.879 368.344 377.971 368.464 378.979 368.704C380.011 368.92 380.971 369.232 381.859 369.64L380.779 372.16C380.251 371.92 379.687 371.716 379.087 371.548C378.511 371.356 377.923 371.212 377.323 371.116C376.723 370.996 376.111 370.936 375.487 370.936C374.191 370.936 373.195 371.152 372.499 371.584C371.827 371.992 371.491 372.556 371.491 373.276C371.491 373.804 371.647 374.26 371.959 374.644C372.271 375.004 372.787 375.364 373.507 375.724C374.251 376.06 375.235 376.468 376.459 376.948C377.683 377.404 378.727 377.872 379.591 378.352C380.455 378.832 381.115 379.42 381.571 380.116C382.027 380.788 382.255 381.64 382.255 382.672ZM403.693 378.316C403.693 379.924 403.477 381.352 403.045 382.6C402.637 383.824 402.037 384.868 401.245 385.732C400.477 386.596 399.529 387.256 398.401 387.712C397.297 388.144 396.061 388.36 394.693 388.36C393.421 388.36 392.245 388.144 391.165 387.712C390.085 387.256 389.149 386.596 388.357 385.732C387.565 384.868 386.941 383.824 386.485 382.6C386.053 381.352 385.837 379.924 385.837 378.316C385.837 376.18 386.197 374.38 386.917 372.916C387.637 371.428 388.669 370.3 390.013 369.532C391.357 368.74 392.953 368.344 394.801 368.344C396.553 368.344 398.089 368.74 399.409 369.532C400.753 370.3 401.797 371.428 402.541 372.916C403.309 374.38 403.693 376.18 403.693 378.316ZM389.113 378.316C389.113 379.828 389.305 381.148 389.689 382.276C390.097 383.38 390.721 384.232 391.561 384.832C392.401 385.432 393.469 385.732 394.765 385.732C396.061 385.732 397.129 385.432 397.969 384.832C398.809 384.232 399.421 383.38 399.805 382.276C400.213 381.148 400.417 379.828 400.417 378.316C400.417 376.78 400.213 375.472 399.805 374.392C399.397 373.312 398.773 372.484 397.933 371.908C397.117 371.308 396.049 371.008 394.729 371.008C392.761 371.008 391.333 371.656 390.445 372.952C389.557 374.248 389.113 376.036 389.113 378.316ZM417.606 371.152H412.746V388H409.578V371.152H406.194V369.676L409.578 368.596V367.48C409.578 365.824 409.818 364.48 410.298 363.448C410.802 362.416 411.522 361.66 412.458 361.18C413.394 360.7 414.522 360.46 415.842 360.46C416.61 360.46 417.306 360.532 417.93 360.676C418.578 360.796 419.13 360.94 419.586 361.108L418.758 363.592C418.374 363.472 417.93 363.352 417.426 363.232C416.922 363.112 416.406 363.052 415.878 363.052C414.822 363.052 414.03 363.412 413.502 364.132C412.998 364.828 412.746 365.932 412.746 367.444V368.704H417.606V371.152ZM427.533 385.768C428.013 385.768 428.505 385.732 429.009 385.66C429.513 385.564 429.921 385.468 430.233 385.372V387.784C429.897 387.952 429.417 388.084 428.793 388.18C428.169 388.3 427.569 388.36 426.993 388.36C425.985 388.36 425.049 388.192 424.185 387.856C423.345 387.496 422.661 386.884 422.133 386.02C421.605 385.156 421.341 383.944 421.341 382.384V371.152H418.605V369.64L421.377 368.38L422.637 364.276H424.509V368.704H430.089V371.152H424.509V382.312C424.509 383.488 424.785 384.364 425.337 384.94C425.913 385.492 426.645 385.768 427.533 385.768Z" fill="url(#paint1_linear_125_12387)"/>
</g>
<g filter="url(#filter1_d_125_12387)">
<path d="M126.886 414.18C126.886 415.033 126.679 415.76 126.266 416.36C125.852 416.947 125.259 417.4 124.486 417.72C123.726 418.04 122.826 418.2 121.786 418.2C121.252 418.2 120.739 418.173 120.246 418.12C119.766 418.067 119.326 417.993 118.926 417.9C118.526 417.793 118.172 417.667 117.866 417.52V415.8C118.346 416.013 118.939 416.207 119.646 416.38C120.366 416.553 121.106 416.64 121.866 416.64C122.572 416.64 123.166 416.547 123.646 416.36C124.126 416.173 124.486 415.907 124.726 415.56C124.966 415.213 125.086 414.807 125.086 414.34C125.086 413.873 124.986 413.48 124.786 413.16C124.586 412.84 124.239 412.547 123.746 412.28C123.266 412 122.592 411.707 121.726 411.4C121.112 411.173 120.572 410.933 120.106 410.68C119.652 410.413 119.272 410.113 118.966 409.78C118.659 409.447 118.426 409.067 118.266 408.64C118.119 408.213 118.046 407.72 118.046 407.16C118.046 406.4 118.239 405.753 118.626 405.22C119.012 404.673 119.546 404.253 120.226 403.96C120.919 403.667 121.712 403.52 122.606 403.52C123.392 403.52 124.112 403.593 124.766 403.74C125.419 403.887 126.012 404.08 126.546 404.32L125.986 405.86C125.492 405.647 124.952 405.467 124.366 405.32C123.792 405.173 123.192 405.1 122.566 405.1C121.966 405.1 121.466 405.187 121.066 405.36C120.666 405.533 120.366 405.78 120.166 406.1C119.966 406.407 119.866 406.767 119.866 407.18C119.866 407.66 119.966 408.06 120.166 408.38C120.366 408.7 120.692 408.987 121.146 409.24C121.599 409.493 122.212 409.767 122.986 410.06C123.826 410.367 124.532 410.7 125.106 411.06C125.692 411.407 126.132 411.827 126.426 412.32C126.732 412.813 126.886 413.433 126.886 414.18ZM138.298 416.76C138.564 416.76 138.838 416.74 139.118 416.7C139.398 416.647 139.624 416.593 139.798 416.54V417.88C139.611 417.973 139.344 418.047 138.998 418.1C138.651 418.167 138.318 418.2 137.998 418.2C137.438 418.2 136.918 418.107 136.438 417.92C135.971 417.72 135.591 417.38 135.298 416.9C135.004 416.42 134.858 415.747 134.858 414.88V408.64H133.338V407.8L134.878 407.1L135.578 404.82H136.618V407.28H139.718V408.64H136.618V414.84C136.618 415.493 136.771 415.98 137.078 416.3C137.398 416.607 137.804 416.76 138.298 416.76ZM156.099 407.28V418H154.659L154.399 416.58H154.319C154.093 416.953 153.799 417.26 153.439 417.5C153.079 417.74 152.686 417.913 152.259 418.02C151.833 418.14 151.386 418.2 150.919 418.2C150.066 418.2 149.346 418.067 148.759 417.8C148.186 417.52 147.753 417.093 147.459 416.52C147.166 415.947 147.019 415.207 147.019 414.3V407.28H148.799V414.18C148.799 415.033 148.993 415.673 149.379 416.1C149.766 416.527 150.366 416.74 151.179 416.74C151.979 416.74 152.606 416.593 153.059 416.3C153.526 415.993 153.853 415.553 154.039 414.98C154.239 414.393 154.339 413.687 154.339 412.86V407.28H156.099ZM168.498 418.2C167.165 418.2 166.098 417.74 165.298 416.82C164.498 415.887 164.098 414.5 164.098 412.66C164.098 410.82 164.498 409.433 165.298 408.5C166.111 407.553 167.185 407.08 168.518 407.08C169.078 407.08 169.565 407.153 169.978 407.3C170.391 407.433 170.751 407.62 171.058 407.86C171.365 408.1 171.625 408.367 171.838 408.66H171.958C171.945 408.487 171.918 408.233 171.878 407.9C171.851 407.553 171.838 407.28 171.838 407.08V402.8H173.598V418H172.178L171.918 416.56H171.838C171.625 416.867 171.365 417.147 171.058 417.4C170.751 417.64 170.385 417.833 169.958 417.98C169.545 418.127 169.058 418.2 168.498 418.2ZM168.778 416.74C169.911 416.74 170.705 416.433 171.158 415.82C171.625 415.193 171.858 414.253 171.858 413V412.68C171.858 411.347 171.638 410.327 171.198 409.62C170.758 408.9 169.945 408.54 168.758 408.54C167.811 408.54 167.098 408.92 166.618 409.68C166.151 410.427 165.918 411.433 165.918 412.7C165.918 413.98 166.151 414.973 166.618 415.68C167.098 416.387 167.818 416.74 168.778 416.74ZM186.338 407.08C187.258 407.08 188.045 407.28 188.698 407.68C189.365 408.08 189.871 408.647 190.218 409.38C190.578 410.1 190.758 410.947 190.758 411.92V412.98H183.418C183.445 414.193 183.751 415.12 184.338 415.76C184.938 416.387 185.771 416.7 186.838 416.7C187.518 416.7 188.118 416.64 188.638 416.52C189.171 416.387 189.718 416.2 190.278 415.96V417.5C189.731 417.74 189.191 417.913 188.658 418.02C188.125 418.14 187.491 418.2 186.758 418.2C185.745 418.2 184.845 417.993 184.058 417.58C183.285 417.167 182.678 416.553 182.238 415.74C181.811 414.913 181.598 413.907 181.598 412.72C181.598 411.547 181.791 410.54 182.178 409.7C182.578 408.86 183.131 408.213 183.838 407.76C184.558 407.307 185.391 407.08 186.338 407.08ZM186.318 408.52C185.478 408.52 184.811 408.793 184.318 409.34C183.838 409.873 183.551 410.62 183.458 411.58H188.918C188.918 410.967 188.825 410.433 188.638 409.98C188.451 409.527 188.165 409.173 187.778 408.92C187.405 408.653 186.918 408.52 186.318 408.52ZM203.842 407.08C205.122 407.08 206.089 407.393 206.742 408.02C207.396 408.633 207.722 409.633 207.722 411.02V418H205.982V411.14C205.982 410.273 205.789 409.627 205.402 409.2C205.016 408.773 204.409 408.56 203.582 408.56C202.396 408.56 201.576 408.893 201.122 409.56C200.669 410.227 200.442 411.187 200.442 412.44V418H198.682V407.28H200.102L200.362 408.74H200.462C200.702 408.367 200.996 408.06 201.342 407.82C201.702 407.567 202.096 407.38 202.522 407.26C202.949 407.14 203.389 407.08 203.842 407.08ZM219.821 416.76C220.088 416.76 220.361 416.74 220.641 416.7C220.921 416.647 221.148 416.593 221.321 416.54V417.88C221.134 417.973 220.868 418.047 220.521 418.1C220.174 418.167 219.841 418.2 219.521 418.2C218.961 418.2 218.441 418.107 217.961 417.92C217.494 417.72 217.114 417.38 216.821 416.9C216.528 416.42 216.381 415.747 216.381 414.88V408.64H214.861V407.8L216.401 407.1L217.101 404.82H218.141V407.28H221.241V408.64H218.141V414.84C218.141 415.493 218.294 415.98 218.601 416.3C218.921 416.607 219.328 416.76 219.821 416.76ZM240.218 405.1C239.458 405.1 238.772 405.233 238.158 405.5C237.545 405.753 237.025 406.133 236.598 406.64C236.172 407.133 235.845 407.74 235.618 408.46C235.392 409.167 235.278 409.967 235.278 410.86C235.278 412.033 235.458 413.053 235.818 413.92C236.192 414.787 236.738 415.453 237.458 415.92C238.192 416.387 239.105 416.62 240.198 416.62C240.825 416.62 241.418 416.567 241.978 416.46C242.538 416.353 243.085 416.22 243.618 416.06V417.62C243.085 417.82 242.532 417.967 241.958 418.06C241.398 418.153 240.725 418.2 239.938 418.2C238.485 418.2 237.272 417.9 236.298 417.3C235.325 416.7 234.592 415.847 234.098 414.74C233.618 413.633 233.378 412.333 233.378 410.84C233.378 409.76 233.525 408.773 233.818 407.88C234.125 406.987 234.565 406.213 235.138 405.56C235.725 404.907 236.445 404.407 237.298 404.06C238.152 403.7 239.132 403.52 240.238 403.52C240.972 403.52 241.678 403.593 242.358 403.74C243.038 403.887 243.645 404.093 244.178 404.36L243.458 405.88C243.018 405.68 242.525 405.5 241.978 405.34C241.445 405.18 240.858 405.1 240.218 405.1ZM261.01 412.62C261.01 413.513 260.89 414.307 260.65 415C260.424 415.68 260.09 416.26 259.65 416.74C259.224 417.22 258.697 417.587 258.07 417.84C257.457 418.08 256.77 418.2 256.01 418.2C255.304 418.2 254.65 418.08 254.05 417.84C253.45 417.587 252.93 417.22 252.49 416.74C252.05 416.26 251.704 415.68 251.45 415C251.21 414.307 251.09 413.513 251.09 412.62C251.09 411.433 251.29 410.433 251.69 409.62C252.09 408.793 252.664 408.167 253.41 407.74C254.157 407.3 255.044 407.08 256.07 407.08C257.044 407.08 257.897 407.3 258.63 407.74C259.377 408.167 259.957 408.793 260.37 409.62C260.797 410.433 261.01 411.433 261.01 412.62ZM252.91 412.62C252.91 413.46 253.017 414.193 253.23 414.82C253.457 415.433 253.804 415.907 254.27 416.24C254.737 416.573 255.33 416.74 256.05 416.74C256.77 416.74 257.364 416.573 257.83 416.24C258.297 415.907 258.637 415.433 258.85 414.82C259.077 414.193 259.19 413.46 259.19 412.62C259.19 411.767 259.077 411.04 258.85 410.44C258.624 409.84 258.277 409.38 257.81 409.06C257.357 408.727 256.764 408.56 256.03 408.56C254.937 408.56 254.144 408.92 253.65 409.64C253.157 410.36 252.91 411.353 252.91 412.62ZM280.755 407.08C281.968 407.08 282.875 407.393 283.475 408.02C284.075 408.633 284.375 409.633 284.375 411.02V418H282.635V411.1C282.635 410.26 282.455 409.627 282.095 409.2C281.748 408.773 281.202 408.56 280.455 408.56C279.415 408.56 278.668 408.86 278.215 409.46C277.775 410.06 277.555 410.933 277.555 412.08V418H275.815V411.1C275.815 410.54 275.735 410.073 275.575 409.7C275.415 409.313 275.175 409.027 274.855 408.84C274.535 408.653 274.122 408.56 273.615 408.56C272.895 408.56 272.328 408.713 271.915 409.02C271.502 409.313 271.202 409.747 271.015 410.32C270.842 410.893 270.755 411.6 270.755 412.44V418H268.995V407.28H270.415L270.675 408.74H270.775C271.002 408.367 271.275 408.06 271.595 407.82C271.928 407.567 272.295 407.38 272.695 407.26C273.095 407.14 273.508 407.08 273.935 407.08C274.762 407.08 275.448 407.227 275.995 407.52C276.555 407.813 276.962 408.267 277.215 408.88H277.315C277.675 408.267 278.162 407.813 278.775 407.52C279.402 407.227 280.062 407.08 280.755 407.08ZM304.642 407.08C305.855 407.08 306.762 407.393 307.362 408.02C307.962 408.633 308.262 409.633 308.262 411.02V418H306.522V411.1C306.522 410.26 306.342 409.627 305.982 409.2C305.635 408.773 305.088 408.56 304.342 408.56C303.302 408.56 302.555 408.86 302.102 409.46C301.662 410.06 301.442 410.933 301.442 412.08V418H299.702V411.1C299.702 410.54 299.622 410.073 299.462 409.7C299.302 409.313 299.062 409.027 298.742 408.84C298.422 408.653 298.008 408.56 297.502 408.56C296.782 408.56 296.215 408.713 295.802 409.02C295.388 409.313 295.088 409.747 294.902 410.32C294.728 410.893 294.642 411.6 294.642 412.44V418H292.882V407.28H294.302L294.562 408.74H294.662C294.888 408.367 295.162 408.06 295.482 407.82C295.815 407.567 296.182 407.38 296.582 407.26C296.982 407.14 297.395 407.08 297.822 407.08C298.648 407.08 299.335 407.227 299.882 407.52C300.442 407.813 300.848 408.267 301.102 408.88H301.202C301.562 408.267 302.048 407.813 302.662 407.52C303.288 407.227 303.948 407.08 304.642 407.08ZM325.728 407.28V418H324.288L324.028 416.58H323.948C323.722 416.953 323.428 417.26 323.068 417.5C322.708 417.74 322.315 417.913 321.888 418.02C321.462 418.14 321.015 418.2 320.548 418.2C319.695 418.2 318.975 418.067 318.388 417.8C317.815 417.52 317.382 417.093 317.088 416.52C316.795 415.947 316.648 415.207 316.648 414.3V407.28H318.428V414.18C318.428 415.033 318.622 415.673 319.008 416.1C319.395 416.527 319.995 416.74 320.808 416.74C321.608 416.74 322.235 416.593 322.688 416.3C323.155 415.993 323.482 415.553 323.668 414.98C323.868 414.393 323.968 413.687 323.968 412.86V407.28H325.728ZM339.487 407.08C340.767 407.08 341.734 407.393 342.387 408.02C343.04 408.633 343.367 409.633 343.367 411.02V418H341.627V411.14C341.627 410.273 341.434 409.627 341.047 409.2C340.66 408.773 340.054 408.56 339.227 408.56C338.04 408.56 337.22 408.893 336.767 409.56C336.314 410.227 336.087 411.187 336.087 412.44V418H334.327V407.28H335.747L336.007 408.74H336.107C336.347 408.367 336.64 408.06 336.987 407.82C337.347 407.567 337.74 407.38 338.167 407.26C338.594 407.14 339.034 407.08 339.487 407.08ZM353.646 407.28V418H351.886V407.28H353.646ZM352.786 403.26C353.052 403.26 353.286 403.353 353.486 403.54C353.699 403.713 353.806 403.993 353.806 404.38C353.806 404.753 353.699 405.033 353.486 405.22C353.286 405.407 353.052 405.5 352.786 405.5C352.492 405.5 352.246 405.407 352.046 405.22C351.846 405.033 351.746 404.753 351.746 404.38C351.746 403.993 351.846 403.713 352.046 403.54C352.246 403.353 352.492 403.26 352.786 403.26ZM365.817 416.76C366.084 416.76 366.357 416.74 366.637 416.7C366.917 416.647 367.144 416.593 367.317 416.54V417.88C367.13 417.973 366.864 418.047 366.517 418.1C366.17 418.167 365.837 418.2 365.517 418.2C364.957 418.2 364.437 418.107 363.957 417.92C363.49 417.72 363.11 417.38 362.817 416.9C362.524 416.42 362.377 415.747 362.377 414.88V408.64H360.857V407.8L362.397 407.1L363.097 404.82H364.137V407.28H367.237V408.64H364.137V414.84C364.137 415.493 364.29 415.98 364.597 416.3C364.917 416.607 365.324 416.76 365.817 416.76ZM372.979 407.28H374.859L377.179 413.38C377.312 413.74 377.432 414.087 377.539 414.42C377.659 414.753 377.766 415.08 377.859 415.4C377.952 415.707 378.026 416.007 378.079 416.3H378.159C378.239 415.967 378.366 415.533 378.539 415C378.712 414.453 378.892 413.907 379.079 413.36L381.259 407.28H383.159L378.539 419.48C378.286 420.147 377.986 420.727 377.639 421.22C377.306 421.727 376.892 422.113 376.399 422.38C375.919 422.66 375.332 422.8 374.639 422.8C374.319 422.8 374.039 422.78 373.799 422.74C373.559 422.713 373.352 422.68 373.179 422.64V421.24C373.326 421.267 373.499 421.293 373.699 421.32C373.912 421.347 374.132 421.36 374.359 421.36C374.772 421.36 375.126 421.28 375.419 421.12C375.726 420.973 375.986 420.753 376.199 420.46C376.412 420.18 376.592 419.847 376.739 419.46L377.299 418.04L372.979 407.28Z" fill="url(#paint2_linear_125_12387)"/>
</g>
<g filter="url(#filter2_d_125_12387)">
<path fill-rule="evenodd" clip-rule="evenodd" d="M298.871 222.091C296.059 224.114 296.179 228.337 299.102 230.197L352.265 264.019C357.44 267.312 364.098 267.122 369.077 263.54L373.871 260.091C377.217 257.683 380.138 254.818 382.572 251.615C387.927 244.567 390.927 235.878 390.927 226.809V199.259V102C390.927 85.9837 377.943 73 361.927 73H330.927C322.643 73 315.927 79.7157 315.927 88L315.927 188.844C315.916 202.023 309.57 214.394 298.871 222.091V222.091Z" fill="url(#paint3_linear_125_12387)"/>
<path fill-rule="evenodd" clip-rule="evenodd" d="M298.871 222.091C296.059 224.114 296.179 228.337 299.102 230.197L352.265 264.019C357.44 267.312 364.098 267.122 369.077 263.54L373.871 260.091C377.217 257.683 380.138 254.818 382.572 251.615C387.927 244.567 390.927 235.878 390.927 226.809V199.259V102C390.927 85.9837 377.943 73 361.927 73H330.927C322.643 73 315.927 79.7157 315.927 88L315.927 188.844C315.916 202.023 309.57 214.394 298.871 222.091V222.091Z" fill="url(#paint4_linear_125_12387)"/>
<path fill-rule="evenodd" clip-rule="evenodd" d="M110 226.125V217.448C110 211.577 113.426 206.245 118.766 203.805L171.152 179.87C177.163 177.124 184 181.517 184 188.126V188.126C184 201.401 190.428 213.856 201.25 221.546L206.176 225.047L308.237 293.582C308.466 293.735 308.713 293.87 308.968 293.976V293.976C312.831 295.58 314.153 301.667 310.665 303.975L268.876 331.628C256.07 337.995 240.754 337.255 228.556 329.461L199.232 310.725L186.877 302.428L128.372 260.343L127.25 259.546C116.428 251.856 110 239.401 110 226.125Z" fill="url(#paint5_linear_125_12387)"/>
<path fill-rule="evenodd" clip-rule="evenodd" d="M140 73C123.431 73 110 86.4314 110 103V123.85C110 132.392 110 136.664 111.689 139.915C113.112 142.654 115.346 144.888 118.085 146.311C121.336 148 125.608 148 134.15 148H252.308C264.98 148 271.316 148 275.189 145.29C278.429 143.023 280.642 139.568 281.348 135.677C282.192 131.026 279.544 125.27 274.248 113.758L257.59 77.5425C256.316 74.7739 253.547 73 250.5 73V73H140Z" fill="url(#paint6_linear_125_12387)"/>
<path fill-rule="evenodd" clip-rule="evenodd" d="M140 73L139.979 73H185H214C197.984 73 185 85.9837 185 102V148L252.287 148C264.959 148 271.295 148 275.168 145.29C278.408 143.023 280.621 139.568 281.327 135.677C282.171 131.026 279.523 125.27 274.227 113.758L274.227 113.758L257.568 77.5425C256.295 74.7739 253.526 73 250.479 73H140Z" fill="url(#paint7_linear_125_12387)"/>
<path fill-rule="evenodd" clip-rule="evenodd" d="M218 148.122H252.308C264.98 148.122 271.316 148.122 275.189 145.412C278.429 143.145 280.642 139.69 281.348 135.799C282.192 131.148 279.544 125.392 274.249 113.88L269.244 103L273.691 113.8C278.208 124.771 280.467 130.256 279.568 134.719C278.815 138.458 276.666 141.769 273.559 143.98C269.849 146.619 263.919 146.791 252.06 147.135L218 148.122Z" fill="url(#paint8_linear_125_12387)"/>
<path fill-rule="evenodd" clip-rule="evenodd" d="M139 73C122.984 73 110 85.9837 110 102V148V163V174.089C110 185.028 121.331 192.288 131.269 187.716L176.269 167.016C181.59 164.569 185 159.247 185 153.389V148V102C185 85.9837 197.984 73 214 73H185H139Z" fill="url(#paint9_linear_125_12387)"/>
<path fill-rule="evenodd" clip-rule="evenodd" d="M117 186.981C120.641 188.478 124.904 188.572 128.936 186.716L173.936 166.016C179.258 163.569 182.668 158.247 182.668 152.389V147V101C182.668 87.6054 191.749 76.3318 204.09 73H213.668C197.651 73 184.668 85.9837 184.668 102V148V153.389C184.668 159.247 181.258 164.569 175.936 167.016L130.936 187.716C126.138 189.924 121.016 189.373 117 186.981Z" fill="url(#paint10_linear_125_12387)"/>
<path fill-rule="evenodd" clip-rule="evenodd" d="M112 207V224.229C112 237.505 118.428 249.959 129.25 257.649L130.372 258.447L173.43 289.42C169.457 288.423 165.6 286.822 162 284.617L173.911 293.104H173.77L128.372 260.447L127.25 259.649C116.428 251.959 110 239.505 110 226.229V207.914L112 207ZM250.139 254.672L223.294 272.428L206.981 282.52C193.807 290.67 177.181 290.691 164 282.617L173.611 289.465C184.135 292.054 195.46 290.41 204.981 284.52L221.294 274.428L250.647 255.013L250.139 254.672Z" fill="url(#paint11_linear_125_12387)"/>
<path fill-rule="evenodd" clip-rule="evenodd" d="M301.465 73H328H328.465H361.5C377.516 73 390.5 85.9837 390.5 102V148V177C390.5 160.984 377.516 148 361.5 148H328.465H328H311.018C305.19 148 299.89 144.624 297.425 139.343L276.425 94.3433C271.784 84.3986 279.044 73 290.018 73H301.465Z" fill="url(#paint12_linear_125_12387)"/>
<path fill-rule="evenodd" clip-rule="evenodd" d="M301.465 73H328H328.465H361.5C377.516 73 390.5 85.9837 390.5 102V148V177C390.5 160.984 377.516 148 361.5 148H328.465H328H311.018C305.19 148 299.89 144.624 297.425 139.343L276.425 94.3433C271.784 84.3986 279.044 73 290.018 73H301.465Z" fill="url(#paint13_linear_125_12387)"/>
<path fill-rule="evenodd" clip-rule="evenodd" d="M297 227.834C297.361 228.744 298.003 229.563 298.922 230.148L352.085 263.971C356.775 266.955 362.683 267.078 367.455 264.409L373.525 260.042C376.871 257.635 379.792 254.77 382.226 251.566C387.581 244.518 390.581 235.83 390.581 226.76V199.21V174.878C390.021 166.946 386.27 159.895 380.606 155C384.575 159.594 387.127 165.446 387.581 171.878V196.21V223.76C387.581 232.83 384.581 241.518 379.226 248.566C376.792 251.77 373.871 254.635 370.525 257.042L364.455 261.409C359.683 264.078 353.775 263.955 349.085 260.971L297 227.834Z" fill="url(#paint14_linear_125_12387)"/>
<path fill-rule="evenodd" clip-rule="evenodd" d="M253.123 196.178L239.703 177.69L251.219 154.167H251.256C251.62 153.499 252.317 153.037 253.123 153.002V196.178Z" fill="#FFDD55"/>
<path fill-rule="evenodd" clip-rule="evenodd" d="M253.123 196.178L239.703 177.69L251.219 154.167H251.256C251.62 153.499 252.317 153.037 253.123 153.002V196.178Z" fill="#FFDD55"/>
<path fill-rule="evenodd" clip-rule="evenodd" d="M253.123 196.176L266.544 177.688L255.028 154.165H254.991C254.626 153.496 253.93 153.035 253.123 153V196.176Z" fill="#FFCC00"/>
<path fill-rule="evenodd" clip-rule="evenodd" d="M253.123 196.176L266.544 177.688L255.028 154.165H254.991C254.626 153.496 253.93 153.035 253.123 153V196.176Z" fill="#FFCC00"/>
<path fill-rule="evenodd" clip-rule="evenodd" d="M253.123 196.176L266.544 177.688L255.028 154.165H254.991C254.626 153.496 253.93 153.035 253.123 153V196.176Z" fill="url(#paint15_linear_125_12387)"/>
<path fill-rule="evenodd" clip-rule="evenodd" d="M253.123 196.176L266.544 177.688L255.028 154.165H254.991C254.626 153.496 253.93 153.035 253.123 153V196.176Z" fill="url(#paint16_linear_125_12387)"/>
<path fill-rule="evenodd" clip-rule="evenodd" d="M253.205 196.369L231.41 203.217L212.767 184.822L212.778 184.787C212.261 184.229 212.044 183.422 212.268 182.646L253.205 196.369Z" fill="#FFDD55"/>
<path fill-rule="evenodd" clip-rule="evenodd" d="M253.205 196.369L231.41 203.217L212.767 184.822L212.778 184.787C212.261 184.229 212.044 183.422 212.268 182.646L253.205 196.369Z" fill="#FFDD55"/>
<path fill-rule="evenodd" clip-rule="evenodd" d="M253.203 196.369L239.939 177.768L213.975 181.21L213.964 181.245C213.214 181.378 212.555 181.892 212.266 182.646L253.203 196.369Z" fill="#FFCC00"/>
<path fill-rule="evenodd" clip-rule="evenodd" d="M253.203 196.369L239.939 177.768L213.975 181.21L213.964 181.245C213.214 181.378 212.555 181.892 212.266 182.646L253.203 196.369Z" fill="#FFCC00"/>
<path fill-rule="evenodd" clip-rule="evenodd" d="M253.203 196.369L239.939 177.768L213.975 181.21L213.964 181.245C213.214 181.378 212.555 181.892 212.266 182.646L253.203 196.369Z" fill="url(#paint17_linear_125_12387)"/>
<path fill-rule="evenodd" clip-rule="evenodd" d="M253.203 196.369L239.939 177.768L213.975 181.21L213.964 181.245C213.214 181.378 212.555 181.892 212.266 182.646L253.203 196.369Z" fill="url(#paint18_linear_125_12387)"/>
<path fill-rule="evenodd" clip-rule="evenodd" d="M253.207 196.32L252.909 219.163L229.613 231.132L229.583 231.11C228.891 231.428 228.057 231.382 227.39 230.927L253.207 196.32Z" fill="#FFDD55"/>
<path fill-rule="evenodd" clip-rule="evenodd" d="M253.207 196.32L252.909 219.163L229.613 231.132L229.583 231.11C228.891 231.428 228.057 231.382 227.39 230.927L253.207 196.32Z" fill="#FFDD55"/>
<path fill-rule="evenodd" clip-rule="evenodd" d="M253.206 196.322L231.394 203.115L226.559 228.856L226.588 228.878C226.481 229.632 226.763 230.418 227.389 230.928L253.206 196.322Z" fill="#FFCC00"/>
<path fill-rule="evenodd" clip-rule="evenodd" d="M253.206 196.322L231.394 203.115L226.559 228.856L226.588 228.878C226.481 229.632 226.763 230.418 227.389 230.928L253.206 196.322Z" fill="#FFCC00"/>
<path fill-rule="evenodd" clip-rule="evenodd" d="M253.206 196.322L231.394 203.115L226.559 228.856L226.588 228.878C226.481 229.632 226.763 230.418 227.389 230.928L253.206 196.322Z" fill="url(#paint19_linear_125_12387)"/>
<path fill-rule="evenodd" clip-rule="evenodd" d="M253.206 196.322L231.394 203.115L226.559 228.856L226.588 228.878C226.481 229.632 226.763 230.418 227.389 230.928L253.206 196.322Z" fill="url(#paint20_linear_125_12387)"/>
<path fill-rule="evenodd" clip-rule="evenodd" d="M252.836 196.178L274.56 203.25L279.067 229.05L279.038 229.071C279.135 229.827 278.844 230.609 278.211 231.111L252.836 196.178Z" fill="#FFDD55"/>
<path fill-rule="evenodd" clip-rule="evenodd" d="M252.836 196.178L274.56 203.25L279.067 229.05L279.038 229.071C279.135 229.827 278.844 230.609 278.211 231.111L252.836 196.178Z" fill="#FFDD55"/>
<path fill-rule="evenodd" clip-rule="evenodd" d="M252.838 196.18L252.845 219.025L275.987 231.289L276.017 231.268C276.705 231.594 277.539 231.559 278.212 231.113L252.838 196.18Z" fill="#FFCC00"/>
<path fill-rule="evenodd" clip-rule="evenodd" d="M252.838 196.18L252.845 219.025L275.987 231.289L276.017 231.268C276.705 231.594 277.539 231.559 278.212 231.113L252.838 196.18Z" fill="#FFCC00"/>
<path fill-rule="evenodd" clip-rule="evenodd" d="M252.838 196.18L252.845 219.025L275.987 231.289L276.017 231.268C276.705 231.594 277.539 231.559 278.212 231.113L252.838 196.18Z" fill="url(#paint21_linear_125_12387)"/>
<path fill-rule="evenodd" clip-rule="evenodd" d="M252.838 196.18L252.845 219.025L275.987 231.289L276.017 231.268C276.705 231.594 277.539 231.559 278.212 231.113L252.838 196.18Z" fill="url(#paint22_linear_125_12387)"/>
<path fill-rule="evenodd" clip-rule="evenodd" d="M252.805 196.217L266.305 177.787L292.223 181.559L292.234 181.594C292.982 181.737 293.634 182.259 293.914 183.016L252.805 196.217Z" fill="#FFDD55"/>
<path fill-rule="evenodd" clip-rule="evenodd" d="M252.805 196.217L266.305 177.787L292.223 181.559L292.234 181.594C292.982 181.737 293.634 182.259 293.914 183.016L252.805 196.217Z" fill="#FFDD55"/>
<path fill-rule="evenodd" clip-rule="evenodd" d="M252.807 196.217L274.513 203.342L293.389 185.185L293.378 185.15C293.903 184.598 294.13 183.794 293.916 183.016L252.807 196.217Z" fill="#FFCC00"/>
<path fill-rule="evenodd" clip-rule="evenodd" d="M252.807 196.217L274.513 203.342L293.389 185.185L293.378 185.15C293.903 184.598 294.13 183.794 293.916 183.016L252.807 196.217Z" fill="#FFCC00"/>
<path fill-rule="evenodd" clip-rule="evenodd" d="M252.807 196.217L274.513 203.342L293.389 185.185L293.378 185.15C293.903 184.598 294.13 183.794 293.916 183.016L252.807 196.217Z" fill="url(#paint23_linear_125_12387)"/>
<path fill-rule="evenodd" clip-rule="evenodd" d="M252.807 196.217L274.513 203.342L293.389 185.185L293.378 185.15C293.903 184.598 294.13 183.794 293.916 183.016L252.807 196.217Z" fill="url(#paint24_linear_125_12387)"/>
<path fill-rule="evenodd" clip-rule="evenodd" d="M301.465 73H328H328.465H361.5C366.554 73 371.305 74.2927 375.443 76.5654C371.801 74.9174 367.757 74 363.5 74H330.465H330H303.465H292.018C281.044 74 273.784 85.3986 278.425 95.3433L299.425 140.343C300.721 143.12 302.801 145.371 305.33 146.88C301.904 145.476 299.049 142.823 297.425 139.343L276.425 94.3433C271.784 84.3986 279.044 73 290.018 73H301.465Z" fill="url(#paint25_linear_125_12387)"/>
<path fill-rule="evenodd" clip-rule="evenodd" d="M110 162.977L110 136.442V135.977L110 102.942C110 97.8888 111.293 93.1371 113.565 88.9999C111.917 92.6418 111 96.685 111 100.942L111 133.977V134.442V160.977L111 172.424C111 183.399 122.399 190.658 132.343 186.017L177.343 165.017C180.12 163.721 182.371 161.641 183.88 159.112C182.476 162.538 179.823 165.393 176.343 167.017L131.343 188.017C121.399 192.658 110 185.399 110 174.424V162.977Z" fill="url(#paint26_linear_125_12387)"/>
<path fill-rule="evenodd" clip-rule="evenodd" d="M110 217.41V226.087C110 239.363 116.428 251.817 127.25 259.507L128.372 260.305L162.175 284.62C175.329 292.587 191.865 292.53 204.981 284.416L221.294 274.325L250.647 254.909L206.176 225.047L201.25 221.546C190.428 213.855 184 201.401 184 188.125V188.087C184 181.754 177.722 177.456 171.909 179.524L117.844 204.226C113.035 206.835 110 211.883 110 217.41ZM173.824 293H173.911L164.814 286.519L173.824 293Z" fill="url(#paint27_linear_125_12387)"/>
<path fill-rule="evenodd" clip-rule="evenodd" d="M259.244 334.659C260.04 334.611 260.835 334.53 261.629 334.416C265.114 333.42 268.498 331.953 271.686 330.011L274.853 328.083L324.2 295.765L332.979 290.016C342.073 284.061 342.01 270.711 332.859 264.842L330.737 263.481L291.388 238.875C286.421 235.769 280.101 235.839 275.204 239.053L272.084 241.1L271.863 240.773L220.411 273.953L203.981 283.854C190.713 291.85 174.089 291.677 161.002 283.451L181.956 298.751L181.794 298.856L190.503 305.214L227.009 328.907C229.799 330.717 232.756 332.156 235.811 333.223C243.334 335.983 251.488 336.467 259.244 334.659Z" fill="url(#paint28_linear_125_12387)"/>
<path fill-rule="evenodd" clip-rule="evenodd" d="M168.01 288.977C179.926 293.957 193.671 293.075 204.979 286.261L221.409 276.36L272.861 243.18L273.082 243.508L276.202 241.46C281.099 238.246 287.419 238.176 292.385 241.282L331.735 265.888L333.857 267.249C335.908 268.565 337.503 270.256 338.64 272.156C337.533 269.448 335.605 267.011 332.857 265.249L330.735 263.888L291.385 239.282C286.419 236.176 280.099 236.246 275.202 239.46L272.082 241.508L271.861 241.18L220.409 274.36L203.979 284.261C190.711 292.257 174.087 292.084 161 283.858L168.01 288.977Z" fill="url(#paint29_linear_125_12387)"/>
<path fill-rule="evenodd" clip-rule="evenodd" d="M277.126 81C275.629 84.6413 275.535 88.9036 277.39 92.9363L298.09 137.936C300.538 143.258 305.86 146.668 311.718 146.668H317.107H363.107C376.502 146.668 387.775 155.749 391.107 168.09V177.668C391.107 161.651 378.123 148.668 362.107 148.668H316.107H310.718C304.86 148.668 299.538 145.258 297.09 139.936L276.39 94.9363C274.183 90.1383 274.734 85.0155 277.126 81Z" fill="url(#paint30_linear_125_12387)"/>
<path fill-rule="evenodd" clip-rule="evenodd" d="M267 332.873C268.599 332.162 270.164 331.344 271.684 330.419L274.851 328.49L324.198 296.172L332.977 290.424C342.071 284.468 342.007 271.118 332.857 265.249L330.735 263.888L291.385 239.282C288.509 237.483 285.178 236.749 281.933 237.075C284.182 237.301 286.393 238.036 288.385 239.282L327.735 263.888L329.857 265.249C339.007 271.118 339.071 284.468 329.977 290.424L321.198 296.172L271.851 328.49L268.684 330.419C268.128 330.757 267.567 331.081 267 331.39V332.873Z" fill="url(#paint31_linear_125_12387)"/>
<path fill-rule="evenodd" clip-rule="evenodd" d="M299.268 230.197C296.345 228.337 296.225 224.114 299.037 222.091C309.736 214.394 316.082 202.023 316.093 188.844L316.093 148H362C377.319 148 389.864 159.878 390.927 174.926V199.259V226.809C390.927 235.878 387.927 244.567 382.572 251.615C380.138 254.818 377.217 257.683 373.871 260.091L367.801 264.458C363.028 267.127 357.121 267.003 352.431 264.019L299.268 230.197Z" fill="url(#paint32_linear_125_12387)"/>
<path fill-rule="evenodd" clip-rule="evenodd" d="M316.093 182V188.844C316.082 202.023 309.736 214.394 299.037 222.091C296.225 224.114 296.345 228.337 299.268 230.197L352.431 264.019C355.334 265.866 358.704 266.617 361.982 266.289C359.698 266.059 357.451 265.305 355.431 264.019L302.268 230.197C299.345 228.337 299.225 224.114 302.037 222.091C312.736 214.394 319.082 202.023 319.093 188.844V182H316.093Z" fill="url(#paint33_linear_125_12387)"/>
<path d="M171.5 179.234C167 180.067 135 196.234 135 196.234C140.833 194.401 154.4 187.9 160 185.5C167 182.5 180.5 176.5 181 189.734C182 204.5 199 219.734 197.5 218.234C196 216.734 184 204.234 184 189.734C184.8 179.334 176 178.401 171.5 179.234Z" fill="url(#paint34_linear_125_12387)"/>
</g>
<circle cx="253.5" cy="196.5" r="7.25" stroke="white" stroke-width="0.5"/>
<circle cx="253.5" cy="196.5" r="12.25" stroke="white" stroke-width="0.5"/>
<circle cx="253.5" cy="196.5" r="17.25" stroke="white" stroke-width="0.5"/>
<circle cx="253.5" cy="196.5" r="22.25" stroke="white" stroke-width="0.5"/>
<circle cx="253.5" cy="196.5" r="27.25" stroke="white" stroke-width="0.5"/>
<defs>
<filter id="filter0_d_125_12387" x="62.4549" y="355.46" width="377.778" height="47.9001" filterUnits="userSpaceOnUse" color-interpolation-filters="sRGB">
<feFlood flood-opacity="0" result="BackgroundImageFix"/>
<feColorMatrix in="SourceAlpha" type="matrix" values="0 0 0 0 0 0 0 0 0 0 0 0 0 0 0 0 0 0 127 0" result="hardAlpha"/>
<feOffset dy="5"/>
<feGaussianBlur stdDeviation="5"/>
<feComposite in2="hardAlpha" operator="out"/>
<feColorMatrix type="matrix" values="0 0 0 0 0 0 0 0 0 0.16 0 0 0 0 1 0 0 0 0.4 0"/>
<feBlend mode="normal" in2="BackgroundImageFix" result="effect1_dropShadow_125_12387"/>
<feBlend mode="normal" in="SourceGraphic" in2="effect1_dropShadow_125_12387" result="shape"/>
</filter>
<filter id="filter1_d_125_12387" x="107.866" y="397.8" width="285.293" height="40" filterUnits="userSpaceOnUse" color-interpolation-filters="sRGB">
<feFlood flood-opacity="0" result="BackgroundImageFix"/>
<feColorMatrix in="SourceAlpha" type="matrix" values="0 0 0 0 0 0 0 0 0 0 0 0 0 0 0 0 0 0 127 0" result="hardAlpha"/>
<feOffset dy="5"/>
<feGaussianBlur stdDeviation="5"/>
<feComposite in2="hardAlpha" operator="out"/>
<feColorMatrix type="matrix" values="0 0 0 0 0 0 0 0 0 0.16 0 0 0 0 1 0 0 0 0.4 0"/>
<feBlend mode="normal" in2="BackgroundImageFix" result="effect1_dropShadow_125_12387"/>
<feBlend mode="normal" in="SourceGraphic" in2="effect1_dropShadow_125_12387" result="shape"/>
</filter>
<filter id="filter2_d_125_12387" x="90" y="65" width="321.107" height="302.911" filterUnits="userSpaceOnUse" color-interpolation-filters="sRGB">
<feFlood flood-opacity="0" result="BackgroundImageFix"/>
<feColorMatrix in="SourceAlpha" type="matrix" values="0 0 0 0 0 0 0 0 0 0 0 0 0 0 0 0 0 0 127 0" result="hardAlpha"/>
<feOffset dy="12"/>
<feGaussianBlur stdDeviation="10"/>
<feComposite in2="hardAlpha" operator="out"/>
<feColorMatrix type="matrix" values="0 0 0 0 0 0 0 0 0 0 0 0 0 0 0 0 0 0 0.54 0"/>
<feBlend mode="normal" in2="BackgroundImageFix" result="effect1_dropShadow_125_12387"/>
<feBlend mode="normal" in="SourceGraphic" in2="effect1_dropShadow_125_12387" result="shape"/>
</filter>
<linearGradient id="paint0_linear_125_12387" x1="197" y1="-1.95086e-06" x2="312" y2="500" gradientUnits="userSpaceOnUse">
<stop stop-color="#001EBD"/>
<stop offset="1" stop-color="#AE43E0"/>
</linearGradient>
<linearGradient id="paint1_linear_125_12387" x1="60.7102" y1="358.625" x2="425.035" y2="394.518" gradientUnits="userSpaceOnUse">
<stop stop-color="#001EBD"/>
<stop offset="1" stop-color="#AE43E0"/>
</linearGradient>
<linearGradient id="paint2_linear_125_12387" x1="98.6196" y1="410.385" x2="402.091" y2="410.385" gradientUnits="userSpaceOnUse">
<stop stop-color="#001EBD"/>
<stop offset="1" stop-color="#AE43E0"/>
</linearGradient>
<linearGradient id="paint3_linear_125_12387" x1="382.35" y1="175.355" x2="299.607" y2="241.318" gradientUnits="userSpaceOnUse">
<stop stop-color="#0029FF"/>
<stop offset="1" stop-color="#C54AFF"/>
</linearGradient>
<linearGradient id="paint4_linear_125_12387" x1="382.35" y1="175.355" x2="299.607" y2="241.318" gradientUnits="userSpaceOnUse">
<stop stop-color="#0029FF"/>
<stop offset="1" stop-color="#C54AFF"/>
</linearGradient>
<linearGradient id="paint5_linear_125_12387" x1="195.867" y1="289.976" x2="199.528" y2="161.987" gradientUnits="userSpaceOnUse">
<stop stop-color="#001DB7"/>
<stop offset="1" stop-color="#00FFF0"/>
</linearGradient>
<linearGradient id="paint6_linear_125_12387" x1="170.5" y1="98" x2="286.585" y2="151.094" gradientUnits="userSpaceOnUse">
<stop stop-color="#0029FF"/>
<stop offset="1" stop-color="#00C2FF"/>
</linearGradient>
<linearGradient id="paint7_linear_125_12387" x1="150" y1="114" x2="248.875" y2="238.828" gradientUnits="userSpaceOnUse">
<stop stop-color="#00147F"/>
<stop offset="1" stop-color="#00C2FF" stop-opacity="0"/>
</linearGradient>
<linearGradient id="paint8_linear_125_12387" x1="280" y1="145" x2="258" y2="130.5" gradientUnits="userSpaceOnUse">
<stop stop-color="white"/>
<stop offset="1" stop-color="white" stop-opacity="0"/>
</linearGradient>
<linearGradient id="paint9_linear_125_12387" x1="209" y1="83.5" x2="103.741" y2="216.797" gradientUnits="userSpaceOnUse">
<stop stop-color="#35008C" stop-opacity="0.98"/>
<stop offset="0.261" stop-color="#6500DD" stop-opacity="0.98572"/>
<stop offset="1" stop-color="#D98AFF"/>
</linearGradient>
<linearGradient id="paint10_linear_125_12387" x1="182" y1="66.5" x2="165" y2="138.5" gradientUnits="userSpaceOnUse">
<stop stop-color="#6500DD"/>
<stop offset="1" stop-color="#C54AFF" stop-opacity="0"/>
</linearGradient>
<linearGradient id="paint11_linear_125_12387" x1="185" y1="304.104" x2="150.5" y2="217.603" gradientUnits="userSpaceOnUse">
<stop stop-color="#0029FF"/>
<stop offset="1" stop-color="#00FFF0" stop-opacity="0"/>
</linearGradient>
<linearGradient id="paint12_linear_125_12387" x1="390.5" y1="163" x2="288.5" y2="58.5" gradientUnits="userSpaceOnUse">
<stop stop-color="#001EBD"/>
<stop offset="1" stop-color="#00C2FF"/>
</linearGradient>
<linearGradient id="paint13_linear_125_12387" x1="390.5" y1="163" x2="288.5" y2="58.5" gradientUnits="userSpaceOnUse">
<stop stop-color="#001EBD"/>
<stop offset="1" stop-color="#00C2FF"/>
</linearGradient>
<linearGradient id="paint14_linear_125_12387" x1="384.5" y1="155" x2="376.5" y2="239" gradientUnits="userSpaceOnUse">
<stop stop-color="#D98AFF"/>
<stop offset="1" stop-color="#D98AFF" stop-opacity="0"/>
</linearGradient>
<linearGradient id="paint15_linear_125_12387" x1="253.123" y1="195.498" x2="269.753" y2="163.6" gradientUnits="userSpaceOnUse">
<stop stop-color="#B15500"/>
<stop offset="1" stop-color="#FFCC00" stop-opacity="0"/>
</linearGradient>
<linearGradient id="paint16_linear_125_12387" x1="253.123" y1="195.498" x2="269.753" y2="163.6" gradientUnits="userSpaceOnUse">
<stop stop-color="#B15500"/>
<stop offset="1" stop-color="#FFCC00" stop-opacity="0"/>
</linearGradient>
<linearGradient id="paint17_linear_125_12387" x1="252.559" y1="196.153" x2="227.602" y2="170.248" gradientUnits="userSpaceOnUse">
<stop stop-color="#B15500"/>
<stop offset="1" stop-color="#FFCC00" stop-opacity="0"/>
</linearGradient>
<linearGradient id="paint18_linear_125_12387" x1="252.559" y1="196.153" x2="227.602" y2="170.248" gradientUnits="userSpaceOnUse">
<stop stop-color="#B15500"/>
<stop offset="1" stop-color="#FFCC00" stop-opacity="0"/>
</linearGradient>
<linearGradient id="paint19_linear_125_12387" x1="252.8" y1="196.866" x2="220.398" y2="212.489" gradientUnits="userSpaceOnUse">
<stop stop-color="#B15500"/>
<stop offset="1" stop-color="#FFCC00" stop-opacity="0"/>
</linearGradient>
<linearGradient id="paint20_linear_125_12387" x1="252.8" y1="196.866" x2="220.398" y2="212.489" gradientUnits="userSpaceOnUse">
<stop stop-color="#B15500"/>
<stop offset="1" stop-color="#FFCC00" stop-opacity="0"/>
</linearGradient>
<linearGradient id="paint21_linear_125_12387" x1="253.237" y1="196.729" x2="258.528" y2="232.31" gradientUnits="userSpaceOnUse">
<stop stop-color="#B15500"/>
<stop offset="1" stop-color="#FFCC00" stop-opacity="0"/>
</linearGradient>
<linearGradient id="paint22_linear_125_12387" x1="253.237" y1="196.729" x2="258.528" y2="232.31" gradientUnits="userSpaceOnUse">
<stop stop-color="#B15500"/>
<stop offset="1" stop-color="#FFCC00" stop-opacity="0"/>
</linearGradient>
<linearGradient id="paint23_linear_125_12387" x1="253.454" y1="196.009" x2="288.908" y2="202.09" gradientUnits="userSpaceOnUse">
<stop stop-color="#B15500"/>
<stop offset="1" stop-color="#FFCC00" stop-opacity="0"/>
</linearGradient>
<linearGradient id="paint24_linear_125_12387" x1="253.454" y1="196.009" x2="288.908" y2="202.09" gradientUnits="userSpaceOnUse">
<stop stop-color="#B15500"/>
<stop offset="1" stop-color="#FFCC00" stop-opacity="0"/>
</linearGradient>
<linearGradient id="paint25_linear_125_12387" x1="272.5" y1="78" x2="293.5" y2="105" gradientUnits="userSpaceOnUse">
<stop stop-color="white"/>
<stop offset="1" stop-color="white" stop-opacity="0"/>
</linearGradient>
<linearGradient id="paint26_linear_125_12387" x1="115" y1="191.942" x2="142" y2="170.942" gradientUnits="userSpaceOnUse">
<stop stop-color="white"/>
<stop offset="1" stop-color="white" stop-opacity="0"/>
</linearGradient>
<linearGradient id="paint27_linear_125_12387" x1="185" y1="304" x2="166" y2="206.5" gradientUnits="userSpaceOnUse">
<stop stop-color="#2F0660"/>
<stop offset="1" stop-color="#00C6E1" stop-opacity="0"/>
</linearGradient>
<linearGradient id="paint28_linear_125_12387" x1="181.5" y1="308.5" x2="386" y2="253.5" gradientUnits="userSpaceOnUse">
<stop stop-color="#330086" stop-opacity="0.98"/>
<stop offset="0.311" stop-color="#6500DD"/>
<stop offset="1" stop-color="#D98AFF"/>
</linearGradient>
<linearGradient id="paint29_linear_125_12387" x1="168.5" y1="296.727" x2="286" y2="278.227" gradientUnits="userSpaceOnUse">
<stop stop-color="#6500DD"/>
<stop offset="1" stop-color="#AE43E0" stop-opacity="0"/>
</linearGradient>
<linearGradient id="paint30_linear_125_12387" x1="397.607" y1="146" x2="325.607" y2="129" gradientUnits="userSpaceOnUse">
<stop stop-color="#0029FF"/>
<stop offset="1" stop-color="#00C2FF" stop-opacity="0.24"/>
</linearGradient>
<linearGradient id="paint31_linear_125_12387" x1="344.5" y1="277.227" x2="316" y2="285" gradientUnits="userSpaceOnUse">
<stop stop-color="white"/>
<stop offset="1" stop-color="white" stop-opacity="0"/>
</linearGradient>
<linearGradient id="paint32_linear_125_12387" x1="395" y1="154.5" x2="328.5" y2="223" gradientUnits="userSpaceOnUse">
<stop stop-color="#000F5F"/>
<stop offset="1" stop-color="#C54AFF" stop-opacity="0"/>
</linearGradient>
<linearGradient id="paint33_linear_125_12387" x1="293" y1="224" x2="325.5" y2="213.5" gradientUnits="userSpaceOnUse">
<stop stop-color="white"/>
<stop offset="1" stop-color="white" stop-opacity="0"/>
</linearGradient>
<linearGradient id="paint34_linear_125_12387" x1="179.5" y1="179" x2="173" y2="207.5" gradientUnits="userSpaceOnUse">
<stop stop-color="white"/>
<stop offset="1" stop-color="#D9D9D9" stop-opacity="0"/>
</linearGradient>
</defs>
</svg>
