<svg width="500" height="500" viewBox="0 0 500 500" fill="none" xmlns="http://www.w3.org/2000/svg">
<rect width="500" height="500" rx="25" fill="white"/>
<g filter="url(#filter0_d_125_12386)">
<path d="M41.8164 358.584C45.9231 358.584 48.9151 359.391 50.7924 361.004C52.6698 362.617 53.6084 364.891 53.6084 367.824C53.6084 369.115 53.3884 370.361 52.9484 371.564C52.5378 372.737 51.8484 373.793 50.8804 374.732C49.9124 375.671 48.6218 376.419 47.0084 376.976C45.3951 377.504 43.4151 377.768 41.0684 377.768H37.4604V390H33.5004V358.584H41.8164ZM41.4644 361.972H37.4604V374.38H40.6284C42.6231 374.38 44.2804 374.175 45.6004 373.764C46.9204 373.324 47.9031 372.635 48.5484 371.696C49.1938 370.757 49.5164 369.525 49.5164 368C49.5164 365.976 48.8711 364.465 47.5804 363.468C46.2898 362.471 44.2511 361.972 41.4644 361.972ZM84.033 378.912C84.033 381.083 83.593 383.048 82.713 384.808C81.833 386.539 80.4837 387.917 78.665 388.944C76.8757 389.941 74.5877 390.44 71.801 390.44C67.8997 390.44 64.9224 389.384 62.869 387.272C60.845 385.131 59.833 382.315 59.833 378.824V358.584H63.793V378.956C63.793 381.508 64.4677 383.488 65.817 384.896C67.1957 386.304 69.2637 387.008 72.021 387.008C73.9277 387.008 75.4677 386.671 76.641 385.996C77.8437 385.292 78.7237 384.339 79.281 383.136C79.8384 381.904 80.117 380.496 80.117 378.912V358.584H84.033V378.912ZM100.641 358.584C104.747 358.584 107.739 359.391 109.617 361.004C111.494 362.617 112.433 364.891 112.433 367.824C112.433 369.115 112.213 370.361 111.773 371.564C111.362 372.737 110.673 373.793 109.705 374.732C108.737 375.671 107.446 376.419 105.833 376.976C104.219 377.504 102.239 377.768 99.8926 377.768H96.2846V390H92.3246V358.584H100.641ZM100.289 361.972H96.2846V374.38H99.4526C101.447 374.38 103.105 374.175 104.425 373.764C105.745 373.324 106.727 372.635 107.373 371.696C108.018 370.757 108.341 369.525 108.341 368C108.341 365.976 107.695 364.465 106.405 363.468C105.114 362.471 103.075 361.972 100.289 361.972ZM144.255 390L133.915 362.456H133.739C133.798 363.043 133.842 363.791 133.871 364.7C133.93 365.609 133.974 366.607 134.003 367.692C134.032 368.748 134.047 369.833 134.047 370.948V390H130.395V358.584H136.247L145.927 384.324H146.103L155.959 358.584H161.767V390H157.851V370.684C157.851 369.657 157.866 368.645 157.895 367.648C157.924 366.621 157.968 365.668 158.027 364.788C158.086 363.879 158.13 363.116 158.159 362.5H157.983L147.511 390H144.255ZM178.717 366.02C181.592 366.02 183.718 366.651 185.097 367.912C186.476 369.173 187.165 371.183 187.165 373.94V390H184.349L183.601 386.656H183.425C182.75 387.507 182.046 388.225 181.313 388.812C180.609 389.369 179.788 389.78 178.849 390.044C177.94 390.308 176.825 390.44 175.505 390.44C174.097 390.44 172.821 390.191 171.677 389.692C170.562 389.193 169.682 388.431 169.037 387.404C168.392 386.348 168.069 385.028 168.069 383.444C168.069 381.097 168.993 379.293 170.841 378.032C172.689 376.741 175.534 376.037 179.377 375.92L183.381 375.788V374.38C183.381 372.415 182.956 371.051 182.105 370.288C181.254 369.525 180.052 369.144 178.497 369.144C177.265 369.144 176.092 369.335 174.977 369.716C173.862 370.068 172.821 370.479 171.853 370.948L170.665 368.044C171.692 367.487 172.909 367.017 174.317 366.636C175.725 366.225 177.192 366.02 178.717 366.02ZM179.861 378.604C176.928 378.721 174.889 379.191 173.745 380.012C172.63 380.833 172.073 381.992 172.073 383.488C172.073 384.808 172.469 385.776 173.261 386.392C174.082 387.008 175.124 387.316 176.385 387.316C178.38 387.316 180.037 386.773 181.357 385.688C182.677 384.573 183.337 382.872 183.337 380.584V378.472L179.861 378.604ZM205.801 365.976C208.617 365.976 210.744 366.665 212.181 368.044C213.618 369.393 214.337 371.593 214.337 374.644V390H210.509V374.908C210.509 373.001 210.084 371.579 209.233 370.64C208.382 369.701 207.048 369.232 205.229 369.232C202.618 369.232 200.814 369.965 199.817 371.432C198.82 372.899 198.321 375.011 198.321 377.768V390H194.449V366.416H197.573L198.145 369.628H198.365C198.893 368.807 199.538 368.132 200.301 367.604C201.093 367.047 201.958 366.636 202.897 366.372C203.836 366.108 204.804 365.976 205.801 365.976ZM225.52 366.416V390H221.648V366.416H225.52ZM223.628 357.572C224.215 357.572 224.728 357.777 225.168 358.188C225.638 358.569 225.872 359.185 225.872 360.036C225.872 360.857 225.638 361.473 225.168 361.884C224.728 362.295 224.215 362.5 223.628 362.5C222.983 362.5 222.44 362.295 222 361.884C221.56 361.473 221.34 360.857 221.34 360.036C221.34 359.185 221.56 358.569 222 358.188C222.44 357.777 222.983 357.572 223.628 357.572ZM236.864 390H232.992V356.56H236.864V390ZM253.268 366.02C256.142 366.02 258.269 366.651 259.648 367.912C261.026 369.173 261.716 371.183 261.716 373.94V390H258.9L258.152 386.656H257.976C257.301 387.507 256.597 388.225 255.864 388.812C255.16 389.369 254.338 389.78 253.4 390.044C252.49 390.308 251.376 390.44 250.056 390.44C248.648 390.44 247.372 390.191 246.228 389.692C245.113 389.193 244.233 388.431 243.588 387.404C242.942 386.348 242.62 385.028 242.62 383.444C242.62 381.097 243.544 379.293 245.392 378.032C247.24 376.741 250.085 376.037 253.928 375.92L257.932 375.788V374.38C257.932 372.415 257.506 371.051 256.656 370.288C255.805 369.525 254.602 369.144 253.048 369.144C251.816 369.144 250.642 369.335 249.528 369.716C248.413 370.068 247.372 370.479 246.404 370.948L245.216 368.044C246.242 367.487 247.46 367.017 248.868 366.636C250.276 366.225 251.742 366.02 253.268 366.02ZM254.412 378.604C251.478 378.721 249.44 379.191 248.296 380.012C247.181 380.833 246.624 381.992 246.624 383.488C246.624 384.808 247.02 385.776 247.812 386.392C248.633 387.008 249.674 387.316 250.936 387.316C252.93 387.316 254.588 386.773 255.908 385.688C257.228 384.573 257.888 382.872 257.888 380.584V378.472L254.412 378.604ZM294.817 390L284.477 362.456H284.301C284.36 363.043 284.404 363.791 284.433 364.7C284.492 365.609 284.536 366.607 284.565 367.692C284.595 368.748 284.609 369.833 284.609 370.948V390H280.957V358.584H286.809L296.489 384.324H296.665L306.521 358.584H312.329V390H308.413V370.684C308.413 369.657 308.428 368.645 308.457 367.648C308.487 366.621 308.531 365.668 308.589 364.788C308.648 363.879 308.692 363.116 308.721 362.5H308.545L298.073 390H294.817ZM324.219 366.416V390H320.347V366.416H324.219ZM322.327 357.572C322.914 357.572 323.427 357.777 323.867 358.188C324.337 358.569 324.571 359.185 324.571 360.036C324.571 360.857 324.337 361.473 323.867 361.884C323.427 362.295 322.914 362.5 322.327 362.5C321.682 362.5 321.139 362.295 320.699 361.884C320.259 361.473 320.039 360.857 320.039 360.036C320.039 359.185 320.259 358.569 320.699 358.188C321.139 357.777 321.682 357.572 322.327 357.572ZM341.151 390.44C339.069 390.44 337.206 390.015 335.563 389.164C333.95 388.313 332.674 386.993 331.735 385.204C330.826 383.415 330.371 381.127 330.371 378.34C330.371 375.436 330.855 373.075 331.823 371.256C332.791 369.437 334.097 368.103 335.739 367.252C337.411 366.401 339.303 365.976 341.415 365.976C342.618 365.976 343.777 366.108 344.891 366.372C346.006 366.607 346.915 366.9 347.619 367.252L346.431 370.464C345.727 370.2 344.906 369.951 343.967 369.716C343.029 369.481 342.149 369.364 341.327 369.364C339.743 369.364 338.438 369.701 337.411 370.376C336.385 371.051 335.622 372.048 335.123 373.368C334.625 374.688 334.375 376.331 334.375 378.296C334.375 380.173 334.625 381.772 335.123 383.092C335.622 384.412 336.37 385.409 337.367 386.084C338.365 386.759 339.611 387.096 341.107 387.096C342.398 387.096 343.527 386.964 344.495 386.7C345.493 386.436 346.402 386.113 347.223 385.732V389.164C346.431 389.575 345.551 389.883 344.583 390.088C343.645 390.323 342.501 390.44 341.151 390.44ZM363.832 365.976C364.272 365.976 364.741 366.005 365.24 366.064C365.768 366.093 366.222 366.152 366.604 366.24L366.12 369.804C365.738 369.716 365.313 369.643 364.844 369.584C364.404 369.525 363.978 369.496 363.568 369.496C362.658 369.496 361.793 369.687 360.972 370.068C360.15 370.449 359.417 370.992 358.772 371.696C358.126 372.371 357.613 373.192 357.232 374.16C356.88 375.128 356.704 376.213 356.704 377.416V390H352.832V366.416H356L356.44 370.728H356.616C357.114 369.848 357.716 369.056 358.42 368.352C359.124 367.619 359.93 367.047 360.84 366.636C361.749 366.196 362.746 365.976 363.832 365.976ZM390.652 378.164C390.652 380.129 390.388 381.875 389.86 383.4C389.362 384.896 388.628 386.172 387.66 387.228C386.722 388.284 385.563 389.091 384.184 389.648C382.835 390.176 381.324 390.44 379.652 390.44C378.098 390.44 376.66 390.176 375.34 389.648C374.02 389.091 372.876 388.284 371.908 387.228C370.94 386.172 370.178 384.896 369.62 383.4C369.092 381.875 368.828 380.129 368.828 378.164C368.828 375.553 369.268 373.353 370.148 371.564C371.028 369.745 372.29 368.367 373.932 367.428C375.575 366.46 377.526 365.976 379.784 365.976C381.926 365.976 383.803 366.46 385.416 367.428C387.059 368.367 388.335 369.745 389.244 371.564C390.183 373.353 390.652 375.553 390.652 378.164ZM372.832 378.164C372.832 380.012 373.067 381.625 373.536 383.004C374.035 384.353 374.798 385.395 375.824 386.128C376.851 386.861 378.156 387.228 379.74 387.228C381.324 387.228 382.63 386.861 383.656 386.128C384.683 385.395 385.431 384.353 385.9 383.004C386.399 381.625 386.648 380.012 386.648 378.164C386.648 376.287 386.399 374.688 385.9 373.368C385.402 372.048 384.639 371.036 383.612 370.332C382.615 369.599 381.31 369.232 379.696 369.232C377.291 369.232 375.546 370.024 374.46 371.608C373.375 373.192 372.832 375.377 372.832 378.164ZM412.145 383.488C412.145 385.013 411.763 386.289 411.001 387.316C410.238 388.343 409.153 389.12 407.745 389.648C406.337 390.176 404.665 390.44 402.729 390.44C401.086 390.44 399.663 390.308 398.461 390.044C397.287 389.78 396.246 389.413 395.337 388.944V385.424C396.275 385.893 397.405 386.333 398.725 386.744C400.074 387.125 401.438 387.316 402.817 387.316C404.782 387.316 406.205 387.008 407.085 386.392C407.965 385.747 408.405 384.896 408.405 383.84C408.405 383.253 408.243 382.725 407.921 382.256C407.598 381.787 407.011 381.317 406.161 380.848C405.339 380.379 404.151 379.851 402.597 379.264C401.071 378.677 399.766 378.091 398.681 377.504C397.595 376.917 396.759 376.213 396.173 375.392C395.586 374.571 395.293 373.515 395.293 372.224C395.293 370.229 396.099 368.689 397.713 367.604C399.355 366.519 401.497 365.976 404.137 365.976C405.574 365.976 406.909 366.123 408.141 366.416C409.402 366.68 410.575 367.061 411.661 367.56L410.341 370.64C409.695 370.347 409.006 370.097 408.273 369.892C407.569 369.657 406.85 369.481 406.117 369.364C405.383 369.217 404.635 369.144 403.873 369.144C402.289 369.144 401.071 369.408 400.221 369.936C399.399 370.435 398.989 371.124 398.989 372.004C398.989 372.649 399.179 373.207 399.561 373.676C399.942 374.116 400.573 374.556 401.453 374.996C402.362 375.407 403.565 375.905 405.061 376.492C406.557 377.049 407.833 377.621 408.889 378.208C409.945 378.795 410.751 379.513 411.309 380.364C411.866 381.185 412.145 382.227 412.145 383.488ZM438.348 378.164C438.348 380.129 438.084 381.875 437.556 383.4C437.057 384.896 436.324 386.172 435.356 387.228C434.417 388.284 433.258 389.091 431.88 389.648C430.53 390.176 429.02 390.44 427.348 390.44C425.793 390.44 424.356 390.176 423.036 389.648C421.716 389.091 420.572 388.284 419.604 387.228C418.636 386.172 417.873 384.896 417.316 383.4C416.788 381.875 416.524 380.129 416.524 378.164C416.524 375.553 416.964 373.353 417.844 371.564C418.724 369.745 419.985 368.367 421.628 367.428C423.27 366.46 425.221 365.976 427.48 365.976C429.621 365.976 431.498 366.46 433.112 367.428C434.754 368.367 436.03 369.745 436.94 371.564C437.878 373.353 438.348 375.553 438.348 378.164ZM420.528 378.164C420.528 380.012 420.762 381.625 421.232 383.004C421.73 384.353 422.493 385.395 423.52 386.128C424.546 386.861 425.852 387.228 427.436 387.228C429.02 387.228 430.325 386.861 431.352 386.128C432.378 385.395 433.126 384.353 433.596 383.004C434.094 381.625 434.344 380.012 434.344 378.164C434.344 376.287 434.094 374.688 433.596 373.368C433.097 372.048 432.334 371.036 431.308 370.332C430.31 369.599 429.005 369.232 427.392 369.232C424.986 369.232 423.241 370.024 422.156 371.608C421.07 373.192 420.528 375.377 420.528 378.164ZM455.352 369.408H449.412V390H445.54V369.408H441.404V367.604L445.54 366.284V364.92C445.54 362.896 445.833 361.253 446.42 359.992C447.036 358.731 447.916 357.807 449.06 357.22C450.204 356.633 451.583 356.34 453.196 356.34C454.135 356.34 454.985 356.428 455.748 356.604C456.54 356.751 457.215 356.927 457.772 357.132L456.76 360.168C456.291 360.021 455.748 359.875 455.132 359.728C454.516 359.581 453.885 359.508 453.24 359.508C451.949 359.508 450.981 359.948 450.336 360.828C449.72 361.679 449.412 363.028 449.412 364.876V366.416H455.352V369.408ZM467.485 387.272C468.072 387.272 468.673 387.228 469.289 387.14C469.905 387.023 470.404 386.905 470.785 386.788V389.736C470.374 389.941 469.788 390.103 469.025 390.22C468.262 390.367 467.529 390.44 466.825 390.44C465.593 390.44 464.449 390.235 463.393 389.824C462.366 389.384 461.53 388.636 460.885 387.58C460.24 386.524 459.917 385.043 459.917 383.136V369.408H456.573V367.56L459.961 366.02L461.501 361.004H463.789V366.416H470.609V369.408H463.789V383.048C463.789 384.485 464.126 385.556 464.801 386.26C465.505 386.935 466.4 387.272 467.485 387.272Z" fill="url(#paint0_linear_125_12386)"/>
</g>
<g filter="url(#filter1_d_125_12386)">
<path d="M102.763 419.416C102.763 420.44 102.515 421.312 102.019 422.032C101.523 422.736 100.811 423.28 99.8828 423.664C98.9708 424.048 97.8908 424.24 96.6428 424.24C96.0028 424.24 95.3868 424.208 94.7948 424.144C94.2188 424.08 93.6908 423.992 93.2108 423.88C92.7308 423.752 92.3068 423.6 91.9388 423.424V421.36C92.5148 421.616 93.2268 421.848 94.0748 422.056C94.9388 422.264 95.8268 422.368 96.7388 422.368C97.5868 422.368 98.2988 422.256 98.8748 422.032C99.4508 421.808 99.8828 421.488 100.171 421.072C100.459 420.656 100.603 420.168 100.603 419.608C100.603 419.048 100.483 418.576 100.243 418.192C100.003 417.808 99.5868 417.456 98.9948 417.136C98.4188 416.8 97.6108 416.448 96.5708 416.08C95.8348 415.808 95.1868 415.52 94.6268 415.216C94.0828 414.896 93.6268 414.536 93.2588 414.136C92.8908 413.736 92.6108 413.28 92.4188 412.768C92.2428 412.256 92.1548 411.664 92.1548 410.992C92.1548 410.08 92.3868 409.304 92.8508 408.664C93.3148 408.008 93.9548 407.504 94.7708 407.152C95.6028 406.8 96.5548 406.624 97.6268 406.624C98.5708 406.624 99.4348 406.712 100.219 406.888C101.003 407.064 101.715 407.296 102.355 407.584L101.683 409.432C101.091 409.176 100.443 408.96 99.7388 408.784C99.0508 408.608 98.3308 408.52 97.5788 408.52C96.8588 408.52 96.2588 408.624 95.7788 408.832C95.2988 409.04 94.9388 409.336 94.6988 409.72C94.4588 410.088 94.3388 410.52 94.3388 411.016C94.3388 411.592 94.4588 412.072 94.6988 412.456C94.9388 412.84 95.3308 413.184 95.8748 413.488C96.4188 413.792 97.1548 414.12 98.0828 414.472C99.0908 414.84 99.9388 415.24 100.627 415.672C101.331 416.088 101.859 416.592 102.211 417.184C102.579 417.776 102.763 418.52 102.763 419.416ZM116.457 422.512C116.777 422.512 117.105 422.488 117.441 422.44C117.777 422.376 118.049 422.312 118.257 422.248V423.856C118.033 423.968 117.713 424.056 117.297 424.12C116.881 424.2 116.481 424.24 116.097 424.24C115.425 424.24 114.801 424.128 114.225 423.904C113.665 423.664 113.209 423.256 112.857 422.68C112.505 422.104 112.329 421.296 112.329 420.256V412.768H110.505V411.76L112.353 410.92L113.193 408.184H114.441V411.136H118.161V412.768H114.441V420.208C114.441 420.992 114.625 421.576 114.993 421.96C115.377 422.328 115.865 422.512 116.457 422.512ZM137.819 411.136V424H136.091L135.779 422.296H135.683C135.411 422.744 135.059 423.112 134.627 423.4C134.195 423.688 133.723 423.896 133.211 424.024C132.699 424.168 132.163 424.24 131.603 424.24C130.579 424.24 129.715 424.08 129.011 423.76C128.323 423.424 127.803 422.912 127.451 422.224C127.099 421.536 126.923 420.648 126.923 419.56V411.136H129.059V419.416C129.059 420.44 129.291 421.208 129.755 421.72C130.219 422.232 130.939 422.488 131.915 422.488C132.875 422.488 133.627 422.312 134.171 421.96C134.731 421.592 135.123 421.064 135.347 420.376C135.587 419.672 135.707 418.824 135.707 417.832V411.136H137.819ZM152.698 424.24C151.098 424.24 149.818 423.688 148.858 422.584C147.898 421.464 147.418 419.8 147.418 417.592C147.418 415.384 147.898 413.72 148.858 412.6C149.834 411.464 151.122 410.896 152.722 410.896C153.394 410.896 153.978 410.984 154.474 411.16C154.97 411.32 155.402 411.544 155.77 411.832C156.138 412.12 156.45 412.44 156.706 412.792H156.85C156.834 412.584 156.802 412.28 156.754 411.88C156.722 411.464 156.706 411.136 156.706 410.896V405.76H158.818V424H157.114L156.802 422.272H156.706C156.45 422.64 156.138 422.976 155.77 423.28C155.402 423.568 154.962 423.8 154.45 423.976C153.954 424.152 153.37 424.24 152.698 424.24ZM153.034 422.488C154.394 422.488 155.346 422.12 155.89 421.384C156.45 420.632 156.73 419.504 156.73 418V417.616C156.73 416.016 156.466 414.792 155.938 413.944C155.41 413.08 154.434 412.648 153.01 412.648C151.874 412.648 151.018 413.104 150.442 414.016C149.882 414.912 149.602 416.12 149.602 417.64C149.602 419.176 149.882 420.368 150.442 421.216C151.018 422.064 151.882 422.488 153.034 422.488ZM174.106 410.896C175.21 410.896 176.154 411.136 176.938 411.616C177.738 412.096 178.346 412.776 178.762 413.656C179.194 414.52 179.41 415.536 179.41 416.704V417.976H170.602C170.634 419.432 171.002 420.544 171.706 421.312C172.426 422.064 173.426 422.44 174.706 422.44C175.522 422.44 176.242 422.368 176.866 422.224C177.506 422.064 178.162 421.84 178.834 421.552V423.4C178.178 423.688 177.53 423.896 176.89 424.024C176.25 424.168 175.49 424.24 174.61 424.24C173.394 424.24 172.314 423.992 171.37 423.496C170.442 423 169.714 422.264 169.186 421.288C168.674 420.296 168.418 419.088 168.418 417.664C168.418 416.256 168.65 415.048 169.114 414.04C169.594 413.032 170.258 412.256 171.106 411.712C171.97 411.168 172.97 410.896 174.106 410.896ZM174.082 412.624C173.074 412.624 172.274 412.952 171.682 413.608C171.106 414.248 170.762 415.144 170.65 416.296H177.202C177.202 415.56 177.09 414.92 176.866 414.376C176.642 413.832 176.298 413.408 175.834 413.104C175.386 412.784 174.802 412.624 174.082 412.624ZM195.111 410.896C196.647 410.896 197.807 411.272 198.591 412.024C199.375 412.76 199.767 413.96 199.767 415.624V424H197.679V415.768C197.679 414.728 197.447 413.952 196.983 413.44C196.519 412.928 195.791 412.672 194.799 412.672C193.375 412.672 192.391 413.072 191.847 413.872C191.303 414.672 191.031 415.824 191.031 417.328V424H188.919V411.136H190.623L190.935 412.888H191.055C191.343 412.44 191.695 412.072 192.111 411.784C192.543 411.48 193.015 411.256 193.527 411.112C194.039 410.968 194.567 410.896 195.111 410.896ZM214.285 422.512C214.605 422.512 214.933 422.488 215.269 422.44C215.605 422.376 215.877 422.312 216.085 422.248V423.856C215.861 423.968 215.541 424.056 215.125 424.12C214.709 424.2 214.309 424.24 213.925 424.24C213.253 424.24 212.629 424.128 212.053 423.904C211.493 423.664 211.037 423.256 210.685 422.68C210.333 422.104 210.157 421.296 210.157 420.256V412.768H208.333V411.76L210.181 410.92L211.021 408.184H212.269V411.136H215.989V412.768H212.269V420.208C212.269 420.992 212.453 421.576 212.821 421.96C213.205 422.328 213.693 422.512 214.285 422.512ZM238.762 408.52C237.85 408.52 237.026 408.68 236.29 409C235.554 409.304 234.93 409.76 234.418 410.368C233.906 410.96 233.514 411.688 233.242 412.552C232.97 413.4 232.834 414.36 232.834 415.432C232.834 416.84 233.05 418.064 233.482 419.104C233.93 420.144 234.586 420.944 235.45 421.504C236.33 422.064 237.426 422.344 238.738 422.344C239.49 422.344 240.202 422.28 240.874 422.152C241.546 422.024 242.202 421.864 242.842 421.672V423.544C242.202 423.784 241.538 423.96 240.85 424.072C240.178 424.184 239.37 424.24 238.426 424.24C236.682 424.24 235.226 423.88 234.058 423.16C232.89 422.44 232.01 421.416 231.418 420.088C230.842 418.76 230.554 417.2 230.554 415.408C230.554 414.112 230.73 412.928 231.082 411.856C231.45 410.784 231.978 409.856 232.666 409.072C233.37 408.288 234.234 407.688 235.258 407.272C236.282 406.84 237.458 406.624 238.786 406.624C239.666 406.624 240.514 406.712 241.33 406.888C242.146 407.064 242.874 407.312 243.514 407.632L242.65 409.456C242.122 409.216 241.53 409 240.874 408.808C240.234 408.616 239.53 408.52 238.762 408.52ZM263.712 417.544C263.712 418.616 263.568 419.568 263.28 420.4C263.008 421.216 262.608 421.912 262.08 422.488C261.568 423.064 260.936 423.504 260.184 423.808C259.448 424.096 258.624 424.24 257.712 424.24C256.864 424.24 256.08 424.096 255.36 423.808C254.64 423.504 254.016 423.064 253.488 422.488C252.96 421.912 252.544 421.216 252.24 420.4C251.952 419.568 251.808 418.616 251.808 417.544C251.808 416.12 252.048 414.92 252.528 413.944C253.008 412.952 253.696 412.2 254.592 411.688C255.488 411.16 256.552 410.896 257.784 410.896C258.952 410.896 259.976 411.16 260.856 411.688C261.752 412.2 262.448 412.952 262.944 413.944C263.456 414.92 263.712 416.12 263.712 417.544ZM253.992 417.544C253.992 418.552 254.12 419.432 254.376 420.184C254.648 420.92 255.064 421.488 255.624 421.888C256.184 422.288 256.896 422.488 257.76 422.488C258.624 422.488 259.336 422.288 259.896 421.888C260.456 421.488 260.864 420.92 261.12 420.184C261.392 419.432 261.528 418.552 261.528 417.544C261.528 416.52 261.392 415.648 261.12 414.928C260.848 414.208 260.432 413.656 259.872 413.272C259.328 412.872 258.616 412.672 257.736 412.672C256.424 412.672 255.472 413.104 254.88 413.968C254.288 414.832 253.992 416.024 253.992 417.544ZM287.406 410.896C288.862 410.896 289.95 411.272 290.67 412.024C291.39 412.76 291.75 413.96 291.75 415.624V424H289.662V415.72C289.662 414.712 289.446 413.952 289.014 413.44C288.598 412.928 287.942 412.672 287.046 412.672C285.798 412.672 284.902 413.032 284.358 413.752C283.83 414.472 283.566 415.52 283.566 416.896V424H281.478V415.72C281.478 415.048 281.382 414.488 281.19 414.04C280.998 413.576 280.71 413.232 280.326 413.008C279.942 412.784 279.446 412.672 278.838 412.672C277.974 412.672 277.294 412.856 276.798 413.224C276.302 413.576 275.942 414.096 275.718 414.784C275.51 415.472 275.406 416.32 275.406 417.328V424H273.294V411.136H274.998L275.31 412.888H275.43C275.702 412.44 276.03 412.072 276.414 411.784C276.814 411.48 277.254 411.256 277.734 411.112C278.214 410.968 278.71 410.896 279.222 410.896C280.214 410.896 281.038 411.072 281.694 411.424C282.366 411.776 282.854 412.32 283.158 413.056H283.278C283.71 412.32 284.294 411.776 285.03 411.424C285.782 411.072 286.574 410.896 287.406 410.896ZM316.07 410.896C317.526 410.896 318.614 411.272 319.334 412.024C320.054 412.76 320.414 413.96 320.414 415.624V424H318.326V415.72C318.326 414.712 318.11 413.952 317.678 413.44C317.262 412.928 316.606 412.672 315.71 412.672C314.462 412.672 313.566 413.032 313.022 413.752C312.494 414.472 312.23 415.52 312.23 416.896V424H310.142V415.72C310.142 415.048 310.046 414.488 309.854 414.04C309.662 413.576 309.374 413.232 308.99 413.008C308.606 412.784 308.11 412.672 307.502 412.672C306.638 412.672 305.958 412.856 305.462 413.224C304.966 413.576 304.606 414.096 304.382 414.784C304.174 415.472 304.07 416.32 304.07 417.328V424H301.958V411.136H303.662L303.974 412.888H304.094C304.366 412.44 304.694 412.072 305.078 411.784C305.478 411.48 305.918 411.256 306.398 411.112C306.878 410.968 307.374 410.896 307.886 410.896C308.878 410.896 309.702 411.072 310.358 411.424C311.03 411.776 311.518 412.32 311.822 413.056H311.942C312.374 412.32 312.958 411.776 313.694 411.424C314.446 411.072 315.238 410.896 316.07 410.896ZM341.374 411.136V424H339.646L339.334 422.296H339.238C338.966 422.744 338.614 423.112 338.182 423.4C337.75 423.688 337.278 423.896 336.766 424.024C336.254 424.168 335.718 424.24 335.158 424.24C334.134 424.24 333.27 424.08 332.566 423.76C331.878 423.424 331.358 422.912 331.006 422.224C330.654 421.536 330.478 420.648 330.478 419.56V411.136H332.614V419.416C332.614 420.44 332.846 421.208 333.31 421.72C333.774 422.232 334.494 422.488 335.47 422.488C336.43 422.488 337.182 422.312 337.726 421.96C338.286 421.592 338.678 421.064 338.902 420.376C339.142 419.672 339.262 418.824 339.262 417.832V411.136H341.374ZM357.884 410.896C359.42 410.896 360.58 411.272 361.364 412.024C362.148 412.76 362.54 413.96 362.54 415.624V424H360.452V415.768C360.452 414.728 360.22 413.952 359.756 413.44C359.292 412.928 358.564 412.672 357.572 412.672C356.148 412.672 355.164 413.072 354.62 413.872C354.076 414.672 353.804 415.824 353.804 417.328V424H351.692V411.136H353.396L353.708 412.888H353.828C354.116 412.44 354.468 412.072 354.884 411.784C355.316 411.48 355.788 411.256 356.3 411.112C356.812 410.968 357.34 410.896 357.884 410.896ZM374.875 411.136V424H372.763V411.136H374.875ZM373.843 406.312C374.163 406.312 374.443 406.424 374.683 406.648C374.939 406.856 375.067 407.192 375.067 407.656C375.067 408.104 374.939 408.44 374.683 408.664C374.443 408.888 374.163 409 373.843 409C373.491 409 373.195 408.888 372.955 408.664C372.715 408.44 372.595 408.104 372.595 407.656C372.595 407.192 372.715 406.856 372.955 406.648C373.195 406.424 373.491 406.312 373.843 406.312ZM389.481 422.512C389.801 422.512 390.129 422.488 390.465 422.44C390.801 422.376 391.073 422.312 391.281 422.248V423.856C391.057 423.968 390.737 424.056 390.321 424.12C389.905 424.2 389.505 424.24 389.121 424.24C388.449 424.24 387.825 424.128 387.249 423.904C386.689 423.664 386.233 423.256 385.881 422.68C385.529 422.104 385.353 421.296 385.353 420.256V412.768H383.529V411.76L385.377 410.92L386.217 408.184H387.465V411.136H391.185V412.768H387.465V420.208C387.465 420.992 387.649 421.576 388.017 421.96C388.401 422.328 388.889 422.512 389.481 422.512ZM398.075 411.136H400.331L403.115 418.456C403.275 418.888 403.419 419.304 403.547 419.704C403.691 420.104 403.819 420.496 403.931 420.88C404.043 421.248 404.131 421.608 404.195 421.96H404.291C404.387 421.56 404.539 421.04 404.747 420.4C404.955 419.744 405.171 419.088 405.395 418.432L408.011 411.136H410.291L404.747 425.776C404.443 426.576 404.083 427.272 403.667 427.864C403.267 428.472 402.771 428.936 402.179 429.256C401.603 429.592 400.899 429.76 400.067 429.76C399.683 429.76 399.347 429.736 399.059 429.688C398.771 429.656 398.523 429.616 398.315 429.568V427.888C398.491 427.92 398.699 427.952 398.939 427.984C399.195 428.016 399.459 428.032 399.731 428.032C400.227 428.032 400.651 427.936 401.003 427.744C401.371 427.568 401.683 427.304 401.939 426.952C402.195 426.616 402.411 426.216 402.587 425.752L403.259 424.048L398.075 411.136Z" fill="url(#paint1_linear_125_12386)"/>
</g>
<g filter="url(#filter2_d_125_12386)">
<path fill-rule="evenodd" clip-rule="evenodd" d="M298.871 211.091C296.059 213.114 296.179 217.337 299.102 219.197L352.265 253.019C357.44 256.312 364.098 256.122 369.077 252.54L373.871 249.091C377.217 246.683 380.138 243.818 382.572 240.615C387.927 233.567 390.927 224.878 390.927 215.809V188.259V91C390.927 74.9837 377.943 62 361.927 62H330.927C322.643 62 315.927 68.7157 315.927 77L315.927 177.844C315.916 191.023 309.57 203.394 298.871 211.091V211.091Z" fill="url(#paint2_linear_125_12386)"/>
<path fill-rule="evenodd" clip-rule="evenodd" d="M298.871 211.091C296.059 213.114 296.179 217.337 299.102 219.197L352.265 253.019C357.44 256.312 364.098 256.122 369.077 252.54L373.871 249.091C377.217 246.683 380.138 243.818 382.572 240.615C387.927 233.567 390.927 224.878 390.927 215.809V188.259V91C390.927 74.9837 377.943 62 361.927 62H330.927C322.643 62 315.927 68.7157 315.927 77L315.927 177.844C315.916 191.023 309.57 203.394 298.871 211.091V211.091Z" fill="url(#paint3_linear_125_12386)"/>
<path fill-rule="evenodd" clip-rule="evenodd" d="M110 215.125V206.448C110 200.577 113.426 195.245 118.766 192.805L171.152 168.87C177.163 166.124 184 170.517 184 177.126V177.126C184 190.401 190.428 202.856 201.25 210.546L206.176 214.047L308.237 282.582C308.466 282.735 308.713 282.87 308.968 282.976V282.976C312.831 284.58 314.153 290.667 310.665 292.975L268.876 320.628C256.07 326.995 240.754 326.255 228.556 318.461L199.232 299.725L186.877 291.428L128.372 249.343L127.25 248.546C116.428 240.856 110 228.401 110 215.125Z" fill="url(#paint4_linear_125_12386)"/>
<path fill-rule="evenodd" clip-rule="evenodd" d="M140 62C123.431 62 110 75.4314 110 92V112.85C110 121.392 110 125.664 111.689 128.915C113.112 131.654 115.346 133.888 118.085 135.311C121.336 137 125.608 137 134.15 137H252.308C264.98 137 271.316 137 275.189 134.29C278.429 132.023 280.642 128.568 281.348 124.677C282.192 120.026 279.544 114.27 274.248 102.758L257.59 66.5425C256.316 63.7739 253.547 62 250.5 62V62H140Z" fill="url(#paint5_linear_125_12386)"/>
<path fill-rule="evenodd" clip-rule="evenodd" d="M140 62L139.979 62H185H214C197.984 62 185 74.9837 185 91V137L252.287 137C264.959 137 271.295 137 275.168 134.29C278.408 132.023 280.621 128.568 281.327 124.677C282.171 120.026 279.523 114.27 274.227 102.758L274.227 102.758L257.568 66.5425C256.295 63.7739 253.526 62 250.479 62H140Z" fill="url(#paint6_linear_125_12386)"/>
<path fill-rule="evenodd" clip-rule="evenodd" d="M218 137.122H252.308C264.98 137.122 271.316 137.122 275.189 134.412C278.429 132.145 280.642 128.69 281.348 124.799C282.192 120.148 279.544 114.392 274.249 102.88L269.244 92L273.691 102.8C278.208 113.771 280.467 119.256 279.568 123.719C278.815 127.458 276.666 130.769 273.559 132.98C269.849 135.619 263.919 135.791 252.06 136.135L218 137.122Z" fill="url(#paint7_linear_125_12386)"/>
<path fill-rule="evenodd" clip-rule="evenodd" d="M139 62C122.984 62 110 74.9837 110 91V137V152V163.089C110 174.028 121.331 181.288 131.269 176.716L176.269 156.016C181.59 153.569 185 148.247 185 142.389V137V91C185 74.9837 197.984 62 214 62H185H139Z" fill="url(#paint8_linear_125_12386)"/>
<path fill-rule="evenodd" clip-rule="evenodd" d="M117 175.981C120.641 177.478 124.904 177.572 128.936 175.716L173.936 155.016C179.258 152.569 182.668 147.247 182.668 141.389V136V90C182.668 76.6054 191.749 65.3318 204.09 62H213.668C197.651 62 184.668 74.9837 184.668 91V137V142.389C184.668 148.247 181.258 153.569 175.936 156.016L130.936 176.716C126.138 178.924 121.016 178.373 117 175.981Z" fill="url(#paint9_linear_125_12386)"/>
<path fill-rule="evenodd" clip-rule="evenodd" d="M112 196V213.229C112 226.505 118.428 238.959 129.25 246.649L130.372 247.447L173.43 278.42C169.457 277.423 165.6 275.822 162 273.617L173.911 282.104H173.77L128.372 249.447L127.25 248.649C116.428 240.959 110 228.505 110 215.229V196.914L112 196ZM250.139 243.672L223.294 261.428L206.981 271.52C193.807 279.67 177.181 279.691 164 271.617L173.611 278.465C184.135 281.054 195.46 279.41 204.981 273.52L221.294 263.428L250.647 244.013L250.139 243.672Z" fill="url(#paint10_linear_125_12386)"/>
<path fill-rule="evenodd" clip-rule="evenodd" d="M301.465 62H328H328.465H361.5C377.516 62 390.5 74.9837 390.5 91V137V166C390.5 149.984 377.516 137 361.5 137H328.465H328H311.018C305.19 137 299.89 133.624 297.425 128.343L276.425 83.3433C271.784 73.3986 279.044 62 290.018 62H301.465Z" fill="url(#paint11_linear_125_12386)"/>
<path fill-rule="evenodd" clip-rule="evenodd" d="M301.465 62H328H328.465H361.5C377.516 62 390.5 74.9837 390.5 91V137V166C390.5 149.984 377.516 137 361.5 137H328.465H328H311.018C305.19 137 299.89 133.624 297.425 128.343L276.425 83.3433C271.784 73.3986 279.044 62 290.018 62H301.465Z" fill="url(#paint12_linear_125_12386)"/>
<path fill-rule="evenodd" clip-rule="evenodd" d="M297 216.834C297.361 217.744 298.003 218.563 298.922 219.148L352.085 252.971C356.775 255.955 362.683 256.078 367.455 253.409L373.525 249.042C376.871 246.635 379.792 243.77 382.226 240.566C387.581 233.518 390.581 224.83 390.581 215.76V188.21V163.878C390.021 155.946 386.27 148.895 380.606 144C384.575 148.594 387.127 154.446 387.581 160.878V185.21V212.76C387.581 221.83 384.581 230.518 379.226 237.566C376.792 240.77 373.871 243.635 370.525 246.042L364.455 250.409C359.683 253.078 353.775 252.955 349.085 249.971L297 216.834Z" fill="url(#paint13_linear_125_12386)"/>
<path fill-rule="evenodd" clip-rule="evenodd" d="M253.123 185.178L239.703 166.69L251.219 143.167H251.256C251.62 142.499 252.316 142.037 253.123 142.002V185.178Z" fill="#FFDD55"/>
<path fill-rule="evenodd" clip-rule="evenodd" d="M253.123 185.178L239.703 166.69L251.219 143.167H251.256C251.62 142.499 252.316 142.037 253.123 142.002V185.178Z" fill="#FFDD55"/>
<path fill-rule="evenodd" clip-rule="evenodd" d="M253.123 185.176L266.543 166.688L255.028 143.165H254.991C254.626 142.496 253.93 142.035 253.123 142V185.176Z" fill="#FFCC00"/>
<path fill-rule="evenodd" clip-rule="evenodd" d="M253.123 185.176L266.543 166.688L255.028 143.165H254.991C254.626 142.496 253.93 142.035 253.123 142V185.176Z" fill="#FFCC00"/>
<path fill-rule="evenodd" clip-rule="evenodd" d="M253.123 185.176L266.543 166.688L255.028 143.165H254.991C254.626 142.496 253.93 142.035 253.123 142V185.176Z" fill="url(#paint14_linear_125_12386)"/>
<path fill-rule="evenodd" clip-rule="evenodd" d="M253.123 185.176L266.543 166.688L255.028 143.165H254.991C254.626 142.496 253.93 142.035 253.123 142V185.176Z" fill="url(#paint15_linear_125_12386)"/>
<path fill-rule="evenodd" clip-rule="evenodd" d="M253.205 185.369L231.41 192.217L212.767 173.822L212.778 173.787C212.261 173.229 212.044 172.422 212.268 171.646L253.205 185.369Z" fill="#FFDD55"/>
<path fill-rule="evenodd" clip-rule="evenodd" d="M253.205 185.369L231.41 192.217L212.767 173.822L212.778 173.787C212.261 173.229 212.044 172.422 212.268 171.646L253.205 185.369Z" fill="#FFDD55"/>
<path fill-rule="evenodd" clip-rule="evenodd" d="M253.203 185.369L239.939 166.768L213.975 170.21L213.964 170.245C213.214 170.378 212.555 170.892 212.266 171.646L253.203 185.369Z" fill="#FFCC00"/>
<path fill-rule="evenodd" clip-rule="evenodd" d="M253.203 185.369L239.939 166.768L213.975 170.21L213.964 170.245C213.214 170.378 212.555 170.892 212.266 171.646L253.203 185.369Z" fill="#FFCC00"/>
<path fill-rule="evenodd" clip-rule="evenodd" d="M253.203 185.369L239.939 166.768L213.975 170.21L213.964 170.245C213.214 170.378 212.555 170.892 212.266 171.646L253.203 185.369Z" fill="url(#paint16_linear_125_12386)"/>
<path fill-rule="evenodd" clip-rule="evenodd" d="M253.203 185.369L239.939 166.768L213.975 170.21L213.964 170.245C213.214 170.378 212.555 170.892 212.266 171.646L253.203 185.369Z" fill="url(#paint17_linear_125_12386)"/>
<path fill-rule="evenodd" clip-rule="evenodd" d="M253.207 185.32L252.909 208.163L229.613 220.132L229.583 220.11C228.891 220.428 228.057 220.382 227.39 219.927L253.207 185.32Z" fill="#FFDD55"/>
<path fill-rule="evenodd" clip-rule="evenodd" d="M253.207 185.32L252.909 208.163L229.613 220.132L229.583 220.11C228.891 220.428 228.057 220.382 227.39 219.927L253.207 185.32Z" fill="#FFDD55"/>
<path fill-rule="evenodd" clip-rule="evenodd" d="M253.206 185.322L231.394 192.115L226.559 217.856L226.588 217.878C226.481 218.632 226.763 219.418 227.389 219.928L253.206 185.322Z" fill="#FFCC00"/>
<path fill-rule="evenodd" clip-rule="evenodd" d="M253.206 185.322L231.394 192.115L226.559 217.856L226.588 217.878C226.481 218.632 226.763 219.418 227.389 219.928L253.206 185.322Z" fill="#FFCC00"/>
<path fill-rule="evenodd" clip-rule="evenodd" d="M253.206 185.322L231.394 192.115L226.559 217.856L226.588 217.878C226.481 218.632 226.763 219.418 227.389 219.928L253.206 185.322Z" fill="url(#paint18_linear_125_12386)"/>
<path fill-rule="evenodd" clip-rule="evenodd" d="M253.206 185.322L231.394 192.115L226.559 217.856L226.588 217.878C226.481 218.632 226.763 219.418 227.389 219.928L253.206 185.322Z" fill="url(#paint19_linear_125_12386)"/>
<path fill-rule="evenodd" clip-rule="evenodd" d="M252.836 185.178L274.56 192.25L279.067 218.05L279.038 218.071C279.135 218.827 278.844 219.609 278.211 220.111L252.836 185.178Z" fill="#FFDD55"/>
<path fill-rule="evenodd" clip-rule="evenodd" d="M252.836 185.178L274.56 192.25L279.067 218.05L279.038 218.071C279.135 218.827 278.844 219.609 278.211 220.111L252.836 185.178Z" fill="#FFDD55"/>
<path fill-rule="evenodd" clip-rule="evenodd" d="M252.838 185.18L252.845 208.025L275.987 220.289L276.017 220.268C276.705 220.594 277.539 220.559 278.212 220.113L252.838 185.18Z" fill="#FFCC00"/>
<path fill-rule="evenodd" clip-rule="evenodd" d="M252.838 185.18L252.845 208.025L275.987 220.289L276.017 220.268C276.705 220.594 277.539 220.559 278.212 220.113L252.838 185.18Z" fill="#FFCC00"/>
<path fill-rule="evenodd" clip-rule="evenodd" d="M252.838 185.18L252.845 208.025L275.987 220.289L276.017 220.268C276.705 220.594 277.539 220.559 278.212 220.113L252.838 185.18Z" fill="url(#paint20_linear_125_12386)"/>
<path fill-rule="evenodd" clip-rule="evenodd" d="M252.838 185.18L252.845 208.025L275.987 220.289L276.017 220.268C276.705 220.594 277.539 220.559 278.212 220.113L252.838 185.18Z" fill="url(#paint21_linear_125_12386)"/>
<path fill-rule="evenodd" clip-rule="evenodd" d="M252.805 185.217L266.305 166.787L292.223 170.559L292.234 170.594C292.982 170.737 293.634 171.259 293.914 172.016L252.805 185.217Z" fill="#FFDD55"/>
<path fill-rule="evenodd" clip-rule="evenodd" d="M252.805 185.217L266.305 166.787L292.223 170.559L292.234 170.594C292.982 170.737 293.634 171.259 293.914 172.016L252.805 185.217Z" fill="#FFDD55"/>
<path fill-rule="evenodd" clip-rule="evenodd" d="M252.807 185.217L274.513 192.342L293.389 174.185L293.378 174.15C293.903 173.598 294.13 172.794 293.916 172.016L252.807 185.217Z" fill="#FFCC00"/>
<path fill-rule="evenodd" clip-rule="evenodd" d="M252.807 185.217L274.513 192.342L293.389 174.185L293.378 174.15C293.903 173.598 294.13 172.794 293.916 172.016L252.807 185.217Z" fill="#FFCC00"/>
<path fill-rule="evenodd" clip-rule="evenodd" d="M252.807 185.217L274.513 192.342L293.389 174.185L293.378 174.15C293.903 173.598 294.13 172.794 293.916 172.016L252.807 185.217Z" fill="url(#paint22_linear_125_12386)"/>
<path fill-rule="evenodd" clip-rule="evenodd" d="M252.807 185.217L274.513 192.342L293.389 174.185L293.378 174.15C293.903 173.598 294.13 172.794 293.916 172.016L252.807 185.217Z" fill="url(#paint23_linear_125_12386)"/>
<path fill-rule="evenodd" clip-rule="evenodd" d="M301.465 62H328H328.465H361.5C366.554 62 371.305 63.2927 375.443 65.5654C371.801 63.9174 367.757 63 363.5 63H330.465H330H303.465H292.018C281.044 63 273.784 74.3986 278.425 84.3433L299.425 129.343C300.721 132.12 302.801 134.371 305.33 135.88C301.904 134.476 299.049 131.823 297.425 128.343L276.425 83.3433C271.784 73.3986 279.044 62 290.018 62H301.465Z" fill="url(#paint24_linear_125_12386)"/>
<path fill-rule="evenodd" clip-rule="evenodd" d="M110 151.977L110 125.442V124.977L110 91.9424C110 86.8888 111.293 82.1371 113.565 77.9999C111.917 81.6418 111 85.685 111 89.9424L111 122.977V123.442V149.977L111 161.424C111 172.399 122.399 179.658 132.343 175.017L177.343 154.017C180.12 152.721 182.371 150.641 183.88 148.112C182.476 151.538 179.823 154.393 176.343 156.017L131.343 177.017C121.399 181.658 110 174.399 110 163.424V151.977Z" fill="url(#paint25_linear_125_12386)"/>
<path fill-rule="evenodd" clip-rule="evenodd" d="M110 206.41V215.087C110 228.363 116.428 240.817 127.25 248.507L128.372 249.305L162.175 273.62C175.329 281.587 191.865 281.53 204.981 273.416L221.294 263.325L250.647 243.909L206.176 214.047L201.25 210.546C190.428 202.855 184 190.401 184 177.125V177.087C184 170.754 177.722 166.456 171.909 168.524L117.844 193.226C113.035 195.835 110 200.883 110 206.41ZM173.824 282H173.911L164.814 275.519L173.824 282Z" fill="url(#paint26_linear_125_12386)"/>
<path fill-rule="evenodd" clip-rule="evenodd" d="M259.244 323.659C260.04 323.611 260.835 323.53 261.629 323.416C265.114 322.42 268.498 320.953 271.686 319.011L274.853 317.083L324.2 284.765L332.979 279.016C342.073 273.061 342.01 259.711 332.859 253.842L330.737 252.481L291.388 227.875C286.421 224.769 280.101 224.839 275.204 228.053L272.084 230.1L271.863 229.773L220.411 262.953L203.981 272.854C190.713 280.85 174.089 280.677 161.002 272.451L181.956 287.751L181.794 287.856L190.503 294.214L227.009 317.907C229.799 319.717 232.756 321.156 235.811 322.223C243.334 324.983 251.488 325.467 259.244 323.659Z" fill="url(#paint27_linear_125_12386)"/>
<path fill-rule="evenodd" clip-rule="evenodd" d="M168.01 277.977C179.926 282.957 193.671 282.075 204.979 275.261L221.409 265.36L272.861 232.18L273.082 232.508L276.202 230.46C281.099 227.246 287.419 227.176 292.385 230.282L331.735 254.888L333.857 256.249C335.908 257.565 337.503 259.256 338.64 261.156C337.533 258.448 335.605 256.011 332.857 254.249L330.735 252.888L291.385 228.282C286.419 225.176 280.099 225.246 275.202 228.46L272.082 230.508L271.861 230.18L220.409 263.36L203.979 273.261C190.711 281.257 174.087 281.084 161 272.858L168.01 277.977Z" fill="url(#paint28_linear_125_12386)"/>
<path fill-rule="evenodd" clip-rule="evenodd" d="M277.126 70C275.629 73.6413 275.535 77.9036 277.39 81.9363L298.09 126.936C300.538 132.258 305.86 135.668 311.718 135.668H317.107H363.107C376.502 135.668 387.775 144.749 391.107 157.09V166.668C391.107 150.651 378.123 137.668 362.107 137.668H316.107H310.718C304.86 137.668 299.538 134.258 297.09 128.936L276.39 83.9363C274.183 79.1383 274.734 74.0155 277.126 70Z" fill="url(#paint29_linear_125_12386)"/>
<path fill-rule="evenodd" clip-rule="evenodd" d="M267 321.873C268.599 321.162 270.164 320.344 271.684 319.419L274.851 317.49L324.198 285.172L332.977 279.424C342.071 273.468 342.007 260.118 332.857 254.249L330.735 252.888L291.385 228.282C288.509 226.483 285.178 225.749 281.933 226.075C284.182 226.301 286.393 227.036 288.385 228.282L327.735 252.888L329.857 254.249C339.007 260.118 339.071 273.468 329.977 279.424L321.198 285.172L271.851 317.49L268.684 319.419C268.128 319.757 267.567 320.081 267 320.39V321.873Z" fill="url(#paint30_linear_125_12386)"/>
<path fill-rule="evenodd" clip-rule="evenodd" d="M299.268 219.197C296.345 217.337 296.225 213.114 299.037 211.091C309.736 203.394 316.082 191.023 316.093 177.844L316.093 137H362C377.319 137 389.864 148.878 390.927 163.926V188.259V215.809C390.927 224.878 387.927 233.567 382.572 240.615C380.138 243.818 377.217 246.683 373.871 249.091L367.801 253.458C363.028 256.127 357.121 256.003 352.431 253.019L299.268 219.197Z" fill="url(#paint31_linear_125_12386)"/>
<path fill-rule="evenodd" clip-rule="evenodd" d="M316.093 171V177.844C316.082 191.023 309.736 203.394 299.037 211.091C296.225 213.114 296.345 217.337 299.268 219.197L352.431 253.019C355.334 254.866 358.704 255.617 361.982 255.289C359.698 255.059 357.451 254.305 355.431 253.019L302.268 219.197C299.345 217.337 299.225 213.114 302.037 211.091C312.736 203.394 319.082 191.023 319.093 177.844V171H316.093Z" fill="url(#paint32_linear_125_12386)"/>
<path d="M171.5 168.234C167 169.067 135 185.234 135 185.234C140.833 183.401 154.4 176.9 160 174.5C167 171.5 180.5 165.5 181 178.734C182 193.5 199 208.734 197.5 207.234C196 205.734 184 193.234 184 178.734C184.8 168.334 176 167.401 171.5 168.234Z" fill="url(#paint33_linear_125_12386)"/>
</g>
<circle cx="253.5" cy="185.5" r="7.25" stroke="white" stroke-width="0.5"/>
<circle cx="253.5" cy="185.5" r="12.25" stroke="white" stroke-width="0.5"/>
<circle cx="253.5" cy="185.5" r="17.25" stroke="white" stroke-width="0.5"/>
<circle cx="253.5" cy="185.5" r="22.25" stroke="white" stroke-width="0.5"/>
<circle cx="253.5" cy="185.5" r="27.25" stroke="white" stroke-width="0.5"/>
<defs>
<filter id="filter0_d_125_12386" x="23.5004" y="351.34" width="457.285" height="54.0999" filterUnits="userSpaceOnUse" color-interpolation-filters="sRGB">
<feFlood flood-opacity="0" result="BackgroundImageFix"/>
<feColorMatrix in="SourceAlpha" type="matrix" values="0 0 0 0 0 0 0 0 0 0 0 0 0 0 0 0 0 0 127 0" result="hardAlpha"/>
<feOffset dy="5"/>
<feGaussianBlur stdDeviation="5"/>
<feComposite in2="hardAlpha" operator="out"/>
<feColorMatrix type="matrix" values="0 0 0 0 0 0 0 0 0 0.16 0 0 0 0 1 0 0 0 0.4 0"/>
<feBlend mode="normal" in2="BackgroundImageFix" result="effect1_dropShadow_125_12386"/>
<feBlend mode="normal" in="SourceGraphic" in2="effect1_dropShadow_125_12386" result="shape"/>
</filter>
<filter id="filter1_d_125_12386" x="81.9388" y="400.76" width="338.352" height="44" filterUnits="userSpaceOnUse" color-interpolation-filters="sRGB">
<feFlood flood-opacity="0" result="BackgroundImageFix"/>
<feColorMatrix in="SourceAlpha" type="matrix" values="0 0 0 0 0 0 0 0 0 0 0 0 0 0 0 0 0 0 127 0" result="hardAlpha"/>
<feOffset dy="5"/>
<feGaussianBlur stdDeviation="5"/>
<feComposite in2="hardAlpha" operator="out"/>
<feColorMatrix type="matrix" values="0 0 0 0 0 0 0 0 0 0.16 0 0 0 0 1 0 0 0 0.4 0"/>
<feBlend mode="normal" in2="BackgroundImageFix" result="effect1_dropShadow_125_12386"/>
<feBlend mode="normal" in="SourceGraphic" in2="effect1_dropShadow_125_12386" result="shape"/>
</filter>
<filter id="filter2_d_125_12386" x="90" y="54" width="321.107" height="302.911" filterUnits="userSpaceOnUse" color-interpolation-filters="sRGB">
<feFlood flood-opacity="0" result="BackgroundImageFix"/>
<feColorMatrix in="SourceAlpha" type="matrix" values="0 0 0 0 0 0 0 0 0 0 0 0 0 0 0 0 0 0 127 0" result="hardAlpha"/>
<feOffset dy="12"/>
<feGaussianBlur stdDeviation="10"/>
<feComposite in2="hardAlpha" operator="out"/>
<feColorMatrix type="matrix" values="0 0 0 0 0 0 0 0 0 0 0 0 0 0 0 0 0 0 0.54 0"/>
<feBlend mode="normal" in2="BackgroundImageFix" result="effect1_dropShadow_125_12386"/>
<feBlend mode="normal" in="SourceGraphic" in2="effect1_dropShadow_125_12386" result="shape"/>
</filter>
<linearGradient id="paint0_linear_125_12386" x1="36.5" y1="354.208" x2="448.957" y2="391.795" gradientUnits="userSpaceOnUse">
<stop stop-color="#001EBD"/>
<stop offset="1" stop-color="#AE43E0"/>
</linearGradient>
<linearGradient id="paint1_linear_125_12386" x1="37.5" y1="415.461" x2="464.5" y2="415.462" gradientUnits="userSpaceOnUse">
<stop stop-color="#001EBD"/>
<stop offset="1" stop-color="#AE43E0"/>
</linearGradient>
<linearGradient id="paint2_linear_125_12386" x1="382.35" y1="164.355" x2="299.607" y2="230.318" gradientUnits="userSpaceOnUse">
<stop stop-color="#0029FF"/>
<stop offset="1" stop-color="#C54AFF"/>
</linearGradient>
<linearGradient id="paint3_linear_125_12386" x1="382.35" y1="164.355" x2="299.607" y2="230.318" gradientUnits="userSpaceOnUse">
<stop stop-color="#0029FF"/>
<stop offset="1" stop-color="#C54AFF"/>
</linearGradient>
<linearGradient id="paint4_linear_125_12386" x1="195.867" y1="278.976" x2="199.528" y2="150.987" gradientUnits="userSpaceOnUse">
<stop stop-color="#001DB7"/>
<stop offset="1" stop-color="#00FFF0"/>
</linearGradient>
<linearGradient id="paint5_linear_125_12386" x1="170.5" y1="87" x2="286.585" y2="140.094" gradientUnits="userSpaceOnUse">
<stop stop-color="#0029FF"/>
<stop offset="1" stop-color="#00C2FF"/>
</linearGradient>
<linearGradient id="paint6_linear_125_12386" x1="150" y1="103" x2="248.875" y2="227.828" gradientUnits="userSpaceOnUse">
<stop stop-color="#00147F"/>
<stop offset="1" stop-color="#00C2FF" stop-opacity="0"/>
</linearGradient>
<linearGradient id="paint7_linear_125_12386" x1="280" y1="134" x2="258" y2="119.5" gradientUnits="userSpaceOnUse">
<stop stop-color="white"/>
<stop offset="1" stop-color="white" stop-opacity="0"/>
</linearGradient>
<linearGradient id="paint8_linear_125_12386" x1="209" y1="72.5" x2="103.741" y2="205.797" gradientUnits="userSpaceOnUse">
<stop stop-color="#35008C" stop-opacity="0.98"/>
<stop offset="0.261" stop-color="#6500DD" stop-opacity="0.98572"/>
<stop offset="1" stop-color="#D98AFF"/>
</linearGradient>
<linearGradient id="paint9_linear_125_12386" x1="182" y1="55.5" x2="165" y2="127.5" gradientUnits="userSpaceOnUse">
<stop stop-color="#6500DD"/>
<stop offset="1" stop-color="#C54AFF" stop-opacity="0"/>
</linearGradient>
<linearGradient id="paint10_linear_125_12386" x1="185" y1="293.104" x2="150.5" y2="206.603" gradientUnits="userSpaceOnUse">
<stop stop-color="#0029FF"/>
<stop offset="1" stop-color="#00FFF0" stop-opacity="0"/>
</linearGradient>
<linearGradient id="paint11_linear_125_12386" x1="390.5" y1="152" x2="288.5" y2="47.5" gradientUnits="userSpaceOnUse">
<stop stop-color="#001EBD"/>
<stop offset="1" stop-color="#00C2FF"/>
</linearGradient>
<linearGradient id="paint12_linear_125_12386" x1="390.5" y1="152" x2="288.5" y2="47.5" gradientUnits="userSpaceOnUse">
<stop stop-color="#001EBD"/>
<stop offset="1" stop-color="#00C2FF"/>
</linearGradient>
<linearGradient id="paint13_linear_125_12386" x1="384.5" y1="144" x2="376.5" y2="228" gradientUnits="userSpaceOnUse">
<stop stop-color="#D98AFF"/>
<stop offset="1" stop-color="#D98AFF" stop-opacity="0"/>
</linearGradient>
<linearGradient id="paint14_linear_125_12386" x1="253.123" y1="184.498" x2="269.753" y2="152.6" gradientUnits="userSpaceOnUse">
<stop stop-color="#B15500"/>
<stop offset="1" stop-color="#FFCC00" stop-opacity="0"/>
</linearGradient>
<linearGradient id="paint15_linear_125_12386" x1="253.123" y1="184.498" x2="269.753" y2="152.6" gradientUnits="userSpaceOnUse">
<stop stop-color="#B15500"/>
<stop offset="1" stop-color="#FFCC00" stop-opacity="0"/>
</linearGradient>
<linearGradient id="paint16_linear_125_12386" x1="252.559" y1="185.153" x2="227.602" y2="159.248" gradientUnits="userSpaceOnUse">
<stop stop-color="#B15500"/>
<stop offset="1" stop-color="#FFCC00" stop-opacity="0"/>
</linearGradient>
<linearGradient id="paint17_linear_125_12386" x1="252.559" y1="185.153" x2="227.602" y2="159.248" gradientUnits="userSpaceOnUse">
<stop stop-color="#B15500"/>
<stop offset="1" stop-color="#FFCC00" stop-opacity="0"/>
</linearGradient>
<linearGradient id="paint18_linear_125_12386" x1="252.8" y1="185.866" x2="220.398" y2="201.489" gradientUnits="userSpaceOnUse">
<stop stop-color="#B15500"/>
<stop offset="1" stop-color="#FFCC00" stop-opacity="0"/>
</linearGradient>
<linearGradient id="paint19_linear_125_12386" x1="252.8" y1="185.866" x2="220.398" y2="201.489" gradientUnits="userSpaceOnUse">
<stop stop-color="#B15500"/>
<stop offset="1" stop-color="#FFCC00" stop-opacity="0"/>
</linearGradient>
<linearGradient id="paint20_linear_125_12386" x1="253.237" y1="185.729" x2="258.528" y2="221.31" gradientUnits="userSpaceOnUse">
<stop stop-color="#B15500"/>
<stop offset="1" stop-color="#FFCC00" stop-opacity="0"/>
</linearGradient>
<linearGradient id="paint21_linear_125_12386" x1="253.237" y1="185.729" x2="258.528" y2="221.31" gradientUnits="userSpaceOnUse">
<stop stop-color="#B15500"/>
<stop offset="1" stop-color="#FFCC00" stop-opacity="0"/>
</linearGradient>
<linearGradient id="paint22_linear_125_12386" x1="253.453" y1="185.009" x2="288.908" y2="191.09" gradientUnits="userSpaceOnUse">
<stop stop-color="#B15500"/>
<stop offset="1" stop-color="#FFCC00" stop-opacity="0"/>
</linearGradient>
<linearGradient id="paint23_linear_125_12386" x1="253.453" y1="185.009" x2="288.908" y2="191.09" gradientUnits="userSpaceOnUse">
<stop stop-color="#B15500"/>
<stop offset="1" stop-color="#FFCC00" stop-opacity="0"/>
</linearGradient>
<linearGradient id="paint24_linear_125_12386" x1="272.5" y1="67" x2="293.5" y2="94" gradientUnits="userSpaceOnUse">
<stop stop-color="white"/>
<stop offset="1" stop-color="white" stop-opacity="0"/>
</linearGradient>
<linearGradient id="paint25_linear_125_12386" x1="115" y1="180.942" x2="142" y2="159.942" gradientUnits="userSpaceOnUse">
<stop stop-color="white"/>
<stop offset="1" stop-color="white" stop-opacity="0"/>
</linearGradient>
<linearGradient id="paint26_linear_125_12386" x1="185" y1="293" x2="166" y2="195.5" gradientUnits="userSpaceOnUse">
<stop stop-color="#2F0660"/>
<stop offset="1" stop-color="#00C6E1" stop-opacity="0"/>
</linearGradient>
<linearGradient id="paint27_linear_125_12386" x1="181.5" y1="297.5" x2="386" y2="242.5" gradientUnits="userSpaceOnUse">
<stop stop-color="#330086" stop-opacity="0.98"/>
<stop offset="0.311" stop-color="#6500DD"/>
<stop offset="1" stop-color="#D98AFF"/>
</linearGradient>
<linearGradient id="paint28_linear_125_12386" x1="168.5" y1="285.727" x2="286" y2="267.227" gradientUnits="userSpaceOnUse">
<stop stop-color="#6500DD"/>
<stop offset="1" stop-color="#AE43E0" stop-opacity="0"/>
</linearGradient>
<linearGradient id="paint29_linear_125_12386" x1="397.607" y1="135" x2="325.607" y2="118" gradientUnits="userSpaceOnUse">
<stop stop-color="#0029FF"/>
<stop offset="1" stop-color="#00C2FF" stop-opacity="0.24"/>
</linearGradient>
<linearGradient id="paint30_linear_125_12386" x1="344.5" y1="266.227" x2="316" y2="274" gradientUnits="userSpaceOnUse">
<stop stop-color="white"/>
<stop offset="1" stop-color="white" stop-opacity="0"/>
</linearGradient>
<linearGradient id="paint31_linear_125_12386" x1="395" y1="143.5" x2="328.5" y2="212" gradientUnits="userSpaceOnUse">
<stop stop-color="#000F5F"/>
<stop offset="1" stop-color="#C54AFF" stop-opacity="0"/>
</linearGradient>
<linearGradient id="paint32_linear_125_12386" x1="293" y1="213" x2="325.5" y2="202.5" gradientUnits="userSpaceOnUse">
<stop stop-color="white"/>
<stop offset="1" stop-color="white" stop-opacity="0"/>
</linearGradient>
<linearGradient id="paint33_linear_125_12386" x1="179.5" y1="168" x2="173" y2="196.5" gradientUnits="userSpaceOnUse">
<stop stop-color="white"/>
<stop offset="1" stop-color="#D9D9D9" stop-opacity="0"/>
</linearGradient>
</defs>
</svg>
