<svg width="500" height="500" viewBox="0 0 500 500" fill="none" xmlns="http://www.w3.org/2000/svg">
<rect width="500" height="500" rx="25" fill="#2F2F2F"/>
<path d="M60.7877 353.44C64.521 353.44 67.241 354.173 68.9477 355.64C70.6543 357.107 71.5077 359.173 71.5077 361.84C71.5077 363.013 71.3077 364.147 70.9077 365.24C70.5343 366.307 69.9077 367.267 69.0277 368.12C68.1477 368.973 66.9743 369.653 65.5077 370.16C64.041 370.64 62.241 370.88 60.1077 370.88H56.8277V382H53.2277V353.44H60.7877ZM60.4677 356.52H56.8277V367.8H59.7077C61.521 367.8 63.0277 367.613 64.2277 367.24C65.4277 366.84 66.321 366.213 66.9077 365.36C67.4943 364.507 67.7877 363.387 67.7877 362C67.7877 360.16 67.201 358.787 66.0277 357.88C64.8543 356.973 63.001 356.52 60.4677 356.52ZM99.1664 371.92C99.1664 373.893 98.7664 375.68 97.9664 377.28C97.1664 378.853 95.9397 380.107 94.2864 381.04C92.6597 381.947 90.5797 382.4 88.0464 382.4C84.4997 382.4 81.7931 381.44 79.9264 379.52C78.0864 377.573 77.1664 375.013 77.1664 371.84V353.44H80.7664V371.96C80.7664 374.28 81.3797 376.08 82.6064 377.36C83.8597 378.64 85.7397 379.28 88.2464 379.28C89.9797 379.28 91.3797 378.973 92.4464 378.36C93.5397 377.72 94.3397 376.853 94.8464 375.76C95.3531 374.64 95.6064 373.36 95.6064 371.92V353.44H99.1664V371.92ZM114.264 353.44C117.998 353.44 120.718 354.173 122.424 355.64C124.131 357.107 124.984 359.173 124.984 361.84C124.984 363.013 124.784 364.147 124.384 365.24C124.011 366.307 123.384 367.267 122.504 368.12C121.624 368.973 120.451 369.653 118.984 370.16C117.518 370.64 115.718 370.88 113.584 370.88H110.304V382H106.704V353.44H114.264ZM113.944 356.52H110.304V367.8H113.184C114.998 367.8 116.504 367.613 117.704 367.24C118.904 366.84 119.798 366.213 120.384 365.36C120.971 364.507 121.264 363.387 121.264 362C121.264 360.16 120.678 358.787 119.504 357.88C118.331 356.973 116.478 356.52 113.944 356.52ZM153.914 382L144.514 356.96H144.354C144.407 357.493 144.447 358.173 144.474 359C144.527 359.827 144.567 360.733 144.594 361.72C144.62 362.68 144.634 363.667 144.634 364.68V382H141.314V353.44H146.634L155.434 376.84H155.594L164.554 353.44H169.834V382H166.274V364.44C166.274 363.507 166.287 362.587 166.314 361.68C166.34 360.747 166.38 359.88 166.434 359.08C166.487 358.253 166.527 357.56 166.554 357H166.394L156.874 382H153.914ZM185.243 360.2C187.856 360.2 189.789 360.773 191.043 361.92C192.296 363.067 192.923 364.893 192.923 367.4V382H190.363L189.683 378.96H189.523C188.909 379.733 188.269 380.387 187.603 380.92C186.963 381.427 186.216 381.8 185.363 382.04C184.536 382.28 183.523 382.4 182.323 382.4C181.043 382.4 179.883 382.173 178.843 381.72C177.829 381.267 177.029 380.573 176.443 379.64C175.856 378.68 175.563 377.48 175.563 376.04C175.563 373.907 176.403 372.267 178.083 371.12C179.763 369.947 182.349 369.307 185.843 369.2L189.483 369.08V367.8C189.483 366.013 189.096 364.773 188.323 364.08C187.549 363.387 186.456 363.04 185.043 363.04C183.923 363.04 182.856 363.213 181.843 363.56C180.829 363.88 179.883 364.253 179.003 364.68L177.923 362.04C178.856 361.533 179.963 361.107 181.243 360.76C182.523 360.387 183.856 360.2 185.243 360.2ZM186.283 371.64C183.616 371.747 181.763 372.173 180.723 372.92C179.709 373.667 179.203 374.72 179.203 376.08C179.203 377.28 179.563 378.16 180.283 378.72C181.029 379.28 181.976 379.56 183.123 379.56C184.936 379.56 186.443 379.067 187.643 378.08C188.843 377.067 189.443 375.52 189.443 373.44V371.52L186.283 371.64ZM209.865 360.16C212.425 360.16 214.358 360.787 215.665 362.04C216.971 363.267 217.625 365.267 217.625 368.04V382H214.145V368.28C214.145 366.547 213.758 365.253 212.985 364.4C212.211 363.547 210.998 363.12 209.345 363.12C206.971 363.12 205.331 363.787 204.425 365.12C203.518 366.453 203.065 368.373 203.065 370.88V382H199.545V360.56H202.385L202.905 363.48H203.105C203.585 362.733 204.171 362.12 204.865 361.64C205.585 361.133 206.371 360.76 207.225 360.52C208.078 360.28 208.958 360.16 209.865 360.16ZM227.791 360.56V382H224.271V360.56H227.791ZM226.071 352.52C226.604 352.52 227.071 352.707 227.471 353.08C227.898 353.427 228.111 353.987 228.111 354.76C228.111 355.507 227.898 356.067 227.471 356.44C227.071 356.813 226.604 357 226.071 357C225.484 357 224.991 356.813 224.591 356.44C224.191 356.067 223.991 355.507 223.991 354.76C223.991 353.987 224.191 353.427 224.591 353.08C224.991 352.707 225.484 352.52 226.071 352.52ZM238.104 382H234.584V351.6H238.104V382ZM253.016 360.2C255.629 360.2 257.563 360.773 258.816 361.92C260.069 363.067 260.696 364.893 260.696 367.4V382H258.136L257.456 378.96H257.296C256.683 379.733 256.043 380.387 255.376 380.92C254.736 381.427 253.989 381.8 253.136 382.04C252.309 382.28 251.296 382.4 250.096 382.4C248.816 382.4 247.656 382.173 246.616 381.72C245.603 381.267 244.803 380.573 244.216 379.64C243.629 378.68 243.336 377.48 243.336 376.04C243.336 373.907 244.176 372.267 245.856 371.12C247.536 369.947 250.123 369.307 253.616 369.2L257.256 369.08V367.8C257.256 366.013 256.869 364.773 256.096 364.08C255.323 363.387 254.229 363.04 252.816 363.04C251.696 363.04 250.629 363.213 249.616 363.56C248.603 363.88 247.656 364.253 246.776 364.68L245.696 362.04C246.629 361.533 247.736 361.107 249.016 360.76C250.296 360.387 251.629 360.2 253.016 360.2ZM254.056 371.64C251.389 371.747 249.536 372.173 248.496 372.92C247.483 373.667 246.976 374.72 246.976 376.08C246.976 377.28 247.336 378.16 248.056 378.72C248.803 379.28 249.749 379.56 250.896 379.56C252.709 379.56 254.216 379.067 255.416 378.08C256.616 377.067 257.216 375.52 257.216 373.44V371.52L254.056 371.64ZM290.789 382L281.389 356.96H281.229C281.282 357.493 281.322 358.173 281.349 359C281.402 359.827 281.442 360.733 281.469 361.72C281.495 362.68 281.509 363.667 281.509 364.68V382H278.189V353.44H283.509L292.309 376.84H292.469L301.429 353.44H306.709V382H303.149V364.44C303.149 363.507 303.162 362.587 303.189 361.68C303.215 360.747 303.255 359.88 303.309 359.08C303.362 358.253 303.402 357.56 303.429 357H303.269L293.749 382H290.789ZM317.518 360.56V382H313.998V360.56H317.518ZM315.798 352.52C316.331 352.52 316.798 352.707 317.198 353.08C317.624 353.427 317.838 353.987 317.838 354.76C317.838 355.507 317.624 356.067 317.198 356.44C316.798 356.813 316.331 357 315.798 357C315.211 357 314.718 356.813 314.318 356.44C313.918 356.067 313.718 355.507 313.718 354.76C313.718 353.987 313.918 353.427 314.318 353.08C314.718 352.707 315.211 352.52 315.798 352.52ZM332.91 382.4C331.017 382.4 329.323 382.013 327.83 381.24C326.363 380.467 325.203 379.267 324.35 377.64C323.523 376.013 323.11 373.933 323.11 371.4C323.11 368.76 323.55 366.613 324.43 364.96C325.31 363.307 326.497 362.093 327.99 361.32C329.51 360.547 331.23 360.16 333.15 360.16C334.243 360.16 335.297 360.28 336.31 360.52C337.323 360.733 338.15 361 338.79 361.32L337.71 364.24C337.07 364 336.323 363.773 335.47 363.56C334.617 363.347 333.817 363.24 333.07 363.24C331.63 363.24 330.443 363.547 329.51 364.16C328.577 364.773 327.883 365.68 327.43 366.88C326.977 368.08 326.75 369.573 326.75 371.36C326.75 373.067 326.977 374.52 327.43 375.72C327.883 376.92 328.563 377.827 329.47 378.44C330.377 379.053 331.51 379.36 332.87 379.36C334.043 379.36 335.07 379.24 335.95 379C336.857 378.76 337.683 378.467 338.43 378.12V381.24C337.71 381.613 336.91 381.893 336.03 382.08C335.177 382.293 334.137 382.4 332.91 382.4ZM353.529 360.16C353.929 360.16 354.356 360.187 354.809 360.24C355.289 360.267 355.702 360.32 356.049 360.4L355.609 363.64C355.262 363.56 354.876 363.493 354.449 363.44C354.049 363.387 353.662 363.36 353.289 363.36C352.462 363.36 351.676 363.533 350.929 363.88C350.182 364.227 349.516 364.72 348.929 365.36C348.342 365.973 347.876 366.72 347.529 367.6C347.209 368.48 347.049 369.467 347.049 370.56V382H343.529V360.56H346.409L346.809 364.48H346.969C347.422 363.68 347.969 362.96 348.609 362.32C349.249 361.653 349.982 361.133 350.809 360.76C351.636 360.36 352.542 360.16 353.529 360.16ZM377.911 371.24C377.911 373.027 377.671 374.613 377.191 376C376.738 377.36 376.071 378.52 375.191 379.48C374.338 380.44 373.284 381.173 372.031 381.68C370.804 382.16 369.431 382.4 367.911 382.4C366.498 382.4 365.191 382.16 363.991 381.68C362.791 381.173 361.751 380.44 360.871 379.48C359.991 378.52 359.298 377.36 358.791 376C358.311 374.613 358.071 373.027 358.071 371.24C358.071 368.867 358.471 366.867 359.271 365.24C360.071 363.587 361.218 362.333 362.711 361.48C364.204 360.6 365.978 360.16 368.031 360.16C369.978 360.16 371.684 360.6 373.151 361.48C374.644 362.333 375.804 363.587 376.631 365.24C377.484 366.867 377.911 368.867 377.911 371.24ZM361.711 371.24C361.711 372.92 361.924 374.387 362.351 375.64C362.804 376.867 363.498 377.813 364.431 378.48C365.364 379.147 366.551 379.48 367.991 379.48C369.431 379.48 370.618 379.147 371.551 378.48C372.484 377.813 373.164 376.867 373.591 375.64C374.044 374.387 374.271 372.92 374.271 371.24C374.271 369.533 374.044 368.08 373.591 366.88C373.138 365.68 372.444 364.76 371.511 364.12C370.604 363.453 369.418 363.12 367.951 363.12C365.764 363.12 364.178 363.84 363.191 365.28C362.204 366.72 361.711 368.707 361.711 371.24ZM397.45 376.08C397.45 377.467 397.103 378.627 396.41 379.56C395.717 380.493 394.73 381.2 393.45 381.68C392.17 382.16 390.65 382.4 388.89 382.4C387.397 382.4 386.103 382.28 385.01 382.04C383.943 381.8 382.997 381.467 382.17 381.04V377.84C383.023 378.267 384.05 378.667 385.25 379.04C386.477 379.387 387.717 379.56 388.97 379.56C390.757 379.56 392.05 379.28 392.85 378.72C393.65 378.133 394.05 377.36 394.05 376.4C394.05 375.867 393.903 375.387 393.61 374.96C393.317 374.533 392.783 374.107 392.01 373.68C391.263 373.253 390.183 372.773 388.77 372.24C387.383 371.707 386.197 371.173 385.21 370.64C384.223 370.107 383.463 369.467 382.93 368.72C382.397 367.973 382.13 367.013 382.13 365.84C382.13 364.027 382.863 362.627 384.33 361.64C385.823 360.653 387.77 360.16 390.17 360.16C391.477 360.16 392.69 360.293 393.81 360.56C394.957 360.8 396.023 361.147 397.01 361.6L395.81 364.4C395.223 364.133 394.597 363.907 393.93 363.72C393.29 363.507 392.637 363.347 391.97 363.24C391.303 363.107 390.623 363.04 389.93 363.04C388.49 363.04 387.383 363.28 386.61 363.76C385.863 364.213 385.49 364.84 385.49 365.64C385.49 366.227 385.663 366.733 386.01 367.16C386.357 367.56 386.93 367.96 387.73 368.36C388.557 368.733 389.65 369.187 391.01 369.72C392.37 370.227 393.53 370.747 394.49 371.28C395.45 371.813 396.183 372.467 396.69 373.24C397.197 373.987 397.45 374.933 397.45 376.08ZM421.27 371.24C421.27 373.027 421.03 374.613 420.55 376C420.097 377.36 419.43 378.52 418.55 379.48C417.697 380.44 416.644 381.173 415.39 381.68C414.164 382.16 412.79 382.4 411.27 382.4C409.857 382.4 408.55 382.16 407.35 381.68C406.15 381.173 405.11 380.44 404.23 379.48C403.35 378.52 402.657 377.36 402.15 376C401.67 374.613 401.43 373.027 401.43 371.24C401.43 368.867 401.83 366.867 402.63 365.24C403.43 363.587 404.577 362.333 406.07 361.48C407.564 360.6 409.337 360.16 411.39 360.16C413.337 360.16 415.044 360.6 416.51 361.48C418.004 362.333 419.164 363.587 419.99 365.24C420.844 366.867 421.27 368.867 421.27 371.24ZM405.07 371.24C405.07 372.92 405.284 374.387 405.71 375.64C406.164 376.867 406.857 377.813 407.79 378.48C408.724 379.147 409.91 379.48 411.35 379.48C412.79 379.48 413.977 379.147 414.91 378.48C415.844 377.813 416.524 376.867 416.95 375.64C417.404 374.387 417.63 372.92 417.63 371.24C417.63 369.533 417.404 368.08 416.95 366.88C416.497 365.68 415.804 364.76 414.87 364.12C413.964 363.453 412.777 363.12 411.31 363.12C409.124 363.12 407.537 363.84 406.55 365.28C405.564 366.72 405.07 368.707 405.07 371.24ZM436.729 363.28H431.329V382H427.809V363.28H424.049V361.64L427.809 360.44V359.2C427.809 357.36 428.076 355.867 428.609 354.72C429.169 353.573 429.969 352.733 431.009 352.2C432.049 351.667 433.303 351.4 434.769 351.4C435.623 351.4 436.396 351.48 437.089 351.64C437.809 351.773 438.423 351.933 438.929 352.12L438.009 354.88C437.583 354.747 437.089 354.613 436.529 354.48C435.969 354.347 435.396 354.28 434.809 354.28C433.636 354.28 432.756 354.68 432.169 355.48C431.609 356.253 431.329 357.48 431.329 359.16V360.56H436.729V363.28ZM447.759 379.52C448.293 379.52 448.839 379.48 449.399 379.4C449.959 379.293 450.413 379.187 450.759 379.08V381.76C450.386 381.947 449.853 382.093 449.159 382.2C448.466 382.333 447.799 382.4 447.159 382.4C446.039 382.4 444.999 382.213 444.039 381.84C443.106 381.44 442.346 380.76 441.759 379.8C441.173 378.84 440.879 377.493 440.879 375.76V363.28H437.839V361.6L440.919 360.2L442.319 355.64H444.399V360.56H450.599V363.28H444.399V375.68C444.399 376.987 444.706 377.96 445.319 378.6C445.959 379.213 446.773 379.52 447.759 379.52Z" fill="white"/>
<path d="M90.4514 423.034C90.4514 424.143 90.1827 425.088 89.6454 425.868C89.1081 426.631 88.3367 427.22 87.3314 427.636C86.3434 428.052 85.1734 428.26 83.8214 428.26C83.1281 428.26 82.4607 428.225 81.8194 428.156C81.1954 428.087 80.6234 427.991 80.1034 427.87C79.5834 427.731 79.1241 427.567 78.7254 427.376V425.14C79.3494 425.417 80.1207 425.669 81.0394 425.894C81.9754 426.119 82.9374 426.232 83.9254 426.232C84.8441 426.232 85.6154 426.111 86.2394 425.868C86.8634 425.625 87.3314 425.279 87.6434 424.828C87.9554 424.377 88.1114 423.849 88.1114 423.242C88.1114 422.635 87.9814 422.124 87.7214 421.708C87.4614 421.292 87.0107 420.911 86.3694 420.564C85.7454 420.2 84.8701 419.819 83.7434 419.42C82.9461 419.125 82.2441 418.813 81.6374 418.484C81.0481 418.137 80.5541 417.747 80.1554 417.314C79.7567 416.881 79.4534 416.387 79.2454 415.832C79.0547 415.277 78.9594 414.636 78.9594 413.908C78.9594 412.92 79.2107 412.079 79.7134 411.386C80.2161 410.675 80.9094 410.129 81.7934 409.748C82.6947 409.367 83.7261 409.176 84.8874 409.176C85.9101 409.176 86.8461 409.271 87.6954 409.462C88.5447 409.653 89.3161 409.904 90.0094 410.216L89.2814 412.218C88.6401 411.941 87.9381 411.707 87.1754 411.516C86.4301 411.325 85.6501 411.23 84.8354 411.23C84.0554 411.23 83.4054 411.343 82.8854 411.568C82.3654 411.793 81.9754 412.114 81.7154 412.53C81.4554 412.929 81.3254 413.397 81.3254 413.934C81.3254 414.558 81.4554 415.078 81.7154 415.494C81.9754 415.91 82.4001 416.283 82.9894 416.612C83.5787 416.941 84.3761 417.297 85.3814 417.678C86.4734 418.077 87.3921 418.51 88.1374 418.978C88.9001 419.429 89.4721 419.975 89.8534 420.616C90.2521 421.257 90.4514 422.063 90.4514 423.034ZM105.287 426.388C105.634 426.388 105.989 426.362 106.353 426.31C106.717 426.241 107.012 426.171 107.237 426.102V427.844C106.994 427.965 106.648 428.061 106.197 428.13C105.746 428.217 105.313 428.26 104.897 428.26C104.169 428.26 103.493 428.139 102.869 427.896C102.262 427.636 101.768 427.194 101.387 426.57C101.006 425.946 100.815 425.071 100.815 423.944V415.832H98.8389V414.74L100.841 413.83L101.751 410.866H103.103V414.064H107.133V415.832H103.103V423.892C103.103 424.741 103.302 425.374 103.701 425.79C104.117 426.189 104.646 426.388 105.287 426.388ZM128.429 414.064V428H126.557L126.219 426.154H126.115C125.821 426.639 125.439 427.038 124.971 427.35C124.503 427.662 123.992 427.887 123.437 428.026C122.883 428.182 122.302 428.26 121.695 428.26C120.586 428.26 119.65 428.087 118.887 427.74C118.142 427.376 117.579 426.821 117.197 426.076C116.816 425.331 116.625 424.369 116.625 423.19V414.064H118.939V423.034C118.939 424.143 119.191 424.975 119.693 425.53C120.196 426.085 120.976 426.362 122.033 426.362C123.073 426.362 123.888 426.171 124.477 425.79C125.084 425.391 125.509 424.819 125.751 424.074C126.011 423.311 126.141 422.393 126.141 421.318V414.064H128.429ZM144.547 428.26C142.814 428.26 141.427 427.662 140.387 426.466C139.347 425.253 138.827 423.45 138.827 421.058C138.827 418.666 139.347 416.863 140.387 415.65C141.445 414.419 142.84 413.804 144.573 413.804C145.301 413.804 145.934 413.899 146.471 414.09C147.009 414.263 147.477 414.506 147.875 414.818C148.274 415.13 148.612 415.477 148.889 415.858H149.045C149.028 415.633 148.993 415.303 148.941 414.87C148.907 414.419 148.889 414.064 148.889 413.804V408.24H151.177V428H149.331L148.993 426.128H148.889C148.612 426.527 148.274 426.891 147.875 427.22C147.477 427.532 147 427.783 146.445 427.974C145.908 428.165 145.275 428.26 144.547 428.26ZM144.911 426.362C146.385 426.362 147.416 425.963 148.005 425.166C148.612 424.351 148.915 423.129 148.915 421.5V421.084C148.915 419.351 148.629 418.025 148.057 417.106C147.485 416.17 146.428 415.702 144.885 415.702C143.655 415.702 142.727 416.196 142.103 417.184C141.497 418.155 141.193 419.463 141.193 421.11C141.193 422.774 141.497 424.065 142.103 424.984C142.727 425.903 143.663 426.362 144.911 426.362ZM167.739 413.804C168.935 413.804 169.958 414.064 170.807 414.584C171.674 415.104 172.333 415.841 172.783 416.794C173.251 417.73 173.485 418.831 173.485 420.096V421.474H163.943C163.978 423.051 164.377 424.256 165.139 425.088C165.919 425.903 167.003 426.31 168.389 426.31C169.273 426.31 170.053 426.232 170.729 426.076C171.423 425.903 172.133 425.66 172.861 425.348V427.35C172.151 427.662 171.449 427.887 170.755 428.026C170.062 428.182 169.239 428.26 168.285 428.26C166.968 428.26 165.798 427.991 164.775 427.454C163.77 426.917 162.981 426.119 162.409 425.062C161.855 423.987 161.577 422.679 161.577 421.136C161.577 419.611 161.829 418.302 162.331 417.21C162.851 416.118 163.571 415.277 164.489 414.688C165.425 414.099 166.509 413.804 167.739 413.804ZM167.713 415.676C166.621 415.676 165.755 416.031 165.113 416.742C164.489 417.435 164.117 418.406 163.995 419.654H171.093C171.093 418.857 170.972 418.163 170.729 417.574C170.487 416.985 170.114 416.525 169.611 416.196C169.126 415.849 168.493 415.676 167.713 415.676ZM190.495 413.804C192.159 413.804 193.416 414.211 194.265 415.026C195.114 415.823 195.539 417.123 195.539 418.926V428H193.277V419.082C193.277 417.955 193.026 417.115 192.523 416.56C192.02 416.005 191.232 415.728 190.157 415.728C188.614 415.728 187.548 416.161 186.959 417.028C186.37 417.895 186.075 419.143 186.075 420.772V428H183.787V414.064H185.633L185.971 415.962H186.101C186.413 415.477 186.794 415.078 187.245 414.766C187.713 414.437 188.224 414.194 188.779 414.038C189.334 413.882 189.906 413.804 190.495 413.804ZM211.267 426.388C211.614 426.388 211.969 426.362 212.333 426.31C212.697 426.241 212.992 426.171 213.217 426.102V427.844C212.975 427.965 212.628 428.061 212.177 428.13C211.727 428.217 211.293 428.26 210.877 428.26C210.149 428.26 209.473 428.139 208.849 427.896C208.243 427.636 207.749 427.194 207.367 426.57C206.986 425.946 206.795 425.071 206.795 423.944V415.832H204.819V414.74L206.821 413.83L207.731 410.866H209.083V414.064H213.113V415.832H209.083V423.892C209.083 424.741 209.283 425.374 209.681 425.79C210.097 426.189 210.626 426.388 211.267 426.388ZM237.784 411.23C236.796 411.23 235.903 411.403 235.106 411.75C234.308 412.079 233.632 412.573 233.078 413.232C232.523 413.873 232.098 414.662 231.804 415.598C231.509 416.517 231.362 417.557 231.362 418.718C231.362 420.243 231.596 421.569 232.064 422.696C232.549 423.823 233.26 424.689 234.196 425.296C235.149 425.903 236.336 426.206 237.758 426.206C238.572 426.206 239.344 426.137 240.072 425.998C240.8 425.859 241.51 425.686 242.204 425.478V427.506C241.51 427.766 240.791 427.957 240.046 428.078C239.318 428.199 238.442 428.26 237.42 428.26C235.53 428.26 233.953 427.87 232.688 427.09C231.422 426.31 230.469 425.201 229.828 423.762C229.204 422.323 228.892 420.633 228.892 418.692C228.892 417.288 229.082 416.005 229.464 414.844C229.862 413.683 230.434 412.677 231.18 411.828C231.942 410.979 232.878 410.329 233.988 409.878C235.097 409.41 236.371 409.176 237.81 409.176C238.763 409.176 239.682 409.271 240.566 409.462C241.45 409.653 242.238 409.921 242.932 410.268L241.996 412.244C241.424 411.984 240.782 411.75 240.072 411.542C239.378 411.334 238.616 411.23 237.784 411.23ZM264.813 421.006C264.813 422.167 264.657 423.199 264.345 424.1C264.051 424.984 263.617 425.738 263.045 426.362C262.491 426.986 261.806 427.463 260.991 427.792C260.194 428.104 259.301 428.26 258.313 428.26C257.395 428.26 256.545 428.104 255.765 427.792C254.985 427.463 254.309 426.986 253.737 426.362C253.165 425.738 252.715 424.984 252.385 424.1C252.073 423.199 251.917 422.167 251.917 421.006C251.917 419.463 252.177 418.163 252.697 417.106C253.217 416.031 253.963 415.217 254.933 414.662C255.904 414.09 257.057 413.804 258.391 413.804C259.657 413.804 260.766 414.09 261.719 414.662C262.69 415.217 263.444 416.031 263.981 417.106C264.536 418.163 264.813 419.463 264.813 421.006ZM254.283 421.006C254.283 422.098 254.422 423.051 254.699 423.866C254.994 424.663 255.445 425.279 256.051 425.712C256.658 426.145 257.429 426.362 258.365 426.362C259.301 426.362 260.073 426.145 260.679 425.712C261.286 425.279 261.728 424.663 262.005 423.866C262.3 423.051 262.447 422.098 262.447 421.006C262.447 419.897 262.3 418.952 262.005 418.172C261.711 417.392 261.26 416.794 260.653 416.378C260.064 415.945 259.293 415.728 258.339 415.728C256.918 415.728 255.887 416.196 255.245 417.132C254.604 418.068 254.283 419.359 254.283 421.006ZM290.481 413.804C292.059 413.804 293.237 414.211 294.017 415.026C294.797 415.823 295.187 417.123 295.187 418.926V428H292.925V419.03C292.925 417.938 292.691 417.115 292.223 416.56C291.773 416.005 291.062 415.728 290.091 415.728C288.739 415.728 287.769 416.118 287.179 416.898C286.607 417.678 286.321 418.813 286.321 420.304V428H284.059V419.03C284.059 418.302 283.955 417.695 283.747 417.21C283.539 416.707 283.227 416.335 282.811 416.092C282.395 415.849 281.858 415.728 281.199 415.728C280.263 415.728 279.527 415.927 278.989 416.326C278.452 416.707 278.062 417.271 277.819 418.016C277.594 418.761 277.481 419.68 277.481 420.772V428H275.193V414.064H277.039L277.377 415.962H277.507C277.802 415.477 278.157 415.078 278.573 414.766C279.007 414.437 279.483 414.194 280.003 414.038C280.523 413.882 281.061 413.804 281.615 413.804C282.69 413.804 283.583 413.995 284.293 414.376C285.021 414.757 285.55 415.347 285.879 416.144H286.009C286.477 415.347 287.11 414.757 287.907 414.376C288.722 413.995 289.58 413.804 290.481 413.804ZM321.534 413.804C323.111 413.804 324.29 414.211 325.07 415.026C325.85 415.823 326.24 417.123 326.24 418.926V428H323.978V419.03C323.978 417.938 323.744 417.115 323.276 416.56C322.825 416.005 322.115 415.728 321.144 415.728C319.792 415.728 318.821 416.118 318.232 416.898C317.66 417.678 317.374 418.813 317.374 420.304V428H315.112V419.03C315.112 418.302 315.008 417.695 314.8 417.21C314.592 416.707 314.28 416.335 313.864 416.092C313.448 415.849 312.911 415.728 312.252 415.728C311.316 415.728 310.579 415.927 310.042 416.326C309.505 416.707 309.115 417.271 308.872 418.016C308.647 418.761 308.534 419.68 308.534 420.772V428H306.246V414.064H308.092L308.43 415.962H308.56C308.855 415.477 309.21 415.078 309.626 414.766C310.059 414.437 310.536 414.194 311.056 414.038C311.576 413.882 312.113 413.804 312.668 413.804C313.743 413.804 314.635 413.995 315.346 414.376C316.074 414.757 316.603 415.347 316.932 416.144H317.062C317.53 415.347 318.163 414.757 318.96 414.376C319.775 413.995 320.633 413.804 321.534 413.804ZM348.947 414.064V428H347.075L346.737 426.154H346.633C346.338 426.639 345.957 427.038 345.489 427.35C345.021 427.662 344.51 427.887 343.955 428.026C343.4 428.182 342.82 428.26 342.213 428.26C341.104 428.26 340.168 428.087 339.405 427.74C338.66 427.376 338.096 426.821 337.715 426.076C337.334 425.331 337.143 424.369 337.143 423.19V414.064H339.457V423.034C339.457 424.143 339.708 424.975 340.211 425.53C340.714 426.085 341.494 426.362 342.551 426.362C343.591 426.362 344.406 426.171 344.995 425.79C345.602 425.391 346.026 424.819 346.269 424.074C346.529 423.311 346.659 422.393 346.659 421.318V414.064H348.947ZM366.833 413.804C368.497 413.804 369.754 414.211 370.603 415.026C371.452 415.823 371.877 417.123 371.877 418.926V428H369.615V419.082C369.615 417.955 369.364 417.115 368.861 416.56C368.358 416.005 367.57 415.728 366.495 415.728C364.952 415.728 363.886 416.161 363.297 417.028C362.708 417.895 362.413 419.143 362.413 420.772V428H360.125V414.064H361.971L362.309 415.962H362.439C362.751 415.477 363.132 415.078 363.583 414.766C364.051 414.437 364.562 414.194 365.117 414.038C365.672 413.882 366.244 413.804 366.833 413.804ZM385.239 414.064V428H382.951V414.064H385.239ZM384.121 408.838C384.468 408.838 384.771 408.959 385.031 409.202C385.309 409.427 385.447 409.791 385.447 410.294C385.447 410.779 385.309 411.143 385.031 411.386C384.771 411.629 384.468 411.75 384.121 411.75C383.74 411.75 383.419 411.629 383.159 411.386C382.899 411.143 382.769 410.779 382.769 410.294C382.769 409.791 382.899 409.427 383.159 409.202C383.419 408.959 383.74 408.838 384.121 408.838ZM401.062 426.388C401.409 426.388 401.764 426.362 402.128 426.31C402.492 426.241 402.787 426.171 403.012 426.102V427.844C402.77 427.965 402.423 428.061 401.972 428.13C401.522 428.217 401.088 428.26 400.672 428.26C399.944 428.26 399.268 428.139 398.644 427.896C398.038 427.636 397.544 427.194 397.162 426.57C396.781 425.946 396.59 425.071 396.59 423.944V415.832H394.614V414.74L396.616 413.83L397.526 410.866H398.878V414.064H402.908V415.832H398.878V423.892C398.878 424.741 399.078 425.374 399.476 425.79C399.892 426.189 400.421 426.388 401.062 426.388ZM410.373 414.064H412.817L415.833 421.994C416.006 422.462 416.162 422.913 416.301 423.346C416.457 423.779 416.595 424.204 416.717 424.62C416.838 425.019 416.933 425.409 417.003 425.79H417.107C417.211 425.357 417.375 424.793 417.601 424.1C417.826 423.389 418.06 422.679 418.303 421.968L421.137 414.064H423.607L417.601 429.924C417.271 430.791 416.881 431.545 416.431 432.186C415.997 432.845 415.46 433.347 414.819 433.694C414.195 434.058 413.432 434.24 412.531 434.24C412.115 434.24 411.751 434.214 411.439 434.162C411.127 434.127 410.858 434.084 410.633 434.032V432.212C410.823 432.247 411.049 432.281 411.309 432.316C411.586 432.351 411.872 432.368 412.167 432.368C412.704 432.368 413.163 432.264 413.545 432.056C413.943 431.865 414.281 431.579 414.559 431.198C414.836 430.834 415.07 430.401 415.261 429.898L415.989 428.052L410.373 414.064Z" fill="white"/>
<g filter="url(#filter0_d_125_13930)">
<path fill-rule="evenodd" clip-rule="evenodd" d="M298.871 210.091C296.059 212.114 296.179 216.337 299.102 218.197L352.265 252.019C357.44 255.312 364.098 255.122 369.077 251.54L373.871 248.091C377.217 245.683 380.138 242.818 382.572 239.615C387.927 232.567 390.927 223.878 390.927 214.809V187.259V90C390.927 73.9837 377.943 61 361.927 61H330.927C322.643 61 315.927 67.7157 315.927 76L315.927 176.844C315.916 190.023 309.57 202.394 298.871 210.091V210.091Z" fill="url(#paint0_linear_125_13930)"/>
<path fill-rule="evenodd" clip-rule="evenodd" d="M298.871 210.091C296.059 212.114 296.179 216.337 299.102 218.197L352.265 252.019C357.44 255.312 364.098 255.122 369.077 251.54L373.871 248.091C377.217 245.683 380.138 242.818 382.572 239.615C387.927 232.567 390.927 223.878 390.927 214.809V187.259V90C390.927 73.9837 377.943 61 361.927 61H330.927C322.643 61 315.927 67.7157 315.927 76L315.927 176.844C315.916 190.023 309.57 202.394 298.871 210.091V210.091Z" fill="url(#paint1_linear_125_13930)"/>
<path fill-rule="evenodd" clip-rule="evenodd" d="M110 214.125V205.448C110 199.577 113.426 194.245 118.766 191.805L171.152 167.87C177.163 165.124 184 169.517 184 176.126V176.126C184 189.401 190.428 201.856 201.25 209.546L206.176 213.047L308.237 281.582C308.466 281.735 308.713 281.87 308.968 281.976V281.976C312.831 283.58 314.153 289.667 310.665 291.975L268.876 319.628C256.07 325.995 240.754 325.255 228.556 317.461L199.232 298.725L186.877 290.428L128.372 248.343L127.25 247.546C116.428 239.856 110 227.401 110 214.125Z" fill="url(#paint2_linear_125_13930)"/>
<path fill-rule="evenodd" clip-rule="evenodd" d="M140 61C123.431 61 110 74.4314 110 91V111.85C110 120.392 110 124.664 111.689 127.915C113.112 130.654 115.346 132.888 118.085 134.311C121.336 136 125.608 136 134.15 136H252.308C264.98 136 271.316 136 275.189 133.29C278.429 131.023 280.642 127.568 281.348 123.677C282.192 119.026 279.544 113.27 274.248 101.758L257.59 65.5425C256.316 62.7739 253.547 61 250.5 61V61H140Z" fill="url(#paint3_linear_125_13930)"/>
<path fill-rule="evenodd" clip-rule="evenodd" d="M140 61L139.979 61H185H214C197.984 61 185 73.9837 185 90V136L252.287 136C264.959 136 271.295 136 275.168 133.29C278.408 131.023 280.621 127.568 281.327 123.677C282.171 119.026 279.523 113.27 274.227 101.758L274.227 101.758L257.568 65.5425C256.295 62.7739 253.526 61 250.479 61H140Z" fill="url(#paint4_linear_125_13930)"/>
<path fill-rule="evenodd" clip-rule="evenodd" d="M218 136.122H252.308C264.98 136.122 271.316 136.122 275.189 133.412C278.429 131.145 280.642 127.69 281.348 123.799C282.192 119.148 279.544 113.392 274.249 101.88L269.244 91L273.691 101.8C278.208 112.771 280.467 118.256 279.568 122.719C278.815 126.458 276.666 129.769 273.559 131.98C269.849 134.619 263.919 134.791 252.06 135.135L218 136.122Z" fill="url(#paint5_linear_125_13930)"/>
<path fill-rule="evenodd" clip-rule="evenodd" d="M139 61C122.984 61 110 73.9837 110 90V136V151V162.089C110 173.028 121.331 180.288 131.269 175.716L176.269 155.016C181.59 152.569 185 147.247 185 141.389V136V90C185 73.9837 197.984 61 214 61H185H139Z" fill="url(#paint6_linear_125_13930)"/>
<path fill-rule="evenodd" clip-rule="evenodd" d="M117 174.981C120.641 176.478 124.904 176.572 128.936 174.716L173.936 154.016C179.258 151.569 182.668 146.247 182.668 140.389V135V89C182.668 75.6054 191.749 64.3318 204.09 61H213.668C197.651 61 184.668 73.9837 184.668 90V136V141.389C184.668 147.247 181.258 152.569 175.936 155.016L130.936 175.716C126.138 177.924 121.016 177.373 117 174.981Z" fill="url(#paint7_linear_125_13930)"/>
<path fill-rule="evenodd" clip-rule="evenodd" d="M112 195V212.229C112 225.505 118.428 237.959 129.25 245.649L130.372 246.447L173.43 277.42C169.457 276.423 165.6 274.822 162 272.617L173.911 281.104H173.77L128.372 248.447L127.25 247.649C116.428 239.959 110 227.505 110 214.229V195.914L112 195ZM250.139 242.672L223.294 260.428L206.981 270.52C193.807 278.67 177.181 278.691 164 270.617L173.611 277.465C184.135 280.054 195.46 278.41 204.981 272.52L221.294 262.428L250.647 243.013L250.139 242.672Z" fill="url(#paint8_linear_125_13930)"/>
<path fill-rule="evenodd" clip-rule="evenodd" d="M301.465 61H328H328.465H361.5C377.516 61 390.5 73.9837 390.5 90V136V165C390.5 148.984 377.516 136 361.5 136H328.465H328H311.018C305.19 136 299.89 132.624 297.425 127.343L276.425 82.3433C271.784 72.3986 279.044 61 290.018 61H301.465Z" fill="url(#paint9_linear_125_13930)"/>
<path fill-rule="evenodd" clip-rule="evenodd" d="M301.465 61H328H328.465H361.5C377.516 61 390.5 73.9837 390.5 90V136V165C390.5 148.984 377.516 136 361.5 136H328.465H328H311.018C305.19 136 299.89 132.624 297.425 127.343L276.425 82.3433C271.784 72.3986 279.044 61 290.018 61H301.465Z" fill="url(#paint10_linear_125_13930)"/>
<path fill-rule="evenodd" clip-rule="evenodd" d="M297 215.834C297.361 216.744 298.003 217.563 298.922 218.148L352.085 251.971C356.775 254.955 362.683 255.078 367.455 252.409L373.525 248.042C376.871 245.635 379.792 242.77 382.226 239.566C387.581 232.518 390.581 223.83 390.581 214.76V187.21V162.878C390.021 154.946 386.27 147.895 380.606 143C384.575 147.594 387.127 153.446 387.581 159.878V184.21V211.76C387.581 220.83 384.581 229.518 379.226 236.566C376.792 239.77 373.871 242.635 370.525 245.042L364.455 249.409C359.683 252.078 353.775 251.955 349.085 248.971L297 215.834Z" fill="url(#paint11_linear_125_13930)"/>
<path fill-rule="evenodd" clip-rule="evenodd" d="M253.123 184.178L239.703 165.69L251.219 142.167H251.256C251.62 141.499 252.316 141.037 253.123 141.002V184.178Z" fill="#FFDD55"/>
<path fill-rule="evenodd" clip-rule="evenodd" d="M253.123 184.178L239.703 165.69L251.219 142.167H251.256C251.62 141.499 252.316 141.037 253.123 141.002V184.178Z" fill="#FFDD55"/>
<path fill-rule="evenodd" clip-rule="evenodd" d="M253.123 184.176L266.544 165.688L255.028 142.165H254.991C254.626 141.496 253.93 141.035 253.123 141V184.176Z" fill="#FFCC00"/>
<path fill-rule="evenodd" clip-rule="evenodd" d="M253.123 184.176L266.544 165.688L255.028 142.165H254.991C254.626 141.496 253.93 141.035 253.123 141V184.176Z" fill="#FFCC00"/>
<path fill-rule="evenodd" clip-rule="evenodd" d="M253.123 184.176L266.544 165.688L255.028 142.165H254.991C254.626 141.496 253.93 141.035 253.123 141V184.176Z" fill="url(#paint12_linear_125_13930)"/>
<path fill-rule="evenodd" clip-rule="evenodd" d="M253.123 184.176L266.544 165.688L255.028 142.165H254.991C254.626 141.496 253.93 141.035 253.123 141V184.176Z" fill="url(#paint13_linear_125_13930)"/>
<path fill-rule="evenodd" clip-rule="evenodd" d="M253.205 184.369L231.41 191.217L212.767 172.822L212.778 172.787C212.261 172.229 212.044 171.422 212.268 170.646L253.205 184.369Z" fill="#FFDD55"/>
<path fill-rule="evenodd" clip-rule="evenodd" d="M253.205 184.369L231.41 191.217L212.767 172.822L212.778 172.787C212.261 172.229 212.044 171.422 212.268 170.646L253.205 184.369Z" fill="#FFDD55"/>
<path fill-rule="evenodd" clip-rule="evenodd" d="M253.203 184.369L239.939 165.768L213.975 169.21L213.964 169.245C213.214 169.378 212.555 169.892 212.266 170.646L253.203 184.369Z" fill="#FFCC00"/>
<path fill-rule="evenodd" clip-rule="evenodd" d="M253.203 184.369L239.939 165.768L213.975 169.21L213.964 169.245C213.214 169.378 212.555 169.892 212.266 170.646L253.203 184.369Z" fill="#FFCC00"/>
<path fill-rule="evenodd" clip-rule="evenodd" d="M253.203 184.369L239.939 165.768L213.975 169.21L213.964 169.245C213.214 169.378 212.555 169.892 212.266 170.646L253.203 184.369Z" fill="url(#paint14_linear_125_13930)"/>
<path fill-rule="evenodd" clip-rule="evenodd" d="M253.203 184.369L239.939 165.768L213.975 169.21L213.964 169.245C213.214 169.378 212.555 169.892 212.266 170.646L253.203 184.369Z" fill="url(#paint15_linear_125_13930)"/>
<path fill-rule="evenodd" clip-rule="evenodd" d="M253.207 184.32L252.909 207.163L229.613 219.132L229.583 219.11C228.891 219.428 228.057 219.382 227.39 218.927L253.207 184.32Z" fill="#FFDD55"/>
<path fill-rule="evenodd" clip-rule="evenodd" d="M253.207 184.32L252.909 207.163L229.613 219.132L229.583 219.11C228.891 219.428 228.057 219.382 227.39 218.927L253.207 184.32Z" fill="#FFDD55"/>
<path fill-rule="evenodd" clip-rule="evenodd" d="M253.206 184.322L231.394 191.115L226.559 216.856L226.588 216.878C226.481 217.632 226.763 218.418 227.389 218.928L253.206 184.322Z" fill="#FFCC00"/>
<path fill-rule="evenodd" clip-rule="evenodd" d="M253.206 184.322L231.394 191.115L226.559 216.856L226.588 216.878C226.481 217.632 226.763 218.418 227.389 218.928L253.206 184.322Z" fill="#FFCC00"/>
<path fill-rule="evenodd" clip-rule="evenodd" d="M253.206 184.322L231.394 191.115L226.559 216.856L226.588 216.878C226.481 217.632 226.763 218.418 227.389 218.928L253.206 184.322Z" fill="url(#paint16_linear_125_13930)"/>
<path fill-rule="evenodd" clip-rule="evenodd" d="M253.206 184.322L231.394 191.115L226.559 216.856L226.588 216.878C226.481 217.632 226.763 218.418 227.389 218.928L253.206 184.322Z" fill="url(#paint17_linear_125_13930)"/>
<path fill-rule="evenodd" clip-rule="evenodd" d="M252.836 184.178L274.56 191.25L279.067 217.05L279.038 217.071C279.135 217.827 278.844 218.609 278.211 219.111L252.836 184.178Z" fill="#FFDD55"/>
<path fill-rule="evenodd" clip-rule="evenodd" d="M252.836 184.178L274.56 191.25L279.067 217.05L279.038 217.071C279.135 217.827 278.844 218.609 278.211 219.111L252.836 184.178Z" fill="#FFDD55"/>
<path fill-rule="evenodd" clip-rule="evenodd" d="M252.838 184.18L252.845 207.025L275.987 219.289L276.017 219.268C276.705 219.594 277.539 219.559 278.212 219.113L252.838 184.18Z" fill="#FFCC00"/>
<path fill-rule="evenodd" clip-rule="evenodd" d="M252.838 184.18L252.845 207.025L275.987 219.289L276.017 219.268C276.705 219.594 277.539 219.559 278.212 219.113L252.838 184.18Z" fill="#FFCC00"/>
<path fill-rule="evenodd" clip-rule="evenodd" d="M252.838 184.18L252.845 207.025L275.987 219.289L276.017 219.268C276.705 219.594 277.539 219.559 278.212 219.113L252.838 184.18Z" fill="url(#paint18_linear_125_13930)"/>
<path fill-rule="evenodd" clip-rule="evenodd" d="M252.838 184.18L252.845 207.025L275.987 219.289L276.017 219.268C276.705 219.594 277.539 219.559 278.212 219.113L252.838 184.18Z" fill="url(#paint19_linear_125_13930)"/>
<path fill-rule="evenodd" clip-rule="evenodd" d="M252.805 184.217L266.305 165.787L292.223 169.559L292.234 169.594C292.982 169.737 293.634 170.259 293.914 171.016L252.805 184.217Z" fill="#FFDD55"/>
<path fill-rule="evenodd" clip-rule="evenodd" d="M252.805 184.217L266.305 165.787L292.223 169.559L292.234 169.594C292.982 169.737 293.634 170.259 293.914 171.016L252.805 184.217Z" fill="#FFDD55"/>
<path fill-rule="evenodd" clip-rule="evenodd" d="M252.807 184.217L274.513 191.342L293.389 173.185L293.378 173.15C293.903 172.598 294.13 171.794 293.916 171.016L252.807 184.217Z" fill="#FFCC00"/>
<path fill-rule="evenodd" clip-rule="evenodd" d="M252.807 184.217L274.513 191.342L293.389 173.185L293.378 173.15C293.903 172.598 294.13 171.794 293.916 171.016L252.807 184.217Z" fill="#FFCC00"/>
<path fill-rule="evenodd" clip-rule="evenodd" d="M252.807 184.217L274.513 191.342L293.389 173.185L293.378 173.15C293.903 172.598 294.13 171.794 293.916 171.016L252.807 184.217Z" fill="url(#paint20_linear_125_13930)"/>
<path fill-rule="evenodd" clip-rule="evenodd" d="M252.807 184.217L274.513 191.342L293.389 173.185L293.378 173.15C293.903 172.598 294.13 171.794 293.916 171.016L252.807 184.217Z" fill="url(#paint21_linear_125_13930)"/>
<circle cx="253.5" cy="184.5" r="7.25" stroke="white" stroke-width="0.5"/>
<circle cx="253.5" cy="184.5" r="12.25" stroke="white" stroke-width="0.5"/>
<circle cx="253.5" cy="184.5" r="17.25" stroke="white" stroke-width="0.5"/>
<circle cx="253.5" cy="184.5" r="22.25" stroke="white" stroke-width="0.5"/>
<circle cx="253.5" cy="184.5" r="27.25" stroke="white" stroke-width="0.5"/>
<path fill-rule="evenodd" clip-rule="evenodd" d="M301.465 61H328H328.465H361.5C366.554 61 371.305 62.2927 375.443 64.5654C371.801 62.9174 367.757 62 363.5 62H330.465H330H303.465H292.018C281.044 62 273.784 73.3986 278.425 83.3433L299.425 128.343C300.721 131.12 302.801 133.371 305.33 134.88C301.904 133.476 299.049 130.823 297.425 127.343L276.425 82.3433C271.784 72.3986 279.044 61 290.018 61H301.465Z" fill="url(#paint22_linear_125_13930)"/>
<path fill-rule="evenodd" clip-rule="evenodd" d="M110 150.977V124.442V123.977L110 90.9424C110 85.8888 111.293 81.1371 113.565 76.9999C111.917 80.6418 111 84.685 111 88.9424V121.977V122.442L111 148.977V160.424C111 171.399 122.399 178.658 132.343 174.017L177.343 153.017C180.12 151.721 182.371 149.641 183.88 147.112C182.476 150.538 179.823 153.393 176.343 155.017L131.343 176.017C121.399 180.658 110 173.399 110 162.424V150.977Z" fill="url(#paint23_linear_125_13930)"/>
<path fill-rule="evenodd" clip-rule="evenodd" d="M110 214.125V195.81L184 162V176.125C184 189.401 190.428 201.855 201.25 209.546L206.176 213.047L250.647 242.909L221.294 262.325L204.981 272.416C191.807 280.566 175.181 280.587 162 272.514L173.911 281H173.77L128.372 248.343L127.25 247.546C116.428 239.855 110 227.401 110 214.125Z" fill="url(#paint24_linear_125_13930)"/>
<path fill-rule="evenodd" clip-rule="evenodd" d="M259.244 322.659C260.04 322.611 260.835 322.53 261.629 322.416C265.114 321.42 268.498 319.953 271.686 318.011L274.853 316.083L324.2 283.765L332.979 278.016C342.073 272.061 342.01 258.711 332.859 252.842L330.737 251.481L291.388 226.875C286.421 223.769 280.101 223.839 275.204 227.053L272.084 229.1L271.863 228.773L220.411 261.953L203.981 271.854C190.713 279.85 174.089 279.677 161.002 271.451L181.956 286.751L181.794 286.856L190.503 293.214L227.009 316.907C229.799 318.717 232.756 320.156 235.811 321.223C243.334 323.983 251.488 324.467 259.244 322.659Z" fill="url(#paint25_linear_125_13930)"/>
<path fill-rule="evenodd" clip-rule="evenodd" d="M168.01 276.977C179.926 281.957 193.671 281.075 204.979 274.261L221.409 264.36L272.861 231.18L273.082 231.508L276.202 229.46C281.099 226.246 287.419 226.176 292.385 229.282L331.735 253.888L333.857 255.249C335.908 256.565 337.503 258.256 338.64 260.156C337.533 257.448 335.605 255.011 332.857 253.249L330.735 251.888L291.385 227.282C286.419 224.176 280.099 224.246 275.202 227.46L272.082 229.508L271.861 229.18L220.409 262.36L203.979 272.261C190.711 280.257 174.087 280.084 161 271.858L168.01 276.977Z" fill="url(#paint26_linear_125_13930)"/>
<path fill-rule="evenodd" clip-rule="evenodd" d="M277.126 69C275.629 72.6413 275.535 76.9036 277.39 80.9363L298.09 125.936C300.538 131.258 305.86 134.668 311.718 134.668H317.107H363.107C376.502 134.668 387.775 143.749 391.107 156.09V165.668C391.107 149.651 378.123 136.668 362.107 136.668H316.107H310.718C304.86 136.668 299.538 133.258 297.09 127.936L276.39 82.9363C274.183 78.1383 274.734 73.0155 277.126 69Z" fill="url(#paint27_linear_125_13930)"/>
<path fill-rule="evenodd" clip-rule="evenodd" d="M267 320.873C268.599 320.162 270.164 319.344 271.684 318.419L274.851 316.49L324.198 284.172L332.977 278.424C342.071 272.468 342.007 259.118 332.857 253.249L330.735 251.888L291.385 227.282C288.509 225.483 285.178 224.749 281.933 225.075C284.182 225.301 286.393 226.036 288.385 227.282L327.735 251.888L329.857 253.249C339.007 259.118 339.071 272.468 329.977 278.424L321.198 284.172L271.851 316.49L268.684 318.419C268.128 318.757 267.567 319.081 267 319.39V320.873Z" fill="url(#paint28_linear_125_13930)"/>
<path fill-rule="evenodd" clip-rule="evenodd" d="M299.268 218.197C296.345 216.337 296.225 212.114 299.037 210.091C309.736 202.394 316.082 190.023 316.093 176.844L316.093 136H362C377.319 136 389.864 147.878 390.927 162.926V187.259V214.809C390.927 223.878 387.927 232.567 382.572 239.615C380.138 242.818 377.217 245.683 373.871 248.091L367.801 252.458C363.028 255.127 357.121 255.003 352.431 252.019L299.268 218.197Z" fill="url(#paint29_linear_125_13930)"/>
<path fill-rule="evenodd" clip-rule="evenodd" d="M316.093 170V176.844C316.082 190.023 309.736 202.394 299.037 210.091C296.225 212.114 296.345 216.337 299.268 218.197L352.431 252.019C355.334 253.866 358.704 254.617 361.982 254.289C359.698 254.059 357.451 253.305 355.431 252.019L302.268 218.197C299.345 216.337 299.225 212.114 302.037 210.091C312.736 202.394 319.082 190.023 319.093 176.844V170H316.093Z" fill="url(#paint30_linear_125_13930)"/>
<path d="M171.5 167.234C167 168.067 135 184.234 135 184.234C140.833 182.401 154.4 175.9 160 173.5C167 170.5 180.5 164.5 181 177.734C182 192.5 199 207.734 197.5 206.234C196 204.734 184 192.234 184 177.734C184.8 167.334 176 166.401 171.5 167.234Z" fill="url(#paint31_linear_125_13930)"/>
</g>
<defs>
<filter id="filter0_d_125_13930" x="106" y="61" width="289.107" height="270.911" filterUnits="userSpaceOnUse" color-interpolation-filters="sRGB">
<feFlood flood-opacity="0" result="BackgroundImageFix"/>
<feColorMatrix in="SourceAlpha" type="matrix" values="0 0 0 0 0 0 0 0 0 0 0 0 0 0 0 0 0 0 127 0" result="hardAlpha"/>
<feOffset dy="4"/>
<feGaussianBlur stdDeviation="2"/>
<feComposite in2="hardAlpha" operator="out"/>
<feColorMatrix type="matrix" values="0 0 0 0 0 0 0 0 0 0 0 0 0 0 0 0 0 0 0.25 0"/>
<feBlend mode="normal" in2="BackgroundImageFix" result="effect1_dropShadow_125_13930"/>
<feBlend mode="normal" in="SourceGraphic" in2="effect1_dropShadow_125_13930" result="shape"/>
</filter>
<linearGradient id="paint0_linear_125_13930" x1="382.35" y1="163.355" x2="299.607" y2="229.318" gradientUnits="userSpaceOnUse">
<stop stop-color="#0029FF"/>
<stop offset="1" stop-color="#C54AFF"/>
</linearGradient>
<linearGradient id="paint1_linear_125_13930" x1="382.35" y1="163.355" x2="299.607" y2="229.318" gradientUnits="userSpaceOnUse">
<stop stop-color="#0029FF"/>
<stop offset="1" stop-color="#C54AFF"/>
</linearGradient>
<linearGradient id="paint2_linear_125_13930" x1="195.867" y1="277.976" x2="199.528" y2="149.987" gradientUnits="userSpaceOnUse">
<stop stop-color="#001DB7"/>
<stop offset="1" stop-color="#00FFF0"/>
</linearGradient>
<linearGradient id="paint3_linear_125_13930" x1="170.5" y1="86" x2="286.585" y2="139.094" gradientUnits="userSpaceOnUse">
<stop stop-color="#0029FF"/>
<stop offset="1" stop-color="#00C2FF"/>
</linearGradient>
<linearGradient id="paint4_linear_125_13930" x1="150" y1="102" x2="248.875" y2="226.828" gradientUnits="userSpaceOnUse">
<stop stop-color="#00147F"/>
<stop offset="1" stop-color="#00C2FF" stop-opacity="0"/>
</linearGradient>
<linearGradient id="paint5_linear_125_13930" x1="280" y1="133" x2="258" y2="118.5" gradientUnits="userSpaceOnUse">
<stop stop-color="white"/>
<stop offset="1" stop-color="white" stop-opacity="0"/>
</linearGradient>
<linearGradient id="paint6_linear_125_13930" x1="209" y1="71.5" x2="103.741" y2="204.797" gradientUnits="userSpaceOnUse">
<stop stop-color="#35008C" stop-opacity="0.98"/>
<stop offset="0.261" stop-color="#6500DD" stop-opacity="0.98572"/>
<stop offset="1" stop-color="#D98AFF"/>
</linearGradient>
<linearGradient id="paint7_linear_125_13930" x1="182" y1="54.5" x2="165" y2="126.5" gradientUnits="userSpaceOnUse">
<stop stop-color="#6500DD"/>
<stop offset="1" stop-color="#C54AFF" stop-opacity="0"/>
</linearGradient>
<linearGradient id="paint8_linear_125_13930" x1="185" y1="292.104" x2="150.5" y2="205.603" gradientUnits="userSpaceOnUse">
<stop stop-color="#0029FF"/>
<stop offset="1" stop-color="#00FFF0" stop-opacity="0"/>
</linearGradient>
<linearGradient id="paint9_linear_125_13930" x1="390.5" y1="151" x2="288.5" y2="46.5" gradientUnits="userSpaceOnUse">
<stop stop-color="#001EBD"/>
<stop offset="1" stop-color="#00C2FF"/>
</linearGradient>
<linearGradient id="paint10_linear_125_13930" x1="390.5" y1="151" x2="288.5" y2="46.5" gradientUnits="userSpaceOnUse">
<stop stop-color="#001EBD"/>
<stop offset="1" stop-color="#00C2FF"/>
</linearGradient>
<linearGradient id="paint11_linear_125_13930" x1="384.5" y1="143" x2="376.5" y2="227" gradientUnits="userSpaceOnUse">
<stop stop-color="#D98AFF"/>
<stop offset="1" stop-color="#D98AFF" stop-opacity="0"/>
</linearGradient>
<linearGradient id="paint12_linear_125_13930" x1="253.123" y1="183.498" x2="269.753" y2="151.6" gradientUnits="userSpaceOnUse">
<stop stop-color="#B15500"/>
<stop offset="1" stop-color="#FFCC00" stop-opacity="0"/>
</linearGradient>
<linearGradient id="paint13_linear_125_13930" x1="253.123" y1="183.498" x2="269.753" y2="151.6" gradientUnits="userSpaceOnUse">
<stop stop-color="#B15500"/>
<stop offset="1" stop-color="#FFCC00" stop-opacity="0"/>
</linearGradient>
<linearGradient id="paint14_linear_125_13930" x1="252.559" y1="184.153" x2="227.602" y2="158.248" gradientUnits="userSpaceOnUse">
<stop stop-color="#B15500"/>
<stop offset="1" stop-color="#FFCC00" stop-opacity="0"/>
</linearGradient>
<linearGradient id="paint15_linear_125_13930" x1="252.559" y1="184.153" x2="227.602" y2="158.248" gradientUnits="userSpaceOnUse">
<stop stop-color="#B15500"/>
<stop offset="1" stop-color="#FFCC00" stop-opacity="0"/>
</linearGradient>
<linearGradient id="paint16_linear_125_13930" x1="252.8" y1="184.866" x2="220.398" y2="200.489" gradientUnits="userSpaceOnUse">
<stop stop-color="#B15500"/>
<stop offset="1" stop-color="#FFCC00" stop-opacity="0"/>
</linearGradient>
<linearGradient id="paint17_linear_125_13930" x1="252.8" y1="184.866" x2="220.398" y2="200.489" gradientUnits="userSpaceOnUse">
<stop stop-color="#B15500"/>
<stop offset="1" stop-color="#FFCC00" stop-opacity="0"/>
</linearGradient>
<linearGradient id="paint18_linear_125_13930" x1="253.237" y1="184.729" x2="258.528" y2="220.31" gradientUnits="userSpaceOnUse">
<stop stop-color="#B15500"/>
<stop offset="1" stop-color="#FFCC00" stop-opacity="0"/>
</linearGradient>
<linearGradient id="paint19_linear_125_13930" x1="253.237" y1="184.729" x2="258.528" y2="220.31" gradientUnits="userSpaceOnUse">
<stop stop-color="#B15500"/>
<stop offset="1" stop-color="#FFCC00" stop-opacity="0"/>
</linearGradient>
<linearGradient id="paint20_linear_125_13930" x1="253.454" y1="184.009" x2="288.908" y2="190.09" gradientUnits="userSpaceOnUse">
<stop stop-color="#B15500"/>
<stop offset="1" stop-color="#FFCC00" stop-opacity="0"/>
</linearGradient>
<linearGradient id="paint21_linear_125_13930" x1="253.454" y1="184.009" x2="288.908" y2="190.09" gradientUnits="userSpaceOnUse">
<stop stop-color="#B15500"/>
<stop offset="1" stop-color="#FFCC00" stop-opacity="0"/>
</linearGradient>
<linearGradient id="paint22_linear_125_13930" x1="272.5" y1="66" x2="293.5" y2="93" gradientUnits="userSpaceOnUse">
<stop stop-color="white"/>
<stop offset="1" stop-color="white" stop-opacity="0"/>
</linearGradient>
<linearGradient id="paint23_linear_125_13930" x1="115" y1="179.942" x2="142" y2="158.942" gradientUnits="userSpaceOnUse">
<stop stop-color="white"/>
<stop offset="1" stop-color="white" stop-opacity="0"/>
</linearGradient>
<linearGradient id="paint24_linear_125_13930" x1="185" y1="292" x2="166" y2="194.5" gradientUnits="userSpaceOnUse">
<stop stop-color="#2F0660"/>
<stop offset="1" stop-color="#00C6E1" stop-opacity="0"/>
</linearGradient>
<linearGradient id="paint25_linear_125_13930" x1="181.5" y1="296.5" x2="386" y2="241.5" gradientUnits="userSpaceOnUse">
<stop stop-color="#330086" stop-opacity="0.98"/>
<stop offset="0.311" stop-color="#6500DD"/>
<stop offset="1" stop-color="#D98AFF"/>
</linearGradient>
<linearGradient id="paint26_linear_125_13930" x1="168.5" y1="284.727" x2="286" y2="266.227" gradientUnits="userSpaceOnUse">
<stop stop-color="#6500DD"/>
<stop offset="1" stop-color="#AE43E0" stop-opacity="0"/>
</linearGradient>
<linearGradient id="paint27_linear_125_13930" x1="397.607" y1="134" x2="325.607" y2="117" gradientUnits="userSpaceOnUse">
<stop stop-color="#0029FF"/>
<stop offset="1" stop-color="#00C2FF" stop-opacity="0.24"/>
</linearGradient>
<linearGradient id="paint28_linear_125_13930" x1="344.5" y1="265.227" x2="316" y2="273" gradientUnits="userSpaceOnUse">
<stop stop-color="white"/>
<stop offset="1" stop-color="white" stop-opacity="0"/>
</linearGradient>
<linearGradient id="paint29_linear_125_13930" x1="395" y1="142.5" x2="328.5" y2="211" gradientUnits="userSpaceOnUse">
<stop stop-color="#000F5F"/>
<stop offset="1" stop-color="#C54AFF" stop-opacity="0"/>
</linearGradient>
<linearGradient id="paint30_linear_125_13930" x1="293" y1="212" x2="325.5" y2="201.5" gradientUnits="userSpaceOnUse">
<stop stop-color="white"/>
<stop offset="1" stop-color="white" stop-opacity="0"/>
</linearGradient>
<linearGradient id="paint31_linear_125_13930" x1="179.5" y1="167" x2="173" y2="195.5" gradientUnits="userSpaceOnUse">
<stop stop-color="white"/>
<stop offset="1" stop-color="#D9D9D9" stop-opacity="0"/>
</linearGradient>
</defs>
</svg>
