<svg width="450" height="450" viewBox="0 0 450 450" fill="none" xmlns="http://www.w3.org/2000/svg">
<rect width="450" height="450" fill="white"/>
<g filter="url(#filter0_d_141_56896)">
<circle cx="182.755" cy="236.755" r="15" transform="rotate(-57.0346 182.755 236.755)" fill="url(#paint0_linear_141_56896)"/>
<path fill-rule="evenodd" clip-rule="evenodd" d="M169.449 240.123C167.504 232.417 171.907 224.598 179.362 222.186C179.198 222.216 179.035 222.249 178.871 222.284C171.127 224.51 166.493 232.498 168.479 240.368C170.465 248.238 178.334 253.071 186.206 251.357C186.367 251.311 186.527 251.262 186.685 251.211C178.979 252.624 171.393 247.83 169.449 240.123Z" fill="url(#paint1_linear_141_56896)"/>
<path fill-rule="evenodd" clip-rule="evenodd" d="M192.705 245.479C197.213 238.529 195.233 229.24 188.282 224.732C185.02 222.617 181.244 221.93 177.688 222.515C181.629 221.48 185.977 222.045 189.665 224.437C196.616 228.945 198.596 238.234 194.088 245.184C191.696 248.873 187.957 251.162 183.936 251.824C187.421 250.908 190.59 248.741 192.705 245.479Z" fill="url(#paint2_linear_141_56896)"/>
<path fill-rule="evenodd" clip-rule="evenodd" d="M170.222 171.173C170.282 171.968 170.375 172.762 170.501 173.554C171.551 177.023 173.071 180.384 175.062 183.541L177.039 186.678L210.118 235.518L216.003 244.206C222.099 253.207 235.446 252.936 241.172 243.696L242.5 241.553L266.493 201.827C269.521 196.812 269.354 190.494 266.064 185.648L263.968 182.56L264.292 182.334L230.318 131.403L220.163 115.129C211.963 101.986 211.878 85.3609 219.9 72.1483L204.927 93.3375L204.819 93.1767L198.596 101.983L175.473 138.853C173.706 141.67 172.313 144.649 171.293 147.721C168.651 155.285 168.294 163.446 170.222 171.173Z" fill="url(#paint3_linear_141_56896)"/>
<path fill-rule="evenodd" clip-rule="evenodd" d="M169.485 151.904C169.384 152.699 169.315 153.496 169.28 154.292C167.592 162.075 168.203 170.221 171.079 177.7C172.193 180.739 173.678 183.673 175.531 186.434L199.787 222.568L206.28 231.178L206.383 231.014L219.144 247.934L220.119 248.518C213.562 236.105 213.777 221.068 220.936 208.76L230.581 192.179L262.959 140.218L262.628 140.003L264.627 136.851C267.765 131.905 267.736 125.585 264.554 120.667L239.34 81.7035L237.946 79.6028C231.936 70.5448 218.587 70.6886 212.773 79.874L207.161 88.7404L175.613 138.583L173.734 141.78C171.842 144.997 170.427 148.404 169.485 151.904Z" fill="url(#paint4_linear_141_56896)"/>
<path fill-rule="evenodd" clip-rule="evenodd" d="M219.632 248.202L212.275 238.448C209.31 227.929 210.622 216.46 216.297 206.704L225.942 190.122L258.319 138.162L257.988 137.946L259.987 134.795C263.125 129.849 263.097 123.528 259.914 118.61L234.701 79.6472L233.307 77.5464C232.01 75.5925 230.372 74.0668 228.542 72.9676C232.245 73.7062 235.715 75.8408 238.064 79.3809L239.458 81.4818L264.672 120.445C267.854 125.363 267.883 131.683 264.745 136.629L262.746 139.781L263.077 139.996L230.699 191.957L221.054 208.538C213.824 220.968 213.676 236.18 220.433 248.662L219.632 248.202Z" fill="url(#paint5_linear_141_56896)"/>
<path fill-rule="evenodd" clip-rule="evenodd" d="M259.263 112.276L243.881 88.3239L238.21 79.4947C232.336 70.348 218.986 70.2924 213.036 79.3899L211.656 81.4998L186.7 120.629C184.876 123.489 184.112 126.813 184.409 130.062C184.655 127.814 185.409 125.61 186.673 123.629L211.629 84.4997L213.009 82.3898C218.959 73.2923 232.309 73.3479 238.183 82.4946L243.854 91.3237L258.293 113.806L259.263 112.276Z" fill="url(#paint6_linear_141_56896)"/>
</g>
<g filter="url(#filter1_d_141_56896)">
<path d="M114.406 319.385C111.729 319.385 109.309 318.927 107.146 318.01C105.019 317.093 103.333 315.773 102.086 314.05C100.839 312.327 100.198 310.292 100.161 307.945H108.411C108.521 309.522 109.071 310.768 110.061 311.685C111.088 312.602 112.481 313.06 114.241 313.06C116.038 313.06 117.449 312.638 118.476 311.795C119.503 310.915 120.016 309.778 120.016 308.385C120.016 307.248 119.668 306.313 118.971 305.58C118.274 304.847 117.394 304.278 116.331 303.875C115.304 303.435 113.874 302.958 112.041 302.445C109.548 301.712 107.513 300.997 105.936 300.3C104.396 299.567 103.058 298.485 101.921 297.055C100.821 295.588 100.271 293.645 100.271 291.225C100.271 288.952 100.839 286.972 101.976 285.285C103.113 283.598 104.708 282.315 106.761 281.435C108.814 280.518 111.161 280.06 113.801 280.06C117.761 280.06 120.969 281.032 123.426 282.975C125.919 284.882 127.294 287.558 127.551 291.005H119.081C119.008 289.685 118.439 288.603 117.376 287.76C116.349 286.88 114.974 286.44 113.251 286.44C111.748 286.44 110.538 286.825 109.621 287.595C108.741 288.365 108.301 289.483 108.301 290.95C108.301 291.977 108.631 292.838 109.291 293.535C109.988 294.195 110.831 294.745 111.821 295.185C112.848 295.588 114.278 296.065 116.111 296.615C118.604 297.348 120.639 298.082 122.216 298.815C123.793 299.548 125.149 300.648 126.286 302.115C127.423 303.582 127.991 305.507 127.991 307.89C127.991 309.943 127.459 311.85 126.396 313.61C125.333 315.37 123.774 316.782 121.721 317.845C119.668 318.872 117.229 319.385 114.406 319.385ZM143.632 294.855V309.595C143.632 310.622 143.87 311.373 144.347 311.85C144.86 312.29 145.703 312.51 146.877 312.51H150.452V319H145.612C139.122 319 135.877 315.847 135.877 309.54V294.855H132.247V288.53H135.877V280.995H143.632V288.53H150.452V294.855H143.632ZM163.69 293.26C164.68 291.647 165.963 290.382 167.54 289.465C169.153 288.548 170.986 288.09 173.04 288.09V296.175H171.005C168.585 296.175 166.751 296.743 165.505 297.88C164.295 299.017 163.69 300.997 163.69 303.82V319H155.99V288.53H163.69V293.26ZM176.246 303.655C176.246 300.575 176.851 297.843 178.061 295.46C179.308 293.077 180.976 291.243 183.066 289.96C185.193 288.677 187.558 288.035 190.161 288.035C192.434 288.035 194.414 288.493 196.101 289.41C197.824 290.327 199.199 291.482 200.226 292.875V288.53H207.981V319H200.226V314.545C199.236 315.975 197.861 317.167 196.101 318.12C194.378 319.037 192.379 319.495 190.106 319.495C187.539 319.495 185.193 318.835 183.066 317.515C180.976 316.195 179.308 314.343 178.061 311.96C176.851 309.54 176.246 306.772 176.246 303.655ZM200.226 303.765C200.226 301.895 199.859 300.3 199.126 298.98C198.393 297.623 197.403 296.597 196.156 295.9C194.909 295.167 193.571 294.8 192.141 294.8C190.711 294.8 189.391 295.148 188.181 295.845C186.971 296.542 185.981 297.568 185.211 298.925C184.478 300.245 184.111 301.822 184.111 303.655C184.111 305.488 184.478 307.102 185.211 308.495C185.981 309.852 186.971 310.897 188.181 311.63C189.428 312.363 190.748 312.73 192.141 312.73C193.571 312.73 194.909 312.382 196.156 311.685C197.403 310.952 198.393 309.925 199.126 308.605C199.859 307.248 200.226 305.635 200.226 303.765ZM224.467 294.855V309.595C224.467 310.622 224.705 311.373 225.182 311.85C225.695 312.29 226.538 312.51 227.712 312.51H231.287V319H226.447C219.957 319 216.712 315.847 216.712 309.54V294.855H213.082V288.53H216.712V280.995H224.467V288.53H231.287V294.855H224.467ZM265.15 303.105C265.15 304.205 265.076 305.195 264.93 306.075H242.655C242.838 308.275 243.608 309.998 244.965 311.245C246.321 312.492 247.99 313.115 249.97 313.115C252.83 313.115 254.865 311.887 256.075 309.43H264.38C263.5 312.363 261.813 314.783 259.32 316.69C256.826 318.56 253.765 319.495 250.135 319.495C247.201 319.495 244.561 318.853 242.215 317.57C239.905 316.25 238.09 314.398 236.77 312.015C235.486 309.632 234.845 306.882 234.845 303.765C234.845 300.612 235.486 297.843 236.77 295.46C238.053 293.077 239.85 291.243 242.16 289.96C244.47 288.677 247.128 288.035 250.135 288.035C253.031 288.035 255.616 288.658 257.89 289.905C260.2 291.152 261.978 292.93 263.225 295.24C264.508 297.513 265.15 300.135 265.15 303.105ZM257.175 300.905C257.138 298.925 256.423 297.348 255.03 296.175C253.636 294.965 251.931 294.36 249.915 294.36C248.008 294.36 246.395 294.947 245.075 296.12C243.791 297.257 243.003 298.852 242.71 300.905H257.175ZM282.705 288.035C284.978 288.035 286.977 288.493 288.7 289.41C290.423 290.29 291.78 291.445 292.77 292.875V288.53H300.525V319.22C300.525 322.043 299.957 324.555 298.82 326.755C297.683 328.992 295.978 330.752 293.705 332.035C291.432 333.355 288.682 334.015 285.455 334.015C281.128 334.015 277.572 333.007 274.785 330.99C272.035 328.973 270.477 326.223 270.11 322.74H277.755C278.158 324.133 279.02 325.233 280.34 326.04C281.697 326.883 283.328 327.305 285.235 327.305C287.472 327.305 289.287 326.627 290.68 325.27C292.073 323.95 292.77 321.933 292.77 319.22V314.49C291.78 315.92 290.405 317.112 288.645 318.065C286.922 319.018 284.942 319.495 282.705 319.495C280.138 319.495 277.792 318.835 275.665 317.515C273.538 316.195 271.852 314.343 270.605 311.96C269.395 309.54 268.79 306.772 268.79 303.655C268.79 300.575 269.395 297.843 270.605 295.46C271.852 293.077 273.52 291.243 275.61 289.96C277.737 288.677 280.102 288.035 282.705 288.035ZM292.77 303.765C292.77 301.895 292.403 300.3 291.67 298.98C290.937 297.623 289.947 296.597 288.7 295.9C287.453 295.167 286.115 294.8 284.685 294.8C283.255 294.8 281.935 295.148 280.725 295.845C279.515 296.542 278.525 297.568 277.755 298.925C277.022 300.245 276.655 301.822 276.655 303.655C276.655 305.488 277.022 307.102 277.755 308.495C278.525 309.852 279.515 310.897 280.725 311.63C281.972 312.363 283.292 312.73 284.685 312.73C286.115 312.73 287.453 312.382 288.7 311.685C289.947 310.952 290.937 309.925 291.67 308.605C292.403 307.248 292.77 305.635 292.77 303.765ZM311.95 284.9C310.594 284.9 309.457 284.478 308.54 283.635C307.66 282.755 307.22 281.673 307.22 280.39C307.22 279.107 307.66 278.043 308.54 277.2C309.457 276.32 310.594 275.88 311.95 275.88C313.307 275.88 314.425 276.32 315.305 277.2C316.222 278.043 316.68 279.107 316.68 280.39C316.68 281.673 316.222 282.755 315.305 283.635C314.425 284.478 313.307 284.9 311.95 284.9ZM315.745 288.53V319H308.045V288.53H315.745ZM321.373 303.765C321.373 300.612 322.015 297.862 323.298 295.515C324.581 293.132 326.36 291.298 328.633 290.015C330.906 288.695 333.51 288.035 336.443 288.035C340.22 288.035 343.336 288.988 345.793 290.895C348.286 292.765 349.955 295.405 350.798 298.815H342.493C342.053 297.495 341.301 296.468 340.238 295.735C339.211 294.965 337.928 294.58 336.388 294.58C334.188 294.58 332.446 295.387 331.163 297C329.88 298.577 329.238 300.832 329.238 303.765C329.238 306.662 329.88 308.917 331.163 310.53C332.446 312.107 334.188 312.895 336.388 312.895C339.505 312.895 341.54 311.502 342.493 308.715H350.798C349.955 312.015 348.286 314.637 345.793 316.58C343.3 318.523 340.183 319.495 336.443 319.495C333.51 319.495 330.906 318.853 328.633 317.57C326.36 316.25 324.581 314.417 323.298 312.07C322.015 309.687 321.373 306.918 321.373 303.765Z" fill="url(#paint7_linear_141_56896)" fill-opacity="0.98"/>
<path d="M166.086 357.35H152.186L149.886 364H142.536L155.086 329.05H163.236L175.786 364H168.386L166.086 357.35ZM164.186 351.75L159.136 337.15L154.086 351.75H164.186ZM193.177 342.05H188.327V364H181.227V342.05H178.077V336.3H181.227V334.9C181.227 331.5 182.194 329 184.127 327.4C186.061 325.8 188.977 325.05 192.877 325.15V331.05C191.177 331.017 189.994 331.3 189.327 331.9C188.661 332.5 188.327 333.583 188.327 335.15V336.3H193.177V342.05ZM210.414 342.05H205.564V364H198.464V342.05H195.314V336.3H198.464V334.9C198.464 331.5 199.43 329 201.364 327.4C203.297 325.8 206.214 325.05 210.114 325.15V331.05C208.414 331.017 207.23 331.3 206.564 331.9C205.897 332.5 205.564 333.583 205.564 335.15V336.3H210.414V342.05ZM213.15 350.05C213.15 347.25 213.7 344.767 214.8 342.6C215.933 340.433 217.45 338.767 219.35 337.6C221.283 336.433 223.433 335.85 225.8 335.85C227.867 335.85 229.667 336.267 231.2 337.1C232.767 337.933 234.017 338.983 234.95 340.25V336.3H242V364H234.95V359.95C234.05 361.25 232.8 362.333 231.2 363.2C229.633 364.033 227.817 364.45 225.75 364.45C223.417 364.45 221.283 363.85 219.35 362.65C217.45 361.45 215.933 359.767 214.8 357.6C213.7 355.4 213.15 352.883 213.15 350.05ZM234.95 350.15C234.95 348.45 234.617 347 233.95 345.8C233.283 344.567 232.383 343.633 231.25 343C230.117 342.333 228.9 342 227.6 342C226.3 342 225.1 342.317 224 342.95C222.9 343.583 222 344.517 221.3 345.75C220.633 346.95 220.3 348.383 220.3 350.05C220.3 351.717 220.633 353.183 221.3 354.45C222 355.683 222.9 356.633 224 357.3C225.133 357.967 226.333 358.3 227.6 358.3C228.9 358.3 230.117 357.983 231.25 357.35C232.383 356.683 233.283 355.75 233.95 354.55C234.617 353.317 234.95 351.85 234.95 350.15ZM252.387 333C251.153 333 250.12 332.617 249.287 331.85C248.487 331.05 248.087 330.067 248.087 328.9C248.087 327.733 248.487 326.767 249.287 326C250.12 325.2 251.153 324.8 252.387 324.8C253.62 324.8 254.637 325.2 255.437 326C256.27 326.767 256.687 327.733 256.687 328.9C256.687 330.067 256.27 331.05 255.437 331.85C254.637 332.617 253.62 333 252.387 333ZM255.837 336.3V364H248.837V336.3H255.837ZM269.753 340.6C270.653 339.133 271.819 337.983 273.253 337.15C274.719 336.317 276.386 335.9 278.253 335.9V343.25H276.403C274.203 343.25 272.536 343.767 271.403 344.8C270.303 345.833 269.753 347.633 269.753 350.2V364H262.753V336.3H269.753V340.6ZM293.568 364.45C291.301 364.45 289.268 364.05 287.468 363.25C285.668 362.417 284.234 361.3 283.168 359.9C282.134 358.5 281.568 356.95 281.468 355.25H288.518C288.651 356.317 289.168 357.2 290.068 357.9C291.001 358.6 292.151 358.95 293.518 358.95C294.851 358.95 295.884 358.683 296.618 358.15C297.384 357.617 297.768 356.933 297.768 356.1C297.768 355.2 297.301 354.533 296.368 354.1C295.468 353.633 294.018 353.133 292.018 352.6C289.951 352.1 288.251 351.583 286.918 351.05C285.618 350.517 284.484 349.7 283.518 348.6C282.584 347.5 282.118 346.017 282.118 344.15C282.118 342.617 282.551 341.217 283.418 339.95C284.318 338.683 285.584 337.683 287.218 336.95C288.884 336.217 290.834 335.85 293.068 335.85C296.368 335.85 299.001 336.683 300.968 338.35C302.934 339.983 304.018 342.2 304.218 345H297.518C297.418 343.9 296.951 343.033 296.118 342.4C295.318 341.733 294.234 341.4 292.868 341.4C291.601 341.4 290.618 341.633 289.918 342.1C289.251 342.567 288.918 343.217 288.918 344.05C288.918 344.983 289.384 345.7 290.318 346.2C291.251 346.667 292.701 347.15 294.668 347.65C296.668 348.15 298.318 348.667 299.618 349.2C300.918 349.733 302.034 350.567 302.968 351.7C303.934 352.8 304.434 354.267 304.468 356.1C304.468 357.7 304.018 359.133 303.118 360.4C302.251 361.667 300.984 362.667 299.318 363.4C297.684 364.1 295.768 364.45 293.568 364.45Z" fill="url(#paint8_linear_141_56896)" fill-opacity="0.98"/>
</g>
<defs>
<filter id="filter0_d_141_56896" x="159.753" y="69.1484" width="116.9" height="195.675" filterUnits="userSpaceOnUse" color-interpolation-filters="sRGB">
<feFlood flood-opacity="0" result="BackgroundImageFix"/>
<feColorMatrix in="SourceAlpha" type="matrix" values="0 0 0 0 0 0 0 0 0 0 0 0 0 0 0 0 0 0 127 0" result="hardAlpha"/>
<feOffset dy="5"/>
<feGaussianBlur stdDeviation="4"/>
<feComposite in2="hardAlpha" operator="out"/>
<feColorMatrix type="matrix" values="0 0 0 0 0 0 0 0 0 0 0 0 0 0 0 0 0 0 0.25 0"/>
<feBlend mode="normal" in2="BackgroundImageFix" result="effect1_dropShadow_141_56896"/>
<feBlend mode="normal" in="SourceGraphic" in2="effect1_dropShadow_141_56896" result="shape"/>
</filter>
<filter id="filter1_d_141_56896" x="96.1609" y="275.88" width="258.637" height="96.5701" filterUnits="userSpaceOnUse" color-interpolation-filters="sRGB">
<feFlood flood-opacity="0" result="BackgroundImageFix"/>
<feColorMatrix in="SourceAlpha" type="matrix" values="0 0 0 0 0 0 0 0 0 0 0 0 0 0 0 0 0 0 127 0" result="hardAlpha"/>
<feOffset dy="4"/>
<feGaussianBlur stdDeviation="2"/>
<feComposite in2="hardAlpha" operator="out"/>
<feColorMatrix type="matrix" values="0 0 0 0 0 0 0 0 0 0 0 0 0 0 0 0 0 0 0.25 0"/>
<feBlend mode="normal" in2="BackgroundImageFix" result="effect1_dropShadow_141_56896"/>
<feBlend mode="normal" in="SourceGraphic" in2="effect1_dropShadow_141_56896" result="shape"/>
</filter>
<linearGradient id="paint0_linear_141_56896" x1="201.755" y1="251.755" x2="160.255" y2="219.255" gradientUnits="userSpaceOnUse">
<stop stop-color="#B15500"/>
<stop offset="1" stop-color="#FFDD55"/>
</linearGradient>
<linearGradient id="paint1_linear_141_56896" x1="169.049" y1="238.594" x2="172.654" y2="238.548" gradientUnits="userSpaceOnUse">
<stop stop-color="white"/>
<stop offset="1" stop-color="white" stop-opacity="0"/>
</linearGradient>
<linearGradient id="paint2_linear_141_56896" x1="199.579" y1="229.192" x2="187.846" y2="233.501" gradientUnits="userSpaceOnUse">
<stop stop-color="#FFCC00"/>
<stop offset="1" stop-color="#FFCC00" stop-opacity="0"/>
</linearGradient>
<linearGradient id="paint3_linear_141_56896" x1="195.171" y1="93.0326" x2="253.337" y2="296.655" gradientUnits="userSpaceOnUse">
<stop stop-color="#330086" stop-opacity="0.98"/>
<stop offset="0.311" stop-color="#6500DD"/>
<stop offset="1" stop-color="#D98AFF"/>
</linearGradient>
<linearGradient id="paint4_linear_141_56896" x1="196.641" y1="231.621" x2="248.462" y2="26.2924" gradientUnits="userSpaceOnUse">
<stop stop-color="#330086" stop-opacity="0.98"/>
<stop offset="0.311" stop-color="#6500DD"/>
<stop offset="1" stop-color="#D98AFF"/>
</linearGradient>
<linearGradient id="paint5_linear_141_56896" x1="196.76" y1="231.399" x2="248.581" y2="26.0706" gradientUnits="userSpaceOnUse">
<stop stop-color="#6500DD"/>
<stop offset="0.311" stop-color="#6500DD"/>
<stop offset="1" stop-color="#D98AFF"/>
</linearGradient>
<linearGradient id="paint6_linear_141_56896" x1="225.117" y1="67.8543" x2="232.636" y2="96.4224" gradientUnits="userSpaceOnUse">
<stop stop-color="white"/>
<stop offset="1" stop-color="white" stop-opacity="0"/>
</linearGradient>
<linearGradient id="paint7_linear_141_56896" x1="7.06414" y1="302.464" x2="379.865" y2="299.927" gradientUnits="userSpaceOnUse">
<stop stop-color="#000E57" stop-opacity="0.98"/>
<stop offset="0.49" stop-color="#6500DD"/>
<stop offset="1" stop-color="#C54AFF"/>
</linearGradient>
<linearGradient id="paint8_linear_141_56896" x1="82.6822" y1="349.179" x2="324.426" y2="347.998" gradientUnits="userSpaceOnUse">
<stop stop-color="#000E57" stop-opacity="0.98"/>
<stop offset="0.49" stop-color="#6500DD"/>
<stop offset="1" stop-color="#C54AFF"/>
</linearGradient>
</defs>
</svg>
