<svg width="450" height="450" viewBox="0 0 450 450" fill="none" xmlns="http://www.w3.org/2000/svg">
<rect width="450" height="450" fill="#2F2F2F"/>
<circle cx="182.755" cy="234.755" r="15" transform="rotate(-57.0346 182.755 234.755)" fill="url(#paint0_linear_141_56897)"/>
<path fill-rule="evenodd" clip-rule="evenodd" d="M169.449 238.123C167.504 230.417 171.907 222.598 179.362 220.186C179.198 220.216 179.035 220.249 178.871 220.284C171.127 222.51 166.493 230.498 168.479 238.368C170.465 246.238 178.334 251.071 186.206 249.357C186.367 249.311 186.527 249.262 186.685 249.211C178.979 250.624 171.393 245.83 169.449 238.123Z" fill="url(#paint1_linear_141_56897)"/>
<path fill-rule="evenodd" clip-rule="evenodd" d="M192.705 243.479C197.213 236.529 195.233 227.24 188.282 222.732C185.02 220.617 181.244 219.93 177.688 220.515C181.629 219.48 185.977 220.045 189.665 222.437C196.616 226.945 198.596 236.234 194.088 243.184C191.696 246.873 187.957 249.162 183.936 249.824C187.421 248.908 190.59 246.741 192.705 243.479Z" fill="url(#paint2_linear_141_56897)"/>
<path fill-rule="evenodd" clip-rule="evenodd" d="M170.222 169.173C170.282 169.968 170.375 170.762 170.501 171.554C171.551 175.023 173.071 178.384 175.062 181.541L177.039 184.678L210.118 233.518L216.003 242.206C222.099 251.207 235.446 250.936 241.172 241.696L242.5 239.553L266.493 199.827C269.521 194.812 269.354 188.494 266.064 183.648L263.968 180.56L264.292 180.334L230.318 129.403L220.163 113.129C211.963 99.9863 211.878 83.3609 219.9 70.1483L204.927 91.3375L204.819 91.1767L198.596 99.9832L175.473 136.853C173.706 139.67 172.313 142.649 171.293 145.721C168.651 153.285 168.294 161.446 170.222 169.173Z" fill="url(#paint3_linear_141_56897)"/>
<path fill-rule="evenodd" clip-rule="evenodd" d="M169.485 149.904C169.384 150.699 169.315 151.496 169.28 152.292C167.592 160.075 168.203 168.221 171.079 175.7C172.193 178.739 173.678 181.673 175.531 184.434L199.787 220.568L206.28 229.178L206.383 229.014L219.144 245.934L220.119 246.518C213.562 234.105 213.777 219.068 220.936 206.76L230.581 190.179L262.959 138.218L262.628 138.003L264.627 134.851C267.765 129.905 267.736 123.585 264.554 118.667L239.34 79.7037L237.946 77.6028C231.936 68.5448 218.587 68.6886 212.773 77.8739L207.161 86.7404L175.613 136.583L173.734 139.78C171.842 142.997 170.427 146.404 169.485 149.904Z" fill="url(#paint4_linear_141_56897)"/>
<path fill-rule="evenodd" clip-rule="evenodd" d="M219.632 246.202L212.275 236.448C209.31 225.929 210.622 214.46 216.297 204.704L225.942 188.122L258.319 136.162L257.988 135.946L259.987 132.795C263.125 127.849 263.097 121.528 259.914 116.61L234.701 77.6471L233.307 75.5464C232.01 73.5925 230.372 72.0668 228.542 70.9676C232.245 71.7062 235.715 73.8408 238.064 77.3809L239.458 79.4817L264.672 118.445C267.854 123.363 267.883 129.683 264.745 134.629L262.746 137.781L263.077 137.996L230.699 189.957L221.054 206.538C213.824 218.968 213.676 234.18 220.433 246.662L219.632 246.202Z" fill="url(#paint5_linear_141_56897)"/>
<path fill-rule="evenodd" clip-rule="evenodd" d="M259.263 110.276L243.881 86.3239L238.21 77.4947C232.336 68.348 218.986 68.2924 213.036 77.3899L211.656 79.4998L186.7 118.629C184.876 121.489 184.112 124.813 184.409 128.062C184.655 125.814 185.409 123.61 186.673 121.629L211.629 82.4997L213.009 80.3898C218.959 71.2923 232.309 71.3479 238.183 80.4946L243.854 89.3237L258.293 111.806L259.263 110.276Z" fill="url(#paint6_linear_141_56897)"/>
<path d="M114.406 317.385C111.729 317.385 109.309 316.927 107.146 316.01C105.019 315.093 103.333 313.773 102.086 312.05C100.839 310.327 100.198 308.292 100.161 305.945H108.411C108.521 307.522 109.071 308.768 110.061 309.685C111.088 310.602 112.481 311.06 114.241 311.06C116.038 311.06 117.449 310.638 118.476 309.795C119.503 308.915 120.016 307.778 120.016 306.385C120.016 305.248 119.668 304.313 118.971 303.58C118.274 302.847 117.394 302.278 116.331 301.875C115.304 301.435 113.874 300.958 112.041 300.445C109.548 299.712 107.513 298.997 105.936 298.3C104.396 297.567 103.058 296.485 101.921 295.055C100.821 293.588 100.271 291.645 100.271 289.225C100.271 286.952 100.839 284.972 101.976 283.285C103.113 281.598 104.708 280.315 106.761 279.435C108.814 278.518 111.161 278.06 113.801 278.06C117.761 278.06 120.969 279.032 123.426 280.975C125.919 282.882 127.294 285.558 127.551 289.005H119.081C119.008 287.685 118.439 286.603 117.376 285.76C116.349 284.88 114.974 284.44 113.251 284.44C111.748 284.44 110.538 284.825 109.621 285.595C108.741 286.365 108.301 287.483 108.301 288.95C108.301 289.977 108.631 290.838 109.291 291.535C109.988 292.195 110.831 292.745 111.821 293.185C112.848 293.588 114.278 294.065 116.111 294.615C118.604 295.348 120.639 296.082 122.216 296.815C123.793 297.548 125.149 298.648 126.286 300.115C127.423 301.582 127.991 303.507 127.991 305.89C127.991 307.943 127.459 309.85 126.396 311.61C125.333 313.37 123.774 314.782 121.721 315.845C119.668 316.872 117.229 317.385 114.406 317.385ZM143.632 292.855V307.595C143.632 308.622 143.87 309.373 144.347 309.85C144.86 310.29 145.703 310.51 146.877 310.51H150.452V317H145.612C139.122 317 135.877 313.847 135.877 307.54V292.855H132.247V286.53H135.877V278.995H143.632V286.53H150.452V292.855H143.632ZM163.69 291.26C164.68 289.647 165.963 288.382 167.54 287.465C169.153 286.548 170.986 286.09 173.04 286.09V294.175H171.005C168.585 294.175 166.751 294.743 165.505 295.88C164.295 297.017 163.69 298.997 163.69 301.82V317H155.99V286.53H163.69V291.26ZM176.246 301.655C176.246 298.575 176.851 295.843 178.061 293.46C179.308 291.077 180.976 289.243 183.066 287.96C185.193 286.677 187.558 286.035 190.161 286.035C192.434 286.035 194.414 286.493 196.101 287.41C197.824 288.327 199.199 289.482 200.226 290.875V286.53H207.981V317H200.226V312.545C199.236 313.975 197.861 315.167 196.101 316.12C194.378 317.037 192.379 317.495 190.106 317.495C187.539 317.495 185.193 316.835 183.066 315.515C180.976 314.195 179.308 312.343 178.061 309.96C176.851 307.54 176.246 304.772 176.246 301.655ZM200.226 301.765C200.226 299.895 199.859 298.3 199.126 296.98C198.393 295.623 197.403 294.597 196.156 293.9C194.909 293.167 193.571 292.8 192.141 292.8C190.711 292.8 189.391 293.148 188.181 293.845C186.971 294.542 185.981 295.568 185.211 296.925C184.478 298.245 184.111 299.822 184.111 301.655C184.111 303.488 184.478 305.102 185.211 306.495C185.981 307.852 186.971 308.897 188.181 309.63C189.428 310.363 190.748 310.73 192.141 310.73C193.571 310.73 194.909 310.382 196.156 309.685C197.403 308.952 198.393 307.925 199.126 306.605C199.859 305.248 200.226 303.635 200.226 301.765ZM224.467 292.855V307.595C224.467 308.622 224.705 309.373 225.182 309.85C225.695 310.29 226.538 310.51 227.712 310.51H231.287V317H226.447C219.957 317 216.712 313.847 216.712 307.54V292.855H213.082V286.53H216.712V278.995H224.467V286.53H231.287V292.855H224.467ZM265.15 301.105C265.15 302.205 265.076 303.195 264.93 304.075H242.655C242.838 306.275 243.608 307.998 244.965 309.245C246.321 310.492 247.99 311.115 249.97 311.115C252.83 311.115 254.865 309.887 256.075 307.43H264.38C263.5 310.363 261.813 312.783 259.32 314.69C256.826 316.56 253.765 317.495 250.135 317.495C247.201 317.495 244.561 316.853 242.215 315.57C239.905 314.25 238.09 312.398 236.77 310.015C235.486 307.632 234.845 304.882 234.845 301.765C234.845 298.612 235.486 295.843 236.77 293.46C238.053 291.077 239.85 289.243 242.16 287.96C244.47 286.677 247.128 286.035 250.135 286.035C253.031 286.035 255.616 286.658 257.89 287.905C260.2 289.152 261.978 290.93 263.225 293.24C264.508 295.513 265.15 298.135 265.15 301.105ZM257.175 298.905C257.138 296.925 256.423 295.348 255.03 294.175C253.636 292.965 251.931 292.36 249.915 292.36C248.008 292.36 246.395 292.947 245.075 294.12C243.791 295.257 243.003 296.852 242.71 298.905H257.175ZM282.705 286.035C284.978 286.035 286.977 286.493 288.7 287.41C290.423 288.29 291.78 289.445 292.77 290.875V286.53H300.525V317.22C300.525 320.043 299.957 322.555 298.82 324.755C297.683 326.992 295.978 328.752 293.705 330.035C291.432 331.355 288.682 332.015 285.455 332.015C281.128 332.015 277.572 331.007 274.785 328.99C272.035 326.973 270.477 324.223 270.11 320.74H277.755C278.158 322.133 279.02 323.233 280.34 324.04C281.697 324.883 283.328 325.305 285.235 325.305C287.472 325.305 289.287 324.627 290.68 323.27C292.073 321.95 292.77 319.933 292.77 317.22V312.49C291.78 313.92 290.405 315.112 288.645 316.065C286.922 317.018 284.942 317.495 282.705 317.495C280.138 317.495 277.792 316.835 275.665 315.515C273.538 314.195 271.852 312.343 270.605 309.96C269.395 307.54 268.79 304.772 268.79 301.655C268.79 298.575 269.395 295.843 270.605 293.46C271.852 291.077 273.52 289.243 275.61 287.96C277.737 286.677 280.102 286.035 282.705 286.035ZM292.77 301.765C292.77 299.895 292.403 298.3 291.67 296.98C290.937 295.623 289.947 294.597 288.7 293.9C287.453 293.167 286.115 292.8 284.685 292.8C283.255 292.8 281.935 293.148 280.725 293.845C279.515 294.542 278.525 295.568 277.755 296.925C277.022 298.245 276.655 299.822 276.655 301.655C276.655 303.488 277.022 305.102 277.755 306.495C278.525 307.852 279.515 308.897 280.725 309.63C281.972 310.363 283.292 310.73 284.685 310.73C286.115 310.73 287.453 310.382 288.7 309.685C289.947 308.952 290.937 307.925 291.67 306.605C292.403 305.248 292.77 303.635 292.77 301.765ZM311.95 282.9C310.594 282.9 309.457 282.478 308.54 281.635C307.66 280.755 307.22 279.673 307.22 278.39C307.22 277.107 307.66 276.043 308.54 275.2C309.457 274.32 310.594 273.88 311.95 273.88C313.307 273.88 314.425 274.32 315.305 275.2C316.222 276.043 316.68 277.107 316.68 278.39C316.68 279.673 316.222 280.755 315.305 281.635C314.425 282.478 313.307 282.9 311.95 282.9ZM315.745 286.53V317H308.045V286.53H315.745ZM321.373 301.765C321.373 298.612 322.015 295.862 323.298 293.515C324.581 291.132 326.36 289.298 328.633 288.015C330.906 286.695 333.51 286.035 336.443 286.035C340.22 286.035 343.336 286.988 345.793 288.895C348.286 290.765 349.955 293.405 350.798 296.815H342.493C342.053 295.495 341.301 294.468 340.238 293.735C339.211 292.965 337.928 292.58 336.388 292.58C334.188 292.58 332.446 293.387 331.163 295C329.88 296.577 329.238 298.832 329.238 301.765C329.238 304.662 329.88 306.917 331.163 308.53C332.446 310.107 334.188 310.895 336.388 310.895C339.505 310.895 341.54 309.502 342.493 306.715H350.798C349.955 310.015 348.286 312.637 345.793 314.58C343.3 316.523 340.183 317.495 336.443 317.495C333.51 317.495 330.906 316.853 328.633 315.57C326.36 314.25 324.581 312.417 323.298 310.07C322.015 307.687 321.373 304.918 321.373 301.765Z" fill="white"/>
<path d="M166.086 355.35H152.186L149.886 362H142.536L155.086 327.05H163.236L175.786 362H168.386L166.086 355.35ZM164.186 349.75L159.136 335.15L154.086 349.75H164.186ZM193.177 340.05H188.327V362H181.227V340.05H178.077V334.3H181.227V332.9C181.227 329.5 182.194 327 184.127 325.4C186.061 323.8 188.977 323.05 192.877 323.15V329.05C191.177 329.017 189.994 329.3 189.327 329.9C188.661 330.5 188.327 331.583 188.327 333.15V334.3H193.177V340.05ZM210.414 340.05H205.564V362H198.464V340.05H195.314V334.3H198.464V332.9C198.464 329.5 199.43 327 201.364 325.4C203.297 323.8 206.214 323.05 210.114 323.15V329.05C208.414 329.017 207.23 329.3 206.564 329.9C205.897 330.5 205.564 331.583 205.564 333.15V334.3H210.414V340.05ZM213.15 348.05C213.15 345.25 213.7 342.767 214.8 340.6C215.933 338.433 217.45 336.767 219.35 335.6C221.283 334.433 223.433 333.85 225.8 333.85C227.867 333.85 229.667 334.267 231.2 335.1C232.767 335.933 234.017 336.983 234.95 338.25V334.3H242V362H234.95V357.95C234.05 359.25 232.8 360.333 231.2 361.2C229.633 362.033 227.817 362.45 225.75 362.45C223.417 362.45 221.283 361.85 219.35 360.65C217.45 359.45 215.933 357.767 214.8 355.6C213.7 353.4 213.15 350.883 213.15 348.05ZM234.95 348.15C234.95 346.45 234.617 345 233.95 343.8C233.283 342.567 232.383 341.633 231.25 341C230.117 340.333 228.9 340 227.6 340C226.3 340 225.1 340.317 224 340.95C222.9 341.583 222 342.517 221.3 343.75C220.633 344.95 220.3 346.383 220.3 348.05C220.3 349.717 220.633 351.183 221.3 352.45C222 353.683 222.9 354.633 224 355.3C225.133 355.967 226.333 356.3 227.6 356.3C228.9 356.3 230.117 355.983 231.25 355.35C232.383 354.683 233.283 353.75 233.95 352.55C234.617 351.317 234.95 349.85 234.95 348.15ZM252.387 331C251.153 331 250.12 330.617 249.287 329.85C248.487 329.05 248.087 328.067 248.087 326.9C248.087 325.733 248.487 324.767 249.287 324C250.12 323.2 251.153 322.8 252.387 322.8C253.62 322.8 254.637 323.2 255.437 324C256.27 324.767 256.687 325.733 256.687 326.9C256.687 328.067 256.27 329.05 255.437 329.85C254.637 330.617 253.62 331 252.387 331ZM255.837 334.3V362H248.837V334.3H255.837ZM269.753 338.6C270.653 337.133 271.819 335.983 273.253 335.15C274.719 334.317 276.386 333.9 278.253 333.9V341.25H276.403C274.203 341.25 272.536 341.767 271.403 342.8C270.303 343.833 269.753 345.633 269.753 348.2V362H262.753V334.3H269.753V338.6ZM293.568 362.45C291.301 362.45 289.268 362.05 287.468 361.25C285.668 360.417 284.234 359.3 283.168 357.9C282.134 356.5 281.568 354.95 281.468 353.25H288.518C288.651 354.317 289.168 355.2 290.068 355.9C291.001 356.6 292.151 356.95 293.518 356.95C294.851 356.95 295.884 356.683 296.618 356.15C297.384 355.617 297.768 354.933 297.768 354.1C297.768 353.2 297.301 352.533 296.368 352.1C295.468 351.633 294.018 351.133 292.018 350.6C289.951 350.1 288.251 349.583 286.918 349.05C285.618 348.517 284.484 347.7 283.518 346.6C282.584 345.5 282.118 344.017 282.118 342.15C282.118 340.617 282.551 339.217 283.418 337.95C284.318 336.683 285.584 335.683 287.218 334.95C288.884 334.217 290.834 333.85 293.068 333.85C296.368 333.85 299.001 334.683 300.968 336.35C302.934 337.983 304.018 340.2 304.218 343H297.518C297.418 341.9 296.951 341.033 296.118 340.4C295.318 339.733 294.234 339.4 292.868 339.4C291.601 339.4 290.618 339.633 289.918 340.1C289.251 340.567 288.918 341.217 288.918 342.05C288.918 342.983 289.384 343.7 290.318 344.2C291.251 344.667 292.701 345.15 294.668 345.65C296.668 346.15 298.318 346.667 299.618 347.2C300.918 347.733 302.034 348.567 302.968 349.7C303.934 350.8 304.434 352.267 304.468 354.1C304.468 355.7 304.018 357.133 303.118 358.4C302.251 359.667 300.984 360.667 299.318 361.4C297.684 362.1 295.768 362.45 293.568 362.45Z" fill="white"/>
<defs>
<linearGradient id="paint0_linear_141_56897" x1="201.755" y1="249.755" x2="160.255" y2="217.255" gradientUnits="userSpaceOnUse">
<stop stop-color="#B15500"/>
<stop offset="1" stop-color="#FFDD55"/>
</linearGradient>
<linearGradient id="paint1_linear_141_56897" x1="169.049" y1="236.594" x2="172.654" y2="236.548" gradientUnits="userSpaceOnUse">
<stop stop-color="white"/>
<stop offset="1" stop-color="white" stop-opacity="0"/>
</linearGradient>
<linearGradient id="paint2_linear_141_56897" x1="199.579" y1="227.192" x2="187.846" y2="231.501" gradientUnits="userSpaceOnUse">
<stop stop-color="#FFCC00"/>
<stop offset="1" stop-color="#FFCC00" stop-opacity="0"/>
</linearGradient>
<linearGradient id="paint3_linear_141_56897" x1="195.171" y1="91.0326" x2="253.337" y2="294.655" gradientUnits="userSpaceOnUse">
<stop stop-color="#330086" stop-opacity="0.98"/>
<stop offset="0.311" stop-color="#6500DD"/>
<stop offset="1" stop-color="#D98AFF"/>
</linearGradient>
<linearGradient id="paint4_linear_141_56897" x1="196.641" y1="229.621" x2="248.462" y2="24.2924" gradientUnits="userSpaceOnUse">
<stop stop-color="#330086" stop-opacity="0.98"/>
<stop offset="0.311" stop-color="#6500DD"/>
<stop offset="1" stop-color="#D98AFF"/>
</linearGradient>
<linearGradient id="paint5_linear_141_56897" x1="196.76" y1="229.399" x2="248.581" y2="24.0706" gradientUnits="userSpaceOnUse">
<stop stop-color="#6500DD"/>
<stop offset="0.311" stop-color="#6500DD"/>
<stop offset="1" stop-color="#D98AFF"/>
</linearGradient>
<linearGradient id="paint6_linear_141_56897" x1="225.117" y1="65.8543" x2="232.636" y2="94.4224" gradientUnits="userSpaceOnUse">
<stop stop-color="white"/>
<stop offset="1" stop-color="white" stop-opacity="0"/>
</linearGradient>
</defs>
</svg>
