<svg width="450" height="450" viewBox="0 0 450 450" fill="none" xmlns="http://www.w3.org/2000/svg">
<rect x="3.5" y="3.5" width="443" height="443" rx="221.5" fill="white" stroke="url(#paint0_linear_141_57498)" stroke-width="7"/>
<g filter="url(#filter0_d_141_57498)">
<circle cx="182.755" cy="230.755" r="15" transform="rotate(-57.0346 182.755 230.755)" fill="url(#paint1_linear_141_57498)"/>
<path fill-rule="evenodd" clip-rule="evenodd" d="M169.449 234.123C167.504 226.417 171.907 218.598 179.362 216.186C179.198 216.216 179.035 216.249 178.871 216.284C171.127 218.51 166.493 226.498 168.479 234.368C170.465 242.238 178.334 247.071 186.206 245.357C186.367 245.311 186.527 245.262 186.685 245.211C178.979 246.624 171.393 241.83 169.449 234.123Z" fill="url(#paint2_linear_141_57498)"/>
<path fill-rule="evenodd" clip-rule="evenodd" d="M192.705 239.479C197.213 232.529 195.233 223.24 188.282 218.732C185.02 216.617 181.244 215.93 177.688 216.515C181.629 215.48 185.977 216.045 189.665 218.437C196.616 222.945 198.596 232.234 194.088 239.184C191.696 242.873 187.957 245.162 183.936 245.824C187.421 244.908 190.59 242.741 192.705 239.479Z" fill="url(#paint3_linear_141_57498)"/>
<path fill-rule="evenodd" clip-rule="evenodd" d="M170.222 165.173C170.282 165.968 170.375 166.762 170.502 167.554C171.551 171.023 173.072 174.384 175.062 177.541L177.04 180.678L210.119 229.518L216.003 238.206C222.099 247.207 235.446 246.936 241.172 237.696L242.501 235.553L266.493 195.827C269.522 190.812 269.354 184.494 266.064 179.648L263.968 176.56L264.292 176.334L230.318 125.403L220.164 109.129C211.963 95.9863 211.878 79.3609 219.9 66.1483L204.927 87.3375L204.819 87.1767L198.596 95.9832L175.473 132.853C173.707 135.67 172.313 138.649 171.294 141.721C168.652 149.285 168.294 157.446 170.222 165.173Z" fill="url(#paint4_linear_141_57498)"/>
<path fill-rule="evenodd" clip-rule="evenodd" d="M169.485 145.904C169.384 146.699 169.315 147.496 169.28 148.292C167.592 156.075 168.203 164.221 171.079 171.7C172.193 174.739 173.678 177.673 175.531 180.434L199.787 216.568L206.28 225.178L206.383 225.014L219.144 241.934L220.119 242.518C213.562 230.105 213.777 215.068 220.936 202.76L230.581 186.179L262.959 134.218L262.628 134.003L264.627 130.851C267.765 125.905 267.736 119.585 264.554 114.667L239.34 75.7035L237.946 73.6028C231.936 64.5448 218.587 64.6886 212.773 73.874L207.161 82.7404L175.613 132.583L173.734 135.78C171.842 138.997 170.427 142.404 169.485 145.904Z" fill="url(#paint5_linear_141_57498)"/>
<path fill-rule="evenodd" clip-rule="evenodd" d="M219.632 242.202L212.275 232.448C209.31 221.929 210.622 210.46 216.297 200.704L225.942 184.122L258.319 132.162L257.988 131.946L259.987 128.795C263.125 123.849 263.097 117.528 259.914 112.61L234.701 73.6471L233.307 71.5464C232.01 69.5925 230.372 68.0668 228.542 66.9676C232.245 67.7062 235.715 69.8408 238.064 73.3809L239.458 75.4818L264.672 114.445C267.854 119.363 267.883 125.683 264.745 130.629L262.746 133.781L263.077 133.996L230.699 185.957L221.054 202.538C213.824 214.968 213.676 230.18 220.433 242.662L219.632 242.202Z" fill="url(#paint6_linear_141_57498)"/>
<path fill-rule="evenodd" clip-rule="evenodd" d="M259.263 106.276L243.881 82.3239L238.21 73.4947C232.336 64.348 218.986 64.2924 213.036 73.3899L211.656 75.4998L186.7 114.629C184.876 117.489 184.112 120.813 184.409 124.062C184.655 121.814 185.409 119.61 186.673 117.629L211.629 78.4997L213.009 76.3898C218.959 67.2923 232.309 67.3479 238.183 76.4946L243.854 85.3237L258.293 107.806L259.263 106.276Z" fill="url(#paint7_linear_141_57498)"/>
</g>
<g filter="url(#filter1_d_141_57498)">
<path d="M114.406 313.385C111.729 313.385 109.309 312.927 107.146 312.01C105.019 311.093 103.333 309.773 102.086 308.05C100.839 306.327 100.198 304.292 100.161 301.945H108.411C108.521 303.522 109.071 304.768 110.061 305.685C111.088 306.602 112.481 307.06 114.241 307.06C116.038 307.06 117.449 306.638 118.476 305.795C119.503 304.915 120.016 303.778 120.016 302.385C120.016 301.248 119.668 300.313 118.971 299.58C118.274 298.847 117.394 298.278 116.331 297.875C115.304 297.435 113.874 296.958 112.041 296.445C109.548 295.712 107.513 294.997 105.936 294.3C104.396 293.567 103.058 292.485 101.921 291.055C100.821 289.588 100.271 287.645 100.271 285.225C100.271 282.952 100.839 280.972 101.976 279.285C103.113 277.598 104.708 276.315 106.761 275.435C108.814 274.518 111.161 274.06 113.801 274.06C117.761 274.06 120.969 275.032 123.426 276.975C125.919 278.882 127.294 281.558 127.551 285.005H119.081C119.008 283.685 118.439 282.603 117.376 281.76C116.349 280.88 114.974 280.44 113.251 280.44C111.748 280.44 110.538 280.825 109.621 281.595C108.741 282.365 108.301 283.483 108.301 284.95C108.301 285.977 108.631 286.838 109.291 287.535C109.988 288.195 110.831 288.745 111.821 289.185C112.848 289.588 114.278 290.065 116.111 290.615C118.604 291.348 120.639 292.082 122.216 292.815C123.793 293.548 125.149 294.648 126.286 296.115C127.423 297.582 127.991 299.507 127.991 301.89C127.991 303.943 127.459 305.85 126.396 307.61C125.333 309.37 123.774 310.782 121.721 311.845C119.668 312.872 117.229 313.385 114.406 313.385ZM143.632 288.855V303.595C143.632 304.622 143.87 305.373 144.347 305.85C144.86 306.29 145.703 306.51 146.877 306.51H150.452V313H145.612C139.122 313 135.877 309.847 135.877 303.54V288.855H132.247V282.53H135.877V274.995H143.632V282.53H150.452V288.855H143.632ZM163.69 287.26C164.68 285.647 165.963 284.382 167.54 283.465C169.153 282.548 170.986 282.09 173.04 282.09V290.175H171.005C168.585 290.175 166.751 290.743 165.505 291.88C164.295 293.017 163.69 294.997 163.69 297.82V313H155.99V282.53H163.69V287.26ZM176.246 297.655C176.246 294.575 176.851 291.843 178.061 289.46C179.308 287.077 180.976 285.243 183.066 283.96C185.193 282.677 187.558 282.035 190.161 282.035C192.434 282.035 194.414 282.493 196.101 283.41C197.824 284.327 199.199 285.482 200.226 286.875V282.53H207.981V313H200.226V308.545C199.236 309.975 197.861 311.167 196.101 312.12C194.378 313.037 192.379 313.495 190.106 313.495C187.539 313.495 185.193 312.835 183.066 311.515C180.976 310.195 179.308 308.343 178.061 305.96C176.851 303.54 176.246 300.772 176.246 297.655ZM200.226 297.765C200.226 295.895 199.859 294.3 199.126 292.98C198.393 291.623 197.403 290.597 196.156 289.9C194.909 289.167 193.571 288.8 192.141 288.8C190.711 288.8 189.391 289.148 188.181 289.845C186.971 290.542 185.981 291.568 185.211 292.925C184.478 294.245 184.111 295.822 184.111 297.655C184.111 299.488 184.478 301.102 185.211 302.495C185.981 303.852 186.971 304.897 188.181 305.63C189.428 306.363 190.748 306.73 192.141 306.73C193.571 306.73 194.909 306.382 196.156 305.685C197.403 304.952 198.393 303.925 199.126 302.605C199.859 301.248 200.226 299.635 200.226 297.765ZM224.467 288.855V303.595C224.467 304.622 224.705 305.373 225.182 305.85C225.695 306.29 226.538 306.51 227.712 306.51H231.287V313H226.447C219.957 313 216.712 309.847 216.712 303.54V288.855H213.082V282.53H216.712V274.995H224.467V282.53H231.287V288.855H224.467ZM265.15 297.105C265.15 298.205 265.076 299.195 264.93 300.075H242.655C242.838 302.275 243.608 303.998 244.965 305.245C246.321 306.492 247.99 307.115 249.97 307.115C252.83 307.115 254.865 305.887 256.075 303.43H264.38C263.5 306.363 261.813 308.783 259.32 310.69C256.826 312.56 253.765 313.495 250.135 313.495C247.201 313.495 244.561 312.853 242.215 311.57C239.905 310.25 238.09 308.398 236.77 306.015C235.486 303.632 234.845 300.882 234.845 297.765C234.845 294.612 235.486 291.843 236.77 289.46C238.053 287.077 239.85 285.243 242.16 283.96C244.47 282.677 247.128 282.035 250.135 282.035C253.031 282.035 255.616 282.658 257.89 283.905C260.2 285.152 261.978 286.93 263.225 289.24C264.508 291.513 265.15 294.135 265.15 297.105ZM257.175 294.905C257.138 292.925 256.423 291.348 255.03 290.175C253.636 288.965 251.931 288.36 249.915 288.36C248.008 288.36 246.395 288.947 245.075 290.12C243.791 291.257 243.003 292.852 242.71 294.905H257.175ZM282.705 282.035C284.978 282.035 286.977 282.493 288.7 283.41C290.423 284.29 291.78 285.445 292.77 286.875V282.53H300.525V313.22C300.525 316.043 299.957 318.555 298.82 320.755C297.683 322.992 295.978 324.752 293.705 326.035C291.432 327.355 288.682 328.015 285.455 328.015C281.128 328.015 277.572 327.007 274.785 324.99C272.035 322.973 270.477 320.223 270.11 316.74H277.755C278.158 318.133 279.02 319.233 280.34 320.04C281.697 320.883 283.328 321.305 285.235 321.305C287.472 321.305 289.287 320.627 290.68 319.27C292.073 317.95 292.77 315.933 292.77 313.22V308.49C291.78 309.92 290.405 311.112 288.645 312.065C286.922 313.018 284.942 313.495 282.705 313.495C280.138 313.495 277.792 312.835 275.665 311.515C273.538 310.195 271.852 308.343 270.605 305.96C269.395 303.54 268.79 300.772 268.79 297.655C268.79 294.575 269.395 291.843 270.605 289.46C271.852 287.077 273.52 285.243 275.61 283.96C277.737 282.677 280.102 282.035 282.705 282.035ZM292.77 297.765C292.77 295.895 292.403 294.3 291.67 292.98C290.937 291.623 289.947 290.597 288.7 289.9C287.453 289.167 286.115 288.8 284.685 288.8C283.255 288.8 281.935 289.148 280.725 289.845C279.515 290.542 278.525 291.568 277.755 292.925C277.022 294.245 276.655 295.822 276.655 297.655C276.655 299.488 277.022 301.102 277.755 302.495C278.525 303.852 279.515 304.897 280.725 305.63C281.972 306.363 283.292 306.73 284.685 306.73C286.115 306.73 287.453 306.382 288.7 305.685C289.947 304.952 290.937 303.925 291.67 302.605C292.403 301.248 292.77 299.635 292.77 297.765ZM311.95 278.9C310.594 278.9 309.457 278.478 308.54 277.635C307.66 276.755 307.22 275.673 307.22 274.39C307.22 273.107 307.66 272.043 308.54 271.2C309.457 270.32 310.594 269.88 311.95 269.88C313.307 269.88 314.425 270.32 315.305 271.2C316.222 272.043 316.68 273.107 316.68 274.39C316.68 275.673 316.222 276.755 315.305 277.635C314.425 278.478 313.307 278.9 311.95 278.9ZM315.745 282.53V313H308.045V282.53H315.745ZM321.373 297.765C321.373 294.612 322.015 291.862 323.298 289.515C324.581 287.132 326.36 285.298 328.633 284.015C330.906 282.695 333.51 282.035 336.443 282.035C340.22 282.035 343.336 282.988 345.793 284.895C348.286 286.765 349.955 289.405 350.798 292.815H342.493C342.053 291.495 341.301 290.468 340.238 289.735C339.211 288.965 337.928 288.58 336.388 288.58C334.188 288.58 332.446 289.387 331.163 291C329.88 292.577 329.238 294.832 329.238 297.765C329.238 300.662 329.88 302.917 331.163 304.53C332.446 306.107 334.188 306.895 336.388 306.895C339.505 306.895 341.54 305.502 342.493 302.715H350.798C349.955 306.015 348.286 308.637 345.793 310.58C343.3 312.523 340.183 313.495 336.443 313.495C333.51 313.495 330.906 312.853 328.633 311.57C326.36 310.25 324.581 308.417 323.298 306.07C322.015 303.687 321.373 300.918 321.373 297.765Z" fill="url(#paint8_linear_141_57498)" fill-opacity="0.98"/>
<path d="M166.086 351.35H152.186L149.886 358H142.536L155.086 323.05H163.236L175.786 358H168.386L166.086 351.35ZM164.186 345.75L159.136 331.15L154.086 345.75H164.186ZM193.177 336.05H188.327V358H181.227V336.05H178.077V330.3H181.227V328.9C181.227 325.5 182.194 323 184.127 321.4C186.061 319.8 188.977 319.05 192.877 319.15V325.05C191.177 325.017 189.994 325.3 189.327 325.9C188.661 326.5 188.327 327.583 188.327 329.15V330.3H193.177V336.05ZM210.414 336.05H205.564V358H198.464V336.05H195.314V330.3H198.464V328.9C198.464 325.5 199.43 323 201.364 321.4C203.297 319.8 206.214 319.05 210.114 319.15V325.05C208.414 325.017 207.23 325.3 206.564 325.9C205.897 326.5 205.564 327.583 205.564 329.15V330.3H210.414V336.05ZM213.15 344.05C213.15 341.25 213.7 338.767 214.8 336.6C215.933 334.433 217.45 332.767 219.35 331.6C221.283 330.433 223.433 329.85 225.8 329.85C227.867 329.85 229.667 330.267 231.2 331.1C232.767 331.933 234.017 332.983 234.95 334.25V330.3H242V358H234.95V353.95C234.05 355.25 232.8 356.333 231.2 357.2C229.633 358.033 227.817 358.45 225.75 358.45C223.417 358.45 221.283 357.85 219.35 356.65C217.45 355.45 215.933 353.767 214.8 351.6C213.7 349.4 213.15 346.883 213.15 344.05ZM234.95 344.15C234.95 342.45 234.617 341 233.95 339.8C233.283 338.567 232.383 337.633 231.25 337C230.117 336.333 228.9 336 227.6 336C226.3 336 225.1 336.317 224 336.95C222.9 337.583 222 338.517 221.3 339.75C220.633 340.95 220.3 342.383 220.3 344.05C220.3 345.717 220.633 347.183 221.3 348.45C222 349.683 222.9 350.633 224 351.3C225.133 351.967 226.333 352.3 227.6 352.3C228.9 352.3 230.117 351.983 231.25 351.35C232.383 350.683 233.283 349.75 233.95 348.55C234.617 347.317 234.95 345.85 234.95 344.15ZM252.387 327C251.153 327 250.12 326.617 249.287 325.85C248.487 325.05 248.087 324.067 248.087 322.9C248.087 321.733 248.487 320.767 249.287 320C250.12 319.2 251.153 318.8 252.387 318.8C253.62 318.8 254.637 319.2 255.437 320C256.27 320.767 256.687 321.733 256.687 322.9C256.687 324.067 256.27 325.05 255.437 325.85C254.637 326.617 253.62 327 252.387 327ZM255.837 330.3V358H248.837V330.3H255.837ZM269.753 334.6C270.653 333.133 271.819 331.983 273.253 331.15C274.719 330.317 276.386 329.9 278.253 329.9V337.25H276.403C274.203 337.25 272.536 337.767 271.403 338.8C270.303 339.833 269.753 341.633 269.753 344.2V358H262.753V330.3H269.753V334.6ZM293.568 358.45C291.301 358.45 289.268 358.05 287.468 357.25C285.668 356.417 284.234 355.3 283.168 353.9C282.134 352.5 281.568 350.95 281.468 349.25H288.518C288.651 350.317 289.168 351.2 290.068 351.9C291.001 352.6 292.151 352.95 293.518 352.95C294.851 352.95 295.884 352.683 296.618 352.15C297.384 351.617 297.768 350.933 297.768 350.1C297.768 349.2 297.301 348.533 296.368 348.1C295.468 347.633 294.018 347.133 292.018 346.6C289.951 346.1 288.251 345.583 286.918 345.05C285.618 344.517 284.484 343.7 283.518 342.6C282.584 341.5 282.118 340.017 282.118 338.15C282.118 336.617 282.551 335.217 283.418 333.95C284.318 332.683 285.584 331.683 287.218 330.95C288.884 330.217 290.834 329.85 293.068 329.85C296.368 329.85 299.001 330.683 300.968 332.35C302.934 333.983 304.018 336.2 304.218 339H297.518C297.418 337.9 296.951 337.033 296.118 336.4C295.318 335.733 294.234 335.4 292.868 335.4C291.601 335.4 290.618 335.633 289.918 336.1C289.251 336.567 288.918 337.217 288.918 338.05C288.918 338.983 289.384 339.7 290.318 340.2C291.251 340.667 292.701 341.15 294.668 341.65C296.668 342.15 298.318 342.667 299.618 343.2C300.918 343.733 302.034 344.567 302.968 345.7C303.934 346.8 304.434 348.267 304.468 350.1C304.468 351.7 304.018 353.133 303.118 354.4C302.251 355.667 300.984 356.667 299.318 357.4C297.684 358.1 295.768 358.45 293.568 358.45Z" fill="url(#paint9_linear_141_57498)" fill-opacity="0.98"/>
</g>
<defs>
<filter id="filter0_d_141_57498" x="159.753" y="63.1484" width="116.9" height="195.675" filterUnits="userSpaceOnUse" color-interpolation-filters="sRGB">
<feFlood flood-opacity="0" result="BackgroundImageFix"/>
<feColorMatrix in="SourceAlpha" type="matrix" values="0 0 0 0 0 0 0 0 0 0 0 0 0 0 0 0 0 0 127 0" result="hardAlpha"/>
<feOffset dy="5"/>
<feGaussianBlur stdDeviation="4"/>
<feComposite in2="hardAlpha" operator="out"/>
<feColorMatrix type="matrix" values="0 0 0 0 0 0 0 0 0 0 0 0 0 0 0 0 0 0 0.25 0"/>
<feBlend mode="normal" in2="BackgroundImageFix" result="effect1_dropShadow_141_57498"/>
<feBlend mode="normal" in="SourceGraphic" in2="effect1_dropShadow_141_57498" result="shape"/>
</filter>
<filter id="filter1_d_141_57498" x="96.1609" y="269.88" width="258.637" height="96.5701" filterUnits="userSpaceOnUse" color-interpolation-filters="sRGB">
<feFlood flood-opacity="0" result="BackgroundImageFix"/>
<feColorMatrix in="SourceAlpha" type="matrix" values="0 0 0 0 0 0 0 0 0 0 0 0 0 0 0 0 0 0 127 0" result="hardAlpha"/>
<feOffset dy="4"/>
<feGaussianBlur stdDeviation="2"/>
<feComposite in2="hardAlpha" operator="out"/>
<feColorMatrix type="matrix" values="0 0 0 0 0 0 0 0 0 0 0 0 0 0 0 0 0 0 0.25 0"/>
<feBlend mode="normal" in2="BackgroundImageFix" result="effect1_dropShadow_141_57498"/>
<feBlend mode="normal" in="SourceGraphic" in2="effect1_dropShadow_141_57498" result="shape"/>
</filter>
<linearGradient id="paint0_linear_141_57498" x1="-5.94921e-06" y1="256" x2="225" y2="716" gradientUnits="userSpaceOnUse">
<stop stop-color="#001EBD"/>
<stop offset="0.445" stop-color="#AE43E0"/>
<stop offset="1" stop-color="#D98AFF"/>
</linearGradient>
<linearGradient id="paint1_linear_141_57498" x1="201.755" y1="245.755" x2="160.255" y2="213.255" gradientUnits="userSpaceOnUse">
<stop stop-color="#B15500"/>
<stop offset="1" stop-color="#FFDD55"/>
</linearGradient>
<linearGradient id="paint2_linear_141_57498" x1="169.049" y1="232.594" x2="172.654" y2="232.548" gradientUnits="userSpaceOnUse">
<stop stop-color="white"/>
<stop offset="1" stop-color="white" stop-opacity="0"/>
</linearGradient>
<linearGradient id="paint3_linear_141_57498" x1="199.579" y1="223.192" x2="187.846" y2="227.501" gradientUnits="userSpaceOnUse">
<stop stop-color="#FFCC00"/>
<stop offset="1" stop-color="#FFCC00" stop-opacity="0"/>
</linearGradient>
<linearGradient id="paint4_linear_141_57498" x1="195.172" y1="87.0326" x2="253.337" y2="290.655" gradientUnits="userSpaceOnUse">
<stop stop-color="#330086" stop-opacity="0.98"/>
<stop offset="0.311" stop-color="#6500DD"/>
<stop offset="1" stop-color="#D98AFF"/>
</linearGradient>
<linearGradient id="paint5_linear_141_57498" x1="196.641" y1="225.621" x2="248.462" y2="20.2924" gradientUnits="userSpaceOnUse">
<stop stop-color="#330086" stop-opacity="0.98"/>
<stop offset="0.311" stop-color="#6500DD"/>
<stop offset="1" stop-color="#D98AFF"/>
</linearGradient>
<linearGradient id="paint6_linear_141_57498" x1="196.76" y1="225.399" x2="248.581" y2="20.0706" gradientUnits="userSpaceOnUse">
<stop stop-color="#6500DD"/>
<stop offset="0.311" stop-color="#6500DD"/>
<stop offset="1" stop-color="#D98AFF"/>
</linearGradient>
<linearGradient id="paint7_linear_141_57498" x1="225.117" y1="61.8543" x2="232.636" y2="90.4224" gradientUnits="userSpaceOnUse">
<stop stop-color="white"/>
<stop offset="1" stop-color="white" stop-opacity="0"/>
</linearGradient>
<linearGradient id="paint8_linear_141_57498" x1="7.06414" y1="296.464" x2="379.865" y2="293.927" gradientUnits="userSpaceOnUse">
<stop stop-color="#000E57" stop-opacity="0.98"/>
<stop offset="0.49" stop-color="#6500DD"/>
<stop offset="1" stop-color="#C54AFF"/>
</linearGradient>
<linearGradient id="paint9_linear_141_57498" x1="82.6822" y1="343.179" x2="324.426" y2="341.998" gradientUnits="userSpaceOnUse">
<stop stop-color="#000E57" stop-opacity="0.98"/>
<stop offset="0.49" stop-color="#6500DD"/>
<stop offset="1" stop-color="#C54AFF"/>
</linearGradient>
</defs>
</svg>
