<svg width="450" height="450" viewBox="0 0 450 450" fill="none" xmlns="http://www.w3.org/2000/svg">
<rect width="450" height="450" fill="#2F2F2F"/>
<circle cx="272.902" cy="177.924" r="15" transform="rotate(-57.0346 272.902 177.924)" fill="url(#paint0_linear_141_57500)"/>
<path fill-rule="evenodd" clip-rule="evenodd" d="M259.595 181.293C257.651 173.586 262.054 165.767 269.508 163.355C269.345 163.385 269.181 163.418 269.017 163.454C261.274 165.679 256.64 173.667 258.626 181.537C260.611 189.408 268.48 194.241 276.353 192.526C276.514 192.48 276.673 192.431 276.831 192.38C269.125 193.794 261.54 188.999 259.595 181.293Z" fill="url(#paint1_linear_141_57500)"/>
<path fill-rule="evenodd" clip-rule="evenodd" d="M282.852 186.648C287.359 179.698 285.379 170.409 278.429 165.901C275.167 163.786 271.39 163.099 267.834 163.685C271.776 162.649 276.123 163.214 279.812 165.606C286.762 170.114 288.743 179.403 284.235 186.353C281.843 190.042 278.104 192.331 274.082 192.993C277.568 192.077 280.736 189.91 282.852 186.648Z" fill="url(#paint2_linear_141_57500)"/>
<path fill-rule="evenodd" clip-rule="evenodd" d="M165.222 189.173C165.282 189.968 165.375 190.762 165.502 191.554C166.551 195.023 168.072 198.384 170.062 201.541L172.04 204.678L205.119 253.518L211.003 262.206C217.099 271.207 230.446 270.936 236.172 261.696L237.501 259.553L261.493 219.827C264.522 214.812 264.354 208.494 261.064 203.648L258.968 200.56L259.292 200.334L225.318 149.403L215.164 133.129C206.963 119.986 206.878 103.361 214.9 90.1483L199.927 111.338L199.819 111.177L193.596 119.983L170.473 156.853C168.707 159.67 167.313 162.649 166.294 165.721C163.652 173.285 163.294 181.446 165.222 189.173Z" fill="url(#paint3_linear_141_57500)"/>
<path fill-rule="evenodd" clip-rule="evenodd" d="M164.485 169.904C164.384 170.699 164.315 171.496 164.28 172.292C162.592 180.075 163.203 188.221 166.079 195.7C167.193 198.739 168.678 201.673 170.531 204.434L194.787 240.568L201.28 249.178L201.383 249.014L214.144 265.934L215.119 266.518C208.562 254.105 208.777 239.068 215.936 226.76L225.581 210.179L257.959 158.218L257.628 158.003L259.627 154.851C262.765 149.905 262.736 143.585 259.554 138.667L234.34 99.7037L232.946 97.6028C226.936 88.5448 213.587 88.6886 207.773 97.8739L202.161 106.74L170.613 156.583L168.734 159.78C166.842 162.997 165.427 166.404 164.485 169.904Z" fill="url(#paint4_linear_141_57500)"/>
<path fill-rule="evenodd" clip-rule="evenodd" d="M214.632 266.202L207.275 256.448C204.31 245.929 205.622 234.46 211.297 224.704L220.942 208.122L253.319 156.162L252.988 155.946L254.987 152.795C258.125 147.849 258.097 141.528 254.914 136.61L229.701 97.6471L228.307 95.5464C227.01 93.5925 225.372 92.0668 223.542 90.9676C227.245 91.7062 230.715 93.8408 233.064 97.3809L234.458 99.4817L259.672 138.445C262.854 143.363 262.883 149.683 259.745 154.629L257.746 157.781L258.077 157.996L225.699 209.957L216.054 226.538C208.824 238.968 208.676 254.18 215.433 266.662L214.632 266.202Z" fill="url(#paint5_linear_141_57500)"/>
<path fill-rule="evenodd" clip-rule="evenodd" d="M254.263 130.276L238.88 106.324L233.21 97.4947C227.335 88.348 213.986 88.2924 208.035 97.3899L206.655 99.4998L181.7 138.629C179.875 141.489 179.112 144.813 179.409 148.062C179.655 145.814 180.409 143.61 181.673 141.629L206.629 102.5L208.009 100.39C213.959 91.2923 227.309 91.3479 233.183 100.495L238.854 109.324L253.292 131.806L254.263 130.276Z" fill="url(#paint6_linear_141_57500)"/>
<path d="M44.751 301.446V312.646H59.791V319.75H44.751V331.59H61.711V338.886H35.791V294.15H61.711V301.446H44.751ZM89.5015 302.918C93.7255 302.918 97.1388 304.262 99.7415 306.95C102.344 309.595 103.646 313.307 103.646 318.086V338.886H94.6855V319.302C94.6855 316.486 93.9815 314.331 92.5735 312.838C91.1655 311.302 89.2455 310.534 86.8135 310.534C84.3388 310.534 82.3762 311.302 80.9255 312.838C79.5175 314.331 78.8135 316.486 78.8135 319.302V338.886H69.8535V303.43H78.8135V307.846C80.0082 306.31 81.5228 305.115 83.3575 304.262C85.2348 303.366 87.2828 302.918 89.5015 302.918ZM126.054 302.854C128.699 302.854 131.025 303.387 133.03 304.454C135.035 305.478 136.614 306.822 137.766 308.486V303.43H146.79V339.142C146.79 342.427 146.129 345.35 144.806 347.91C143.483 350.512 141.499 352.56 138.854 354.054C136.209 355.59 133.009 356.358 129.254 356.358C124.219 356.358 120.081 355.184 116.838 352.838C113.638 350.491 111.825 347.291 111.398 343.238H120.294C120.763 344.859 121.766 346.139 123.302 347.078C124.881 348.059 126.779 348.55 128.998 348.55C131.601 348.55 133.713 347.76 135.334 346.182C136.955 344.646 137.766 342.299 137.766 339.142V333.638C136.614 335.302 135.014 336.688 132.966 337.798C130.961 338.907 128.657 339.462 126.054 339.462C123.067 339.462 120.337 338.694 117.862 337.158C115.387 335.622 113.425 333.467 111.974 330.694C110.566 327.878 109.862 324.656 109.862 321.03C109.862 317.446 110.566 314.267 111.974 311.494C113.425 308.72 115.366 306.587 117.798 305.094C120.273 303.6 123.025 302.854 126.054 302.854ZM137.766 321.158C137.766 318.982 137.339 317.126 136.486 315.59C135.633 314.011 134.481 312.816 133.03 312.006C131.579 311.152 130.022 310.726 128.358 310.726C126.694 310.726 125.158 311.131 123.75 311.942C122.342 312.752 121.19 313.947 120.294 315.526C119.441 317.062 119.014 318.896 119.014 321.03C119.014 323.163 119.441 325.04 120.294 326.662C121.19 328.24 122.342 329.456 123.75 330.31C125.201 331.163 126.737 331.59 128.358 331.59C130.022 331.59 131.579 331.184 133.03 330.374C134.481 329.52 135.633 328.326 136.486 326.79C137.339 325.211 137.766 323.334 137.766 321.158ZM160.085 299.206C158.506 299.206 157.184 298.715 156.117 297.734C155.093 296.71 154.581 295.451 154.581 293.958C154.581 292.464 155.093 291.227 156.117 290.246C157.184 289.222 158.506 288.71 160.085 288.71C161.664 288.71 162.965 289.222 163.989 290.246C165.056 291.227 165.589 292.464 165.589 293.958C165.589 295.451 165.056 296.71 163.989 297.734C162.965 298.715 161.664 299.206 160.085 299.206ZM164.501 303.43V338.886H155.541V303.43H164.501ZM193.002 302.918C197.226 302.918 200.639 304.262 203.242 306.95C205.844 309.595 207.146 313.307 207.146 318.086V338.886H198.186V319.302C198.186 316.486 197.482 314.331 196.074 312.838C194.666 311.302 192.746 310.534 190.314 310.534C187.839 310.534 185.876 311.302 184.426 312.838C183.018 314.331 182.314 316.486 182.314 319.302V338.886H173.354V303.43H182.314V307.846C183.508 306.31 185.023 305.115 186.858 304.262C188.735 303.366 190.783 302.918 193.002 302.918ZM248.626 320.39C248.626 321.67 248.541 322.822 248.37 323.846H222.45C222.663 326.406 223.559 328.411 225.138 329.862C226.717 331.312 228.658 332.038 230.962 332.038C234.29 332.038 236.658 330.608 238.066 327.75H247.73C246.706 331.163 244.743 333.979 241.842 336.198C238.941 338.374 235.378 339.462 231.154 339.462C227.741 339.462 224.669 338.715 221.938 337.222C219.25 335.686 217.138 333.531 215.602 330.758C214.109 327.984 213.362 324.784 213.362 321.158C213.362 317.488 214.109 314.267 215.602 311.494C217.095 308.72 219.186 306.587 221.874 305.094C224.562 303.6 227.655 302.854 231.154 302.854C234.525 302.854 237.533 303.579 240.178 305.03C242.866 306.48 244.935 308.55 246.386 311.238C247.879 313.883 248.626 316.934 248.626 320.39ZM239.346 317.83C239.303 315.526 238.471 313.691 236.85 312.326C235.229 310.918 233.245 310.214 230.898 310.214C228.679 310.214 226.802 310.896 225.266 312.262C223.773 313.584 222.855 315.44 222.514 317.83H239.346ZM288.126 320.39C288.126 321.67 288.041 322.822 287.87 323.846H261.95C262.163 326.406 263.059 328.411 264.638 329.862C266.217 331.312 268.158 332.038 270.462 332.038C273.79 332.038 276.158 330.608 277.566 327.75H287.23C286.206 331.163 284.243 333.979 281.342 336.198C278.441 338.374 274.878 339.462 270.654 339.462C267.241 339.462 264.169 338.715 261.438 337.222C258.75 335.686 256.638 333.531 255.102 330.758C253.609 327.984 252.862 324.784 252.862 321.158C252.862 317.488 253.609 314.267 255.102 311.494C256.595 308.72 258.686 306.587 261.374 305.094C264.062 303.6 267.155 302.854 270.654 302.854C274.025 302.854 277.033 303.579 279.678 305.03C282.366 306.48 284.435 308.55 285.886 311.238C287.379 313.883 288.126 316.934 288.126 320.39ZM278.846 317.83C278.803 315.526 277.971 313.691 276.35 312.326C274.729 310.918 272.745 310.214 270.398 310.214C268.179 310.214 266.302 310.896 264.766 312.262C263.273 313.584 262.355 315.44 262.014 317.83H278.846ZM303.626 308.934C304.778 307.056 306.271 305.584 308.106 304.518C309.983 303.451 312.117 302.918 314.506 302.918V312.326H312.138C309.322 312.326 307.189 312.987 305.738 314.31C304.33 315.632 303.626 317.936 303.626 321.222V338.886H294.666V303.43H303.626V308.934ZM325.085 299.206C323.506 299.206 322.184 298.715 321.117 297.734C320.093 296.71 319.581 295.451 319.581 293.958C319.581 292.464 320.093 291.227 321.117 290.246C322.184 289.222 323.506 288.71 325.085 288.71C326.664 288.71 327.965 289.222 328.989 290.246C330.056 291.227 330.589 292.464 330.589 293.958C330.589 295.451 330.056 296.71 328.989 297.734C327.965 298.715 326.664 299.206 325.085 299.206ZM329.501 303.43V338.886H320.541V303.43H329.501ZM358.002 302.918C362.226 302.918 365.639 304.262 368.242 306.95C370.844 309.595 372.146 313.307 372.146 318.086V338.886H363.186V319.302C363.186 316.486 362.482 314.331 361.074 312.838C359.666 311.302 357.746 310.534 355.314 310.534C352.839 310.534 350.876 311.302 349.426 312.838C348.018 314.331 347.314 316.486 347.314 319.302V338.886H338.354V303.43H347.314V307.846C348.508 306.31 350.023 305.115 351.858 304.262C353.735 303.366 355.783 302.918 358.002 302.918ZM394.554 302.854C397.199 302.854 399.525 303.387 401.53 304.454C403.535 305.478 405.114 306.822 406.266 308.486V303.43H415.29V339.142C415.29 342.427 414.629 345.35 413.306 347.91C411.983 350.512 409.999 352.56 407.354 354.054C404.709 355.59 401.509 356.358 397.754 356.358C392.719 356.358 388.581 355.184 385.338 352.838C382.138 350.491 380.325 347.291 379.898 343.238H388.794C389.263 344.859 390.266 346.139 391.802 347.078C393.381 348.059 395.279 348.55 397.498 348.55C400.101 348.55 402.213 347.76 403.834 346.182C405.455 344.646 406.266 342.299 406.266 339.142V333.638C405.114 335.302 403.514 336.688 401.466 337.798C399.461 338.907 397.157 339.462 394.554 339.462C391.567 339.462 388.837 338.694 386.362 337.158C383.887 335.622 381.925 333.467 380.474 330.694C379.066 327.878 378.362 324.656 378.362 321.03C378.362 317.446 379.066 314.267 380.474 311.494C381.925 308.72 383.866 306.587 386.298 305.094C388.773 303.6 391.525 302.854 394.554 302.854ZM406.266 321.158C406.266 318.982 405.839 317.126 404.986 315.59C404.133 314.011 402.981 312.816 401.53 312.006C400.079 311.152 398.522 310.726 396.858 310.726C395.194 310.726 393.658 311.131 392.25 311.942C390.842 312.752 389.69 313.947 388.794 315.526C387.941 317.062 387.514 318.896 387.514 321.03C387.514 323.163 387.941 325.04 388.794 326.662C389.69 328.24 390.842 329.456 392.25 330.31C393.701 331.163 395.237 331.59 396.858 331.59C398.522 331.59 400.079 331.184 401.53 330.374C402.981 329.52 404.133 328.326 404.986 326.79C405.839 325.211 406.266 323.334 406.266 321.158Z" fill="white"/>
<defs>
<linearGradient id="paint0_linear_141_57500" x1="291.902" y1="192.924" x2="250.402" y2="160.424" gradientUnits="userSpaceOnUse">
<stop stop-color="#B15500"/>
<stop offset="1" stop-color="#FFDD55"/>
</linearGradient>
<linearGradient id="paint1_linear_141_57500" x1="259.196" y1="179.763" x2="262.801" y2="179.717" gradientUnits="userSpaceOnUse">
<stop stop-color="white"/>
<stop offset="1" stop-color="white" stop-opacity="0"/>
</linearGradient>
<linearGradient id="paint2_linear_141_57500" x1="289.726" y1="170.361" x2="277.992" y2="174.67" gradientUnits="userSpaceOnUse">
<stop stop-color="#FFCC00"/>
<stop offset="1" stop-color="#FFCC00" stop-opacity="0"/>
</linearGradient>
<linearGradient id="paint3_linear_141_57500" x1="190.172" y1="111.033" x2="248.337" y2="314.655" gradientUnits="userSpaceOnUse">
<stop stop-color="#330086" stop-opacity="0.98"/>
<stop offset="0.311" stop-color="#6500DD"/>
<stop offset="1" stop-color="#D98AFF"/>
</linearGradient>
<linearGradient id="paint4_linear_141_57500" x1="191.641" y1="249.621" x2="243.462" y2="44.2924" gradientUnits="userSpaceOnUse">
<stop stop-color="#330086" stop-opacity="0.98"/>
<stop offset="0.311" stop-color="#6500DD"/>
<stop offset="1" stop-color="#D98AFF"/>
</linearGradient>
<linearGradient id="paint5_linear_141_57500" x1="191.76" y1="249.399" x2="243.581" y2="44.0706" gradientUnits="userSpaceOnUse">
<stop stop-color="#6500DD"/>
<stop offset="0.311" stop-color="#6500DD"/>
<stop offset="1" stop-color="#D98AFF"/>
</linearGradient>
<linearGradient id="paint6_linear_141_57500" x1="220.116" y1="85.8543" x2="227.635" y2="114.422" gradientUnits="userSpaceOnUse">
<stop stop-color="white"/>
<stop offset="1" stop-color="white" stop-opacity="0"/>
</linearGradient>
</defs>
</svg>
