<svg width="450" height="450" viewBox="0 0 450 450" fill="none" xmlns="http://www.w3.org/2000/svg">
<rect width="450" height="450" fill="white"/>
<g filter="url(#filter0_d_141_61095)">
<path d="M44.751 293.56V304.76H59.791V311.864H44.751V323.704H61.711V331H35.791V286.264H61.711V293.56H44.751ZM89.5015 295.032C93.7255 295.032 97.1388 296.376 99.7415 299.064C102.344 301.709 103.646 305.421 103.646 310.2V331H94.6855V311.416C94.6855 308.6 93.9815 306.445 92.5735 304.952C91.1655 303.416 89.2455 302.648 86.8135 302.648C84.3388 302.648 82.3762 303.416 80.9255 304.952C79.5175 306.445 78.8135 308.6 78.8135 311.416V331H69.8535V295.544H78.8135V299.96C80.0082 298.424 81.5228 297.229 83.3575 296.376C85.2348 295.48 87.2828 295.032 89.5015 295.032ZM126.054 294.968C128.699 294.968 131.025 295.501 133.03 296.568C135.035 297.592 136.614 298.936 137.766 300.6V295.544H146.79V331.256C146.79 334.541 146.129 337.464 144.806 340.024C143.483 342.627 141.499 344.675 138.854 346.168C136.209 347.704 133.009 348.472 129.254 348.472C124.219 348.472 120.081 347.299 116.838 344.952C113.638 342.605 111.825 339.405 111.398 335.352H120.294C120.763 336.973 121.766 338.253 123.302 339.192C124.881 340.173 126.779 340.664 128.998 340.664C131.601 340.664 133.713 339.875 135.334 338.296C136.955 336.76 137.766 334.413 137.766 331.256V325.752C136.614 327.416 135.014 328.803 132.966 329.912C130.961 331.021 128.657 331.576 126.054 331.576C123.067 331.576 120.337 330.808 117.862 329.272C115.387 327.736 113.425 325.581 111.974 322.808C110.566 319.992 109.862 316.771 109.862 313.144C109.862 309.56 110.566 306.381 111.974 303.608C113.425 300.835 115.366 298.701 117.798 297.208C120.273 295.715 123.025 294.968 126.054 294.968ZM137.766 313.272C137.766 311.096 137.339 309.24 136.486 307.704C135.633 306.125 134.481 304.931 133.03 304.12C131.579 303.267 130.022 302.84 128.358 302.84C126.694 302.84 125.158 303.245 123.75 304.056C122.342 304.867 121.19 306.061 120.294 307.64C119.441 309.176 119.014 311.011 119.014 313.144C119.014 315.277 119.441 317.155 120.294 318.776C121.19 320.355 122.342 321.571 123.75 322.424C125.201 323.277 126.737 323.704 128.358 323.704C130.022 323.704 131.579 323.299 133.03 322.488C134.481 321.635 135.633 320.44 136.486 318.904C137.339 317.325 137.766 315.448 137.766 313.272ZM160.085 291.32C158.506 291.32 157.184 290.829 156.117 289.848C155.093 288.824 154.581 287.565 154.581 286.072C154.581 284.579 155.093 283.341 156.117 282.36C157.184 281.336 158.506 280.824 160.085 280.824C161.664 280.824 162.965 281.336 163.989 282.36C165.056 283.341 165.589 284.579 165.589 286.072C165.589 287.565 165.056 288.824 163.989 289.848C162.965 290.829 161.664 291.32 160.085 291.32ZM164.501 295.544V331H155.541V295.544H164.501ZM193.002 295.032C197.226 295.032 200.639 296.376 203.242 299.064C205.844 301.709 207.146 305.421 207.146 310.2V331H198.186V311.416C198.186 308.6 197.482 306.445 196.074 304.952C194.666 303.416 192.746 302.648 190.314 302.648C187.839 302.648 185.876 303.416 184.426 304.952C183.018 306.445 182.314 308.6 182.314 311.416V331H173.354V295.544H182.314V299.96C183.508 298.424 185.023 297.229 186.858 296.376C188.735 295.48 190.783 295.032 193.002 295.032ZM248.626 312.504C248.626 313.784 248.541 314.936 248.37 315.96H222.45C222.663 318.52 223.559 320.525 225.138 321.976C226.717 323.427 228.658 324.152 230.962 324.152C234.29 324.152 236.658 322.723 238.066 319.864H247.73C246.706 323.277 244.743 326.093 241.842 328.312C238.941 330.488 235.378 331.576 231.154 331.576C227.741 331.576 224.669 330.829 221.938 329.336C219.25 327.8 217.138 325.645 215.602 322.872C214.109 320.099 213.362 316.899 213.362 313.272C213.362 309.603 214.109 306.381 215.602 303.608C217.095 300.835 219.186 298.701 221.874 297.208C224.562 295.715 227.655 294.968 231.154 294.968C234.525 294.968 237.533 295.693 240.178 297.144C242.866 298.595 244.935 300.664 246.386 303.352C247.879 305.997 248.626 309.048 248.626 312.504ZM239.346 309.944C239.303 307.64 238.471 305.805 236.85 304.44C235.229 303.032 233.245 302.328 230.898 302.328C228.679 302.328 226.802 303.011 225.266 304.376C223.773 305.699 222.855 307.555 222.514 309.944H239.346ZM288.126 312.504C288.126 313.784 288.041 314.936 287.87 315.96H261.95C262.163 318.52 263.059 320.525 264.638 321.976C266.217 323.427 268.158 324.152 270.462 324.152C273.79 324.152 276.158 322.723 277.566 319.864H287.23C286.206 323.277 284.243 326.093 281.342 328.312C278.441 330.488 274.878 331.576 270.654 331.576C267.241 331.576 264.169 330.829 261.438 329.336C258.75 327.8 256.638 325.645 255.102 322.872C253.609 320.099 252.862 316.899 252.862 313.272C252.862 309.603 253.609 306.381 255.102 303.608C256.595 300.835 258.686 298.701 261.374 297.208C264.062 295.715 267.155 294.968 270.654 294.968C274.025 294.968 277.033 295.693 279.678 297.144C282.366 298.595 284.435 300.664 285.886 303.352C287.379 305.997 288.126 309.048 288.126 312.504ZM278.846 309.944C278.803 307.64 277.971 305.805 276.35 304.44C274.729 303.032 272.745 302.328 270.398 302.328C268.179 302.328 266.302 303.011 264.766 304.376C263.273 305.699 262.355 307.555 262.014 309.944H278.846ZM303.626 301.048C304.778 299.171 306.271 297.699 308.106 296.632C309.983 295.565 312.117 295.032 314.506 295.032V304.44H312.138C309.322 304.44 307.189 305.101 305.738 306.424C304.33 307.747 303.626 310.051 303.626 313.336V331H294.666V295.544H303.626V301.048ZM325.085 291.32C323.506 291.32 322.184 290.829 321.117 289.848C320.093 288.824 319.581 287.565 319.581 286.072C319.581 284.579 320.093 283.341 321.117 282.36C322.184 281.336 323.506 280.824 325.085 280.824C326.664 280.824 327.965 281.336 328.989 282.36C330.056 283.341 330.589 284.579 330.589 286.072C330.589 287.565 330.056 288.824 328.989 289.848C327.965 290.829 326.664 291.32 325.085 291.32ZM329.501 295.544V331H320.541V295.544H329.501ZM358.002 295.032C362.226 295.032 365.639 296.376 368.242 299.064C370.844 301.709 372.146 305.421 372.146 310.2V331H363.186V311.416C363.186 308.6 362.482 306.445 361.074 304.952C359.666 303.416 357.746 302.648 355.314 302.648C352.839 302.648 350.876 303.416 349.426 304.952C348.018 306.445 347.314 308.6 347.314 311.416V331H338.354V295.544H347.314V299.96C348.508 298.424 350.023 297.229 351.858 296.376C353.735 295.48 355.783 295.032 358.002 295.032ZM394.554 294.968C397.199 294.968 399.525 295.501 401.53 296.568C403.535 297.592 405.114 298.936 406.266 300.6V295.544H415.29V331.256C415.29 334.541 414.629 337.464 413.306 340.024C411.983 342.627 409.999 344.675 407.354 346.168C404.709 347.704 401.509 348.472 397.754 348.472C392.719 348.472 388.581 347.299 385.338 344.952C382.138 342.605 380.325 339.405 379.898 335.352H388.794C389.263 336.973 390.266 338.253 391.802 339.192C393.381 340.173 395.279 340.664 397.498 340.664C400.101 340.664 402.213 339.875 403.834 338.296C405.455 336.76 406.266 334.413 406.266 331.256V325.752C405.114 327.416 403.514 328.803 401.466 329.912C399.461 331.021 397.157 331.576 394.554 331.576C391.567 331.576 388.837 330.808 386.362 329.272C383.887 327.736 381.925 325.581 380.474 322.808C379.066 319.992 378.362 316.771 378.362 313.144C378.362 309.56 379.066 306.381 380.474 303.608C381.925 300.835 383.866 298.701 386.298 297.208C388.773 295.715 391.525 294.968 394.554 294.968ZM406.266 313.272C406.266 311.096 405.839 309.24 404.986 307.704C404.133 306.125 402.981 304.931 401.53 304.12C400.079 303.267 398.522 302.84 396.858 302.84C395.194 302.84 393.658 303.245 392.25 304.056C390.842 304.867 389.69 306.061 388.794 307.64C387.941 309.176 387.514 311.011 387.514 313.144C387.514 315.277 387.941 317.155 388.794 318.776C389.69 320.355 390.842 321.571 392.25 322.424C393.701 323.277 395.237 323.704 396.858 323.704C398.522 323.704 400.079 323.299 401.53 322.488C402.981 321.635 404.133 320.44 404.986 318.904C405.839 317.325 406.266 315.448 406.266 313.272Z" fill="url(#paint0_linear_141_61095)" fill-opacity="0.98"/>
</g>
<g filter="url(#filter1_d_141_61095)">
<circle cx="272.902" cy="174.924" r="15" transform="rotate(-57.0346 272.902 174.924)" fill="url(#paint1_linear_141_61095)"/>
<path fill-rule="evenodd" clip-rule="evenodd" d="M259.595 178.293C257.651 170.586 262.054 162.767 269.508 160.355C269.345 160.385 269.181 160.418 269.017 160.454C261.274 162.679 256.64 170.667 258.626 178.537C260.611 186.408 268.48 191.241 276.353 189.526C276.514 189.48 276.673 189.431 276.831 189.38C269.125 190.794 261.54 185.999 259.595 178.293Z" fill="url(#paint2_linear_141_61095)"/>
<path fill-rule="evenodd" clip-rule="evenodd" d="M282.852 183.648C287.359 176.698 285.379 167.409 278.429 162.901C275.167 160.786 271.39 160.099 267.834 160.685C271.776 159.649 276.123 160.214 279.812 162.606C286.762 167.114 288.743 176.403 284.235 183.353C281.843 187.042 278.104 189.331 274.082 189.993C277.568 189.077 280.736 186.91 282.852 183.648Z" fill="url(#paint3_linear_141_61095)"/>
<path fill-rule="evenodd" clip-rule="evenodd" d="M165.222 186.173C165.282 186.968 165.375 187.762 165.502 188.554C166.551 192.023 168.072 195.384 170.062 198.541L172.04 201.678L205.119 250.518L211.003 259.206C217.099 268.207 230.446 267.936 236.172 258.696L237.501 256.553L261.493 216.827C264.522 211.812 264.354 205.494 261.064 200.648L258.968 197.56L259.292 197.334L225.318 146.403L215.164 130.129C206.963 116.986 206.878 100.361 214.9 87.1483L199.927 108.338L199.819 108.177L193.596 116.983L170.473 153.853C168.707 156.67 167.313 159.649 166.294 162.721C163.652 170.285 163.294 178.446 165.222 186.173Z" fill="url(#paint4_linear_141_61095)"/>
<path fill-rule="evenodd" clip-rule="evenodd" d="M164.485 166.904C164.384 167.699 164.315 168.496 164.28 169.292C162.592 177.075 163.203 185.221 166.079 192.7C167.193 195.739 168.678 198.673 170.531 201.434L194.787 237.568L201.28 246.178L201.383 246.014L214.144 262.934L215.119 263.518C208.562 251.105 208.777 236.068 215.936 223.76L225.581 207.179L257.959 155.218L257.628 155.003L259.627 151.851C262.765 146.905 262.736 140.585 259.554 135.667L234.34 96.7035L232.946 94.6028C226.936 85.5448 213.587 85.6886 207.773 94.874L202.161 103.74L170.613 153.583L168.734 156.78C166.842 159.997 165.427 163.404 164.485 166.904Z" fill="url(#paint5_linear_141_61095)"/>
<path fill-rule="evenodd" clip-rule="evenodd" d="M214.632 263.202L207.275 253.448C204.31 242.929 205.622 231.46 211.297 221.704L220.942 205.122L253.319 153.162L252.988 152.946L254.987 149.795C258.125 144.849 258.097 138.528 254.914 133.61L229.701 94.6472L228.307 92.5464C227.01 90.5925 225.372 89.0668 223.542 87.9676C227.245 88.7062 230.715 90.8408 233.064 94.3809L234.458 96.4817L259.672 135.445C262.854 140.363 262.883 146.683 259.745 151.629L257.746 154.781L258.077 154.996L225.699 206.957L216.054 223.538C208.824 235.968 208.676 251.18 215.433 263.662L214.632 263.202Z" fill="url(#paint6_linear_141_61095)"/>
<path fill-rule="evenodd" clip-rule="evenodd" d="M254.263 127.276L238.88 103.324L233.21 94.4947C227.335 85.348 213.986 85.2924 208.035 94.3899L206.655 96.4998L181.7 135.629C179.875 138.489 179.112 141.813 179.409 145.062C179.655 142.814 180.409 140.61 181.673 138.629L206.629 99.4997L208.009 97.3898C213.959 88.2923 227.309 88.3479 233.183 97.4946L238.854 106.324L253.292 128.806L254.263 127.276Z" fill="url(#paint7_linear_141_61095)"/>
</g>
<defs>
<filter id="filter0_d_141_61095" x="31.791" y="280.824" width="387.499" height="75.6479" filterUnits="userSpaceOnUse" color-interpolation-filters="sRGB">
<feFlood flood-opacity="0" result="BackgroundImageFix"/>
<feColorMatrix in="SourceAlpha" type="matrix" values="0 0 0 0 0 0 0 0 0 0 0 0 0 0 0 0 0 0 127 0" result="hardAlpha"/>
<feOffset dy="4"/>
<feGaussianBlur stdDeviation="2"/>
<feComposite in2="hardAlpha" operator="out"/>
<feColorMatrix type="matrix" values="0 0 0 0 0 0 0 0 0 0 0 0 0 0 0 0 0 0 0.25 0"/>
<feBlend mode="normal" in2="BackgroundImageFix" result="effect1_dropShadow_141_61095"/>
<feBlend mode="normal" in="SourceGraphic" in2="effect1_dropShadow_141_61095" result="shape"/>
</filter>
<filter id="filter1_d_141_61095" x="155.349" y="84.1484" width="140.554" height="194.646" filterUnits="userSpaceOnUse" color-interpolation-filters="sRGB">
<feFlood flood-opacity="0" result="BackgroundImageFix"/>
<feColorMatrix in="SourceAlpha" type="matrix" values="0 0 0 0 0 0 0 0 0 0 0 0 0 0 0 0 0 0 127 0" result="hardAlpha"/>
<feOffset dy="5"/>
<feGaussianBlur stdDeviation="4"/>
<feComposite in2="hardAlpha" operator="out"/>
<feColorMatrix type="matrix" values="0 0 0 0 0 0 0 0 0 0 0 0 0 0 0 0 0 0 0.25 0"/>
<feBlend mode="normal" in2="BackgroundImageFix" result="effect1_dropShadow_141_61095"/>
<feBlend mode="normal" in="SourceGraphic" in2="effect1_dropShadow_141_61095" result="shape"/>
</filter>
<linearGradient id="paint0_linear_141_61095" x1="-105.66" y1="312.429" x2="460.803" y2="307.364" gradientUnits="userSpaceOnUse">
<stop stop-color="#000E57" stop-opacity="0.98"/>
<stop offset="0.49" stop-color="#6500DD"/>
<stop offset="1" stop-color="#C54AFF"/>
</linearGradient>
<linearGradient id="paint1_linear_141_61095" x1="291.902" y1="189.924" x2="250.402" y2="157.424" gradientUnits="userSpaceOnUse">
<stop stop-color="#B15500"/>
<stop offset="1" stop-color="#FFDD55"/>
</linearGradient>
<linearGradient id="paint2_linear_141_61095" x1="259.196" y1="176.763" x2="262.801" y2="176.717" gradientUnits="userSpaceOnUse">
<stop stop-color="white"/>
<stop offset="1" stop-color="white" stop-opacity="0"/>
</linearGradient>
<linearGradient id="paint3_linear_141_61095" x1="289.726" y1="167.361" x2="277.992" y2="171.67" gradientUnits="userSpaceOnUse">
<stop stop-color="#FFCC00"/>
<stop offset="1" stop-color="#FFCC00" stop-opacity="0"/>
</linearGradient>
<linearGradient id="paint4_linear_141_61095" x1="190.172" y1="108.033" x2="248.337" y2="311.655" gradientUnits="userSpaceOnUse">
<stop stop-color="#330086" stop-opacity="0.98"/>
<stop offset="0.311" stop-color="#6500DD"/>
<stop offset="1" stop-color="#D98AFF"/>
</linearGradient>
<linearGradient id="paint5_linear_141_61095" x1="191.641" y1="246.621" x2="243.462" y2="41.2924" gradientUnits="userSpaceOnUse">
<stop stop-color="#330086" stop-opacity="0.98"/>
<stop offset="0.311" stop-color="#6500DD"/>
<stop offset="1" stop-color="#D98AFF"/>
</linearGradient>
<linearGradient id="paint6_linear_141_61095" x1="191.76" y1="246.399" x2="243.581" y2="41.0706" gradientUnits="userSpaceOnUse">
<stop stop-color="#6500DD"/>
<stop offset="0.311" stop-color="#6500DD"/>
<stop offset="1" stop-color="#D98AFF"/>
</linearGradient>
<linearGradient id="paint7_linear_141_61095" x1="220.116" y1="82.8543" x2="227.635" y2="111.422" gradientUnits="userSpaceOnUse">
<stop stop-color="white"/>
<stop offset="1" stop-color="white" stop-opacity="0"/>
</linearGradient>
</defs>
</svg>
