<svg width="450" height="450" viewBox="0 0 450 450" fill="none" xmlns="http://www.w3.org/2000/svg">
<rect x="3.5" y="3.5" width="443" height="443" rx="221.5" fill="white" stroke="url(#paint0_linear_141_61094)" stroke-width="7"/>
<g filter="url(#filter0_d_141_61094)">
<path d="M68.6688 286.825V296.45H81.5938V302.555H68.6688V312.73H83.2438V319H60.9688V280.555H83.2438V286.825H68.6688ZM107.126 288.09C110.756 288.09 113.69 289.245 115.926 291.555C118.163 293.828 119.281 297.018 119.281 301.125V319H111.581V302.17C111.581 299.75 110.976 297.898 109.766 296.615C108.556 295.295 106.906 294.635 104.816 294.635C102.69 294.635 101.003 295.295 99.7563 296.615C98.5463 297.898 97.9413 299.75 97.9413 302.17V319H90.2413V288.53H97.9413V292.325C98.968 291.005 100.27 289.978 101.846 289.245C103.46 288.475 105.22 288.09 107.126 288.09ZM138.539 288.035C140.812 288.035 142.81 288.493 144.534 289.41C146.257 290.29 147.614 291.445 148.604 292.875V288.53H156.359V319.22C156.359 322.043 155.79 324.555 154.654 326.755C153.517 328.992 151.812 330.752 149.539 332.035C147.265 333.355 144.515 334.015 141.289 334.015C136.962 334.015 133.405 333.007 130.619 330.99C127.869 328.973 126.31 326.223 125.944 322.74H133.589C133.992 324.133 134.854 325.233 136.174 326.04C137.53 326.883 139.162 327.305 141.069 327.305C143.305 327.305 145.12 326.627 146.514 325.27C147.907 323.95 148.604 321.933 148.604 319.22V314.49C147.614 315.92 146.239 317.112 144.479 318.065C142.755 319.018 140.775 319.495 138.539 319.495C135.972 319.495 133.625 318.835 131.499 317.515C129.372 316.195 127.685 314.343 126.439 311.96C125.229 309.54 124.624 306.772 124.624 303.655C124.624 300.575 125.229 297.843 126.439 295.46C127.685 293.077 129.354 291.243 131.444 289.96C133.57 288.677 135.935 288.035 138.539 288.035ZM148.604 303.765C148.604 301.895 148.237 300.3 147.504 298.98C146.77 297.623 145.78 296.597 144.534 295.9C143.287 295.167 141.949 294.8 140.519 294.8C139.089 294.8 137.769 295.148 136.559 295.845C135.349 296.542 134.359 297.568 133.589 298.925C132.855 300.245 132.489 301.822 132.489 303.655C132.489 305.488 132.855 307.102 133.589 308.495C134.359 309.852 135.349 310.897 136.559 311.63C137.805 312.363 139.125 312.73 140.519 312.73C141.949 312.73 143.287 312.382 144.534 311.685C145.78 310.952 146.77 309.925 147.504 308.605C148.237 307.248 148.604 305.635 148.604 303.765ZM167.784 284.9C166.427 284.9 165.291 284.478 164.374 283.635C163.494 282.755 163.054 281.673 163.054 280.39C163.054 279.107 163.494 278.043 164.374 277.2C165.291 276.32 166.427 275.88 167.784 275.88C169.141 275.88 170.259 276.32 171.139 277.2C172.056 278.043 172.514 279.107 172.514 280.39C172.514 281.673 172.056 282.755 171.139 283.635C170.259 284.478 169.141 284.9 167.784 284.9ZM171.579 288.53V319H163.879V288.53H171.579ZM196.072 288.09C199.702 288.09 202.635 289.245 204.872 291.555C207.108 293.828 208.227 297.018 208.227 301.125V319H200.527V302.17C200.527 299.75 199.922 297.898 198.712 296.615C197.502 295.295 195.852 294.635 193.762 294.635C191.635 294.635 189.948 295.295 188.702 296.615C187.492 297.898 186.887 299.75 186.887 302.17V319H179.187V288.53H186.887V292.325C187.913 291.005 189.215 289.978 190.792 289.245C192.405 288.475 194.165 288.09 196.072 288.09ZM243.874 303.105C243.874 304.205 243.801 305.195 243.654 306.075H221.379C221.562 308.275 222.332 309.998 223.689 311.245C225.046 312.492 226.714 313.115 228.694 313.115C231.554 313.115 233.589 311.887 234.799 309.43H243.104C242.224 312.363 240.537 314.783 238.044 316.69C235.551 318.56 232.489 319.495 228.859 319.495C225.926 319.495 223.286 318.853 220.939 317.57C218.629 316.25 216.814 314.398 215.494 312.015C214.211 309.632 213.569 306.882 213.569 303.765C213.569 300.612 214.211 297.843 215.494 295.46C216.777 293.077 218.574 291.243 220.884 289.96C223.194 288.677 225.852 288.035 228.859 288.035C231.756 288.035 234.341 288.658 236.614 289.905C238.924 291.152 240.702 292.93 241.949 295.24C243.232 297.513 243.874 300.135 243.874 303.105ZM235.899 300.905C235.862 298.925 235.147 297.348 233.754 296.175C232.361 294.965 230.656 294.36 228.639 294.36C226.732 294.36 225.119 294.947 223.799 296.12C222.516 297.257 221.727 298.852 221.434 300.905H235.899ZM277.819 303.105C277.819 304.205 277.746 305.195 277.599 306.075H255.324C255.508 308.275 256.278 309.998 257.634 311.245C258.991 312.492 260.659 313.115 262.639 313.115C265.499 313.115 267.534 311.887 268.744 309.43H277.049C276.169 312.363 274.483 314.783 271.989 316.69C269.496 318.56 266.434 319.495 262.804 319.495C259.871 319.495 257.231 318.853 254.884 317.57C252.574 316.25 250.759 314.398 249.439 312.015C248.156 309.632 247.514 306.882 247.514 303.765C247.514 300.612 248.156 297.843 249.439 295.46C250.723 293.077 252.519 291.243 254.829 289.96C257.139 288.677 259.798 288.035 262.804 288.035C265.701 288.035 268.286 288.658 270.559 289.905C272.869 291.152 274.648 292.93 275.894 295.24C277.178 297.513 277.819 300.135 277.819 303.105ZM269.844 300.905C269.808 298.925 269.093 297.348 267.699 296.175C266.306 294.965 264.601 294.36 262.584 294.36C260.678 294.36 259.064 294.947 257.744 296.12C256.461 297.257 255.673 298.852 255.379 300.905H269.844ZM291.14 293.26C292.13 291.647 293.413 290.382 294.99 289.465C296.603 288.548 298.436 288.09 300.49 288.09V296.175H298.455C296.035 296.175 294.201 296.743 292.955 297.88C291.745 299.017 291.14 300.997 291.14 303.82V319H283.44V288.53H291.14V293.26ZM309.581 284.9C308.224 284.9 307.088 284.478 306.171 283.635C305.291 282.755 304.851 281.673 304.851 280.39C304.851 279.107 305.291 278.043 306.171 277.2C307.088 276.32 308.224 275.88 309.581 275.88C310.938 275.88 312.056 276.32 312.936 277.2C313.853 278.043 314.311 279.107 314.311 280.39C314.311 281.673 313.853 282.755 312.936 283.635C312.056 284.478 310.938 284.9 309.581 284.9ZM313.376 288.53V319H305.676V288.53H313.376ZM337.868 288.09C341.498 288.09 344.432 289.245 346.668 291.555C348.905 293.828 350.023 297.018 350.023 301.125V319H342.323V302.17C342.323 299.75 341.718 297.898 340.508 296.615C339.298 295.295 337.648 294.635 335.558 294.635C333.432 294.635 331.745 295.295 330.498 296.615C329.288 297.898 328.683 299.75 328.683 302.17V319H320.983V288.53H328.683V292.325C329.71 291.005 331.012 289.978 332.588 289.245C334.202 288.475 335.962 288.09 337.868 288.09ZM369.281 288.035C371.554 288.035 373.552 288.493 375.276 289.41C376.999 290.29 378.356 291.445 379.346 292.875V288.53H387.101V319.22C387.101 322.043 386.532 324.555 385.396 326.755C384.259 328.992 382.554 330.752 380.281 332.035C378.007 333.355 375.257 334.015 372.031 334.015C367.704 334.015 364.147 333.007 361.361 330.99C358.611 328.973 357.052 326.223 356.686 322.74H364.331C364.734 324.133 365.596 325.233 366.916 326.04C368.272 326.883 369.904 327.305 371.811 327.305C374.047 327.305 375.862 326.627 377.256 325.27C378.649 323.95 379.346 321.933 379.346 319.22V314.49C378.356 315.92 376.981 317.112 375.221 318.065C373.497 319.018 371.517 319.495 369.281 319.495C366.714 319.495 364.367 318.835 362.241 317.515C360.114 316.195 358.427 314.343 357.181 311.96C355.971 309.54 355.366 306.772 355.366 303.655C355.366 300.575 355.971 297.843 357.181 295.46C358.427 293.077 360.096 291.243 362.186 289.96C364.312 288.677 366.677 288.035 369.281 288.035ZM379.346 303.765C379.346 301.895 378.979 300.3 378.246 298.98C377.512 297.623 376.522 296.597 375.276 295.9C374.029 295.167 372.691 294.8 371.261 294.8C369.831 294.8 368.511 295.148 367.301 295.845C366.091 296.542 365.101 297.568 364.331 298.925C363.597 300.245 363.231 301.822 363.231 303.655C363.231 305.488 363.597 307.102 364.331 308.495C365.101 309.852 366.091 310.897 367.301 311.63C368.547 312.363 369.867 312.73 371.261 312.73C372.691 312.73 374.029 312.382 375.276 311.685C376.522 310.952 377.512 309.925 378.246 308.605C378.979 307.248 379.346 305.635 379.346 303.765Z" fill="url(#paint1_linear_141_61094)" fill-opacity="0.98"/>
</g>
<g filter="url(#filter1_d_141_61094)">
<circle cx="271.902" cy="171.924" r="15" transform="rotate(-57.0346 271.902 171.924)" fill="url(#paint2_linear_141_61094)"/>
<path fill-rule="evenodd" clip-rule="evenodd" d="M258.595 175.293C256.651 167.586 261.054 159.767 268.508 157.355C268.345 157.385 268.181 157.418 268.017 157.454C260.274 159.679 255.64 167.667 257.626 175.537C259.611 183.408 267.48 188.241 275.353 186.526C275.514 186.48 275.673 186.431 275.831 186.38C268.125 187.794 260.54 182.999 258.595 175.293Z" fill="url(#paint3_linear_141_61094)"/>
<path fill-rule="evenodd" clip-rule="evenodd" d="M281.852 180.648C286.359 173.698 284.379 164.409 277.429 159.901C274.167 157.786 270.39 157.099 266.834 157.685C270.776 156.649 275.123 157.214 278.812 159.606C285.762 164.114 287.743 173.403 283.235 180.353C280.843 184.042 277.104 186.331 273.082 186.993C276.568 186.077 279.736 183.91 281.852 180.648Z" fill="url(#paint4_linear_141_61094)"/>
<path fill-rule="evenodd" clip-rule="evenodd" d="M164.222 183.173C164.282 183.968 164.375 184.762 164.502 185.554C165.551 189.023 167.072 192.384 169.062 195.541L171.04 198.678L204.119 247.518L210.003 256.206C216.099 265.207 229.446 264.936 235.172 255.696L236.501 253.553L260.493 213.827C263.522 208.812 263.354 202.494 260.064 197.648L257.968 194.56L258.292 194.334L224.318 143.403L214.164 127.129C205.963 113.986 205.878 97.3609 213.9 84.1483L198.927 105.338L198.819 105.177L192.596 113.983L169.473 150.853C167.707 153.67 166.313 156.649 165.294 159.721C162.652 167.285 162.294 175.446 164.222 183.173Z" fill="url(#paint5_linear_141_61094)"/>
<path fill-rule="evenodd" clip-rule="evenodd" d="M163.485 163.904C163.384 164.699 163.315 165.496 163.28 166.292C161.592 174.075 162.203 182.221 165.079 189.7C166.193 192.739 167.678 195.673 169.531 198.434L193.787 234.568L200.28 243.178L200.383 243.014L213.144 259.934L214.119 260.518C207.562 248.105 207.777 233.068 214.936 220.76L224.581 204.179L256.959 152.218L256.628 152.003L258.627 148.851C261.765 143.905 261.736 137.585 258.554 132.667L233.34 93.7035L231.946 91.6028C225.936 82.5448 212.587 82.6886 206.773 91.874L201.161 100.74L169.613 150.583L167.734 153.78C165.842 156.997 164.427 160.404 163.485 163.904Z" fill="url(#paint6_linear_141_61094)"/>
<path fill-rule="evenodd" clip-rule="evenodd" d="M213.632 260.202L206.275 250.448C203.31 239.929 204.622 228.46 210.297 218.704L219.942 202.122L252.319 150.162L251.988 149.946L253.987 146.795C257.125 141.849 257.097 135.528 253.914 130.61L228.701 91.6472L227.307 89.5464C226.01 87.5925 224.372 86.0668 222.542 84.9676C226.245 85.7062 229.715 87.8408 232.064 91.3809L233.458 93.4817L258.672 132.445C261.854 137.363 261.883 143.683 258.745 148.629L256.746 151.781L257.077 151.996L224.699 203.957L215.054 220.538C207.824 232.968 207.676 248.18 214.433 260.662L213.632 260.202Z" fill="url(#paint7_linear_141_61094)"/>
<path fill-rule="evenodd" clip-rule="evenodd" d="M253.263 124.276L237.88 100.324L232.21 91.4947C226.335 82.348 212.986 82.2924 207.035 91.3899L205.655 93.4998L180.7 132.629C178.875 135.489 178.112 138.813 178.409 142.062C178.655 139.814 179.409 137.61 180.673 135.629L205.629 96.4997L207.009 94.3898C212.959 85.2923 226.309 85.3479 232.183 94.4946L237.854 103.324L252.292 125.806L253.263 124.276Z" fill="url(#paint8_linear_141_61094)"/>
</g>
<defs>
<filter id="filter0_d_141_61094" x="56.9688" y="275.88" width="334.132" height="66.135" filterUnits="userSpaceOnUse" color-interpolation-filters="sRGB">
<feFlood flood-opacity="0" result="BackgroundImageFix"/>
<feColorMatrix in="SourceAlpha" type="matrix" values="0 0 0 0 0 0 0 0 0 0 0 0 0 0 0 0 0 0 127 0" result="hardAlpha"/>
<feOffset dy="4"/>
<feGaussianBlur stdDeviation="2"/>
<feComposite in2="hardAlpha" operator="out"/>
<feColorMatrix type="matrix" values="0 0 0 0 0 0 0 0 0 0 0 0 0 0 0 0 0 0 0.25 0"/>
<feBlend mode="normal" in2="BackgroundImageFix" result="effect1_dropShadow_141_61094"/>
<feBlend mode="normal" in="SourceGraphic" in2="effect1_dropShadow_141_61094" result="shape"/>
</filter>
<filter id="filter1_d_141_61094" x="154.349" y="81.1484" width="140.554" height="194.646" filterUnits="userSpaceOnUse" color-interpolation-filters="sRGB">
<feFlood flood-opacity="0" result="BackgroundImageFix"/>
<feColorMatrix in="SourceAlpha" type="matrix" values="0 0 0 0 0 0 0 0 0 0 0 0 0 0 0 0 0 0 127 0" result="hardAlpha"/>
<feOffset dy="5"/>
<feGaussianBlur stdDeviation="4"/>
<feComposite in2="hardAlpha" operator="out"/>
<feColorMatrix type="matrix" values="0 0 0 0 0 0 0 0 0 0 0 0 0 0 0 0 0 0 0.25 0"/>
<feBlend mode="normal" in2="BackgroundImageFix" result="effect1_dropShadow_141_61094"/>
<feBlend mode="normal" in="SourceGraphic" in2="effect1_dropShadow_141_61094" result="shape"/>
</filter>
<linearGradient id="paint0_linear_141_61094" x1="-5.94921e-06" y1="256" x2="225" y2="716" gradientUnits="userSpaceOnUse">
<stop stop-color="#001EBD"/>
<stop offset="0.445" stop-color="#AE43E0"/>
<stop offset="1" stop-color="#D98AFF"/>
</linearGradient>
<linearGradient id="paint1_linear_141_61094" x1="-60.3382" y1="302.464" x2="426.035" y2="298.146" gradientUnits="userSpaceOnUse">
<stop stop-color="#000E57" stop-opacity="0.98"/>
<stop offset="0.49" stop-color="#6500DD"/>
<stop offset="1" stop-color="#C54AFF"/>
</linearGradient>
<linearGradient id="paint2_linear_141_61094" x1="290.902" y1="186.924" x2="249.402" y2="154.424" gradientUnits="userSpaceOnUse">
<stop stop-color="#B15500"/>
<stop offset="1" stop-color="#FFDD55"/>
</linearGradient>
<linearGradient id="paint3_linear_141_61094" x1="258.196" y1="173.763" x2="261.801" y2="173.717" gradientUnits="userSpaceOnUse">
<stop stop-color="white"/>
<stop offset="1" stop-color="white" stop-opacity="0"/>
</linearGradient>
<linearGradient id="paint4_linear_141_61094" x1="288.726" y1="164.361" x2="276.992" y2="168.67" gradientUnits="userSpaceOnUse">
<stop stop-color="#FFCC00"/>
<stop offset="1" stop-color="#FFCC00" stop-opacity="0"/>
</linearGradient>
<linearGradient id="paint5_linear_141_61094" x1="189.172" y1="105.033" x2="247.337" y2="308.655" gradientUnits="userSpaceOnUse">
<stop stop-color="#330086" stop-opacity="0.98"/>
<stop offset="0.311" stop-color="#6500DD"/>
<stop offset="1" stop-color="#D98AFF"/>
</linearGradient>
<linearGradient id="paint6_linear_141_61094" x1="190.641" y1="243.621" x2="242.462" y2="38.2924" gradientUnits="userSpaceOnUse">
<stop stop-color="#330086" stop-opacity="0.98"/>
<stop offset="0.311" stop-color="#6500DD"/>
<stop offset="1" stop-color="#D98AFF"/>
</linearGradient>
<linearGradient id="paint7_linear_141_61094" x1="190.76" y1="243.399" x2="242.581" y2="38.0706" gradientUnits="userSpaceOnUse">
<stop stop-color="#6500DD"/>
<stop offset="0.311" stop-color="#6500DD"/>
<stop offset="1" stop-color="#D98AFF"/>
</linearGradient>
<linearGradient id="paint8_linear_141_61094" x1="219.116" y1="79.8543" x2="226.635" y2="108.422" gradientUnits="userSpaceOnUse">
<stop stop-color="white"/>
<stop offset="1" stop-color="white" stop-opacity="0"/>
</linearGradient>
</defs>
</svg>
