<svg width="450" height="450" viewBox="0 0 450 450" fill="none" xmlns="http://www.w3.org/2000/svg">
<rect width="450" height="450" fill="white"/>
<g filter="url(#filter0_d_141_54482)">
<path d="M112.12 266.328V311H103.16V281.944L91.192 311H84.408L72.376 281.944V311H63.416V266.328H73.592L87.8 299.544L102.008 266.328H112.12ZM118.674 293.144C118.674 289.56 119.378 286.381 120.786 283.608C122.237 280.835 124.179 278.701 126.611 277.208C129.085 275.715 131.837 274.968 134.867 274.968C137.512 274.968 139.816 275.501 141.779 276.568C143.784 277.635 145.384 278.979 146.579 280.6V275.544H155.603V311H146.579V305.816C145.427 307.48 143.827 308.867 141.779 309.976C139.773 311.043 137.448 311.576 134.803 311.576C131.816 311.576 129.085 310.808 126.611 309.272C124.179 307.736 122.237 305.581 120.786 302.808C119.378 299.992 118.674 296.771 118.674 293.144ZM146.579 293.272C146.579 291.096 146.152 289.24 145.299 287.704C144.445 286.125 143.293 284.931 141.843 284.12C140.392 283.267 138.835 282.84 137.171 282.84C135.507 282.84 133.971 283.245 132.562 284.056C131.155 284.867 130.003 286.061 129.107 287.64C128.253 289.176 127.827 291.011 127.827 293.144C127.827 295.277 128.253 297.155 129.107 298.776C130.003 300.355 131.155 301.571 132.562 302.424C134.013 303.277 135.549 303.704 137.171 303.704C138.835 303.704 140.392 303.299 141.843 302.488C143.293 301.635 144.445 300.44 145.299 298.904C146.152 297.325 146.579 295.448 146.579 293.272ZM173.314 281.048C174.466 279.171 175.959 277.699 177.794 276.632C179.671 275.565 181.804 275.032 184.194 275.032V284.44H181.826C179.01 284.44 176.876 285.101 175.426 286.424C174.018 287.747 173.314 290.051 173.314 293.336V311H164.354V275.544H173.314V281.048ZM211.221 311L199.189 295.896V311H190.229V263.64H199.189V290.584L211.093 275.544H222.741L207.125 293.336L222.869 311H211.221ZM260.564 292.504C260.564 293.784 260.478 294.936 260.308 295.96H234.388C234.601 298.52 235.497 300.525 237.076 301.976C238.654 303.427 240.596 304.152 242.9 304.152C246.228 304.152 248.596 302.723 250.004 299.864H259.668C258.644 303.277 256.681 306.093 253.78 308.312C250.878 310.488 247.316 311.576 243.092 311.576C239.678 311.576 236.606 310.829 233.876 309.336C231.188 307.8 229.076 305.645 227.54 302.872C226.046 300.099 225.299 296.899 225.299 293.272C225.299 289.603 226.046 286.381 227.54 283.608C229.033 280.835 231.124 278.701 233.812 277.208C236.5 275.715 239.593 274.968 243.092 274.968C246.462 274.968 249.47 275.693 252.116 277.144C254.804 278.595 256.873 280.664 258.324 283.352C259.817 285.997 260.564 289.048 260.564 292.504ZM251.284 289.944C251.241 287.64 250.409 285.805 248.788 284.44C247.166 283.032 245.182 282.328 242.836 282.328C240.617 282.328 238.74 283.011 237.204 284.376C235.71 285.699 234.793 287.555 234.452 289.944H251.284ZM277.536 282.904V300.056C277.536 301.251 277.813 302.125 278.368 302.68C278.965 303.192 279.946 303.448 281.312 303.448H285.472V311H279.84C272.288 311 268.512 307.331 268.512 299.992V282.904H264.288V275.544H268.512V266.776H277.536V275.544H285.472V282.904H277.536ZM296.46 271.32C294.881 271.32 293.559 270.829 292.492 269.848C291.468 268.824 290.956 267.565 290.956 266.072C290.956 264.579 291.468 263.341 292.492 262.36C293.559 261.336 294.881 260.824 296.46 260.824C298.039 260.824 299.34 261.336 300.364 262.36C301.431 263.341 301.964 264.579 301.964 266.072C301.964 267.565 301.431 268.824 300.364 269.848C299.34 270.829 298.039 271.32 296.46 271.32ZM300.876 275.544V311H291.916V275.544H300.876ZM329.377 275.032C333.601 275.032 337.014 276.376 339.617 279.064C342.219 281.709 343.521 285.421 343.521 290.2V311H334.561V291.416C334.561 288.6 333.857 286.445 332.449 284.952C331.041 283.416 329.121 282.648 326.689 282.648C324.214 282.648 322.251 283.416 320.801 284.952C319.393 286.445 318.689 288.6 318.689 291.416V311H309.729V275.544H318.689V279.96C319.883 278.424 321.398 277.229 323.233 276.376C325.11 275.48 327.158 275.032 329.377 275.032ZM365.929 274.968C368.574 274.968 370.9 275.501 372.905 276.568C374.91 277.592 376.489 278.936 377.641 280.6V275.544H386.665V311.256C386.665 314.541 386.004 317.464 384.681 320.024C383.358 322.627 381.374 324.675 378.729 326.168C376.084 327.704 372.884 328.472 369.129 328.472C364.094 328.472 359.956 327.299 356.713 324.952C353.513 322.605 351.7 319.405 351.273 315.352H360.169C360.638 316.973 361.641 318.253 363.177 319.192C364.756 320.173 366.654 320.664 368.873 320.664C371.476 320.664 373.588 319.875 375.209 318.296C376.83 316.76 377.641 314.413 377.641 311.256V305.752C376.489 307.416 374.889 308.803 372.841 309.912C370.836 311.021 368.532 311.576 365.929 311.576C362.942 311.576 360.212 310.808 357.737 309.272C355.262 307.736 353.3 305.581 351.849 302.808C350.441 299.992 349.737 296.771 349.737 293.144C349.737 289.56 350.441 286.381 351.849 283.608C353.3 280.835 355.241 278.701 357.673 277.208C360.148 275.715 362.9 274.968 365.929 274.968ZM377.641 293.272C377.641 291.096 377.214 289.24 376.361 287.704C375.508 286.125 374.356 284.931 372.905 284.12C371.454 283.267 369.897 282.84 368.233 282.84C366.569 282.84 365.033 283.245 363.625 284.056C362.217 284.867 361.065 286.061 360.169 287.64C359.316 289.176 358.889 291.011 358.889 293.144C358.889 295.277 359.316 297.155 360.169 298.776C361.065 300.355 362.217 301.571 363.625 302.424C365.076 303.277 366.612 303.704 368.233 303.704C369.897 303.704 371.454 303.299 372.905 302.488C374.356 301.635 375.508 300.44 376.361 298.904C377.214 297.325 377.641 295.448 377.641 293.272Z" fill="url(#paint0_linear_141_54482)" fill-opacity="0.98"/>
</g>
<g filter="url(#filter1_d_141_54482)">
<circle cx="222.924" cy="136.641" r="15" transform="rotate(-147.035 222.924 136.641)" fill="url(#paint1_linear_141_54482)"/>
<path fill-rule="evenodd" clip-rule="evenodd" d="M226.293 149.947C218.586 151.892 210.767 147.489 208.355 140.034C208.385 140.198 208.418 140.362 208.454 140.525C210.679 148.269 218.667 152.903 226.537 150.917C234.408 148.931 239.241 141.063 237.526 133.19C237.48 133.029 237.431 132.87 237.38 132.711C238.794 140.418 233.999 148.003 226.293 149.947Z" fill="url(#paint2_linear_141_54482)"/>
<path fill-rule="evenodd" clip-rule="evenodd" d="M231.648 126.691C224.698 122.183 215.409 124.163 210.901 131.114C208.786 134.376 208.099 138.153 208.685 141.708C207.649 137.767 208.214 133.42 210.606 129.731C215.114 122.78 224.403 120.8 231.353 125.308C235.042 127.7 237.331 131.439 237.993 135.46C237.077 131.975 234.91 128.806 231.648 126.691Z" fill="url(#paint3_linear_141_54482)"/>
<path fill-rule="evenodd" clip-rule="evenodd" d="M234.173 244.321C234.968 244.261 235.762 244.168 236.554 244.042C240.023 242.992 243.384 241.472 246.541 239.481L249.678 237.504L298.518 204.425L307.206 198.54C316.207 192.444 315.936 179.097 306.696 173.371L304.553 172.043L264.827 148.05C259.812 145.022 253.494 145.189 248.648 148.479L245.56 150.575L245.334 150.251L194.403 184.225L178.129 194.38C164.986 202.58 148.361 202.665 135.148 194.643L156.338 209.616L156.177 209.724L164.983 215.947L201.853 239.07C204.67 240.837 207.649 242.23 210.721 243.249C218.285 245.892 226.446 246.249 234.173 244.321Z" fill="url(#paint4_linear_141_54482)"/>
<path fill-rule="evenodd" clip-rule="evenodd" d="M214.904 245.058C215.699 245.159 216.496 245.228 217.292 245.263C225.075 246.951 233.221 246.34 240.7 243.464C243.739 242.35 246.673 240.865 249.434 239.012L285.568 214.756L294.178 208.263L294.014 208.16L310.934 195.399L311.518 194.424C299.105 200.981 284.068 200.766 271.76 193.607L255.179 183.962L203.218 151.584L203.003 151.915L199.851 149.916C194.905 146.778 188.585 146.807 183.667 149.989L144.704 175.203L142.603 176.597C133.545 182.607 133.689 195.956 142.874 201.77L151.74 207.382L201.583 238.93L204.78 240.809C207.997 242.701 211.404 244.116 214.904 245.058Z" fill="url(#paint5_linear_141_54482)"/>
<path fill-rule="evenodd" clip-rule="evenodd" d="M311.202 194.911L301.448 202.268C290.929 205.233 279.46 203.921 269.704 198.246L253.122 188.601L201.162 156.224L200.946 156.555L197.795 154.556C192.849 151.418 186.528 151.446 181.61 154.629L142.647 179.842L140.546 181.236C138.593 182.533 137.067 184.171 135.968 186.001C136.706 182.298 138.841 178.828 142.381 176.479L144.482 175.085L183.445 149.871C188.363 146.689 194.683 146.66 199.629 149.798L202.781 151.797L202.996 151.466L254.957 183.844L271.538 193.489C283.968 200.719 299.18 200.867 311.662 194.11L311.202 194.911Z" fill="url(#paint6_linear_141_54482)"/>
<path fill-rule="evenodd" clip-rule="evenodd" d="M175.276 155.28L151.324 170.662L142.495 176.333C133.348 182.207 133.292 195.557 142.39 201.507L144.5 202.887L183.629 227.843C186.489 229.667 189.813 230.431 193.062 230.134C190.814 229.888 188.61 229.133 186.629 227.87L147.5 202.914L145.39 201.534C136.292 195.584 136.348 182.234 145.495 176.36L154.324 170.689L176.806 156.25L175.276 155.28Z" fill="url(#paint7_linear_141_54482)"/>
</g>
<defs>
<filter id="filter0_d_141_54482" x="59.416" y="260.824" width="331.249" height="75.6479" filterUnits="userSpaceOnUse" color-interpolation-filters="sRGB">
<feFlood flood-opacity="0" result="BackgroundImageFix"/>
<feColorMatrix in="SourceAlpha" type="matrix" values="0 0 0 0 0 0 0 0 0 0 0 0 0 0 0 0 0 0 127 0" result="hardAlpha"/>
<feOffset dy="4"/>
<feGaussianBlur stdDeviation="2"/>
<feComposite in2="hardAlpha" operator="out"/>
<feColorMatrix type="matrix" values="0 0 0 0 0 0 0 0 0 0 0 0 0 0 0 0 0 0 0.25 0"/>
<feBlend mode="normal" in2="BackgroundImageFix" result="effect1_dropShadow_141_54482"/>
<feBlend mode="normal" in="SourceGraphic" in2="effect1_dropShadow_141_54482" result="shape"/>
</filter>
<filter id="filter1_d_141_54482" x="127.148" y="118.639" width="194.646" height="140.555" filterUnits="userSpaceOnUse" color-interpolation-filters="sRGB">
<feFlood flood-opacity="0" result="BackgroundImageFix"/>
<feColorMatrix in="SourceAlpha" type="matrix" values="0 0 0 0 0 0 0 0 0 0 0 0 0 0 0 0 0 0 127 0" result="hardAlpha"/>
<feOffset dy="5"/>
<feGaussianBlur stdDeviation="4"/>
<feComposite in2="hardAlpha" operator="out"/>
<feColorMatrix type="matrix" values="0 0 0 0 0 0 0 0 0 0 0 0 0 0 0 0 0 0 0.25 0"/>
<feBlend mode="normal" in2="BackgroundImageFix" result="effect1_dropShadow_141_54482"/>
<feBlend mode="normal" in="SourceGraphic" in2="effect1_dropShadow_141_54482" result="shape"/>
</filter>
<linearGradient id="paint0_linear_141_54482" x1="-57.6356" y1="292.429" x2="425.835" y2="288.74" gradientUnits="userSpaceOnUse">
<stop stop-color="#000E57" stop-opacity="0.98"/>
<stop offset="0.49" stop-color="#6500DD"/>
<stop offset="1" stop-color="#C54AFF"/>
</linearGradient>
<linearGradient id="paint1_linear_141_54482" x1="241.924" y1="151.641" x2="200.424" y2="119.141" gradientUnits="userSpaceOnUse">
<stop stop-color="#B15500"/>
<stop offset="1" stop-color="#FFDD55"/>
</linearGradient>
<linearGradient id="paint2_linear_141_54482" x1="224.763" y1="150.347" x2="224.717" y2="146.742" gradientUnits="userSpaceOnUse">
<stop stop-color="white"/>
<stop offset="1" stop-color="white" stop-opacity="0"/>
</linearGradient>
<linearGradient id="paint3_linear_141_54482" x1="215.361" y1="119.817" x2="219.67" y2="131.551" gradientUnits="userSpaceOnUse">
<stop stop-color="#FFCC00"/>
<stop offset="1" stop-color="#FFCC00" stop-opacity="0"/>
</linearGradient>
<linearGradient id="paint4_linear_141_54482" x1="156.033" y1="219.372" x2="359.655" y2="161.206" gradientUnits="userSpaceOnUse">
<stop stop-color="#330086" stop-opacity="0.98"/>
<stop offset="0.311" stop-color="#6500DD"/>
<stop offset="1" stop-color="#D98AFF"/>
</linearGradient>
<linearGradient id="paint5_linear_141_54482" x1="294.621" y1="217.901" x2="89.2924" y2="166.081" gradientUnits="userSpaceOnUse">
<stop stop-color="#330086" stop-opacity="0.98"/>
<stop offset="0.311" stop-color="#6500DD"/>
<stop offset="1" stop-color="#D98AFF"/>
</linearGradient>
<linearGradient id="paint6_linear_141_54482" x1="294.399" y1="217.783" x2="89.0706" y2="165.962" gradientUnits="userSpaceOnUse">
<stop stop-color="#6500DD"/>
<stop offset="0.311" stop-color="#6500DD"/>
<stop offset="1" stop-color="#D98AFF"/>
</linearGradient>
<linearGradient id="paint7_linear_141_54482" x1="130.854" y1="189.426" x2="159.422" y2="181.907" gradientUnits="userSpaceOnUse">
<stop stop-color="white"/>
<stop offset="1" stop-color="white" stop-opacity="0"/>
</linearGradient>
</defs>
</svg>
