<svg width="450" height="450" viewBox="0 0 450 450" fill="none" xmlns="http://www.w3.org/2000/svg">
<rect width="450" height="450" fill="#2F2F2F"/>
<circle cx="215.755" cy="132.641" r="15" transform="rotate(-147.035 215.755 132.641)" fill="url(#paint0_linear_141_54483)"/>
<path fill-rule="evenodd" clip-rule="evenodd" d="M219.123 145.947C211.417 147.892 203.598 143.489 201.186 136.034C201.216 136.198 201.249 136.362 201.284 136.525C203.51 144.269 211.498 148.903 219.368 146.917C227.238 144.931 232.071 137.063 230.357 129.19C230.311 129.029 230.262 128.87 230.211 128.711C231.624 136.418 226.83 144.003 219.123 145.947Z" fill="url(#paint1_linear_141_54483)"/>
<path fill-rule="evenodd" clip-rule="evenodd" d="M224.479 122.691C217.529 118.183 208.24 120.163 203.732 127.114C201.617 130.376 200.93 134.153 201.515 137.708C200.48 133.767 201.045 129.42 203.437 125.731C207.945 118.78 217.234 116.8 224.184 121.308C227.873 123.7 230.162 127.439 230.824 131.46C229.908 127.975 227.741 124.806 224.479 122.691Z" fill="url(#paint2_linear_141_54483)"/>
<path fill-rule="evenodd" clip-rule="evenodd" d="M227.004 240.321C227.799 240.261 228.593 240.168 229.384 240.042C232.854 238.992 236.215 237.472 239.372 235.481L242.509 233.504L291.349 200.425L300.037 194.54C309.038 188.444 308.767 175.097 299.527 169.371L297.384 168.043L257.657 144.05C252.643 141.022 246.325 141.189 241.478 144.479L238.391 146.575L238.165 146.251L187.234 180.225L170.959 190.38C157.817 198.58 141.192 198.665 127.979 190.643L149.168 205.616L149.008 205.724L157.814 211.947L194.684 235.07C197.501 236.837 200.48 238.23 203.552 239.249C211.116 241.892 219.277 242.249 227.004 240.321Z" fill="url(#paint3_linear_141_54483)"/>
<path fill-rule="evenodd" clip-rule="evenodd" d="M207.735 241.058C208.53 241.159 209.327 241.228 210.123 241.263C217.906 242.951 226.052 242.34 233.531 239.464C236.569 238.35 239.503 236.865 242.265 235.012L278.399 210.756L287.008 204.263L286.844 204.16L303.764 191.399L304.349 190.424C291.936 196.981 276.899 196.766 264.591 189.607L248.01 179.962L196.049 147.584L195.833 147.915L192.682 145.916C187.736 142.778 181.415 142.807 176.498 145.989L137.534 171.203L135.434 172.597C126.376 178.607 126.519 191.956 135.705 197.77L144.571 203.382L194.414 234.93L197.611 236.809C200.828 238.701 204.235 240.116 207.735 241.058Z" fill="url(#paint4_linear_141_54483)"/>
<path fill-rule="evenodd" clip-rule="evenodd" d="M304.033 190.911L294.279 198.268C283.76 201.233 272.29 199.921 262.535 194.246L245.953 184.601L193.992 152.224L193.777 152.555L190.626 150.556C185.679 147.418 179.359 147.446 174.441 150.629L135.478 175.842L133.377 177.236C131.423 178.533 129.898 180.171 128.798 182.001C129.537 178.298 131.672 174.828 135.212 172.479L137.313 171.085L176.276 145.871C181.194 142.689 187.514 142.66 192.46 145.798L195.611 147.797L195.827 147.466L247.788 179.844L264.369 189.489C276.799 196.719 292.01 196.867 304.493 190.11L304.033 190.911Z" fill="url(#paint5_linear_141_54483)"/>
<path fill-rule="evenodd" clip-rule="evenodd" d="M168.107 151.28L144.155 166.662L135.326 172.333C126.179 178.207 126.123 191.557 135.221 197.507L137.331 198.887L176.46 223.843C179.32 225.667 182.644 226.431 185.892 226.134C183.645 225.888 181.441 225.133 179.46 223.87L140.33 198.914L138.221 197.534C129.123 191.584 129.179 178.234 138.325 172.36L147.155 166.689L169.636 152.25L168.107 151.28Z" fill="url(#paint6_linear_141_54483)"/>
<path d="M112.12 266.214V310.886H103.16V281.83L91.192 310.886H84.408L72.376 281.83V310.886H63.416V266.214H73.592L87.8 299.43L102.008 266.214H112.12ZM118.674 293.03C118.674 289.446 119.378 286.267 120.786 283.494C122.237 280.72 124.179 278.587 126.611 277.094C129.085 275.6 131.837 274.854 134.867 274.854C137.512 274.854 139.816 275.387 141.779 276.454C143.784 277.52 145.384 278.864 146.579 280.486V275.43H155.603V310.886H146.579V305.702C145.427 307.366 143.827 308.752 141.779 309.862C139.773 310.928 137.448 311.462 134.803 311.462C131.816 311.462 129.085 310.694 126.611 309.158C124.179 307.622 122.237 305.467 120.786 302.694C119.378 299.878 118.674 296.656 118.674 293.03ZM146.579 293.158C146.579 290.982 146.152 289.126 145.299 287.59C144.445 286.011 143.293 284.816 141.843 284.006C140.392 283.152 138.835 282.726 137.171 282.726C135.507 282.726 133.971 283.131 132.562 283.942C131.155 284.752 130.003 285.947 129.107 287.526C128.253 289.062 127.827 290.896 127.827 293.03C127.827 295.163 128.253 297.04 129.107 298.662C130.003 300.24 131.155 301.456 132.562 302.31C134.013 303.163 135.549 303.59 137.171 303.59C138.835 303.59 140.392 303.184 141.843 302.374C143.293 301.52 144.445 300.326 145.299 298.79C146.152 297.211 146.579 295.334 146.579 293.158ZM173.314 280.934C174.466 279.056 175.959 277.584 177.794 276.518C179.671 275.451 181.804 274.918 184.194 274.918V284.326H181.826C179.01 284.326 176.876 284.987 175.426 286.31C174.018 287.632 173.314 289.936 173.314 293.222V310.886H164.354V275.43H173.314V280.934ZM211.221 310.886L199.189 295.782V310.886H190.229V263.526H199.189V290.47L211.093 275.43H222.741L207.125 293.222L222.869 310.886H211.221ZM260.564 292.39C260.564 293.67 260.478 294.822 260.308 295.846H234.388C234.601 298.406 235.497 300.411 237.076 301.862C238.654 303.312 240.596 304.038 242.9 304.038C246.228 304.038 248.596 302.608 250.004 299.75H259.668C258.644 303.163 256.681 305.979 253.78 308.198C250.878 310.374 247.316 311.462 243.092 311.462C239.678 311.462 236.606 310.715 233.876 309.222C231.188 307.686 229.076 305.531 227.54 302.758C226.046 299.984 225.299 296.784 225.299 293.158C225.299 289.488 226.046 286.267 227.54 283.494C229.033 280.72 231.124 278.587 233.812 277.094C236.5 275.6 239.593 274.854 243.092 274.854C246.462 274.854 249.47 275.579 252.116 277.03C254.804 278.48 256.873 280.55 258.324 283.238C259.817 285.883 260.564 288.934 260.564 292.39ZM251.284 289.83C251.241 287.526 250.409 285.691 248.788 284.326C247.166 282.918 245.182 282.214 242.836 282.214C240.617 282.214 238.74 282.896 237.204 284.262C235.71 285.584 234.793 287.44 234.452 289.83H251.284ZM277.536 282.79V299.942C277.536 301.136 277.813 302.011 278.368 302.566C278.965 303.078 279.946 303.334 281.312 303.334H285.472V310.886H279.84C272.288 310.886 268.512 307.216 268.512 299.878V282.79H264.288V275.43H268.512V266.662H277.536V275.43H285.472V282.79H277.536ZM296.46 271.206C294.881 271.206 293.559 270.715 292.492 269.734C291.468 268.71 290.956 267.451 290.956 265.958C290.956 264.464 291.468 263.227 292.492 262.246C293.559 261.222 294.881 260.71 296.46 260.71C298.039 260.71 299.34 261.222 300.364 262.246C301.431 263.227 301.964 264.464 301.964 265.958C301.964 267.451 301.431 268.71 300.364 269.734C299.34 270.715 298.039 271.206 296.46 271.206ZM300.876 275.43V310.886H291.916V275.43H300.876ZM329.377 274.918C333.601 274.918 337.014 276.262 339.617 278.95C342.219 281.595 343.521 285.307 343.521 290.086V310.886H334.561V291.302C334.561 288.486 333.857 286.331 332.449 284.838C331.041 283.302 329.121 282.534 326.689 282.534C324.214 282.534 322.251 283.302 320.801 284.838C319.393 286.331 318.689 288.486 318.689 291.302V310.886H309.729V275.43H318.689V279.846C319.883 278.31 321.398 277.115 323.233 276.262C325.11 275.366 327.158 274.918 329.377 274.918ZM365.929 274.854C368.574 274.854 370.9 275.387 372.905 276.454C374.91 277.478 376.489 278.822 377.641 280.486V275.43H386.665V311.142C386.665 314.427 386.004 317.35 384.681 319.91C383.358 322.512 381.374 324.56 378.729 326.054C376.084 327.59 372.884 328.358 369.129 328.358C364.094 328.358 359.956 327.184 356.713 324.838C353.513 322.491 351.7 319.291 351.273 315.238H360.169C360.638 316.859 361.641 318.139 363.177 319.078C364.756 320.059 366.654 320.55 368.873 320.55C371.476 320.55 373.588 319.76 375.209 318.182C376.83 316.646 377.641 314.299 377.641 311.142V305.638C376.489 307.302 374.889 308.688 372.841 309.798C370.836 310.907 368.532 311.462 365.929 311.462C362.942 311.462 360.212 310.694 357.737 309.158C355.262 307.622 353.3 305.467 351.849 302.694C350.441 299.878 349.737 296.656 349.737 293.03C349.737 289.446 350.441 286.267 351.849 283.494C353.3 280.72 355.241 278.587 357.673 277.094C360.148 275.6 362.9 274.854 365.929 274.854ZM377.641 293.158C377.641 290.982 377.214 289.126 376.361 287.59C375.508 286.011 374.356 284.816 372.905 284.006C371.454 283.152 369.897 282.726 368.233 282.726C366.569 282.726 365.033 283.131 363.625 283.942C362.217 284.752 361.065 285.947 360.169 287.526C359.316 289.062 358.889 290.896 358.889 293.03C358.889 295.163 359.316 297.04 360.169 298.662C361.065 300.24 362.217 301.456 363.625 302.31C365.076 303.163 366.612 303.59 368.233 303.59C369.897 303.59 371.454 303.184 372.905 302.374C374.356 301.52 375.508 300.326 376.361 298.79C377.214 297.211 377.641 295.334 377.641 293.158Z" fill="white"/>
<defs>
<linearGradient id="paint0_linear_141_54483" x1="234.755" y1="147.641" x2="193.255" y2="115.141" gradientUnits="userSpaceOnUse">
<stop stop-color="#B15500"/>
<stop offset="1" stop-color="#FFDD55"/>
</linearGradient>
<linearGradient id="paint1_linear_141_54483" x1="217.594" y1="146.347" x2="217.548" y2="142.742" gradientUnits="userSpaceOnUse">
<stop stop-color="white"/>
<stop offset="1" stop-color="white" stop-opacity="0"/>
</linearGradient>
<linearGradient id="paint2_linear_141_54483" x1="208.192" y1="115.817" x2="212.501" y2="127.551" gradientUnits="userSpaceOnUse">
<stop stop-color="#FFCC00"/>
<stop offset="1" stop-color="#FFCC00" stop-opacity="0"/>
</linearGradient>
<linearGradient id="paint3_linear_141_54483" x1="148.863" y1="215.372" x2="352.486" y2="157.206" gradientUnits="userSpaceOnUse">
<stop stop-color="#330086" stop-opacity="0.98"/>
<stop offset="0.311" stop-color="#6500DD"/>
<stop offset="1" stop-color="#D98AFF"/>
</linearGradient>
<linearGradient id="paint4_linear_141_54483" x1="287.452" y1="213.901" x2="82.1232" y2="162.081" gradientUnits="userSpaceOnUse">
<stop stop-color="#330086" stop-opacity="0.98"/>
<stop offset="0.311" stop-color="#6500DD"/>
<stop offset="1" stop-color="#D98AFF"/>
</linearGradient>
<linearGradient id="paint5_linear_141_54483" x1="287.23" y1="213.783" x2="81.9014" y2="161.962" gradientUnits="userSpaceOnUse">
<stop stop-color="#6500DD"/>
<stop offset="0.311" stop-color="#6500DD"/>
<stop offset="1" stop-color="#D98AFF"/>
</linearGradient>
<linearGradient id="paint6_linear_141_54483" x1="123.685" y1="185.426" x2="152.253" y2="177.907" gradientUnits="userSpaceOnUse">
<stop stop-color="white"/>
<stop offset="1" stop-color="white" stop-opacity="0"/>
</linearGradient>
</defs>
</svg>
