<svg width="450" height="450" viewBox="0 0 450 450" fill="none" xmlns="http://www.w3.org/2000/svg">
<rect x="3.5" y="3.5" width="443" height="443" rx="221.5" fill="white" stroke="url(#paint0_linear_141_53882)" stroke-width="7"/>
<g filter="url(#filter0_d_141_53882)">
<path d="M112.12 263.328V308H103.16V278.944L91.192 308H84.408L72.376 278.944V308H63.416V263.328H73.592L87.8 296.544L102.008 263.328H112.12ZM118.674 290.144C118.674 286.56 119.378 283.381 120.786 280.608C122.237 277.835 124.179 275.701 126.611 274.208C129.085 272.715 131.837 271.968 134.867 271.968C137.512 271.968 139.816 272.501 141.779 273.568C143.784 274.635 145.384 275.979 146.579 277.6V272.544H155.603V308H146.579V302.816C145.427 304.48 143.827 305.867 141.779 306.976C139.773 308.043 137.448 308.576 134.803 308.576C131.816 308.576 129.085 307.808 126.611 306.272C124.179 304.736 122.237 302.581 120.786 299.808C119.378 296.992 118.674 293.771 118.674 290.144ZM146.579 290.272C146.579 288.096 146.152 286.24 145.299 284.704C144.445 283.125 143.293 281.931 141.843 281.12C140.392 280.267 138.835 279.84 137.171 279.84C135.507 279.84 133.971 280.245 132.562 281.056C131.155 281.867 130.003 283.061 129.107 284.64C128.253 286.176 127.827 288.011 127.827 290.144C127.827 292.277 128.253 294.155 129.107 295.776C130.003 297.355 131.155 298.571 132.562 299.424C134.013 300.277 135.549 300.704 137.171 300.704C138.835 300.704 140.392 300.299 141.843 299.488C143.293 298.635 144.445 297.44 145.299 295.904C146.152 294.325 146.579 292.448 146.579 290.272ZM173.314 278.048C174.466 276.171 175.959 274.699 177.794 273.632C179.671 272.565 181.804 272.032 184.194 272.032V281.44H181.826C179.01 281.44 176.876 282.101 175.426 283.424C174.018 284.747 173.314 287.051 173.314 290.336V308H164.354V272.544H173.314V278.048ZM211.221 308L199.189 292.896V308H190.229V260.64H199.189V287.584L211.093 272.544H222.741L207.125 290.336L222.869 308H211.221ZM260.564 289.504C260.564 290.784 260.478 291.936 260.308 292.96H234.388C234.601 295.52 235.497 297.525 237.076 298.976C238.654 300.427 240.596 301.152 242.9 301.152C246.228 301.152 248.596 299.723 250.004 296.864H259.668C258.644 300.277 256.681 303.093 253.78 305.312C250.878 307.488 247.316 308.576 243.092 308.576C239.678 308.576 236.606 307.829 233.876 306.336C231.188 304.8 229.076 302.645 227.54 299.872C226.046 297.099 225.299 293.899 225.299 290.272C225.299 286.603 226.046 283.381 227.54 280.608C229.033 277.835 231.124 275.701 233.812 274.208C236.5 272.715 239.593 271.968 243.092 271.968C246.462 271.968 249.47 272.693 252.116 274.144C254.804 275.595 256.873 277.664 258.324 280.352C259.817 282.997 260.564 286.048 260.564 289.504ZM251.284 286.944C251.241 284.64 250.409 282.805 248.788 281.44C247.166 280.032 245.182 279.328 242.836 279.328C240.617 279.328 238.74 280.011 237.204 281.376C235.71 282.699 234.793 284.555 234.452 286.944H251.284ZM277.536 279.904V297.056C277.536 298.251 277.813 299.125 278.368 299.68C278.965 300.192 279.946 300.448 281.312 300.448H285.472V308H279.84C272.288 308 268.512 304.331 268.512 296.992V279.904H264.288V272.544H268.512V263.776H277.536V272.544H285.472V279.904H277.536ZM296.46 268.32C294.881 268.32 293.559 267.829 292.492 266.848C291.468 265.824 290.956 264.565 290.956 263.072C290.956 261.579 291.468 260.341 292.492 259.36C293.559 258.336 294.881 257.824 296.46 257.824C298.039 257.824 299.34 258.336 300.364 259.36C301.431 260.341 301.964 261.579 301.964 263.072C301.964 264.565 301.431 265.824 300.364 266.848C299.34 267.829 298.039 268.32 296.46 268.32ZM300.876 272.544V308H291.916V272.544H300.876ZM329.377 272.032C333.601 272.032 337.014 273.376 339.617 276.064C342.219 278.709 343.521 282.421 343.521 287.2V308H334.561V288.416C334.561 285.6 333.857 283.445 332.449 281.952C331.041 280.416 329.121 279.648 326.689 279.648C324.214 279.648 322.251 280.416 320.801 281.952C319.393 283.445 318.689 285.6 318.689 288.416V308H309.729V272.544H318.689V276.96C319.883 275.424 321.398 274.229 323.233 273.376C325.11 272.48 327.158 272.032 329.377 272.032ZM365.929 271.968C368.574 271.968 370.9 272.501 372.905 273.568C374.91 274.592 376.489 275.936 377.641 277.6V272.544H386.665V308.256C386.665 311.541 386.004 314.464 384.681 317.024C383.358 319.627 381.374 321.675 378.729 323.168C376.084 324.704 372.884 325.472 369.129 325.472C364.094 325.472 359.956 324.299 356.713 321.952C353.513 319.605 351.7 316.405 351.273 312.352H360.169C360.638 313.973 361.641 315.253 363.177 316.192C364.756 317.173 366.654 317.664 368.873 317.664C371.476 317.664 373.588 316.875 375.209 315.296C376.83 313.76 377.641 311.413 377.641 308.256V302.752C376.489 304.416 374.889 305.803 372.841 306.912C370.836 308.021 368.532 308.576 365.929 308.576C362.942 308.576 360.212 307.808 357.737 306.272C355.262 304.736 353.3 302.581 351.849 299.808C350.441 296.992 349.737 293.771 349.737 290.144C349.737 286.56 350.441 283.381 351.849 280.608C353.3 277.835 355.241 275.701 357.673 274.208C360.148 272.715 362.9 271.968 365.929 271.968ZM377.641 290.272C377.641 288.096 377.214 286.24 376.361 284.704C375.508 283.125 374.356 281.931 372.905 281.12C371.454 280.267 369.897 279.84 368.233 279.84C366.569 279.84 365.033 280.245 363.625 281.056C362.217 281.867 361.065 283.061 360.169 284.64C359.316 286.176 358.889 288.011 358.889 290.144C358.889 292.277 359.316 294.155 360.169 295.776C361.065 297.355 362.217 298.571 363.625 299.424C365.076 300.277 366.612 300.704 368.233 300.704C369.897 300.704 371.454 300.299 372.905 299.488C374.356 298.635 375.508 297.44 376.361 295.904C377.214 294.325 377.641 292.448 377.641 290.272Z" fill="url(#paint1_linear_141_53882)" fill-opacity="0.98"/>
</g>
<g filter="url(#filter1_d_141_53882)">
<circle cx="222.924" cy="133.641" r="15" transform="rotate(-147.035 222.924 133.641)" fill="url(#paint2_linear_141_53882)"/>
<path fill-rule="evenodd" clip-rule="evenodd" d="M226.292 146.947C218.585 148.892 210.766 144.489 208.355 137.034C208.385 137.198 208.418 137.362 208.453 137.525C210.679 145.269 218.666 149.903 226.537 147.917C234.407 145.931 239.24 138.063 237.526 130.19C237.479 130.029 237.431 129.87 237.38 129.711C238.793 137.418 233.999 145.003 226.292 146.947Z" fill="url(#paint3_linear_141_53882)"/>
<path fill-rule="evenodd" clip-rule="evenodd" d="M231.648 123.691C224.697 119.183 215.408 121.163 210.901 128.114C208.785 131.376 208.099 135.153 208.684 138.708C207.649 134.767 208.214 130.42 210.606 126.731C215.114 119.78 224.402 117.8 231.353 122.308C235.042 124.7 237.33 128.439 237.992 132.46C237.077 128.975 234.91 125.806 231.648 123.691Z" fill="url(#paint4_linear_141_53882)"/>
<path fill-rule="evenodd" clip-rule="evenodd" d="M234.173 241.321C234.968 241.261 235.762 241.168 236.554 241.042C240.023 239.992 243.384 238.472 246.541 236.481L249.678 234.504L298.518 201.425L307.206 195.54C316.207 189.444 315.936 176.097 306.696 170.371L304.553 169.043L264.827 145.05C259.812 142.022 253.494 142.189 248.648 145.479L245.56 147.575L245.334 147.251L194.403 181.225L178.129 191.38C164.986 199.58 148.361 199.665 135.148 191.643L156.338 206.616L156.177 206.724L164.983 212.947L201.853 236.07C204.67 237.837 207.649 239.23 210.721 240.249C218.285 242.892 226.446 243.249 234.173 241.321Z" fill="url(#paint5_linear_141_53882)"/>
<path fill-rule="evenodd" clip-rule="evenodd" d="M214.904 242.058C215.699 242.159 216.496 242.228 217.292 242.263C225.075 243.951 233.221 243.34 240.7 240.464C243.739 239.35 246.673 237.865 249.434 236.012L285.568 211.756L294.178 205.263L294.014 205.16L310.934 192.399L311.518 191.424C299.105 197.981 284.068 197.766 271.76 190.607L255.179 180.962L203.218 148.584L203.003 148.915L199.851 146.916C194.905 143.778 188.585 143.807 183.667 146.989L144.704 172.203L142.603 173.597C133.545 179.607 133.689 192.956 142.874 198.77L151.74 204.382L201.583 235.93L204.78 237.809C207.997 239.701 211.404 241.116 214.904 242.058Z" fill="url(#paint6_linear_141_53882)"/>
<path fill-rule="evenodd" clip-rule="evenodd" d="M311.202 191.911L301.448 199.268C290.929 202.233 279.46 200.921 269.704 195.246L253.122 185.601L201.162 153.224L200.946 153.555L197.795 151.556C192.849 148.418 186.528 148.446 181.61 151.629L142.647 176.842L140.546 178.236C138.593 179.533 137.067 181.171 135.968 183.001C136.706 179.298 138.841 175.828 142.381 173.479L144.482 172.085L183.445 146.871C188.363 143.689 194.683 143.66 199.629 146.798L202.781 148.797L202.996 148.466L254.957 180.844L271.538 190.489C283.968 197.719 299.18 197.867 311.662 191.11L311.202 191.911Z" fill="url(#paint7_linear_141_53882)"/>
<path fill-rule="evenodd" clip-rule="evenodd" d="M175.276 152.28L151.324 167.662L142.495 173.333C133.348 179.207 133.292 192.557 142.39 198.507L144.5 199.887L183.629 224.843C186.489 226.667 189.813 227.431 193.062 227.134C190.814 226.888 188.61 226.133 186.629 224.87L147.5 199.914L145.39 198.534C136.292 192.584 136.348 179.234 145.495 173.36L154.324 167.689L176.806 153.25L175.276 152.28Z" fill="url(#paint8_linear_141_53882)"/>
</g>
<defs>
<filter id="filter0_d_141_53882" x="59.416" y="257.824" width="331.249" height="75.6479" filterUnits="userSpaceOnUse" color-interpolation-filters="sRGB">
<feFlood flood-opacity="0" result="BackgroundImageFix"/>
<feColorMatrix in="SourceAlpha" type="matrix" values="0 0 0 0 0 0 0 0 0 0 0 0 0 0 0 0 0 0 127 0" result="hardAlpha"/>
<feOffset dy="4"/>
<feGaussianBlur stdDeviation="2"/>
<feComposite in2="hardAlpha" operator="out"/>
<feColorMatrix type="matrix" values="0 0 0 0 0 0 0 0 0 0 0 0 0 0 0 0 0 0 0.25 0"/>
<feBlend mode="normal" in2="BackgroundImageFix" result="effect1_dropShadow_141_53882"/>
<feBlend mode="normal" in="SourceGraphic" in2="effect1_dropShadow_141_53882" result="shape"/>
</filter>
<filter id="filter1_d_141_53882" x="127.148" y="115.639" width="194.646" height="140.555" filterUnits="userSpaceOnUse" color-interpolation-filters="sRGB">
<feFlood flood-opacity="0" result="BackgroundImageFix"/>
<feColorMatrix in="SourceAlpha" type="matrix" values="0 0 0 0 0 0 0 0 0 0 0 0 0 0 0 0 0 0 127 0" result="hardAlpha"/>
<feOffset dy="5"/>
<feGaussianBlur stdDeviation="4"/>
<feComposite in2="hardAlpha" operator="out"/>
<feColorMatrix type="matrix" values="0 0 0 0 0 0 0 0 0 0 0 0 0 0 0 0 0 0 0.25 0"/>
<feBlend mode="normal" in2="BackgroundImageFix" result="effect1_dropShadow_141_53882"/>
<feBlend mode="normal" in="SourceGraphic" in2="effect1_dropShadow_141_53882" result="shape"/>
</filter>
<linearGradient id="paint0_linear_141_53882" x1="-5.94921e-06" y1="256" x2="225" y2="716" gradientUnits="userSpaceOnUse">
<stop stop-color="#001EBD"/>
<stop offset="0.445" stop-color="#AE43E0"/>
<stop offset="1" stop-color="#D98AFF"/>
</linearGradient>
<linearGradient id="paint1_linear_141_53882" x1="-57.6356" y1="289.429" x2="425.835" y2="285.74" gradientUnits="userSpaceOnUse">
<stop stop-color="#000E57" stop-opacity="0.98"/>
<stop offset="0.49" stop-color="#6500DD"/>
<stop offset="1" stop-color="#C54AFF"/>
</linearGradient>
<linearGradient id="paint2_linear_141_53882" x1="241.924" y1="148.641" x2="200.424" y2="116.141" gradientUnits="userSpaceOnUse">
<stop stop-color="#B15500"/>
<stop offset="1" stop-color="#FFDD55"/>
</linearGradient>
<linearGradient id="paint3_linear_141_53882" x1="224.762" y1="147.347" x2="224.717" y2="143.742" gradientUnits="userSpaceOnUse">
<stop stop-color="white"/>
<stop offset="1" stop-color="white" stop-opacity="0"/>
</linearGradient>
<linearGradient id="paint4_linear_141_53882" x1="215.361" y1="116.817" x2="219.67" y2="128.551" gradientUnits="userSpaceOnUse">
<stop stop-color="#FFCC00"/>
<stop offset="1" stop-color="#FFCC00" stop-opacity="0"/>
</linearGradient>
<linearGradient id="paint5_linear_141_53882" x1="156.033" y1="216.372" x2="359.655" y2="158.206" gradientUnits="userSpaceOnUse">
<stop stop-color="#330086" stop-opacity="0.98"/>
<stop offset="0.311" stop-color="#6500DD"/>
<stop offset="1" stop-color="#D98AFF"/>
</linearGradient>
<linearGradient id="paint6_linear_141_53882" x1="294.621" y1="214.901" x2="89.2924" y2="163.081" gradientUnits="userSpaceOnUse">
<stop stop-color="#330086" stop-opacity="0.98"/>
<stop offset="0.311" stop-color="#6500DD"/>
<stop offset="1" stop-color="#D98AFF"/>
</linearGradient>
<linearGradient id="paint7_linear_141_53882" x1="294.399" y1="214.783" x2="89.0706" y2="162.962" gradientUnits="userSpaceOnUse">
<stop stop-color="#6500DD"/>
<stop offset="0.311" stop-color="#6500DD"/>
<stop offset="1" stop-color="#D98AFF"/>
</linearGradient>
<linearGradient id="paint8_linear_141_53882" x1="130.854" y1="186.426" x2="159.422" y2="178.907" gradientUnits="userSpaceOnUse">
<stop stop-color="white"/>
<stop offset="1" stop-color="white" stop-opacity="0"/>
</linearGradient>
</defs>
</svg>
